<?xml version="1.0" standalone="no"?>
<!DOCTYPE svg PUBLIC "-//W3C//DTD SVG 1.1//EN" "http://www.w3.org/Graphics/SVG/1.1/DTD/svg11.dtd" >
<svg>
<metadata>
Created by FontForge 20120731 at Sun Jun 30 20:39:57 2019
 By www
Copyright (c) 2015 by Marconi Lima/Typefolio Digital Foundry. All rights reserved.
</metadata>
<defs>
<font id="StevieSansW00-Medium" horiz-adv-x="585" >
  <font-face 
    font-family="StevieSansW00-Medium"
    font-weight="600"
    font-stretch="normal"
    units-per-em="1000"
    panose-1="2 0 5 3 5 0 0 2 0 4"
    ascent="800"
    descent="-200"
    x-height="517"
    cap-height="674"
    bbox="-52 -257 1312 929"
    underline-thickness="50"
    underline-position="-125"
    unicode-range="U+0020-FB02"
  />
<missing-glyph horiz-adv-x="690" 
d="M570 147l-185 185l185 186l-39 41l-186 -187l-186 187l-39 -41l185 -186l-185 -185l40 -41l185 186l185 -186zM45 -53v773h600v-773h-600z" />
    <glyph glyph-name="uniFB01" unicode="fi" horiz-adv-x="637" 
d="M435 0v418h-211v-418h-130v418h-75v99h75v38q0 29 5 60.5t24 57t56 42t100 16.5q9 0 30.5 -1.5t42.5 -6.5v-88h-57q-44 0 -57.5 -22.5t-13.5 -55.5v-40h341v-517h-130zM432 598v112h136v-112h-136z" />
    <glyph glyph-name="uniFB02" unicode="fl" horiz-adv-x="637" 
d="M94 0v418h-75v99h75v38q0 29 5 60.5t24 57t56 42t100 16.5q9 0 30.5 -1.5t42.5 -6.5v-88h-57q-44 0 -57.5 -22.5t-13.5 -55.5v-40h126v-99h-126v-418h-130zM435 0v720h130v-720h-130z" />
    <glyph glyph-name=".notdef" horiz-adv-x="690" 
d="M570 147l-185 185l185 186l-39 41l-186 -187l-186 187l-39 -41l185 -186l-185 -185l40 -41l185 186l185 -186zM45 -53v773h600v-773h-600z" />
    <glyph glyph-name=".null" horiz-adv-x="0" 
 />
    <glyph glyph-name="nonmarkingreturn" horiz-adv-x="333" 
 />
    <glyph glyph-name="space" unicode=" " horiz-adv-x="221" 
 />
    <glyph glyph-name="exclam" unicode="!" horiz-adv-x="276" 
d="M94 224l-23 193v278h134v-278l-23 -193h-88zM72 0v155h132v-155h-132z" />
    <glyph glyph-name="quotedbl" unicode="&#x22;" horiz-adv-x="388" 
d="M51 448l-14 124v163h118v-163l-14 -124h-90zM248 448l-14 124v163h117v-163l-14 -124h-89z" />
    <glyph glyph-name="numbersign" unicode="#" horiz-adv-x="746" 
d="M406 0l21 174h-144l-22 -174h-97l21 174h-125v93h137l18 145h-117v93h129l21 169h98l-22 -169h145l21 169h98l-22 -169h120v-93h-132l-18 -145h112v-93h-123l-22 -174h-97zM457 412h-145l-18 -145h145z" />
    <glyph glyph-name="dollar" unicode="$" horiz-adv-x="625" 
d="M287 -143v142q-32 2 -74 11.5t-80.5 34t-66.5 68t-31 114.5h132q1 -36 15 -60.5t36 -39t49 -20.5t56 -6q26 0 49.5 5t41 15t27.5 26t10 38q0 39 -29.5 59t-73.5 33t-95 24.5t-95 32.5t-73.5 58t-29.5 101q0 46 19 80t51 57t74 36t88 16v144h87v-146q32 -5 67.5 -17
t65.5 -36t51 -62t24 -95h-133q-2 36 -16 58.5t-34 34.5t-43.5 16.5t-45.5 4.5t-43.5 -4.5t-38 -14t-27 -25t-10.5 -36.5q0 -28 17 -46t45 -30t63.5 -21t72.5 -18.5t72.5 -22.5t63.5 -34t45 -52t17 -76q0 -77 -53 -132.5t-160 -68.5v-146h-87z" />
    <glyph glyph-name="percent" unicode="%" horiz-adv-x="929" 
d="M396 510q0 -75 -47 -119.5t-132 -44.5t-132 44.5t-47 119.5t47 119.5t132 44.5t132 -44.5t47 -119.5zM217 420q33 0 50.5 24t17.5 66q0 43 -17.5 67t-50.5 24q-34 0 -51.5 -24t-17.5 -67q0 -42 17.5 -66t51.5 -24zM227 0l402 698h82l-402 -698h-82zM892 164
q0 -75 -47 -119.5t-132 -44.5t-132 44.5t-47 119.5t47 119.5t132 44.5t132 -44.5t47 -119.5zM713 74q33 0 50.5 23.5t17.5 66.5t-17.5 67t-50.5 24q-34 0 -51.5 -24t-17.5 -67t17.5 -66.5t51.5 -23.5z" />
    <glyph glyph-name="ampersand" unicode="&#x26;" horiz-adv-x="660" 
d="M486 0l-28 33q-33 -26 -75 -35t-84 -9q-53 0 -99 14t-80 39.5t-53.5 61.5t-19.5 81q0 58 32 108t95 79q-4 5 -8 10.5t-7 10.5q-22 30 -35.5 61t-13.5 67q0 40 17 71.5t46.5 53.5t68 33.5t82.5 11.5t82.5 -12t67.5 -35.5t45.5 -58.5t16.5 -81h-130q0 46 -22 66.5t-59 20.5
q-38 0 -57 -22t-19 -60q0 -20 4.5 -36t13 -31t20 -30t26.5 -32l169 -205q17 29 25.5 68.5t8.5 85.5h106q0 -18 -2.5 -46.5t-10.5 -61t-23 -65.5t-40 -59l80 -97h-140zM228 307q-27 -19 -37.5 -44t-10.5 -58q0 -56 40 -89t101 -33q20 0 41 6t35 17z" />
    <glyph glyph-name="quotesingle" unicode="'" horiz-adv-x="192" 
d="M51 448l-14 124v163h118v-163l-14 -124h-90z" />
    <glyph glyph-name="parenleft" unicode="(" horiz-adv-x="299" 
d="M181 -207q-69 100 -108 221.5t-39 250.5q0 132 39 251t111 219h105q-27 -42 -51.5 -94.5t-42.5 -112t-28.5 -126t-10.5 -137.5q0 -69 10.5 -135.5t28 -127t41.5 -113.5t51 -96h-106z" />
    <glyph glyph-name="parenright" unicode=")" horiz-adv-x="299" 
d="M12 -207q27 43 51 96t42 113.5t28 127t10 135.5q0 71 -10.5 137.5t-28.5 126t-42.5 112t-51.5 94.5h106q71 -100 110 -219t39 -251q0 -129 -39 -250.5t-108 -221.5h-106z" />
    <glyph glyph-name="asterisk" unicode="*" horiz-adv-x="472" 
d="M273 452v-132h-75v132l-113 -62l-35 68l107 59l-106 58l34 68l113 -62v132h75v-131l114 61l35 -68l-108 -58l107 -59l-34 -68z" />
    <glyph glyph-name="plus" unicode="+" horiz-adv-x="586" 
d="M346 217v-171h-106v171h-173v101h173v173h106v-173h173v-101h-173z" />
    <glyph glyph-name="comma" unicode="," horiz-adv-x="214" 
d="M43 -155v302h128q0 -30 -1 -61.5t-6 -67.5t-15.5 -78.5t-28.5 -94.5h-77z" />
    <glyph glyph-name="hyphen" unicode="-" horiz-adv-x="532" 
d="M75 221v93h382v-93h-382z" />
    <glyph glyph-name="period" unicode="." horiz-adv-x="217" 
d="M43 0v160h131v-160h-131z" />
    <glyph glyph-name="slash" unicode="/" horiz-adv-x="368" 
d="M-1 -202l253 941h117l-253 -941h-117z" />
    <glyph glyph-name="zero" unicode="0" horiz-adv-x="689" 
d="M345 -13q-68 0 -122.5 24t-93 69t-59 110t-20.5 147q0 81 20.5 145.5t59 109.5t93 69t122.5 24q67 0 122 -24t93 -69t59 -109.5t21 -145.5q0 -82 -21 -147t-59 -110t-93 -69t-122 -24zM345 98q78 0 119 62.5t41 176.5q0 113 -41 176t-119 63t-119 -63t-41 -176
q0 -114 41 -176.5t119 -62.5z" />
    <glyph glyph-name="one" unicode="1" horiz-adv-x="535" 
d="M247 0v553l-176 -89v118l177 92h132v-674h-133z" />
    <glyph glyph-name="two" unicode="2" horiz-adv-x="616" 
d="M49 0v90q59 51 123.5 96.5t118 91.5t88.5 95.5t35 106.5q0 51 -26.5 80.5t-85.5 29.5q-21 0 -41.5 -5t-37.5 -19.5t-28 -41.5t-11 -72h-133q1 72 26.5 117t63.5 71t81.5 35.5t80.5 9.5q61 0 107 -15.5t76.5 -42.5t45.5 -64.5t15 -82.5q0 -60 -31.5 -113.5t-77 -100
t-98 -86t-94.5 -73.5h315v-107h-512z" />
    <glyph glyph-name="three" unicode="3" horiz-adv-x="613" 
d="M214 298v92h59q66 0 104 25.5t38 84.5q0 44 -29 67t-80 23q-21 0 -42 -5t-37.5 -19t-27 -39t-10.5 -65h-132q1 67 26.5 110.5t63 68.5t80 34.5t78.5 9.5q53 0 97 -11.5t76 -34t50 -54.5t18 -72q0 -66 -31.5 -104.5t-94.5 -52.5q30 -4 56.5 -16t46.5 -32.5t31.5 -50.5
t11.5 -69q0 -44 -18 -81t-51.5 -63.5t-81.5 -41.5t-107 -15q-44 0 -89 10t-82.5 35.5t-61.5 69t-25 109.5h134q0 -35 10 -59.5t27 -39.5t39.5 -21.5t48.5 -6.5q58 0 90.5 28t32.5 81q0 30 -12.5 50.5t-33.5 32.5t-50 17t-62 5h-60z" />
    <glyph glyph-name="four" unicode="4" horiz-adv-x="634" 
d="M370 0v142h-330v101l269 431h192v-430h98v-102h-98v-142h-131zM370 578l-213 -334h213v334z" />
    <glyph glyph-name="five" unicode="5" horiz-adv-x="611" 
d="M213 573l-17 -175q40 30 78.5 40t74.5 10q53 0 93.5 -17t67.5 -47t41 -71t14 -89q0 -52 -17.5 -95.5t-50.5 -75t-82 -49t-112 -17.5q-43 0 -88 10t-81.5 35.5t-60 69t-23.5 109.5h131q0 -35 10 -59.5t27 -39.5t39 -22t47 -7q63 0 95 38.5t32 96.5q0 57 -28.5 96.5
t-88.5 39.5q-35 0 -62.5 -12.5t-55.5 -42.5l-118 5l29 370h415v-101h-309z" />
    <glyph glyph-name="six" unicode="6" horiz-adv-x="625" 
d="M431 509q0 42 -26 62.5t-74 20.5q-66 0 -105 -54t-44 -180q33 35 77.5 53.5t93.5 18.5q54 0 96 -16.5t70.5 -45.5t43.5 -69t15 -87t-18 -88t-51.5 -71.5t-81 -48t-105.5 -17.5q-68 0 -119 24.5t-85 68t-51 102.5t-17 127q0 98 21.5 169t59.5 117t91 68t115 22
q48 0 89 -11t71.5 -33.5t47.5 -55.5t17 -76h-131zM183 258q1 -36 10.5 -68t26 -55.5t41.5 -37.5t58 -14q63 0 95 36t32 87q0 55 -28 93t-89 38q-37 0 -75 -17t-71 -62z" />
    <glyph glyph-name="seven" unicode="7" horiz-adv-x="533" 
d="M73 0q48 143 119.5 285t164.5 284h-344v105h493v-88q-97 -135 -172.5 -285t-123.5 -301h-137z" />
    <glyph glyph-name="eight" unicode="8" horiz-adv-x="617" 
d="M435 353q66 -17 101 -64t35 -109q0 -42 -18.5 -77.5t-52.5 -61t-82.5 -40t-108.5 -14.5t-109 14.5t-83 40t-52.5 61t-18.5 77.5q0 62 35 109t100 64q-32 10 -54 26.5t-35.5 36.5t-19.5 43.5t-6 48.5q0 38 17.5 70.5t49.5 56t77 37t99 13.5t99 -13.5t76.5 -37t49 -56
t17.5 -70.5q0 -50 -26 -92.5t-90 -62.5zM434 189q0 56 -35 86.5t-90 30.5q-56 0 -91 -30.5t-35 -86.5q0 -46 33 -78t93 -32q59 0 92 32.5t33 77.5zM418 499q0 44 -27.5 72t-81.5 28t-82 -28t-28 -72q0 -42 28 -71.5t82 -29.5t81.5 29.5t27.5 71.5z" />
    <glyph glyph-name="nine" unicode="9" horiz-adv-x="625" 
d="M192 165q0 -42 27.5 -63t78.5 -21q64 0 102 54t42 179q-33 -35 -77.5 -53.5t-93.5 -18.5q-54 0 -95.5 16.5t-70 45.5t-43.5 69t-15 88q0 47 18.5 88t52 71t81 47.5t105.5 17.5q68 0 119 -25t84.5 -68.5t50.5 -102t17 -125.5q0 -97 -21 -168t-58.5 -117.5t-90 -69
t-114.5 -22.5q-50 0 -92 11.5t-72.5 34t-47.5 55.5t-17 77h130zM442 415q-2 36 -11 68t-26 55.5t-41.5 37.5t-56.5 14q-63 0 -95.5 -36t-32.5 -88q0 -27 7 -51t21.5 -41.5t36.5 -27.5t53 -10q36 0 74 16.5t71 62.5z" />
    <glyph glyph-name="colon" unicode=":" horiz-adv-x="217" 
d="M43 368v160h131v-160h-131zM43 0v160h131v-160h-131z" />
    <glyph glyph-name="semicolon" unicode=";" horiz-adv-x="217" 
d="M45 -157v304h128q0 -30 -1 -61.5t-6.5 -68t-16 -79.5t-28.5 -95h-76zM43 368v160h131v-160h-131z" />
    <glyph glyph-name="less" unicode="&#x3c;" horiz-adv-x="557" 
d="M67 215v125l423 214v-117l-309 -160l309 -160v-117z" />
    <glyph glyph-name="equal" unicode="=" horiz-adv-x="586" 
d="M67 324v109h452v-109h-452zM67 103v110h452v-110h-452z" />
    <glyph glyph-name="greater" unicode="&#x3e;" horiz-adv-x="557" 
d="M67 0v117l308 160l-308 160v117l423 -214v-125z" />
    <glyph glyph-name="question" unicode="?" horiz-adv-x="510" 
d="M148 222q0 42 14 73.5t35.5 56t46 44t46 38t35.5 38t14 43.5t-8.5 40t-21.5 25t-30 13t-33 4q-14 0 -31.5 -2.5t-32.5 -11t-26.5 -25t-13.5 -45.5h-125q4 62 30 99t61 57t73 26.5t65 6.5q46 0 86.5 -10.5t70.5 -32t47 -55t17 -79.5q0 -41 -14.5 -69.5t-35.5 -51
t-46.5 -41t-46.5 -38.5t-35.5 -44.5t-14.5 -58.5h-126zM143 0v155h136v-155h-136z" />
    <glyph glyph-name="at" unicode="@" horiz-adv-x="940" 
d="M691 -109q-59 -31 -117.5 -42t-110.5 -11q-85 0 -161.5 28t-134.5 81.5t-92 132.5t-34 181q0 103 40.5 184t106 137t148 85.5t167.5 29.5q75 0 146.5 -21.5t127 -65t89 -108t33.5 -150.5q0 -52 -16 -106.5t-48 -99.5t-79 -74t-109 -29q-15 0 -31.5 3.5t-31 13.5t-24.5 27
t-12 43q-26 -53 -67.5 -78t-96.5 -25q-33 0 -63 15t-51.5 45.5t-31.5 76.5t-3 108q7 61 26.5 105.5t47 73t62 42t70.5 13.5q54 0 91.5 -29t54.5 -83l23 94h92l-43 -305q-5 -36 5 -48.5t28 -12.5q29 0 52.5 20t39.5 52t24.5 73t8.5 82q0 73 -27 125.5t-71.5 85.5t-101 48.5
t-114.5 15.5q-65 0 -131 -21.5t-119.5 -66t-87.5 -113t-34 -162.5q0 -90 29.5 -156t78 -109.5t111 -64.5t128.5 -21q58 0 114.5 13t113.5 47zM435 111q49 0 82 38.5t43 116.5q10 79 -14.5 118t-72.5 39q-45 0 -77 -37.5t-42 -118.5q-9 -78 15 -117t66 -39z" />
    <glyph glyph-name="A" unicode="A" horiz-adv-x="705" 
d="M545 0l-60 169h-268l-58 -169h-139l247 674h172l246 -674h-140zM351 560l-101 -285h201z" />
    <glyph glyph-name="B" unicode="B" horiz-adv-x="632" 
d="M75 0v674h238q126 0 191.5 -40t65.5 -126q0 -27 -7.5 -52t-23.5 -45.5t-41 -35.5t-60 -22q74 -11 113 -55.5t39 -104.5q0 -39 -15 -74.5t-45 -61.5t-75 -41.5t-105 -15.5h-275zM322 94q63 0 97.5 27t34.5 81q0 26 -12 45t-33 31.5t-50 18.5t-63 6h-88v-209h114zM296 392
q31 0 57 5t45 16t29.5 30t10.5 47q0 30 -12 48t-32 28t-46.5 13.5t-55.5 3.5h-84v-191h88z" />
    <glyph glyph-name="C" unicode="C" horiz-adv-x="702" 
d="M658 216q-24 -109 -98.5 -169t-188.5 -60q-75 0 -134.5 24t-101 69t-64 110t-22.5 147q0 81 22.5 145.5t64.5 109.5t101.5 69t133.5 24q115 0 190 -60t98 -168h-137q-15 57 -53 88t-98 31q-92 0 -139.5 -63.5t-47.5 -175.5t47.5 -175t139.5 -63q60 0 98 30t52 87h137z
" />
    <glyph glyph-name="D" unicode="D" horiz-adv-x="716" 
d="M75 0v674h246q82 0 147 -25t110 -69t69 -105t24 -133q0 -70 -23.5 -132t-68.5 -108.5t-109.5 -74t-145.5 -27.5h-249zM320 110q53 0 93.5 18t67.5 49.5t41 74t14 90.5q0 50 -14 91.5t-41.5 71.5t-68.5 46.5t-95 16.5h-109v-458h112z" />
    <glyph glyph-name="E" unicode="E" horiz-adv-x="543" 
d="M75 0v674h411v-107h-278v-173h259v-102h-259v-183h290v-109h-423z" />
    <glyph glyph-name="F" unicode="F" horiz-adv-x="521" 
d="M75 0v674h402v-107h-269v-179h250v-107h-250v-281h-133z" />
    <glyph glyph-name="G" unicode="G" horiz-adv-x="722" 
d="M579 0l-12 110q-17 -33 -40 -56.5t-50 -38t-56.5 -21.5t-57.5 -7q-71 0 -129 24t-99 69t-63.5 109.5t-22.5 146.5q0 81 23 146t65 110t102 69t134 24q115 0 189 -59t95 -165h-137q-14 55 -51 85t-96 30q-94 0 -141.5 -63.5t-47.5 -176.5q0 -115 47.5 -179.5t140.5 -64.5
q66 0 109 43.5t43 124.5v9h-145v90h286v-359h-86z" />
    <glyph glyph-name="H" unicode="H" horiz-adv-x="714" 
d="M506 0v286h-298v-286h-133v674h133v-273h298v273h133v-674h-133z" />
    <glyph glyph-name="I" unicode="I" horiz-adv-x="283" 
d="M75 0v674h133v-674h-133z" />
    <glyph glyph-name="J" unicode="J" horiz-adv-x="375" 
d="M3 96h83q47 0 64 28t17 90v460h133v-457q0 -36 -3 -76.5t-19 -74.5t-49.5 -56.5t-93.5 -22.5q-7 0 -43 1.5t-89 11.5v96z" />
    <glyph glyph-name="K" unicode="K" horiz-adv-x="658" 
d="M489 0l-218 283l-63 -67v-216h-133v674h133v-290l269 290h159l-276 -295l294 -379h-165z" />
    <glyph glyph-name="L" unicode="L" horiz-adv-x="508" 
d="M75 0v674h133v-565h285v-109h-418z" />
    <glyph glyph-name="M" unicode="M" horiz-adv-x="905" 
d="M697 0v534l-190 -534h-113l-187 534v-534h-132v674h197l181 -526l182 526h195v-674h-133z" />
    <glyph glyph-name="N" unicode="N" horiz-adv-x="728" 
d="M509 0l-301 468v-468h-133v674h139l306 -479v479h133v-674h-144z" />
    <glyph glyph-name="O" unicode="O" horiz-adv-x="752" 
d="M376 -13q-75 0 -135.5 24t-103 69t-65.5 110t-23 147q0 81 23 145.5t65.5 109.5t103 69t135.5 24t135.5 -24t103 -69t65.5 -109.5t23 -145.5q0 -82 -23 -147t-65.5 -110t-103 -69t-135.5 -24zM376 99q95 0 143.5 63t48.5 175t-48.5 175.5t-143.5 63.5t-143.5 -63.5
t-48.5 -175.5t48.5 -175t143.5 -63z" />
    <glyph glyph-name="P" unicode="P" horiz-adv-x="622" 
d="M75 0v674h245q58 0 105.5 -13.5t81 -40t52 -67t18.5 -94.5q0 -53 -18.5 -93.5t-52 -69t-81 -43t-104.5 -14.5h-113v-239h-133zM311 345q60 0 95.5 28t35.5 86q0 33 -10.5 54t-30 33.5t-48 17t-63.5 4.5h-82v-223h103z" />
    <glyph glyph-name="Q" unicode="Q" horiz-adv-x="751" 
d="M706 -57q-40 11 -78 19t-77 13.5t-81.5 8.5t-92.5 3q-75 0 -136 24t-103.5 69t-65.5 110t-23 147q0 81 23 145.5t65.5 109.5t103 69t136.5 24q75 0 135.5 -24t103 -69t65.5 -109.5t23 -145.5q0 -92 -33 -161t-94 -111q37 -3 75 -7t76 -9zM377 99q94 0 143 63t49 175
t-49 175.5t-143 63.5q-97 0 -145 -63.5t-48 -175.5t48.5 -175t144.5 -63z" />
    <glyph glyph-name="R" unicode="R" horiz-adv-x="621" 
d="M455 0l-130 255h-117v-255h-133v674h244q59 0 106.5 -13t81.5 -39t52 -64t18 -89q0 -69 -33.5 -117t-92.5 -71l143 -281h-139zM313 361q60 0 94.5 27t34.5 81q0 49 -33.5 74t-96.5 25h-104v-207h105z" />
    <glyph glyph-name="S" unicode="S" horiz-adv-x="625" 
d="M449 471q-3 36 -16.5 58t-33.5 34.5t-43.5 17t-45.5 4.5t-43.5 -4.5t-38 -14t-27 -24.5t-10.5 -37q0 -29 17 -47.5t45 -31.5t63.5 -22t72.5 -19t72.5 -23.5t63.5 -35t45 -54t17 -79.5q0 -44 -17 -81.5t-51 -65t-86.5 -43.5t-122.5 -16q-19 0 -46 2.5t-57 11t-59.5 24
t-54 41t-40.5 62.5t-18 88h132q1 -36 15.5 -60.5t36 -39t49 -20.5t55.5 -6q26 0 49.5 5t41 15t27.5 26t10 39q0 30 -17 48.5t-45 31t-63.5 21.5t-72.5 19t-72.5 23.5t-63.5 36t-45 56t-17 83.5q0 51 22.5 87t60 59.5t86.5 34t101 10.5q32 0 75 -8t82 -31t68 -65t32 -110
h-133z" />
    <glyph glyph-name="T" unicode="T" horiz-adv-x="577" 
d="M222 0v567h-205v107h543v-107h-205v-567h-133z" />
    <glyph glyph-name="U" unicode="U" horiz-adv-x="698" 
d="M498 674h131v-419q0 -67 -20.5 -117t-57.5 -83.5t-88.5 -50.5t-113.5 -17q-63 0 -114.5 17t-88.5 50.5t-57 83.5t-20 117v419h133v-414q0 -82 40.5 -121.5t106.5 -39.5q69 0 109 39.5t40 121.5v414z" />
    <glyph glyph-name="V" unicode="V" horiz-adv-x="682" 
d="M281 0l-262 674h139l185 -525l183 525h137l-260 -674h-122z" />
    <glyph glyph-name="W" unicode="W" horiz-adv-x="1021" 
d="M636 0l-128 513l-126 -513h-167l-200 674h143l147 -528l125 528h167l123 -526l149 526h137l-201 -674h-169z" />
    <glyph glyph-name="X" unicode="X" horiz-adv-x="654" 
d="M490 0l-166 285l-159 -285h-155l208 344l-192 330h153l153 -274l149 274h150l-195 -330l208 -344h-154z" />
    <glyph glyph-name="Y" unicode="Y" horiz-adv-x="626" 
d="M246 0v260l-243 414h141l170 -314l171 314h138l-244 -413v-261h-133z" />
    <glyph glyph-name="Z" unicode="Z" horiz-adv-x="595" 
d="M46 0v106l338 463h-322v105h473v-103l-338 -464h354v-107h-505z" />
    <glyph glyph-name="bracketleft" unicode="[" horiz-adv-x="341" 
d="M39 -203v942h291v-102h-174v-736h175v-104h-292z" />
    <glyph glyph-name="backslash" unicode="\" horiz-adv-x="368" 
d="M252 -202l-253 941h117l253 -941h-117z" />
    <glyph glyph-name="bracketright" unicode="]" horiz-adv-x="341" 
d="M10 -203v104h175v736h-174v102h291v-942h-292z" />
    <glyph glyph-name="asciicircum" unicode="^" horiz-adv-x="655" 
d="M477 230l-149 321l-150 -321h-111l201 426h120l200 -426h-111z" />
    <glyph glyph-name="underscore" unicode="_" horiz-adv-x="679" 
d="M0 -140v93h679v-93h-679z" />
    <glyph glyph-name="grave" unicode="`" horiz-adv-x="361" 
d="M206 564l-148 177h139l106 -177h-97z" />
    <glyph glyph-name="a" unicode="a" horiz-adv-x="580" 
d="M567 0q-22 -6 -43 -9t-35 -3q-63 0 -89.5 22.5t-27.5 78.5q-14 -30 -33 -49.5t-40.5 -31t-44.5 -16t-44 -4.5q-27 0 -57 7t-55.5 24.5t-42.5 47.5t-17 77q0 51 20 82t54 48.5t78.5 24t92.5 8.5l83 3v44q0 18 -4 33t-14 26.5t-27.5 18t-44.5 6.5q-15 0 -30.5 -3t-29 -11.5
t-23 -23.5t-11.5 -39l-126 10q4 46 26.5 76t54.5 48t69 25.5t70 7.5q118 0 169 -45.5t51 -125.5v-202q0 -40 7 -54.5t34 -14.5h30v-86zM366 235l-85 -3q-23 -1 -43.5 -4.5t-35.5 -12.5t-24 -24t-9 -38t9.5 -36.5t22.5 -20.5t27.5 -9t24.5 -2q22 0 42 8.5t36 25t25.5 42
t9.5 58.5v16z" />
    <glyph glyph-name="b" unicode="b" horiz-adv-x="609" 
d="M72 0v720h130v-224l-5 -74q27 57 70.5 81.5t97.5 24.5q42 0 79 -15.5t64.5 -48.5t43.5 -84t16 -121q0 -73 -16 -124.5t-44 -84t-64.5 -47.5t-78.5 -15q-55 0 -98.5 25t-70.5 85v-98h-124zM322 85q24 0 44.5 10t36 31t24 54t8.5 79q0 90 -32.5 131t-80.5 41
q-56 0 -88.5 -40t-32.5 -132q0 -94 33 -134t88 -40z" />
    <glyph glyph-name="c" unicode="c" horiz-adv-x="563" 
d="M524 184q-14 -94 -73.5 -145t-156.5 -51q-59 0 -106 18t-79.5 52.5t-50 83.5t-17.5 112q0 65 17.5 116t50.5 86t80 53.5t105 18.5q96 0 156 -49.5t74 -141.5l-131 -6q-15 100 -99 100q-60 0 -90 -45t-30 -128t30 -127.5t90 -44.5q83 0 100 98h130z" />
    <glyph glyph-name="d" unicode="d" horiz-adv-x="609" 
d="M413 0v99q-29 -60 -72 -85.5t-97 -25.5q-42 0 -78.5 15t-64.5 47.5t-44 84t-16 124.5q0 70 16 121t44 84t64.5 48.5t78.5 15.5q54 0 97.5 -24t69.5 -81l-4 73v224h130v-720h-124zM287 85q55 0 88 40t33 134q0 92 -33 132t-88 40q-48 0 -80.5 -41t-32.5 -131
q0 -46 8.5 -79t24 -54t36 -31t44.5 -10z" />
    <glyph glyph-name="e" unicode="e" 
d="M180 230q3 -70 33 -107t86 -37q47 0 72 21t33 56h130q-17 -82 -75.5 -128.5t-155.5 -46.5q-120 0 -188.5 70t-68.5 196q0 65 18 116t52 86t81 53.5t106 18.5q109 0 172.5 -64.5t63.5 -190.5l-3 -43h-356zM405 310q-5 57 -28.5 89t-77.5 32q-51 0 -80 -31.5t-37 -89.5h223
z" />
    <glyph glyph-name="f" unicode="f" horiz-adv-x="355" 
d="M94 0v418h-75v99h75v38q0 29 5 60.5t24 57t56 42t100 16.5q9 0 30.5 -1.5t42.5 -6.5v-88h-57q-44 0 -57.5 -22.5t-13.5 -55.5v-40h126v-99h-126v-418h-130z" />
    <glyph glyph-name="g" unicode="g" horiz-adv-x="608" 
d="M407 21l7 96q-27 -61 -71 -86t-99 -25q-42 0 -79 15t-64.5 46.5t-43.5 80t-16 114.5q0 72 16 122.5t44 82.5t64.5 46.5t78.5 14.5q54 0 98 -25t71 -85v99h124v-508q0 -33 -8 -72t-34 -72.5t-74.5 -56t-129.5 -22.5q-30 0 -68 8t-72.5 28t-60 54t-30.5 87l126 6
q3 -45 34 -67.5t74 -22.5q36 0 58 10.5t34.5 27.5t16.5 39.5t4 46.5v18zM287 104q55 0 88 37.5t33 121.5q0 91 -33 129.5t-88 38.5q-48 0 -80.5 -40t-32.5 -128q0 -82 32.5 -120.5t80.5 -38.5z" />
    <glyph glyph-name="h" unicode="h" horiz-adv-x="610" 
d="M410 0v313q0 51 -22.5 80t-67.5 29q-54 0 -86 -40.5t-32 -112.5v-269h-130v720h130v-224l-6 -84q27 60 71 88t103 28q33 0 63.5 -9.5t54 -29t38 -51t14.5 -74.5v-364h-130z" />
    <glyph glyph-name="i" unicode="i" horiz-adv-x="274" 
d="M72 0v517h130v-517h-130zM69 598v112h136v-112h-136z" />
    <glyph glyph-name="j" unicode="j" horiz-adv-x="274" 
d="M-52 -103h58q41 0 53.5 26t12.5 84v510h130v-511q0 -48 -5 -88.5t-24 -70t-55 -45.5t-99 -16q-6 0 -27 1.5t-44 6.5v103zM69 598v112h136v-112h-136z" />
    <glyph glyph-name="k" unicode="k" horiz-adv-x="578" 
d="M421 0l-151 247l-68 -64v-183h-130v720h130v-388l197 185h158l-195 -181l202 -336h-143z" />
    <glyph glyph-name="l" unicode="l" horiz-adv-x="274" 
d="M72 0v720h130v-720h-130z" />
    <glyph glyph-name="m" unicode="m" horiz-adv-x="912" 
d="M712 0v313q0 51 -20.5 80t-62.5 29q-48 0 -77.5 -40.5t-29.5 -112.5v-269h-130v313q0 51 -20.5 80t-62.5 29q-48 0 -77.5 -40.5t-29.5 -112.5v-269h-130v517h124v-104q26 61 67.5 88t95.5 27q26 0 51 -6.5t46 -20.5t36.5 -35.5t23.5 -51.5q26 60 67 87t96 27
q31 0 60.5 -9.5t52 -29t36.5 -51t14 -74.5v-364h-130z" />
    <glyph glyph-name="n" unicode="n" horiz-adv-x="610" 
d="M410 0v313q0 51 -22.5 80t-67.5 29q-54 0 -86 -40.5t-32 -112.5v-269h-130v517h124v-104q28 62 72.5 88.5t101.5 26.5q33 0 63.5 -9.5t54 -29t38 -51t14.5 -74.5v-364h-130z" />
    <glyph glyph-name="o" unicode="o" 
d="M293 -12q-58 0 -104.5 18.5t-79.5 53t-50.5 85t-17.5 113.5q0 64 17.5 114t50.5 84.5t79.5 53t104.5 18.5t104.5 -18.5t79 -53t50 -84.5t17.5 -114q0 -63 -17.5 -113.5t-50 -85t-79 -53t-104.5 -18.5zM293 86q60 0 89 44.5t29 127.5t-29 128t-89 45t-89.5 -45t-29.5 -128
t29.5 -127.5t89.5 -44.5z" />
    <glyph glyph-name="p" unicode="p" horiz-adv-x="609" 
d="M72 -212v729h124v-100q27 60 70.5 85.5t98.5 25.5q42 0 78.5 -15t64.5 -47.5t44 -83.5t16 -124q0 -71 -16 -122t-43.5 -84t-64.5 -48.5t-79 -15.5q-54 0 -97 23.5t-70 80.5l4 -80v-224h-130zM322 86q48 0 80.5 41t32.5 131q0 91 -32.5 132t-80.5 41q-55 0 -88 -39.5
t-33 -133.5q0 -92 32.5 -132t88.5 -40z" />
    <glyph glyph-name="q" unicode="q" horiz-adv-x="609" 
d="M407 -212v224l3 81q-26 -56 -69 -80.5t-97 -24.5q-42 0 -78.5 15.5t-64.5 48.5t-44 84t-16 122q0 72 16 123.5t44 84t64.5 47.5t78.5 15q54 0 98 -25t71 -85v99h124v-729h-130zM287 86q55 0 88 40t33 132q0 94 -33 133.5t-88 39.5q-48 0 -80.5 -41t-32.5 -132
q0 -90 32.5 -131t80.5 -41z" />
    <glyph glyph-name="r" unicode="r" horiz-adv-x="384" 
d="M72 0v517h124v-106q24 64 60 90.5t78 26.5q8 0 20 -1t22 -5v-111h-56q-53 0 -85.5 -35.5t-32.5 -108.5v-267h-130z" />
    <glyph glyph-name="s" unicode="s" horiz-adv-x="517" 
d="M351 366q-4 44 -29.5 60.5t-60.5 16.5q-33 0 -58 -11.5t-25 -40.5t22.5 -44.5t56 -26t72.5 -21t72.5 -28t56 -47.5t22.5 -80q0 -72 -59 -114t-165 -42q-25 0 -61 5.5t-70 23t-59.5 50.5t-30.5 87h126q2 -22 11.5 -36.5t23 -23t30.5 -12t35 -3.5q47 0 68.5 14.5t21.5 40.5
q0 28 -22.5 43t-55.5 26t-72.5 21t-72.5 28t-55.5 47.5t-22.5 79.5q0 38 18.5 66t48 46.5t67 27.5t75.5 9q31 0 66.5 -5.5t66.5 -22t54 -48t29 -82.5z" />
    <glyph glyph-name="t" unicode="t" horiz-adv-x="372" 
d="M347 -1q-10 -3 -20.5 -5.5t-20.5 -3.5t-17 -1.5t-10 -0.5q-64 0 -101 16t-56 44.5t-24.5 69t-5.5 88.5v210h-74v99h74v132h130v-132h125v-99h-125v-210q0 -57 13.5 -82t58.5 -25h53v-100z" />
    <glyph glyph-name="u" unicode="u" horiz-adv-x="610" 
d="M414 0v103q-28 -60 -71.5 -87.5t-100.5 -27.5q-34 0 -64.5 9.5t-54 29.5t-37.5 51.5t-14 76.5v362h130v-312q0 -53 21.5 -81.5t68.5 -28.5q52 0 84 40t32 112v270h130v-517h-124z" />
    <glyph glyph-name="v" unicode="v" horiz-adv-x="563" 
d="M208 0l-193 517h138l130 -399l130 399h135l-194 -517h-146z" />
    <glyph glyph-name="w" unicode="w" horiz-adv-x="842" 
d="M524 0l-102 384l-102 -384h-146l-158 517h139l99 -383l96 383h147l96 -384l98 384h135l-157 -517h-145z" />
    <glyph glyph-name="x" unicode="x" horiz-adv-x="537" 
d="M385 0l-119 201l-117 -201h-135l164 266l-152 251h135l110 -191l109 191h132l-154 -251l165 -266h-138z" />
    <glyph glyph-name="y" unicode="y" horiz-adv-x="552" 
d="M116 -212l92 233l-193 496h138l122 -365l126 365h136l-294 -729h-127z" />
    <glyph glyph-name="z" unicode="z" horiz-adv-x="514" 
d="M46 0v87l253 332h-246v98h409v-86l-253 -332h260v-99h-423z" />
    <glyph glyph-name="braceleft" unicode="{" horiz-adv-x="413" 
d="M402 -203q-72 0 -125 8t-87.5 29t-51 58t-16.5 94v146q0 94 -87 94v84q46 0 66.5 22.5t20.5 70.5v147q0 57 16.5 94t51 58t87.5 29t126 8v-101q-45 0 -75 -6.5t-48.5 -20.5t-26 -37.5t-7.5 -57.5v-118q0 -24 -3 -45t-11.5 -37.5t-23 -27t-38.5 -14.5v-13q23 -3 38 -14
t23.5 -27.5t11.5 -37t3 -44.5v-119q0 -33 7.5 -56t25.5 -37t48 -20t75 -6v-103z" />
    <glyph glyph-name="bar" unicode="|" horiz-adv-x="276" 
d="M80 -257v1047h116v-1047h-116z" />
    <glyph glyph-name="braceright" unicode="}" horiz-adv-x="413" 
d="M11 -100q45 0 75 6t48 20t25.5 37t7.5 56v119q0 24 3 44.5t11.5 37t23.5 27.5t38 14v13q-24 4 -38.5 14.5t-23 27t-11.5 37.5t-3 45v118q0 34 -7.5 57.5t-26 37.5t-48.5 20.5t-75 6.5v101q73 0 126 -8t87.5 -29t51 -58t16.5 -94v-147q0 -48 20.5 -70.5t66.5 -22.5v-84
q-45 0 -66 -23t-21 -71v-146q0 -57 -16.5 -94t-51 -58t-87.5 -29t-125 -8v103z" />
    <glyph glyph-name="asciitilde" unicode="~" horiz-adv-x="586" 
d="M519 228q-27 -26 -56.5 -34t-62.5 -8q-27 0 -56.5 8.5t-58 18.5t-54 18.5t-45.5 8.5q-30 0 -61.5 -9t-57.5 -39v115q26 26 56 34t64 8q28 0 57 -8.5t56.5 -19t53 -19t46.5 -8.5q31 0 62 9.5t57 39.5v-115z" />
    <glyph glyph-name="exclamdown" unicode="&#xa1;" horiz-adv-x="276" 
d="M71 -191v278l23 193h88l23 -193v-278h-134zM72 349v155h132v-155h-132z" />
    <glyph glyph-name="cent" unicode="&#xa2;" horiz-adv-x="563" 
d="M248 0v130q-98 13 -152.5 81t-54.5 182q0 117 55 187t152 83v130h84v-129q80 -10 129.5 -58t62.5 -130l-131 -6q-15 100 -99 100q-60 0 -90 -45t-30 -129q0 -82 30 -126.5t90 -44.5q83 0 100 98h130q-13 -85 -62 -134.5t-130 -59.5v-129h-84z" />
    <glyph glyph-name="sterling" unicode="&#xa3;" horiz-adv-x="603" 
d="M65 0v105q58 47 79.5 87.5t21.5 79.5q0 6 -1 10h-100v88h76q-11 28 -19 58.5t-8 67.5q0 39 13 74.5t40.5 61.5t71 41.5t104.5 15.5q26 0 61.5 -6t67.5 -26t54.5 -57.5t22.5 -100.5h-126q0 25 -7 41.5t-18.5 26t-27 13t-31.5 3.5q-50 0 -70.5 -25.5t-20.5 -65.5
q0 -31 9 -61.5t20 -60.5h222v-88h-200q0 -3 0.5 -5.5t0.5 -4.5q0 -35 -19.5 -76t-73.5 -93h344v-103h-486z" />
    <glyph glyph-name="currency" unicode="&#xa4;" horiz-adv-x="611" 
d="M466 32l-68 68q-44 -25 -93 -25q-51 0 -93 25l-67 -68l-76 76l67 68q-23 41 -23 92t24 93l-68 68l76 76l68 -69q42 25 92 25q25 0 48.5 -6.5t43.5 -17.5l68 68l76 -76l-68 -69q25 -42 25 -92q0 -26 -6.5 -49.5t-17.5 -43.5l68 -67zM398 267q0 39 -27 66t-66 27
q-19 0 -36 -7t-29.5 -20t-19.5 -30t-7 -36t7 -35.5t19.5 -29t29.5 -19.5t36 -7t36 7t29.5 19.5t20 29t7.5 35.5z" />
    <glyph glyph-name="yen" unicode="&#xa5;" horiz-adv-x="626" 
d="M379 102v-102h-133v102h-184v76h184v81h-184v76h140l-199 339h141l170 -314l171 314h138l-201 -339h142v-76h-185v-81h185v-76h-185z" />
    <glyph glyph-name="brokenbar" unicode="&#xa6;" horiz-adv-x="278" 
d="M81 355v435h116v-435h-116zM81 -257v437h116v-437h-116z" />
    <glyph glyph-name="section" unicode="&#xa7;" horiz-adv-x="645" 
d="M470 544q-3 36 -16.5 58t-33.5 34.5t-43.5 17t-45.5 4.5t-43.5 -4.5t-38 -14t-27 -24.5t-10.5 -37q0 -29 17 -47.5t44.5 -31.5t63 -21.5t73 -19t73 -23.5t63 -35t44.5 -54t17 -79q0 -88 -65 -142q20 -20 32.5 -48.5t12.5 -67.5q0 -44 -17 -81.5t-51 -65.5t-86.5 -43.5
t-122.5 -15.5q-19 0 -46 2.5t-57 11t-59.5 24t-54 41t-40.5 62t-18 88.5h132q1 -36 15.5 -60.5t36 -39t49 -20.5t55.5 -6q26 0 49.5 4.5t41 15t27.5 26t10 38.5q0 30 -17 48.5t-45 31t-63.5 21.5t-72.5 19t-72.5 23.5t-63.5 36t-45 56t-17 83.5q0 45 18.5 78t48.5 55
q-21 22 -33.5 52t-12.5 73q0 51 22.5 87t60 59.5t86 34t100.5 10.5q21 0 47.5 -3t54.5 -11.5t54.5 -23.5t48.5 -39t36 -57.5t16 -79.5h-132zM434 185q17 9 27 24.5t10 38.5q0 36 -22.5 55.5t-57 32t-77 22t-82.5 23.5q-18 -8 -29.5 -23t-11.5 -38q0 -35 23 -55t58.5 -32.5
t78.5 -22.5t83 -25z" />
    <glyph glyph-name="dieresis" unicode="&#xa8;" horiz-adv-x="455" 
d="M276 587v131h121v-131h-121zM58 587v131h121v-131h-121z" />
    <glyph glyph-name="copyright" unicode="&#xa9;" horiz-adv-x="756" 
d="M378 17q-68 0 -128 26.5t-105 71.5t-71 105t-26 128t26 128t71 105t105 71t128 26q67 0 127 -26.5t105 -71.5t71.5 -105t26.5 -127t-26.5 -127t-71.5 -105.5t-105 -72t-127 -26.5zM378 48q61 0 115.5 24t95 65t64.5 95.5t24 115.5q0 59 -24.5 113t-65.5 95.5t-95 66
t-114 24.5q-61 0 -115.5 -24t-95.5 -64.5t-65 -95.5t-24 -116t24.5 -115t65.5 -95t95.5 -65t114.5 -24zM557 301q-11 -78 -56.5 -121t-124.5 -43q-91 0 -142 55.5t-51 155.5q0 49 14 88t39.5 66t61 41.5t79.5 14.5q80 0 125.5 -42t53.5 -117h-82q-4 38 -28.5 59.5
t-68.5 21.5q-54 0 -82.5 -35t-28.5 -97q0 -61 28 -96.5t82 -35.5q92 0 98 85h83z" />
    <glyph glyph-name="ordfeminine" unicode="&#xaa;" horiz-adv-x="390" 
d="M377 397q-16 -3 -30.5 -5t-22.5 -2q-72 0 -76 59q-20 -35 -47.5 -47t-58.5 -12q-17 0 -35 4t-33.5 14.5t-25.5 27.5t-10 44q0 30 12.5 49t33.5 29.5t48.5 14.5t57.5 6l42 2v32q0 17 -8 29t-35 12q-18 0 -32 -8.5t-16 -33.5l-93 3q3 28 17.5 46.5t35 29.5t43.5 16t43 5
q76 0 110.5 -26t34.5 -76v-118q0 -21 4.5 -30t20.5 -9h20v-56zM232 538l-44 -3q-22 -2 -37 -11.5t-15 -34.5q0 -26 15.5 -32.5t28.5 -6.5q21 0 36.5 16t15.5 47v25z" />
    <glyph glyph-name="guillemotleft" unicode="&#xab;" horiz-adv-x="646" 
d="M210 77l-161 190l162 192h123l-161 -193l160 -189h-123zM467 77l-161 190l162 192h123l-161 -193l160 -189h-123z" />
    <glyph glyph-name="logicalnot" unicode="&#xac;" horiz-adv-x="586" 
d="M413 129v175h-346v102h452v-277h-106z" />
    <glyph glyph-name="registered" unicode="&#xae;" horiz-adv-x="605" 
d="M557 451q0 -53 -20 -99t-54.5 -80.5t-81 -54.5t-99.5 -20t-99 20t-80.5 54.5t-54.5 80.5t-20 99t20 99.5t54.5 81t80.5 54.5t99 20t99.5 -20t81 -54.5t54.5 -81t20 -99.5zM528 451q0 47 -17.5 88t-48.5 72t-72 48.5t-88 17.5t-88 -17.5t-71.5 -48.5t-48 -72t-17.5 -88
t17.5 -88t48 -71.5t71.5 -48t88 -17.5t88 17.5t72 48t48.5 71.5t17.5 88zM371 298l-72 116h-55v-116h-75v307h129q58 0 93.5 -23.5t35.5 -71.5q0 -30 -16 -51.5t-43 -32.5l78 -128h-75zM297 465q23 0 38.5 10.5t15.5 33.5q0 22 -15 33t-39 11h-53v-88h53z" />
    <glyph glyph-name="macron" unicode="&#xaf;" horiz-adv-x="460" 
d="M58 612v81h344v-81h-344z" />
    <glyph glyph-name="degree" unicode="&#xb0;" horiz-adv-x="362" 
d="M318 517q0 -29 -10.5 -54t-29 -43t-44 -28.5t-54.5 -10.5t-53.5 10.5t-42.5 28.5t-28.5 43t-10.5 54t10.5 54t28.5 43.5t42.5 29t53.5 10.5t54.5 -10.5t44 -29t29 -43.5t10.5 -54zM242 517q0 26 -18 43.5t-44 17.5q-25 0 -42.5 -17.5t-17.5 -43.5q0 -25 17.5 -42.5
t42.5 -17.5q26 0 44 17.5t18 42.5z" />
    <glyph glyph-name="plusminus" unicode="&#xb1;" horiz-adv-x="586" 
d="M67 0v100h173v191h-173v100h173v180h106v-180h173v-100h-173v-191h173v-100h-452z" />
    <glyph glyph-name="acute" unicode="&#xb4;" horiz-adv-x="361" 
d="M58 564l105 177h140l-148 -177h-97z" />
    <glyph glyph-name="mu" unicode="&#xb5;" horiz-adv-x="610" 
d="M414 0v103q-23 -51 -64 -79t-89 -28q-18 0 -31.5 3t-26.5 8v-229h-131v739h130v-314q0 -52 22 -80t68 -28q52 0 84 40t32 112v270h130v-517h-124z" />
    <glyph glyph-name="paragraph" unicode="&#xb6;" horiz-adv-x="698" 
d="M306 -172v403q-59 0 -106 16.5t-81 47.5t-52 75.5t-18 100.5t18 101t52 76.5t81 48t106 16.5h113v-791h92v791h111v-885h-316z" />
    <glyph glyph-name="periodcentered" unicode="&#xb7;" horiz-adv-x="301" 
d="M52 167v201h197v-201h-197z" />
    <glyph glyph-name="cedilla" unicode="&#xb8;" horiz-adv-x="343" 
d="M58 -146q25 -10 46.5 -14t37.5 -4q25 0 40 9.5t15 29.5t-21 33.5t-68 13.5v40l39 65h69l-44 -66q56 -4 84.5 -30.5t28.5 -64.5q0 -12 -5.5 -27.5t-19 -29t-36.5 -22.5t-59 -9q-17 0 -46 3.5t-61 14.5v58z" />
    <glyph glyph-name="ordmasculine" unicode="&#xba;" horiz-adv-x="425" 
d="M384 549q0 -84 -46.5 -123.5t-125.5 -39.5q-78 0 -124.5 39.5t-46.5 123.5t46.5 123.5t124.5 39.5q79 0 125.5 -39.5t46.5 -123.5zM212 450q35 0 52.5 23.5t17.5 75.5t-17.5 75.5t-52.5 23.5q-34 0 -52 -23.5t-18 -75.5t18 -75.5t52 -23.5z" />
    <glyph glyph-name="guillemotright" unicode="&#xbb;" horiz-adv-x="633" 
d="M300 77l160 189l-161 193h123l162 -192l-161 -190h-123zM56 77l160 189l-161 193h123l162 -192l-161 -190h-123z" />
    <glyph glyph-name="onequarter" unicode="&#xbc;" horiz-adv-x="835" 
d="M190 0l388 674h73l-387 -674h-74zM161 282v306l-114 -53v86l112 53h108v-392h-106zM653 0v74h-199v68l157 250h149v-253h58v-65h-58v-74h-107zM653 333l-124 -194h124v194z" />
    <glyph glyph-name="onehalf" unicode="&#xbd;" horiz-adv-x="903" 
d="M190 0l388 674h74l-388 -674h-74zM539 0v58q36 28 74 53.5t69.5 51.5t52 53.5t20.5 59.5q0 25 -12 40t-39 15q-10 0 -20.5 -2.5t-19 -9t-14.5 -19.5t-6 -34h-104q0 39 16.5 64.5t41.5 40.5t53.5 20.5t52.5 5.5q79 0 118 -34.5t39 -86.5q0 -32 -17.5 -61t-43.5 -54.5
t-55.5 -47.5t-54.5 -40h175v-73h-326zM161 282v306l-114 -53v86l112 53h108v-392h-106z" />
    <glyph glyph-name="threequarters" unicode="&#xbe;" horiz-adv-x="902" 
d="M256 0l388 674h73l-387 -674h-74zM160 454v57h45q32 0 50.5 13.5t18.5 42.5q0 48 -55 48q-22 0 -40 -12t-18 -53h-104q0 39 17 64.5t41.5 40t52.5 20t51 5.5q71 0 114.5 -26.5t43.5 -75.5q0 -36 -18.5 -58.5t-52.5 -30.5q33 -5 57.5 -28.5t24.5 -67.5q0 -52 -45 -84
t-122 -32q-29 0 -58.5 6t-53.5 21t-40 40.5t-16 64.5h104q0 -38 18.5 -52t45.5 -14q30 0 46.5 15t16.5 44q0 30 -22.5 41t-56.5 11h-45zM720 0v74h-199v68l157 250h149v-253h58v-65h-58v-74h-107zM720 333l-124 -194h124v194z" />
    <glyph glyph-name="questiondown" unicode="&#xbf;" horiz-adv-x="510" 
d="M493 -9q-4 -62 -30 -99t-61.5 -57t-73 -26.5t-64.5 -6.5q-47 0 -87 10.5t-70 32t-47 55t-17 79.5q0 40 14.5 69t35.5 51.5t46.5 41t46.5 38.5t35.5 44.5t14.5 58.5h126q0 -42 -14 -73.5t-35.5 -56t-46 -44t-46 -38t-35.5 -38t-14 -43.5t8.5 -40t21.5 -25t29.5 -13
t33.5 -4q14 0 31.5 2.5t32.5 11t26.5 25t13.5 45.5h125zM231 349v155h136v-155h-136z" />
    <glyph glyph-name="Agrave" unicode="&#xc0;" horiz-adv-x="705" 
d="M545 0l-60 169h-268l-58 -169h-139l247 674h172l246 -674h-140zM351 560l-101 -285h201zM322 715l-134 155h139l92 -155h-97z" />
    <glyph glyph-name="Aacute" unicode="&#xc1;" horiz-adv-x="705" 
d="M287 715l92 155h139l-134 -155h-97zM545 0l-60 169h-268l-58 -169h-139l247 674h172l246 -674h-140zM351 560l-101 -285h201z" />
    <glyph glyph-name="Acircumflex" unicode="&#xc2;" horiz-adv-x="705" 
d="M434 715l-82 83l-81 -83h-89l111 155h118l112 -155h-89zM545 0l-60 169h-268l-58 -169h-139l247 674h172l246 -674h-140zM351 560l-101 -285h201z" />
    <glyph glyph-name="Atilde" unicode="&#xc3;" horiz-adv-x="705" 
d="M545 0l-60 169h-268l-58 -169h-139l247 674h172l246 -674h-140zM531 857q0 -21 -4.5 -43.5t-16 -41t-30.5 -30.5t-48 -12q-20 0 -41 7t-41.5 15.5t-38 15.5t-30.5 7q-17 0 -27.5 -8.5t-10.5 -36.5h-70q0 21 5 43t16 41t30 31t48 12q20 0 41.5 -7t41.5 -15.5t38 -15.5
t31 -7q17 0 27 8t10 37h70zM351 560l-101 -285h201z" />
    <glyph glyph-name="Adieresis" unicode="&#xc4;" horiz-adv-x="705" 
d="M400 728v131h122v-131h-122zM182 728v131h122v-131h-122zM545 0l-60 170l15 -1h-296l14 1l-59 -170h-139l247 674h172l246 -674h-140zM452 274l-101 286l-101 -286l-15 1h232z" />
    <glyph glyph-name="Aring" unicode="&#xc5;" horiz-adv-x="705" 
d="M545 0l-60 169h-268l-58 -169h-139l246 670q-15 16 -23.5 36.5t-8.5 44.5q0 25 9.5 47t25.5 38t37.5 25t46.5 9q24 0 45.5 -9t37.5 -25t25.5 -38t9.5 -47q0 -23 -8.5 -43.5t-22.5 -36.5l245 -671h-140zM351 560l-101 -285h201zM409 751q0 25 -16.5 41.5t-40.5 16.5
t-40.5 -17t-16.5 -41t16.5 -40t40.5 -16t40.5 16t16.5 40z" />
    <glyph glyph-name="AE" unicode="&#xc6;" horiz-adv-x="951" 
d="M483 0v169h-236l-88 -169h-139l360 674h513v-107h-277v-173h258v-103h-258v-182h290v-109h-423zM483 567h-28l-155 -292h183v292z" />
    <glyph glyph-name="Ccedilla" unicode="&#xc7;" horiz-adv-x="702" 
d="M238 -146q25 -11 46 -15t38 -4q25 0 40 10t15 30t-21.5 33t-68.5 13v41l18 30q-60 10 -107.5 37.5t-80.5 72t-50.5 103.5t-17.5 132q0 81 22.5 145.5t64.5 109.5t101.5 69t133.5 24q115 0 190 -60t98 -168h-137q-15 57 -53 88t-98 31q-92 0 -139.5 -63.5t-47.5 -175.5
t47.5 -175t139.5 -63q60 0 98 30t52 87h137q-24 -109 -98.5 -169t-190.5 -60l-17 -27q55 -3 84 -29.5t29 -64.5q0 -13 -5.5 -28t-19 -28.5t-37 -22.5t-59.5 -9q-17 0 -45.5 3.5t-60.5 14.5v58z" />
    <glyph glyph-name="Egrave" unicode="&#xc8;" horiz-adv-x="543" 
d="M75 0v674h411v-107h-278v-173h259v-102h-259v-183h290v-109h-423zM254 715l-134 155h139l92 -155h-97z" />
    <glyph glyph-name="Eacute" unicode="&#xc9;" horiz-adv-x="543" 
d="M75 0v674h411v-107h-278v-173h259v-102h-259v-183h290v-109h-423zM210 715l92 155h139l-134 -155h-97z" />
    <glyph glyph-name="Ecircumflex" unicode="&#xca;" horiz-adv-x="543" 
d="M75 0v674h411v-107h-278v-173h259v-102h-259v-183h290v-109h-423zM362 715l-82 83l-81 -83h-88l110 155h119l111 -155h-89z" />
    <glyph glyph-name="Edieresis" unicode="&#xcb;" horiz-adv-x="543" 
d="M75 0v674h411v-107h-278v-173h259v-102h-259v-183h290v-109h-423zM329 728v131h122v-131h-122zM111 728v131h122v-131h-122z" />
    <glyph glyph-name="Igrave" unicode="&#xcc;" horiz-adv-x="283" 
d="M75 0v674h133v-674h-133zM118 715l-134 155h139l92 -155h-97z" />
    <glyph glyph-name="Iacute" unicode="&#xcd;" horiz-adv-x="283" 
d="M75 0v674h133v-674h-133zM68 715l92 155h140l-135 -155h-97z" />
    <glyph glyph-name="Icircumflex" unicode="&#xce;" horiz-adv-x="283" 
d="M75 0v674h133v-674h-133zM223 715l-82 83l-81 -83h-89l111 155h118l112 -155h-89z" />
    <glyph glyph-name="Idieresis" unicode="&#xcf;" horiz-adv-x="283" 
d="M75 0v674h133v-674h-133zM190 728v131h121v-131h-121zM-28 728v131h121v-131h-121z" />
    <glyph glyph-name="Eth" unicode="&#xd0;" horiz-adv-x="719" 
d="M78 0v288h-100v100h100v286h246q82 0 147 -25t110 -69t69 -105t24 -133q0 -70 -23.5 -132t-68.5 -108.5t-109.5 -74t-145.5 -27.5h-249zM323 110q53 0 93.5 18t67.5 49.5t41 74t14 90.5q0 50 -14 91.5t-41.5 71.5t-68.5 46.5t-95 16.5h-109v-180h150v-100h-150v-178h112z
" />
    <glyph glyph-name="Ntilde" unicode="&#xd1;" horiz-adv-x="728" 
d="M543 857q0 -21 -4.5 -43.5t-16 -41t-30.5 -30.5t-48 -12q-20 0 -41 7t-41.5 15.5t-38 15.5t-30.5 7q-17 0 -27.5 -8.5t-10.5 -36.5h-70q0 21 5 43t16 41t30 31t48 12q20 0 41.5 -7t41.5 -15.5t38 -15.5t31 -7q17 0 27 8t10 37h70zM509 0l-301 468v-468h-133v674h139
l306 -479v479h133v-674h-144z" />
    <glyph glyph-name="Ograve" unicode="&#xd2;" horiz-adv-x="751" 
d="M376 -13q-75 0 -135.5 24t-103 69t-65.5 110t-23 147q0 81 23 145.5t65.5 109.5t103 69t135.5 24t135.5 -24t102.5 -69t65 -109.5t23 -145.5t-23 -146t-65 -110.5t-102.5 -69.5t-135.5 -24zM376 99q94 0 143 63t49 175t-49 175.5t-143 63.5q-95 0 -143.5 -63.5
t-48.5 -175.5t48.5 -175t143.5 -63zM355 715l-134 155h139l92 -155h-97z" />
    <glyph glyph-name="Oacute" unicode="&#xd3;" horiz-adv-x="752" 
d="M300 715l92 155h139l-134 -155h-97zM376 -13q-75 0 -135.5 24t-103 69t-65.5 110t-23 147q0 81 23 145.5t65.5 109.5t103 69t135.5 24t135.5 -24t103 -69t65.5 -109.5t23 -145.5q0 -82 -23 -147t-65.5 -110t-103 -69t-135.5 -24zM376 99q95 0 143.5 63t48.5 175
t-48.5 175.5t-143.5 63.5t-143.5 -63.5t-48.5 -175.5t48.5 -175t143.5 -63z" />
    <glyph glyph-name="Ocircumflex" unicode="&#xd4;" horiz-adv-x="752" 
d="M457 715l-81 83l-81 -83h-89l111 155h118l111 -155h-89zM376 -13q-75 0 -135.5 24t-103 69t-65.5 110t-23 147q0 81 23 145.5t65.5 109.5t103 69t135.5 24t135.5 -24t103 -69t65.5 -109.5t23 -145.5q0 -82 -23 -147t-65.5 -110t-103 -69t-135.5 -24zM376 99
q95 0 143.5 63t48.5 175t-48.5 175.5t-143.5 63.5t-143.5 -63.5t-48.5 -175.5t48.5 -175t143.5 -63z" />
    <glyph glyph-name="Otilde" unicode="&#xd5;" horiz-adv-x="752" 
d="M555 857q0 -21 -4.5 -43.5t-16 -41t-30.5 -30.5t-48 -12q-20 0 -41 7t-41.5 15.5t-38 15.5t-30.5 7q-17 0 -27.5 -8.5t-10.5 -36.5h-70q0 21 4.5 43t16 41t30.5 31t48 12q20 0 41.5 -7t41.5 -15.5t37.5 -15.5t30.5 -7q17 0 27.5 8t10.5 37h70zM376 -13q-75 0 -135.5 24
t-103 69t-65.5 110t-23 147q0 81 23 145.5t65.5 109.5t103 69t135.5 24t135.5 -24t103 -69t65.5 -109.5t23 -145.5q0 -82 -23 -147t-65.5 -110t-103 -69t-135.5 -24zM376 99q95 0 143.5 63t48.5 175t-48.5 175.5t-143.5 63.5t-143.5 -63.5t-48.5 -175.5t48.5 -175t143.5 -63
z" />
    <glyph glyph-name="Odieresis" unicode="&#xd6;" horiz-adv-x="752" 
d="M425 728v131h121v-131h-121zM207 728v131h121v-131h-121zM376 -13q-75 0 -135.5 24t-103 69t-65.5 110t-23 147q0 81 23 145.5t65.5 109.5t103 69t135.5 24t135.5 -24t103 -69t65.5 -109.5t23 -145.5q0 -82 -23 -147t-65.5 -110t-103 -69t-135.5 -24zM376 99
q95 0 143.5 63t48.5 175t-48.5 175.5t-143.5 63.5t-143.5 -63.5t-48.5 -175.5t48.5 -175t143.5 -63z" />
    <glyph glyph-name="multiply" unicode="&#xd7;" horiz-adv-x="627" 
d="M486 22l-172 172l-173 -173l-74 74l173 173l-173 174l75 73l172 -174l173 173l73 -73l-172 -173l172 -172z" />
    <glyph glyph-name="Oslash" unicode="&#xd8;" horiz-adv-x="752" 
d="M89 -87l82 136q-59 45 -90.5 117.5t-31.5 170.5q0 81 23 145.5t65.5 109.5t103 69t135.5 24q88 0 158 -34l66 109h63l-83 -137q59 -45 91 -117t32 -169q0 -82 -23 -147t-65.5 -110t-103 -69t-135.5 -24q-89 0 -159 34l-65 -108h-63zM474 551q-42 25 -98 25
q-95 0 -143.5 -63.5t-48.5 -175.5q0 -119 52 -180zM278 122q41 -23 98 -23q95 0 143.5 63t48.5 175q0 116 -52 179z" />
    <glyph glyph-name="Ugrave" unicode="&#xd9;" horiz-adv-x="698" 
d="M314 715l-134 155h139l92 -155h-97zM498 674h131v-419q0 -67 -20.5 -117t-57.5 -83.5t-88.5 -50.5t-113.5 -17q-63 0 -114.5 17t-88.5 50.5t-57 83.5t-20 117v419h133v-414q0 -82 40.5 -121.5t106.5 -39.5q69 0 109 39.5t40 121.5v414z" />
    <glyph glyph-name="Uacute" unicode="&#xda;" horiz-adv-x="698" 
d="M289 715l91 155h140l-135 -155h-96zM498 674h131v-419q0 -67 -20.5 -117t-57.5 -83.5t-88.5 -50.5t-113.5 -17q-63 0 -114.5 17t-88.5 50.5t-57 83.5t-20 117v419h133v-414q0 -82 40.5 -121.5t106.5 -39.5q69 0 109 39.5t40 121.5v414z" />
    <glyph glyph-name="Ucircumflex" unicode="&#xdb;" horiz-adv-x="698" 
d="M431 715l-82 83l-81 -83h-88l110 155h118l112 -155h-89zM498 674h131v-419q0 -67 -20.5 -117t-57.5 -83.5t-88.5 -50.5t-113.5 -17q-63 0 -114.5 17t-88.5 50.5t-57 83.5t-20 117v419h133v-414q0 -82 40.5 -121.5t106.5 -39.5q69 0 109 39.5t40 121.5v414z" />
    <glyph glyph-name="Udieresis" unicode="&#xdc;" horiz-adv-x="698" 
d="M398 728v131h121v-131h-121zM180 728v131h121v-131h-121zM498 674h131v-419q0 -67 -20.5 -117t-57.5 -83.5t-88.5 -50.5t-113.5 -17q-63 0 -114.5 17t-88.5 50.5t-57 83.5t-20 117v419h133v-414q0 -82 40.5 -121.5t106.5 -39.5q69 0 109 39.5t40 121.5v414z" />
    <glyph glyph-name="Yacute" unicode="&#xdd;" horiz-adv-x="626" 
d="M246 0v260l-243 414h141l170 -314l171 314h138l-244 -413v-261h-133zM254 715l91 155h140l-135 -155h-96z" />
    <glyph glyph-name="Thorn" unicode="&#xde;" horiz-adv-x="639" 
d="M207 120v-120h-132v674h132v-112h134q125 0 191.5 -54t66.5 -166q0 -109 -66 -165.5t-191 -56.5h-135zM330 229q134 0 134 113q0 56 -34.5 83.5t-100.5 27.5h-122v-224h123z" />
    <glyph glyph-name="germandbls" unicode="&#xdf;" horiz-adv-x="656" 
d="M275 87q13 -2 26 -3t24 -1q33 0 62.5 7.5t51.5 22.5t35 38t13 55q0 23 -9 47t-31.5 43t-61 31t-98.5 12v82q21 0 45.5 5t46.5 19t36.5 39t14.5 66q0 28 -9.5 49t-25 34.5t-36.5 20.5t-44 7q-62 0 -87.5 -39.5t-25.5 -106.5v-515h-130v512q0 55 14.5 100t44.5 77.5t77 50
t113 17.5q52 0 95 -13.5t74.5 -38t49 -59t17.5 -77.5q0 -67 -28.5 -110t-76.5 -66q91 -27 128.5 -79t37.5 -116q0 -45 -17 -83t-50 -66.5t-82.5 -44.5t-114.5 -16q-13 0 -34 1t-45 4v94z" />
    <glyph glyph-name="agrave" unicode="&#xe0;" horiz-adv-x="580" 
d="M276 564l-148 177h140l105 -177h-97zM567 0q-22 -6 -43 -9t-35 -3q-63 0 -89.5 22.5t-27.5 78.5q-14 -30 -33 -49.5t-40.5 -31t-44.5 -16t-44 -4.5q-27 0 -57 7t-55.5 24.5t-42.5 47.5t-17 77q0 51 20 82t54 48.5t78.5 24t92.5 8.5l83 3v44q0 18 -4 33t-14 26.5t-27.5 18
t-44.5 6.5q-15 0 -30.5 -3t-29 -11.5t-23 -23.5t-11.5 -39l-126 10q4 46 26.5 76t54.5 48t69 25.5t70 7.5q118 0 169 -45.5t51 -125.5v-202q0 -40 7 -54.5t34 -14.5h30v-86zM366 235l-85 -3q-23 -1 -43.5 -4.5t-35.5 -12.5t-24 -24t-9 -38t9.5 -36.5t22.5 -20.5t27.5 -9
t24.5 -2q22 0 42 8.5t36 25t25.5 42t9.5 58.5v16z" />
    <glyph glyph-name="aacute" unicode="&#xe1;" horiz-adv-x="580" 
d="M194 564l105 177h139l-147 -177h-97zM567 0q-22 -6 -43 -9t-35 -3q-63 0 -89.5 22.5t-27.5 78.5q-14 -30 -33 -49.5t-40.5 -31t-44.5 -16t-44 -4.5q-27 0 -57 7t-55.5 24.5t-42.5 47.5t-17 77q0 51 20 82t54 48.5t78.5 24t92.5 8.5l83 3v44q0 18 -4 33t-14 26.5t-27.5 18
t-44.5 6.5q-15 0 -30.5 -3t-29 -11.5t-23 -23.5t-11.5 -39l-126 10q4 46 26.5 76t54.5 48t69 25.5t70 7.5q118 0 169 -45.5t51 -125.5v-202q0 -40 7 -54.5t34 -14.5h30v-86zM366 235l-85 -3q-23 -1 -43.5 -4.5t-35.5 -12.5t-24 -24t-9 -38t9.5 -36.5t22.5 -20.5t27.5 -9
t24.5 -2q22 0 42 8.5t36 25t25.5 42t9.5 58.5v16z" />
    <glyph glyph-name="acircumflex" unicode="&#xe2;" horiz-adv-x="580" 
d="M366 564l-81 101l-81 -101h-89l111 177h118l111 -177h-89zM567 0q-22 -6 -43 -9t-35 -3q-63 0 -89.5 22.5t-27.5 78.5q-14 -30 -33 -49.5t-40.5 -31t-44.5 -16t-44 -4.5q-27 0 -57 7t-55.5 24.5t-42.5 47.5t-17 77q0 51 20 82t54 48.5t78.5 24t92.5 8.5l83 3v44
q0 18 -4 33t-14 26.5t-27.5 18t-44.5 6.5q-15 0 -30.5 -3t-29 -11.5t-23 -23.5t-11.5 -39l-126 10q4 46 26.5 76t54.5 48t69 25.5t70 7.5q118 0 169 -45.5t51 -125.5v-202q0 -40 7 -54.5t34 -14.5h30v-86zM366 235l-85 -3q-23 -1 -43.5 -4.5t-35.5 -12.5t-24 -24t-9 -38
t9.5 -36.5t22.5 -20.5t27.5 -9t24.5 -2q22 0 42 8.5t36 25t25.5 42t9.5 58.5v16z" />
    <glyph glyph-name="atilde" unicode="&#xe3;" horiz-adv-x="580" 
d="M464 716q0 -21 -4.5 -43t-16 -41t-30.5 -31t-48 -12q-20 0 -41 7t-41 15.5t-38 15.5t-31 7q-17 0 -27 -8t-10 -37h-70q0 21 4.5 43.5t16 41t30.5 30.5t48 12q20 0 41.5 -7t41.5 -15.5t37.5 -15.5t30.5 -7q17 0 27 8.5t10 36.5h70zM567 0q-22 -6 -43 -9t-35 -3
q-63 0 -89.5 22.5t-27.5 78.5q-14 -30 -33 -49.5t-40.5 -31t-44.5 -16t-44 -4.5q-27 0 -57 7t-55.5 24.5t-42.5 47.5t-17 77q0 51 20 82t54 48.5t78.5 24t92.5 8.5l83 3v44q0 18 -4 33t-14 26.5t-27.5 18t-44.5 6.5q-15 0 -30.5 -3t-29 -11.5t-23 -23.5t-11.5 -39l-126 10
q4 46 26.5 76t54.5 48t69 25.5t70 7.5q118 0 169 -45.5t51 -125.5v-202q0 -40 7 -54.5t34 -14.5h30v-86zM366 235l-85 -3q-23 -1 -43.5 -4.5t-35.5 -12.5t-24 -24t-9 -38t9.5 -36.5t22.5 -20.5t27.5 -9t24.5 -2q22 0 42 8.5t36 25t25.5 42t9.5 58.5v16z" />
    <glyph glyph-name="adieresis" unicode="&#xe4;" horiz-adv-x="580" 
d="M334 587v131h121v-131h-121zM116 587v131h121v-131h-121zM567 0q-22 -6 -43 -9t-35 -3q-63 0 -89.5 22.5t-27.5 78.5q-14 -30 -33 -49.5t-40.5 -31t-44.5 -16t-44 -4.5q-27 0 -57 7t-55.5 24.5t-42.5 47.5t-17 77q0 51 20 82t54 48.5t78.5 24t92.5 8.5l83 3v44
q0 18 -4 33t-14 26.5t-27.5 18t-44.5 6.5q-15 0 -30.5 -3t-29 -11.5t-23 -23.5t-11.5 -39l-126 10q4 46 26.5 76t54.5 48t69 25.5t70 7.5q118 0 169 -45.5t51 -125.5v-202q0 -40 7 -54.5t34 -14.5h30v-86zM366 235l-85 -3q-23 -1 -43.5 -4.5t-35.5 -12.5t-24 -24t-9 -38
t9.5 -36.5t22.5 -20.5t27.5 -9t24.5 -2q22 0 42 8.5t36 25t25.5 42t9.5 58.5v16z" />
    <glyph glyph-name="aring" unicode="&#xe5;" horiz-adv-x="580" 
d="M342 672q0 24 -16.5 41t-40.5 17t-40.5 -17t-16.5 -41t16.5 -40.5t40.5 -16.5t40.5 16.5t16.5 40.5zM286 554q-25 0 -46.5 9t-37.5 25t-25.5 37.5t-9.5 46.5t9.5 46.5t25.5 37.5t37.5 25.5t46.5 9.5q24 0 45.5 -9.5t37.5 -25.5t25.5 -37.5t9.5 -46.5t-9.5 -46.5
t-25.5 -37.5t-37.5 -25t-45.5 -9zM567 0q-22 -6 -43 -9t-35 -3q-63 0 -89.5 22.5t-27.5 78.5q-14 -30 -33 -49.5t-40.5 -31t-44.5 -16t-44 -4.5q-27 0 -57 7t-55.5 24.5t-42.5 47.5t-17 77q0 51 20 82t54 48.5t78.5 24t92.5 8.5l83 3v44q0 18 -4 33t-14 26.5t-27.5 18
t-44.5 6.5q-15 0 -30.5 -3t-29 -11.5t-23 -23.5t-11.5 -39l-126 10q4 46 26.5 76t54.5 48t69 25.5t70 7.5q118 0 169 -45.5t51 -125.5v-202q0 -40 7 -54.5t34 -14.5h30v-86zM366 235l-85 -3q-23 -1 -43.5 -4.5t-35.5 -12.5t-24 -24t-9 -38t9.5 -36.5t22.5 -20.5t27.5 -9
t24.5 -2q22 0 42 8.5t36 25t25.5 42t9.5 58.5v16z" />
    <glyph glyph-name="ae" unicode="&#xe6;" horiz-adv-x="906" 
d="M501 230q3 -70 33 -107t86 -37q47 0 72 21t33 56h130q-17 -82 -75.5 -128.5t-155.5 -46.5q-75 0 -130 27.5t-87 79.5q-19 -31 -41.5 -51.5t-48 -33t-52.5 -17.5t-55 -5q-27 0 -57 7t-55.5 24.5t-42.5 47.5t-17 77q0 51 20 82t53.5 48.5t78 24t93.5 8.5l83 3v44
q0 18 -4 33t-14 26.5t-27.5 18t-44.5 6.5q-15 0 -30.5 -3t-29 -11.5t-23 -23.5t-11.5 -39l-126 10q4 46 26.5 76t54.5 48t69 25.5t70 7.5q66 0 108 -16.5t64 -45.5q68 62 176 62q109 0 172.5 -64.5t63.5 -190.5l-3 -43h-356zM366 235l-85 -3q-24 -1 -44.5 -5t-35.5 -13
t-23.5 -23.5t-8.5 -37.5t9.5 -36.5t22.5 -20.5t27.5 -9t24.5 -2q22 0 42 8.5t36 25t25.5 42t9.5 58.5v16zM726 310q-5 57 -28.5 89t-77.5 32q-51 0 -80 -31.5t-37 -89.5h223z" />
    <glyph glyph-name="ccedilla" unicode="&#xe7;" horiz-adv-x="563" 
d="M170 -146q25 -11 46.5 -15t37.5 -4q26 0 40.5 10t14.5 30t-21 33.5t-68 13.5v40l18 31q-94 15 -145.5 82.5t-51.5 178.5q0 65 17.5 116t50.5 86t80 53.5t105 18.5q96 0 156 -49.5t74 -141.5l-131 -6q-15 100 -99 100q-60 0 -90 -45t-30 -128t30 -127.5t90 -44.5
q83 0 100 98h130q-14 -91 -71 -142.5t-151 -53.5l-18 -28q56 -3 84.5 -29.5t28.5 -64.5q0 -13 -5.5 -28t-19 -28.5t-36.5 -22.5t-59 -9q-17 0 -46 3.5t-61 14.5v58z" />
    <glyph glyph-name="egrave" unicode="&#xe8;" 
d="M288 564l-147 177h139l105 -177h-97zM180 230q3 -70 33 -107t86 -37q47 0 72 21t33 56h130q-17 -82 -75.5 -128.5t-155.5 -46.5q-120 0 -188.5 70t-68.5 196q0 65 18 116t52 86t81 53.5t106 18.5q109 0 172.5 -64.5t63.5 -190.5l-3 -43h-356zM405 310q-5 57 -28.5 89
t-77.5 32q-51 0 -80 -31.5t-37 -89.5h223z" />
    <glyph glyph-name="eacute" unicode="&#xe9;" 
d="M208 564l106 177h139l-148 -177h-97zM180 230q3 -70 33 -107t86 -37q47 0 72 21t33 56h130q-17 -82 -75.5 -128.5t-155.5 -46.5q-120 0 -188.5 70t-68.5 196q0 65 18 116t52 86t81 53.5t106 18.5q109 0 172.5 -64.5t63.5 -190.5l-3 -43h-356zM405 310q-5 57 -28.5 89
t-77.5 32q-51 0 -80 -31.5t-37 -89.5h223z" />
    <glyph glyph-name="ecircumflex" unicode="&#xea;" 
d="M377 564l-82 101l-81 -101h-88l110 177h119l111 -177h-89zM180 230q3 -70 33 -107t86 -37q47 0 72 21t33 56h130q-17 -82 -75.5 -128.5t-155.5 -46.5q-120 0 -188.5 70t-68.5 196q0 65 18 116t52 86t81 53.5t106 18.5q109 0 172.5 -64.5t63.5 -190.5l-3 -43h-356z
M405 310q-5 57 -28.5 89t-77.5 32q-51 0 -80 -31.5t-37 -89.5h223z" />
    <glyph glyph-name="edieresis" unicode="&#xeb;" 
d="M345 587v131h121v-131h-121zM127 587v131h121v-131h-121zM180 230q3 -70 33 -107t86 -37q47 0 72 21t33 56h130q-17 -82 -75.5 -128.5t-155.5 -46.5q-120 0 -188.5 70t-68.5 196q0 65 18 116t52 86t81 53.5t106 18.5q109 0 172.5 -64.5t63.5 -190.5l-3 -43h-356zM405 310
q-5 57 -28.5 89t-77.5 32q-51 0 -80 -31.5t-37 -89.5h223z" />
    <glyph glyph-name="igrave" unicode="&#xec;" horiz-adv-x="274" 
d="M113 564l-148 177h139l105 -177h-96zM72 0v517h130v-517h-130z" />
    <glyph glyph-name="iacute" unicode="&#xed;" horiz-adv-x="274" 
d="M65 564l105 177h139l-147 -177h-97zM72 0v517h130v-517h-130z" />
    <glyph glyph-name="icircumflex" unicode="&#xee;" horiz-adv-x="274" 
d="M72 0v517h130v-517h-130zM218 564l-82 101l-81 -101h-88l110 177h119l111 -177h-89z" />
    <glyph glyph-name="idieresis" unicode="&#xef;" horiz-adv-x="274" 
d="M185 587v131h122v-131h-122zM-33 587v131h122v-131h-122zM72 0v517h130v-517h-130z" />
    <glyph glyph-name="eth" unicode="&#xf0;" 
d="M352 675q43 -42 78.5 -92t60.5 -105t39 -113t14 -117q0 -61 -17.5 -109t-50 -81.5t-79 -51t-104.5 -17.5q-59 0 -105.5 17.5t-79 51t-50 81.5t-17.5 109q0 124 67.5 192t184.5 68q11 0 27 -2.5t30 -8.5q-31 60 -76 113l-81 -67l-35 43l78 66q-40 42 -86 74t-95 55h156
q51 -28 99 -68l65 56l37 -44zM293 87q60 0 89 41.5t29 119.5q0 73 -28 118t-90 45q-60 0 -89.5 -42.5t-29.5 -120.5t29.5 -119.5t89.5 -41.5z" />
    <glyph glyph-name="ntilde" unicode="&#xf1;" horiz-adv-x="610" 
d="M485 716q0 -21 -4.5 -43t-16 -41t-30.5 -31t-48 -12q-20 0 -41 7t-41.5 15.5t-38 15.5t-30.5 7q-17 0 -27 -8t-10 -37h-70q0 21 4.5 43.5t16 41t30.5 30.5t48 12q20 0 41 -7t41 -15.5t38 -15.5t31 -7q17 0 27 8.5t10 36.5h70zM410 0v313q0 51 -22.5 80t-67.5 29
q-54 0 -86 -40.5t-32 -112.5v-269h-130v517h124v-104q28 62 72.5 88.5t101.5 26.5q33 0 63.5 -9.5t54 -29t38 -51t14.5 -74.5v-364h-130z" />
    <glyph glyph-name="ograve" unicode="&#xf2;" 
d="M293 -12q-58 0 -104.5 18.5t-79.5 53t-50.5 85t-17.5 113.5q0 64 17.5 114t50.5 84.5t79.5 53t104.5 18.5t104.5 -18.5t79 -53t50 -84.5t17.5 -114q0 -63 -17.5 -113.5t-50 -85t-79 -53t-104.5 -18.5zM293 86q60 0 89 44.5t29 127.5t-29 128t-89 45t-89.5 -45t-29.5 -128
t29.5 -127.5t89.5 -44.5zM282 564l-148 177h140l105 -177h-97z" />
    <glyph glyph-name="oacute" unicode="&#xf3;" 
d="M293 -12q-58 0 -104.5 18.5t-79.5 53t-50.5 85t-17.5 113.5q0 64 17.5 114t50.5 84.5t79.5 53t104.5 18.5t104.5 -18.5t79 -53t50 -84.5t17.5 -114q0 -63 -17.5 -113.5t-50 -85t-79 -53t-104.5 -18.5zM293 86q60 0 89 44.5t29 127.5t-29 128t-89 45t-89.5 -45t-29.5 -128
t29.5 -127.5t89.5 -44.5zM206 564l105 177h140l-148 -177h-97z" />
    <glyph glyph-name="ocircumflex" unicode="&#xf4;" 
d="M293 -12q-58 0 -104.5 18.5t-79.5 53t-50.5 85t-17.5 113.5q0 64 17.5 114t50.5 84.5t79.5 53t104.5 18.5t104.5 -18.5t79 -53t50 -84.5t17.5 -114q0 -63 -17.5 -113.5t-50 -85t-79 -53t-104.5 -18.5zM293 86q60 0 89 44.5t29 127.5t-29 128t-89 45t-89.5 -45t-29.5 -128
t29.5 -127.5t89.5 -44.5zM373 564l-81 101l-81 -101h-89l111 177h118l111 -177h-89z" />
    <glyph glyph-name="otilde" unicode="&#xf5;" 
d="M293 -12q-58 0 -104.5 18.5t-79.5 53t-50.5 85t-17.5 113.5q0 64 17.5 114t50.5 84.5t79.5 53t104.5 18.5t104.5 -18.5t79 -53t50 -84.5t17.5 -114q0 -63 -17.5 -113.5t-50 -85t-79 -53t-104.5 -18.5zM293 86q60 0 89 44.5t29 127.5t-29 128t-89 45t-89.5 -45t-29.5 -128
t29.5 -127.5t89.5 -44.5zM471 716q0 -21 -4.5 -43t-16 -41t-30.5 -31t-48 -12q-20 0 -41 7t-41 15.5t-38 15.5t-31 7q-17 0 -27 -8t-10 -37h-70q0 21 4.5 43.5t16 41t30.5 30.5t48 12q20 0 41.5 -7t41.5 -15.5t37.5 -15.5t30.5 -7q17 0 27 8.5t10 36.5h70z" />
    <glyph glyph-name="odieresis" unicode="&#xf6;" 
d="M293 -12q-58 0 -104.5 18.5t-79.5 53t-50.5 85t-17.5 113.5q0 64 17.5 114t50.5 84.5t79.5 53t104.5 18.5t104.5 -18.5t79 -53t50 -84.5t17.5 -114q0 -63 -17.5 -113.5t-50 -85t-79 -53t-104.5 -18.5zM293 86q60 0 89 44.5t29 127.5t-29 128t-89 45t-89.5 -45t-29.5 -128
t29.5 -127.5t89.5 -44.5zM341 587v131h122v-131h-122zM123 587v131h122v-131h-122z" />
    <glyph glyph-name="divide" unicode="&#xf7;" horiz-adv-x="586" 
d="M67 223v109h452v-109h-452zM235 403v129h116v-129h-116zM235 22v129h116v-129h-116z" />
    <glyph glyph-name="oslash" unicode="&#xf8;" 
d="M64 -69l66 108q-43 35 -66 90t-23 129q0 64 17.5 114t50.5 84.5t79.5 53t104.5 18.5q70 0 121 -27l53 86h54l-68 -110q44 -35 67.5 -90t23.5 -129q0 -63 -17.5 -113.5t-50 -85t-79 -53t-104.5 -18.5q-35 0 -66 7t-57 20l-51 -84h-55zM226 106q28 -20 67 -20q60 0 89 44.5
t29 127.5q0 67 -25 108zM359 411q-28 20 -66 20q-60 0 -89.5 -45t-29.5 -128q0 -69 25 -107z" />
    <glyph glyph-name="ugrave" unicode="&#xf9;" horiz-adv-x="610" 
d="M414 0v103q-28 -60 -71.5 -87.5t-100.5 -27.5q-34 0 -64.5 9.5t-54 29.5t-37.5 51.5t-14 76.5v362h130v-312q0 -53 21.5 -81.5t68.5 -28.5q52 0 84 40t32 112v270h130v-517h-124zM279 564l-148 177h140l105 -177h-97z" />
    <glyph glyph-name="uacute" unicode="&#xfa;" horiz-adv-x="610" 
d="M414 0v103q-28 -60 -71.5 -87.5t-100.5 -27.5q-34 0 -64.5 9.5t-54 29.5t-37.5 51.5t-14 76.5v362h130v-312q0 -53 21.5 -81.5t68.5 -28.5q52 0 84 40t32 112v270h130v-517h-124zM235 564l105 177h140l-148 -177h-97z" />
    <glyph glyph-name="ucircumflex" unicode="&#xfb;" horiz-adv-x="610" 
d="M414 0v103q-28 -60 -71.5 -87.5t-100.5 -27.5q-34 0 -64.5 9.5t-54 29.5t-37.5 51.5t-14 76.5v362h130v-312q0 -53 21.5 -81.5t68.5 -28.5q52 0 84 40t32 112v270h130v-517h-124zM386 564l-82 101l-81 -101h-88l110 177h119l111 -177h-89z" />
    <glyph glyph-name="udieresis" unicode="&#xfc;" horiz-adv-x="610" 
d="M414 0v103q-28 -60 -71.5 -87.5t-100.5 -27.5q-34 0 -64.5 9.5t-54 29.5t-37.5 51.5t-14 76.5v362h130v-312q0 -53 21.5 -81.5t68.5 -28.5q52 0 84 40t32 112v270h130v-517h-124zM353 587v131h122v-131h-122zM135 587v131h122v-131h-122z" />
    <glyph glyph-name="yacute" unicode="&#xfd;" horiz-adv-x="552" 
d="M116 -212l92 233l-193 496h138l122 -365l126 365h136l-294 -729h-127zM224 564l105 177h140l-148 -177h-97z" />
    <glyph glyph-name="thorn" unicode="&#xfe;" horiz-adv-x="609" 
d="M72 -212v987h124v-279l-4 -87q27 64 71.5 91.5t101.5 27.5q42 0 78.5 -15t64.5 -47.5t44 -83.5t16 -124q0 -71 -16 -122t-43.5 -84t-64.5 -48.5t-79 -15.5q-54 0 -97 23.5t-70 80.5l4 -80v-224h-130zM322 86q48 0 80.5 41t32.5 131q0 91 -32.5 132t-80.5 41
q-55 0 -88 -39.5t-33 -133.5q0 -92 32.5 -132t88.5 -40z" />
    <glyph glyph-name="ydieresis" unicode="&#xff;" horiz-adv-x="552" 
d="M116 -212l92 233l-193 496h138l122 -365l126 365h136l-294 -729h-127zM324 587v131h122v-131h-122zM106 587v131h122v-131h-122z" />
    <glyph glyph-name="Amacron" unicode="&#x100;" horiz-adv-x="705" 
d="M180 752v82h344v-82h-344zM545 0l-60 169h-268l-58 -169h-139l247 674h172l246 -674h-140zM351 560l-101 -285h201z" />
    <glyph glyph-name="amacron" unicode="&#x101;" horiz-adv-x="580" 
d="M114 612v81h343v-81h-343zM567 0q-22 -6 -43 -9t-35 -3q-63 0 -89.5 22.5t-27.5 78.5q-14 -30 -33 -49.5t-40.5 -31t-44.5 -16t-44 -4.5q-27 0 -57 7t-55.5 24.5t-42.5 47.5t-17 77q0 51 20 82t54 48.5t78.5 24t92.5 8.5l83 3v44q0 18 -4 33t-14 26.5t-27.5 18t-44.5 6.5
q-15 0 -30.5 -3t-29 -11.5t-23 -23.5t-11.5 -39l-126 10q4 46 26.5 76t54.5 48t69 25.5t70 7.5q118 0 169 -45.5t51 -125.5v-202q0 -40 7 -54.5t34 -14.5h30v-86zM366 235l-85 -3q-23 -1 -43.5 -4.5t-35.5 -12.5t-24 -24t-9 -38t9.5 -36.5t22.5 -20.5t27.5 -9t24.5 -2
q22 0 42 8.5t36 25t25.5 42t9.5 58.5v16z" />
    <glyph glyph-name="Abreve" unicode="&#x102;" horiz-adv-x="705" 
d="M534 870q-4 -39 -19.5 -68t-39.5 -48.5t-55 -29t-67 -9.5t-67.5 9.5t-55.5 29t-39.5 48.5t-19.5 68h80q6 -42 34.5 -58.5t67.5 -16.5q37 0 66 17t35 58h80zM545 0l-60 169h-268l-58 -169h-139l247 674h172l246 -674h-140zM351 560l-101 -285h201z" />
    <glyph glyph-name="abreve" unicode="&#x103;" horiz-adv-x="580" 
d="M469 741q-3 -45 -18 -78t-39.5 -55t-56.5 -33t-69 -11t-69 11t-56.5 33t-39.5 55t-18 78h80q3 -53 32.5 -75t70.5 -22q20 0 38 5t32 16.5t22.5 30t9.5 45.5h81zM567 0q-22 -6 -43 -9t-35 -3q-63 0 -89.5 22.5t-27.5 78.5q-14 -30 -33 -49.5t-40.5 -31t-44.5 -16t-44 -4.5
q-27 0 -57 7t-55.5 24.5t-42.5 47.5t-17 77q0 51 20 82t54 48.5t78.5 24t92.5 8.5l83 3v44q0 18 -4 33t-14 26.5t-27.5 18t-44.5 6.5q-15 0 -30.5 -3t-29 -11.5t-23 -23.5t-11.5 -39l-126 10q4 46 26.5 76t54.5 48t69 25.5t70 7.5q118 0 169 -45.5t51 -125.5v-202
q0 -40 7 -54.5t34 -14.5h30v-86zM366 235l-85 -3q-23 -1 -43.5 -4.5t-35.5 -12.5t-24 -24t-9 -38t9.5 -36.5t22.5 -20.5t27.5 -9t24.5 -2q22 0 42 8.5t36 25t25.5 42t9.5 58.5v16z" />
    <glyph glyph-name="Aogonek" unicode="&#x104;" horiz-adv-x="705" 
d="M686 -199q-20 -6 -40.5 -10t-49.5 -4q-23 0 -43 5t-36 16t-25 28t-9 41q0 38 22 69t58 54h-18l-60 169h-268l-58 -169h-139l247 674h172l246 -674l1 -3q-17 -4 -35 -12.5t-34 -21t-26 -30t-10 -39.5q0 -23 15.5 -31.5t36.5 -8.5q29 0 53 9v-62zM351 560l-101 -285h201z
" />
    <glyph glyph-name="aogonek" unicode="&#x105;" horiz-adv-x="580" 
d="M567 -199q-20 -7 -40.5 -10.5t-49.5 -3.5q-23 0 -43.5 5t-36 15.5t-24.5 27.5t-9 41q0 37 19 66.5t51 51.5q-33 8 -47.5 30.5t-14.5 64.5q-14 -30 -33 -49.5t-40.5 -31t-44.5 -16t-44 -4.5q-27 0 -57 7t-55.5 24.5t-42.5 47.5t-17 77q0 51 20 82t54 48.5t78.5 24
t92.5 8.5l83 3v44q0 18 -4 33t-14 26.5t-27.5 18t-44.5 6.5q-15 0 -30.5 -3t-29 -11.5t-23 -23.5t-11.5 -39l-126 10q4 46 26.5 76t54.5 48t69 25.5t70 7.5q118 0 169 -45.5t51 -125.5v-202q0 -40 7 -54.5t34 -14.5h30v-89q-17 -4 -35 -12.5t-34 -21.5t-26 -30.5t-10 -39.5
q0 -23 15.5 -31.5t36.5 -8.5q15 0 28 2.5t25 7.5v-62zM366 235l-85 -3q-23 -1 -43.5 -4.5t-35.5 -12.5t-24 -24t-9 -38t9.5 -36.5t22.5 -20.5t27.5 -9t24.5 -2q22 0 42 8.5t36 25t25.5 42t9.5 58.5v16z" />
    <glyph glyph-name="Cacute" unicode="&#x106;" horiz-adv-x="702" 
d="M658 216q-24 -109 -98.5 -169t-188.5 -60q-75 0 -134.5 24t-101 69t-64 110t-22.5 147q0 81 22.5 145.5t64.5 109.5t101.5 69t133.5 24q115 0 190 -60t98 -168h-137q-15 57 -53 88t-98 31q-92 0 -139.5 -63.5t-47.5 -175.5t47.5 -175t139.5 -63q60 0 98 30t52 87h137z
M300 715l91 155h140l-135 -155h-96z" />
    <glyph glyph-name="cacute" unicode="&#x107;" horiz-adv-x="563" 
d="M524 184q-14 -94 -73.5 -145t-156.5 -51q-59 0 -106 18t-79.5 52.5t-50 83.5t-17.5 112q0 65 17.5 116t50.5 86t80 53.5t105 18.5q96 0 156 -49.5t74 -141.5l-131 -6q-15 100 -99 100q-60 0 -90 -45t-30 -128t30 -127.5t90 -44.5q83 0 100 98h130zM211 564l105 177h140
l-148 -177h-97z" />
    <glyph glyph-name="Ccircumflex" unicode="&#x108;" horiz-adv-x="702" 
d="M658 216q-24 -109 -98.5 -169t-188.5 -60q-75 0 -134.5 24t-101 69t-64 110t-22.5 147q0 81 22.5 145.5t64.5 109.5t101.5 69t133.5 24q115 0 190 -60t98 -168h-137q-15 57 -53 88t-98 31q-92 0 -139.5 -63.5t-47.5 -175.5t47.5 -175t139.5 -63q60 0 98 30t52 87h137z
M452 715l-81 83l-81 -83h-89l111 155h118l111 -155h-89z" />
    <glyph glyph-name="ccircumflex" unicode="&#x109;" horiz-adv-x="563" 
d="M524 184q-14 -94 -73.5 -145t-156.5 -51q-59 0 -106 18t-79.5 52.5t-50 83.5t-17.5 112q0 65 17.5 116t50.5 86t80 53.5t105 18.5q96 0 156 -49.5t74 -141.5l-131 -6q-15 100 -99 100q-60 0 -90 -45t-30 -128t30 -127.5t90 -44.5q83 0 100 98h130zM369 564l-82 101
l-81 -101h-88l110 177h119l111 -177h-89z" />
    <glyph glyph-name="Cdotaccent" unicode="&#x10a;" horiz-adv-x="702" 
d="M658 216q-24 -109 -98.5 -169t-188.5 -60q-75 0 -134.5 24t-101 69t-64 110t-22.5 147q0 81 22.5 145.5t64.5 109.5t101.5 69t133.5 24q115 0 190 -60t98 -168h-137q-15 57 -53 88t-98 31q-92 0 -139.5 -63.5t-47.5 -175.5t47.5 -175t139.5 -63q60 0 98 30t52 87h137z
M306 726v142h131v-142h-131z" />
    <glyph glyph-name="cdotaccent" unicode="&#x10b;" horiz-adv-x="563" 
d="M524 184q-14 -94 -73.5 -145t-156.5 -51q-59 0 -106 18t-79.5 52.5t-50 83.5t-17.5 112q0 65 17.5 116t50.5 86t80 53.5t105 18.5q96 0 156 -49.5t74 -141.5l-131 -6q-15 100 -99 100q-60 0 -90 -45t-30 -128t30 -127.5t90 -44.5q83 0 100 98h130zM223 582v141h130v-141
h-130z" />
    <glyph glyph-name="Ccaron" unicode="&#x10c;" horiz-adv-x="702" 
d="M658 216q-24 -109 -98.5 -169t-188.5 -60q-75 0 -134.5 24t-101 69t-64 110t-22.5 147q0 81 22.5 145.5t64.5 109.5t101.5 69t133.5 24q115 0 190 -60t98 -168h-137q-15 57 -53 88t-98 31q-92 0 -139.5 -63.5t-47.5 -175.5t47.5 -175t139.5 -63q60 0 98 30t52 87h137z
M312 715l-111 155h89l81 -83l81 83h89l-111 -155h-118z" />
    <glyph glyph-name="ccaron" unicode="&#x10d;" horiz-adv-x="563" 
d="M524 184q-14 -94 -73.5 -145t-156.5 -51q-59 0 -106 18t-79.5 52.5t-50 83.5t-17.5 112q0 65 17.5 116t50.5 86t80 53.5t105 18.5q96 0 156 -49.5t74 -141.5l-131 -6q-15 100 -99 100q-60 0 -90 -45t-30 -128t30 -127.5t90 -44.5q83 0 100 98h130zM228 564l-110 177h88
l81 -101l82 101h89l-111 -177h-119z" />
    <glyph glyph-name="Dcaron" unicode="&#x10e;" horiz-adv-x="716" 
d="M277 715l-111 155h89l81 -83l82 83h89l-112 -155h-118zM75 0v674h246q82 0 147 -25t110 -69t69 -105t24 -133q0 -70 -23.5 -132t-68.5 -108.5t-109.5 -74t-145.5 -27.5h-249zM320 110q53 0 93.5 18t67.5 49.5t41 74t14 90.5q0 50 -14 91.5t-41.5 71.5t-68.5 46.5
t-95 16.5h-109v-458h112z" />
    <glyph glyph-name="dcaron" unicode="&#x10f;" horiz-adv-x="746" 
d="M605 541l23 179h117l-46 -179h-94zM413 0v99q-29 -60 -72 -85.5t-97 -25.5q-42 0 -78.5 15t-64.5 47.5t-44 84t-16 124.5q0 70 16 121t44 84t64.5 48.5t78.5 15.5q54 0 97.5 -24t69.5 -81l-4 73v224h130v-720h-124zM287 85q55 0 88 40t33 134q0 92 -33 132t-88 40
q-48 0 -80.5 -41t-32.5 -131q0 -46 8.5 -79t24 -54t36 -31t44.5 -10z" />
    <glyph glyph-name="Dcroat" unicode="&#x110;" horiz-adv-x="719" 
d="M78 0v288h-100v100h100v286h246q82 0 147 -25t110 -69t69 -105t24 -133q0 -70 -23.5 -132t-68.5 -108.5t-109.5 -74t-145.5 -27.5h-249zM323 110q53 0 93.5 18t67.5 49.5t41 74t14 90.5q0 50 -14 91.5t-41.5 71.5t-68.5 46.5t-95 16.5h-109v-180h150v-100h-150v-178h112z
" />
    <glyph glyph-name="dcroat" unicode="&#x111;" horiz-adv-x="609" 
d="M413 0v99q-29 -60 -72 -85.5t-97 -25.5q-42 0 -78.5 15t-64.5 47.5t-44 84t-16 124.5q0 70 16 121t44 84t64.5 48.5t78.5 15.5q54 0 97.5 -24t69.5 -81l-4 73v99h-184v70h184v55h130v-55h79v-70h-79v-595h-124zM287 85q55 0 88 40t33 134q0 92 -33 132t-88 40
q-48 0 -80.5 -41t-32.5 -131q0 -46 8.5 -79t24 -54t36 -31t44.5 -10z" />
    <glyph glyph-name="Emacron" unicode="&#x112;" horiz-adv-x="543" 
d="M75 0v674h411v-107h-278v-173h259v-102h-259v-183h290v-109h-423zM115 765v81h343v-81h-343z" />
    <glyph glyph-name="emacron" unicode="&#x113;" 
d="M124 612v81h344v-81h-344zM180 230q3 -70 33 -107t86 -37q47 0 72 21t33 56h130q-17 -82 -75.5 -128.5t-155.5 -46.5q-120 0 -188.5 70t-68.5 196q0 65 18 116t52 86t81 53.5t106 18.5q109 0 172.5 -64.5t63.5 -190.5l-3 -43h-356zM405 310q-5 57 -28.5 89t-77.5 32
q-51 0 -80 -31.5t-37 -89.5h223z" />
    <glyph glyph-name="Ebreve" unicode="&#x114;" horiz-adv-x="543" 
d="M75 0v674h411v-107h-278v-173h259v-102h-259v-183h290v-109h-423zM469 870q-9 -78 -59.5 -116.5t-122.5 -38.5q-36 0 -67 9.5t-55.5 29t-40 48.5t-19.5 68h80q6 -42 34.5 -58.5t67.5 -16.5q38 0 67 17t34 58h81z" />
    <glyph glyph-name="ebreve" unicode="&#x115;" 
d="M478 741q-3 -45 -17.5 -78t-39 -55t-56.5 -33t-69 -11t-69.5 11t-56.5 33t-39 55t-18 78h80q3 -53 32.5 -75t70.5 -22q40 0 69.5 21.5t32.5 75.5h80zM169 230l11 7q2 -73 32 -112t87 -39q47 0 72 21t33 56h130q-17 -82 -75.5 -128.5t-155.5 -46.5q-120 0 -188.5 70
t-68.5 196q0 65 18 116t52 86t81 53.5t106 18.5q109 0 172.5 -64.5t63.5 -190.5l-3 -43h-367zM406 303q-4 60 -27.5 94t-79.5 34q-52 0 -81 -33t-36 -95l-12 7h251z" />
    <glyph glyph-name="Edotaccent" unicode="&#x116;" horiz-adv-x="543" 
d="M75 0v674h411v-107h-278v-173h259v-102h-259v-183h290v-109h-423zM221 725v136h132v-136h-132z" />
    <glyph glyph-name="edotaccent" unicode="&#x117;" 
d="M231 582v141h130v-141h-130zM180 230q3 -70 33 -107t86 -37q47 0 72 21t33 56h130q-17 -82 -75.5 -128.5t-155.5 -46.5q-120 0 -188.5 70t-68.5 196q0 65 18 116t52 86t81 53.5t106 18.5q109 0 172.5 -64.5t63.5 -190.5l-3 -43h-356zM405 310q-5 57 -28.5 89t-77.5 32
q-51 0 -80 -31.5t-37 -89.5h223z" />
    <glyph glyph-name="Eogonek" unicode="&#x118;" horiz-adv-x="543" 
d="M498 -199q-20 -7 -40.5 -10.5t-49.5 -3.5q-23 0 -43.5 5t-36 15.5t-24.5 27.5t-9 41q0 40 22 71t57 53h-299v674h411v-107h-278v-173h259v-102h-259v-183h290v-112q-17 -4 -35 -12.5t-34 -21.5t-26 -30.5t-10 -39.5q0 -23 15.5 -31.5t36.5 -8.5q15 0 28 2.5t25 7.5v-62z
" />
    <glyph glyph-name="eogonek" unicode="&#x119;" 
d="M509 -199q-20 -6 -40.5 -10t-49.5 -4q-24 0 -45 5t-37.5 16.5t-26 29t-9.5 42.5q0 32 13.5 60t33.5 51q-23 -3 -45 -3q-121 0 -189 70t-68 196q0 65 18 116t52 86t81 53.5t106 18.5q109 0 172.5 -64.5t63.5 -190.5l-3 -43h-356q3 -70 33 -107t86 -37q47 0 72 21t33 56
h130q-15 -74 -65 -120q-12 -14 -24.5 -30.5t-22 -35.5t-16 -39t-6.5 -41q0 -26 17.5 -35t38.5 -9q15 0 28 2.5t25 7.5v-62zM405 310q-5 57 -28.5 89t-77.5 32q-51 0 -80 -31.5t-37 -89.5h223z" />
    <glyph glyph-name="Ecaron" unicode="&#x11a;" horiz-adv-x="543" 
d="M75 0v674h411v-107h-278v-173h259v-102h-259v-183h290v-109h-423zM227 715l-110 155h88l81 -83l82 83h89l-111 -155h-119z" />
    <glyph glyph-name="ecaron" unicode="&#x11b;" 
d="M236 564l-110 177h88l81 -101l82 101h89l-111 -177h-119zM180 230q3 -70 33 -107t86 -37q47 0 72 21t33 56h130q-17 -82 -75.5 -128.5t-155.5 -46.5q-120 0 -188.5 70t-68.5 196q0 65 18 116t52 86t81 53.5t106 18.5q109 0 172.5 -64.5t63.5 -190.5l-3 -43h-356zM405 310
q-5 57 -28.5 89t-77.5 32q-51 0 -80 -31.5t-37 -89.5h223z" />
    <glyph glyph-name="Gcircumflex" unicode="&#x11c;" horiz-adv-x="722" 
d="M446 715l-81 83l-81 -83h-89l111 155h118l111 -155h-89zM579 0l-12 110q-17 -33 -40 -56.5t-50 -38t-56.5 -21.5t-57.5 -7q-71 0 -129 24t-99 69t-63.5 109.5t-22.5 146.5q0 81 23 146t65 110t102 69t134 24q115 0 189 -59t95 -165h-137q-14 55 -51 85t-96 30
q-94 0 -141.5 -63.5t-47.5 -176.5q0 -115 47.5 -179.5t140.5 -64.5q66 0 109 43.5t43 124.5v9h-145v90h286v-359h-86z" />
    <glyph glyph-name="gcircumflex" unicode="&#x11d;" horiz-adv-x="608" 
d="M407 21l7 96q-27 -61 -71 -86t-99 -25q-42 0 -79 15t-64.5 46.5t-43.5 80t-16 114.5q0 72 16 122.5t44 82.5t64.5 46.5t78.5 14.5q54 0 98 -25t71 -85v99h124v-508q0 -33 -8 -72t-34 -72.5t-74.5 -56t-129.5 -22.5q-30 0 -68 8t-72.5 28t-60 54t-30.5 87l126 6
q3 -45 34 -67.5t74 -22.5q36 0 58 10.5t34.5 27.5t16.5 39.5t4 46.5v18zM287 104q55 0 88 37.5t33 121.5q0 91 -33 129.5t-88 38.5q-48 0 -80.5 -40t-32.5 -128q0 -82 32.5 -120.5t80.5 -38.5zM379 564l-82 101l-81 -101h-88l110 177h119l111 -177h-89z" />
    <glyph glyph-name="Gbreve" unicode="&#x11e;" horiz-adv-x="722" 
d="M547 870q-9 -78 -59 -116.5t-123 -38.5q-36 0 -67 9.5t-55 29t-40 48.5t-20 68h81q6 -42 34.5 -58.5t66.5 -16.5t67 16.5t35 58.5h80zM579 0l-12 110q-17 -33 -40 -56.5t-50 -38t-56.5 -21.5t-57.5 -7q-71 0 -129 24t-99 69t-63.5 109.5t-22.5 146.5q0 81 23 146t65 110
t102 69t134 24q115 0 189 -59t95 -165h-137q-14 55 -51 85t-96 30q-94 0 -141.5 -63.5t-47.5 -176.5q0 -115 47.5 -179.5t140.5 -64.5q66 0 109 43.5t43 124.5v9h-145v90h286v-359h-86z" />
    <glyph glyph-name="gbreve" unicode="&#x11f;" horiz-adv-x="608" 
d="M407 21l7 96q-27 -61 -71 -86t-99 -25q-42 0 -79 15t-64.5 46.5t-43.5 80t-16 114.5q0 72 16 122.5t44 82.5t64.5 46.5t78.5 14.5q54 0 98 -25t71 -85v99h124v-508q0 -33 -8 -72t-34 -72.5t-74.5 -56t-129.5 -22.5q-30 0 -68 8t-72.5 28t-60 54t-30.5 87l126 6
q3 -45 34 -67.5t74 -22.5q36 0 58 10.5t34.5 27.5t16.5 39.5t4 46.5v18zM287 104q55 0 88 37.5t33 121.5q0 91 -33 129.5t-88 38.5q-48 0 -80.5 -40t-32.5 -128q0 -82 32.5 -120.5t80.5 -38.5zM474 741q-3 -45 -17.5 -78t-39 -55t-56.5 -33t-69 -11t-69.5 11t-56.5 33
t-39 55t-18 78h80q3 -53 32.5 -75t70.5 -22q40 0 69.5 21.5t32.5 75.5h80z" />
    <glyph glyph-name="Gdotaccent" unicode="&#x120;" horiz-adv-x="722" 
d="M303 726v142h130v-142h-130zM579 0l-12 110q-17 -33 -40 -56.5t-50 -38t-56.5 -21.5t-57.5 -7q-71 0 -129 24t-99 69t-63.5 109.5t-22.5 146.5q0 81 23 146t65 110t102 69t134 24q115 0 189 -59t95 -165h-137q-14 55 -51 85t-96 30q-94 0 -141.5 -63.5t-47.5 -176.5
q0 -115 47.5 -179.5t140.5 -64.5q66 0 109 43.5t43 124.5v9h-145v90h286v-359h-86z" />
    <glyph glyph-name="gdotaccent" unicode="&#x121;" horiz-adv-x="608" 
d="M407 21l7 96q-27 -61 -71 -86t-99 -25q-42 0 -79 15t-64.5 46.5t-43.5 80t-16 114.5q0 72 16 122.5t44 82.5t64.5 46.5t78.5 14.5q54 0 98 -25t71 -85v99h124v-508q0 -33 -8 -72t-34 -72.5t-74.5 -56t-129.5 -22.5q-30 0 -68 8t-72.5 28t-60 54t-30.5 87l126 6
q3 -45 34 -67.5t74 -22.5q36 0 58 10.5t34.5 27.5t16.5 39.5t4 46.5v18zM287 104q55 0 88 37.5t33 121.5q0 91 -33 129.5t-88 38.5q-48 0 -80.5 -40t-32.5 -128q0 -82 32.5 -120.5t80.5 -38.5zM232 582v141h130v-141h-130z" />
    <glyph glyph-name="uni0122" unicode="&#x122;" horiz-adv-x="722" 
d="M290 -222l24 176h116l-46 -176h-94zM579 0l-12 110q-17 -33 -40 -56.5t-50 -38t-56.5 -21.5t-57.5 -7q-71 0 -129 24t-99 69t-63.5 109.5t-22.5 146.5q0 81 23 146t65 110t102 69t134 24q115 0 189 -59t95 -165h-137q-14 55 -51 85t-96 30q-94 0 -141.5 -63.5
t-47.5 -176.5q0 -115 47.5 -179.5t140.5 -64.5q66 0 109 43.5t43 124.5v9h-145v90h286v-359h-86z" />
    <glyph glyph-name="uni0123" unicode="&#x123;" horiz-adv-x="608" 
d="M227 568l46 175h94l-24 -175h-116zM407 21l7 96q-27 -61 -71 -86t-99 -25q-42 0 -79 15t-64.5 46.5t-43.5 80t-16 114.5q0 72 16 122.5t44 82.5t64.5 46.5t78.5 14.5q54 0 98 -25t71 -85v99h124v-508q0 -33 -8 -72t-34 -72.5t-74.5 -56t-129.5 -22.5q-30 0 -68 8
t-72.5 28t-60 54t-30.5 87l126 6q3 -45 34 -67.5t74 -22.5q36 0 58 10.5t34.5 27.5t16.5 39.5t4 46.5v18zM287 104q55 0 88 37.5t33 121.5q0 91 -33 129.5t-88 38.5q-48 0 -80.5 -40t-32.5 -128q0 -82 32.5 -120.5t80.5 -38.5z" />
    <glyph glyph-name="Hcircumflex" unicode="&#x124;" horiz-adv-x="714" 
d="M506 0v286h-298v-286h-133v674h133v-273h298v273h133v-674h-133zM438 715l-81 83l-81 -83h-89l111 155h118l111 -155h-89z" />
    <glyph glyph-name="hcircumflex" unicode="&#x125;" horiz-adv-x="610" 
d="M218 758l-82 91l-81 -91h-88l110 166h119l111 -166h-89zM410 0v313q0 51 -22.5 80t-67.5 29q-54 0 -86 -40.5t-32 -112.5v-269h-130v720h130v-224l-6 -84q27 60 71 88t103 28q33 0 63.5 -9.5t54 -29t38 -51t14.5 -74.5v-364h-130z" />
    <glyph glyph-name="Hbar" unicode="&#x126;" horiz-adv-x="714" 
d="M506 0v286h-298v-286h-133v493h-54v72h54v109h133v-109h298v109h133v-109h55v-72h-55v-493h-133zM506 493h-298v-92h298v92z" />
    <glyph glyph-name="hbar" unicode="&#x127;" horiz-adv-x="610" 
d="M410 0v313q0 51 -22.5 80t-67.5 29q-54 0 -86 -40.5t-32 -112.5v-269h-130v594h-78v71h78v55h130v-55h184v-71h-184v-98l-6 -84q27 60 71 88t103 28q33 0 63.5 -9.5t54 -29t38 -51t14.5 -74.5v-364h-130z" />
    <glyph glyph-name="Itilde" unicode="&#x128;" horiz-adv-x="283" 
d="M75 0v674h133v-674h-133zM320 857q0 -21 -4.5 -43.5t-16 -41t-30.5 -30.5t-48 -12q-20 0 -41 7t-41.5 15.5t-38 15.5t-30.5 7q-17 0 -27.5 -8.5t-10.5 -36.5h-70q0 21 5 43t16 41t30 31t48 12q20 0 41.5 -7t41.5 -15.5t38 -15.5t31 -7q17 0 27 8t10 37h70z" />
    <glyph glyph-name="itilde" unicode="&#x129;" horiz-adv-x="274" 
d="M315 716q0 -21 -4.5 -43t-16 -41t-30.5 -31t-48 -12q-20 0 -41 7t-41 15.5t-38 15.5t-31 7q-17 0 -27 -8t-10 -37h-70q0 21 4.5 43.5t16 41t30.5 30.5t48 12q20 0 41.5 -7t41.5 -15.5t37.5 -15.5t30.5 -7q17 0 27 8.5t10 36.5h70zM72 0v517h130v-517h-130z" />
    <glyph glyph-name="Imacron" unicode="&#x12a;" horiz-adv-x="283" 
d="M75 0v674h133v-674h-133zM-31 765v81h344v-81h-344z" />
    <glyph glyph-name="imacron" unicode="&#x12b;" horiz-adv-x="274" 
d="M-35 612v81h343v-81h-343zM72 0v517h130v-517h-130z" />
    <glyph glyph-name="Ibreve" unicode="&#x12c;" horiz-adv-x="283" 
d="M75 0v674h133v-674h-133zM323 870q-4 -39 -19.5 -68t-39.5 -48.5t-55 -29t-67 -9.5t-67.5 9.5t-55.5 29t-39.5 48.5t-19.5 68h80q6 -42 34.5 -58.5t67.5 -16.5q37 0 66 17t35 58h80z" />
    <glyph glyph-name="ibreve" unicode="&#x12d;" horiz-adv-x="274" 
d="M320 741q-3 -45 -18 -78t-39.5 -55t-56.5 -33t-69 -11t-69 11t-56.5 33t-39.5 55t-18 78h80q3 -53 32.5 -75t70.5 -22q20 0 38 5t32 16.5t22.5 30t9.5 45.5h81zM72 0v517h130v-517h-130z" />
    <glyph glyph-name="Iogonek" unicode="&#x12e;" horiz-adv-x="283" 
d="M222 -199q-20 -7 -39.5 -10.5t-47.5 -3.5q-24 0 -45 5.5t-36.5 17t-25 29.5t-9.5 43q0 38 20 67.5t52 50.5h-16v674h133v-677q-14 -4 -30 -11.5t-29.5 -19.5t-22.5 -29t-9 -39q0 -25 16 -35t38 -10q28 0 51 9v-61z" />
    <glyph glyph-name="iogonek" unicode="&#x12f;" horiz-adv-x="274" 
d="M217 -199q-20 -7 -40 -10.5t-47 -3.5q-24 0 -45 5.5t-37 17.5t-25.5 30t-9.5 43q0 37 19.5 66.5t51.5 50.5h-12v517h130v-519q-14 -4 -29.5 -11.5t-29 -20t-22.5 -29t-9 -38.5q0 -25 15.5 -35.5t37.5 -10.5q15 0 27.5 2.5t24.5 7.5v-62zM69 598v112h136v-112h-136z" />
    <glyph glyph-name="Idotaccent" unicode="&#x130;" horiz-adv-x="283" 
d="M75 0v674h133v-674h-133zM75 737v136h133v-136h-133z" />
    <glyph glyph-name="dotlessi" unicode="&#x131;" horiz-adv-x="274" 
d="M72 0v517h130v-517h-130z" />
    <glyph glyph-name="IJ" unicode="&#x132;" horiz-adv-x="658" 
d="M75 0v674h133v-674h-133zM287 96h82q48 0 65 28t17 90v460h132v-457q0 -36 -3 -76.5t-19 -74.5t-49.5 -56.5t-93.5 -22.5q-6 0 -42.5 1.5t-88.5 11.5v96z" />
    <glyph glyph-name="ij" unicode="&#x133;" horiz-adv-x="548" 
d="M72 0v517h130v-517h-130zM69 598v112h136v-112h-136zM222 -103h58q41 0 53.5 26t12.5 84v510h130v-511q0 -48 -5 -88.5t-24 -70t-55 -45.5t-99 -16q-6 0 -27 1.5t-44 6.5v103zM343 598v112h136v-112h-136z" />
    <glyph glyph-name="Jcircumflex" unicode="&#x134;" horiz-adv-x="375" 
d="M3 96h83q47 0 64 28t17 90v460h133v-457q0 -36 -3 -76.5t-19 -74.5t-49.5 -56.5t-93.5 -22.5q-7 0 -43 1.5t-89 11.5v96zM314 715l-81 83l-81 -83h-89l111 155h118l111 -155h-89z" />
    <glyph glyph-name="jcircumflex" unicode="&#x135;" horiz-adv-x="274" 
d="M-52 -102h58q41 0 53.5 25.5t12.5 83.5v510h130v-511q0 -48 -5 -88.5t-24 -70t-55 -45.5t-99 -16q-6 0 -27 1.5t-44 6.5v104zM218 564l-82 101l-81 -101h-88l110 177h119l111 -177h-89z" />
    <glyph glyph-name="uni0136" unicode="&#x136;" horiz-adv-x="658" 
d="M273 -222l24 176h117l-47 -176h-94zM489 0l-218 283l-63 -67v-216h-133v674h133v-290l269 290h159l-276 -295l294 -379h-165z" />
    <glyph glyph-name="uni0137" unicode="&#x137;" horiz-adv-x="578" 
d="M235 -222l24 176h116l-46 -176h-94zM421 0l-151 247l-68 -64v-183h-130v720h130v-388l197 185h158l-195 -181l202 -336h-143z" />
    <glyph glyph-name="kgreenlandic" unicode="&#x138;" horiz-adv-x="578" 
d="M421 0l-150 235l-69 -67v-168h-130v517h130v-198l198 198h157l-198 -192l205 -325h-143z" />
    <glyph glyph-name="Lacute" unicode="&#x139;" horiz-adv-x="508" 
d="M75 0v674h133v-565h285v-109h-418zM68 715l92 155h140l-135 -155h-97z" />
    <glyph glyph-name="lacute" unicode="&#x13a;" horiz-adv-x="274" 
d="M72 0v720h130v-720h-130zM64 758l97 166h139l-139 -166h-97z" />
    <glyph glyph-name="uni013B" unicode="&#x13b;" horiz-adv-x="508" 
d="M209 -222l24 176h116l-46 -176h-94zM75 0v674h133v-565h285v-109h-418z" />
    <glyph glyph-name="uni013C" unicode="&#x13c;" horiz-adv-x="274" 
d="M56 -222l23 176h117l-46 -176h-94zM72 0v720h130v-720h-130z" />
    <glyph glyph-name="Lcaron" unicode="&#x13d;" horiz-adv-x="508" 
d="M291 495l23 179h117l-46 -179h-94zM75 0v674h133v-565h285v-109h-418z" />
    <glyph glyph-name="lcaron" unicode="&#x13e;" horiz-adv-x="411" 
d="M270 541l24 179h116l-46 -179h-94zM72 0v720h130v-720h-130z" />
    <glyph glyph-name="Ldot" unicode="&#x13f;" horiz-adv-x="508" 
d="M304 319v136h130v-136h-130zM75 0v674h133v-565h285v-109h-418z" />
    <glyph glyph-name="ldot" unicode="&#x140;" horiz-adv-x="447" 
d="M72 0v720h130v-720h-130zM296 285v142h131v-142h-131z" />
    <glyph glyph-name="Lslash" unicode="&#x141;" horiz-adv-x="540" 
d="M107 0v267l-104 -33v96l104 33v311h133v-268l147 48v-96l-147 -48v-201h284v-109h-417z" />
    <glyph glyph-name="lslash" unicode="&#x142;" horiz-adv-x="363" 
d="M115 0v288l-116 -39v97l116 39v335h131v-290l118 40v-96l-118 -40v-334h-131z" />
    <glyph glyph-name="Nacute" unicode="&#x143;" horiz-adv-x="728" 
d="M305 715l91 155h140l-135 -155h-96zM509 0l-301 468v-468h-133v674h139l306 -479v479h133v-674h-144z" />
    <glyph glyph-name="nacute" unicode="&#x144;" horiz-adv-x="610" 
d="M237 564l106 177h139l-148 -177h-97zM410 0v313q0 51 -22.5 80t-67.5 29q-54 0 -86 -40.5t-32 -112.5v-269h-130v517h124v-104q28 62 72.5 88.5t101.5 26.5q33 0 63.5 -9.5t54 -29t38 -51t14.5 -74.5v-364h-130z" />
    <glyph glyph-name="uni0145" unicode="&#x145;" horiz-adv-x="728" 
d="M289 -222l24 176h117l-47 -176h-94zM509 0l-301 468v-468h-133v674h139l306 -479v479h133v-674h-144z" />
    <glyph glyph-name="uni0146" unicode="&#x146;" horiz-adv-x="610" 
d="M231 -222l24 176h117l-47 -176h-94zM410 0v313q0 51 -22.5 80t-67.5 29q-54 0 -86 -40.5t-32 -112.5v-269h-130v517h124v-104q28 62 72.5 88.5t101.5 26.5q33 0 63.5 -9.5t54 -29t38 -51t14.5 -74.5v-364h-130z" />
    <glyph glyph-name="Ncaron" unicode="&#x147;" horiz-adv-x="728" 
d="M305 715l-111 155h89l81 -83l82 83h89l-112 -155h-118zM509 0l-301 468v-468h-133v674h139l306 -479v479h133v-674h-144z" />
    <glyph glyph-name="ncaron" unicode="&#x148;" horiz-adv-x="610" 
d="M246 564l-110 177h88l81 -101l82 101h89l-111 -177h-119zM410 0v313q0 51 -22.5 80t-67.5 29q-54 0 -86 -40.5t-32 -112.5v-269h-130v517h124v-104q28 62 72.5 88.5t101.5 26.5q33 0 63.5 -9.5t54 -29t38 -51t14.5 -74.5v-364h-130z" />
    <glyph glyph-name="napostrophe" unicode="&#x149;" horiz-adv-x="610" 
d="M48 564l24 175h116l-46 -175h-94zM410 0v313q0 51 -22.5 80t-67.5 29q-54 0 -86 -40.5t-32 -112.5v-269h-130v517h124v-104q28 62 72.5 88.5t101.5 26.5q33 0 63.5 -9.5t54 -29t38 -51t14.5 -74.5v-364h-130z" />
    <glyph glyph-name="Eng" unicode="&#x14a;" horiz-adv-x="728" 
d="M357 -108h91q72 0 72 80v29l-312 469v-470h-133v674h139l306 -462v462h133v-660q0 -36 -3 -76.5t-19 -74.5t-49 -56.5t-94 -22.5q-6 0 -42 1.5t-89 10.5v96z" />
    <glyph glyph-name="eng" unicode="&#x14b;" horiz-adv-x="610" 
d="M287 -102h57q23 0 36 7.5t20 23.5t8.5 41t1.5 60v283q0 51 -22.5 80t-67.5 29q-54 0 -86 -40.5t-32 -112.5v-269h-130v517h124v-104q28 62 72.5 88.5t101.5 26.5q33 0 63.5 -9.5t54 -29t38 -51t14.5 -74.5v-311q0 -57 -3.5 -105.5t-20.5 -84.5t-54 -56.5t-104 -20.5
q-6 0 -27.5 1.5t-43.5 6.5v104z" />
    <glyph glyph-name="Omacron" unicode="&#x14c;" horiz-adv-x="752" 
d="M205 752v82h343v-82h-343zM376 -13q-75 0 -135.5 24t-103 69t-65.5 110t-23 147q0 81 23 145.5t65.5 109.5t103 69t135.5 24t135.5 -24t103 -69t65.5 -109.5t23 -145.5q0 -82 -23 -147t-65.5 -110t-103 -69t-135.5 -24zM376 99q95 0 143.5 63t48.5 175t-48.5 175.5
t-143.5 63.5t-143.5 -63.5t-48.5 -175.5t48.5 -175t143.5 -63z" />
    <glyph glyph-name="omacron" unicode="&#x14d;" 
d="M293 -12q-58 0 -104.5 18.5t-79.5 53t-50.5 85t-17.5 113.5q0 64 17.5 114t50.5 84.5t79.5 53t104.5 18.5t104.5 -18.5t79 -53t50 -84.5t17.5 -114q0 -63 -17.5 -113.5t-50 -85t-79 -53t-104.5 -18.5zM293 86q60 0 89 44.5t29 127.5t-29 128t-89 45t-89.5 -45t-29.5 -128
t29.5 -127.5t89.5 -44.5zM121 612v81h343v-81h-343z" />
    <glyph glyph-name="Obreve" unicode="&#x14e;" horiz-adv-x="752" 
d="M558 870q-9 -78 -59 -116.5t-123 -38.5q-36 0 -67 9.5t-55 29t-40 48.5t-20 68h81q6 -42 34.5 -58.5t66.5 -16.5t67 16.5t35 58.5h80zM376 -13q-75 0 -135.5 24t-103 69t-65.5 110t-23 147q0 81 23 145.5t65.5 109.5t103 69t135.5 24t135.5 -24t103 -69t65.5 -109.5
t23 -145.5q0 -82 -23 -147t-65.5 -110t-103 -69t-135.5 -24zM376 99q95 0 143.5 63t48.5 175t-48.5 175.5t-143.5 63.5t-143.5 -63.5t-48.5 -175.5t48.5 -175t143.5 -63z" />
    <glyph glyph-name="obreve" unicode="&#x14f;" 
d="M293 -12q-58 0 -104.5 18.5t-79.5 53t-50.5 85t-17.5 113.5q0 64 17.5 114t50.5 84.5t79.5 53t104.5 18.5t104.5 -18.5t79 -53t50 -84.5t17.5 -114q0 -63 -17.5 -113.5t-50 -85t-79 -53t-104.5 -18.5zM293 86q60 0 89 44.5t29 127.5t-29 128t-89 45t-89.5 -45t-29.5 -128
t29.5 -127.5t89.5 -44.5zM476 741q-3 -45 -18 -78t-39.5 -55t-56.5 -33t-69 -11t-69 11t-56.5 33t-39.5 55t-18 78h80q3 -53 32.5 -75t70.5 -22q20 0 38 5t32 16.5t22.5 30t9.5 45.5h81z" />
    <glyph glyph-name="Ohungarumlaut" unicode="&#x150;" horiz-adv-x="752" 
d="M213 715l91 155h140l-135 -155h-96zM413 715l92 155h139l-134 -155h-97zM376 -13q-75 0 -135.5 24t-103 69t-65.5 110t-23 147q0 81 23 145.5t65.5 109.5t103 69t135.5 24t135.5 -24t103 -69t65.5 -109.5t23 -145.5q0 -82 -23 -147t-65.5 -110t-103 -69t-135.5 -24z
M376 99q95 0 143.5 63t48.5 175t-48.5 175.5t-143.5 63.5t-143.5 -63.5t-48.5 -175.5t48.5 -175t143.5 -63z" />
    <glyph glyph-name="ohungarumlaut" unicode="&#x151;" 
d="M293 -12q-58 0 -104.5 18.5t-79.5 53t-50.5 85t-17.5 113.5q0 64 17.5 114t50.5 84.5t79.5 53t104.5 18.5t104.5 -18.5t79 -53t50 -84.5t17.5 -114q0 -63 -17.5 -113.5t-50 -85t-79 -53t-104.5 -18.5zM293 86q60 0 89 44.5t29 127.5t-29 128t-89 45t-89.5 -45t-29.5 -128
t29.5 -127.5t89.5 -44.5zM334 564l105 177h139l-148 -177h-96zM133 564l105 177h140l-148 -177h-97z" />
    <glyph glyph-name="OE" unicode="&#x152;" horiz-adv-x="1035" 
d="M567 0v60q-35 -35 -83 -53.5t-108 -18.5q-75 0 -135.5 24t-103 69t-65.5 109.5t-23 146.5q0 81 23 145.5t65.5 109.5t103 69t135.5 24q119 0 191 -72v61h411v-107h-278v-173h259v-103h-259v-182h290v-109h-423zM567 360q0 102 -51 159t-140 57q-95 0 -143.5 -63.5
t-48.5 -175.5t48.5 -174.5t143.5 -62.5q89 0 140 57.5t51 158.5v44z" />
    <glyph glyph-name="oe" unicode="&#x153;" horiz-adv-x="951" 
d="M546 230q3 -70 33 -107t86 -37q47 0 72 21t33 56h130q-17 -82 -75.5 -128.5t-155.5 -46.5q-63 0 -112.5 20.5t-83.5 58.5q-30 -38 -75.5 -58.5t-104.5 -20.5q-58 0 -104.5 18.5t-79.5 53t-50.5 85t-17.5 113.5q0 64 17.5 114t50.5 84.5t79.5 53t104.5 18.5
q60 0 105.5 -21t75.5 -60q34 39 83 60t112 21q109 0 172.5 -64.5t63.5 -190.5l-3 -43h-356zM293 86q60 0 89 44.5t29 127.5t-29 128t-89 45t-89.5 -45t-29.5 -128t29.5 -127.5t89.5 -44.5zM771 310q-5 57 -28.5 89t-77.5 32q-51 0 -80 -31.5t-37 -89.5h223z" />
    <glyph glyph-name="Racute" unicode="&#x154;" horiz-adv-x="621" 
d="M203 715l92 155h139l-134 -155h-97zM455 0l-130 255h-117v-255h-133v674h244q59 0 106.5 -13t81.5 -39t52 -64t18 -89q0 -69 -33.5 -117t-92.5 -71l143 -281h-139zM313 361q60 0 94.5 27t34.5 81q0 49 -33.5 74t-96.5 25h-104v-207h105z" />
    <glyph glyph-name="racute" unicode="&#x155;" horiz-adv-x="384" 
d="M72 0v517h124v-106q24 64 60 90.5t78 26.5q8 0 20 -1t22 -5v-111h-56q-53 0 -85.5 -35.5t-32.5 -108.5v-267h-130zM110 564l106 177h139l-148 -177h-97z" />
    <glyph glyph-name="uni0156" unicode="&#x156;" horiz-adv-x="621" 
d="M256 -222l24 176h117l-47 -176h-94zM455 0l-130 255h-117v-255h-133v674h244q59 0 106.5 -13t81.5 -39t52 -64t18 -89q0 -69 -33.5 -117t-92.5 -71l143 -281h-139zM313 361q60 0 94.5 27t34.5 81q0 49 -33.5 74t-96.5 25h-104v-207h105z" />
    <glyph glyph-name="uni0157" unicode="&#x157;" horiz-adv-x="384" 
d="M56 -222l23 176h117l-46 -176h-94zM72 0v517h124v-106q24 64 60 90.5t78 26.5q8 0 20 -1t22 -5v-111h-56q-53 0 -85.5 -35.5t-32.5 -108.5v-267h-130z" />
    <glyph glyph-name="Rcaron" unicode="&#x158;" horiz-adv-x="621" 
d="M240 715l-111 155h89l81 -83l81 83h89l-111 -155h-118zM455 0l-130 255h-117v-255h-133v674h244q59 0 106.5 -13t81.5 -39t52 -64t18 -89q0 -69 -33.5 -117t-92.5 -71l143 -281h-139zM313 361q60 0 94.5 27t34.5 81q0 49 -33.5 74t-96.5 25h-104v-207h105z" />
    <glyph glyph-name="rcaron" unicode="&#x159;" horiz-adv-x="384" 
d="M72 0v517h124v-106q24 64 60 90.5t78 26.5q8 0 20 -1t22 -5v-111h-56q-53 0 -85.5 -35.5t-32.5 -108.5v-267h-130zM164 564l-110 177h88l81 -101l82 101h89l-111 -177h-119z" />
    <glyph glyph-name="Sacute" unicode="&#x15a;" horiz-adv-x="625" 
d="M449 471q-3 36 -16.5 58t-33.5 34.5t-43.5 17t-45.5 4.5t-43.5 -4.5t-38 -14t-27 -24.5t-10.5 -37q0 -29 17 -47.5t45 -31.5t63.5 -22t72.5 -19t72.5 -23.5t63.5 -35t45 -54t17 -79.5q0 -44 -17 -81.5t-51 -65t-86.5 -43.5t-122.5 -16q-19 0 -46 2.5t-57 11t-59.5 24
t-54 41t-40.5 62.5t-18 88h132q1 -36 15.5 -60.5t36 -39t49 -20.5t55.5 -6q26 0 49.5 5t41 15t27.5 26t10 39q0 30 -17 48.5t-45 31t-63.5 21.5t-72.5 19t-72.5 23.5t-63.5 36t-45 56t-17 83.5q0 51 22.5 87t60 59.5t86.5 34t101 10.5q32 0 75 -8t82 -31t68 -65t32 -110
h-133zM242 715l92 155h139l-134 -155h-97z" />
    <glyph glyph-name="sacute" unicode="&#x15b;" horiz-adv-x="517" 
d="M351 366q-4 44 -29.5 60.5t-60.5 16.5q-33 0 -58 -11.5t-25 -40.5t22.5 -44.5t56 -26t72.5 -21t72.5 -28t56 -47.5t22.5 -80q0 -72 -59 -114t-165 -42q-25 0 -61 5.5t-70 23t-59.5 50.5t-30.5 87h126q2 -22 11.5 -36.5t23 -23t30.5 -12t35 -3.5q47 0 68.5 14.5t21.5 40.5
q0 28 -22.5 43t-55.5 26t-72.5 21t-72.5 28t-55.5 47.5t-22.5 79.5q0 38 18.5 66t48 46.5t67 27.5t75.5 9q31 0 66.5 -5.5t66.5 -22t54 -48t29 -82.5zM182 564l106 177h139l-148 -177h-97z" />
    <glyph glyph-name="Scircumflex" unicode="&#x15c;" horiz-adv-x="625" 
d="M449 471q-3 36 -16.5 58t-33.5 34.5t-43.5 17t-45.5 4.5t-43.5 -4.5t-38 -14t-27 -24.5t-10.5 -37q0 -29 17 -47.5t45 -31.5t63.5 -22t72.5 -19t72.5 -23.5t63.5 -35t45 -54t17 -79.5q0 -44 -17 -81.5t-51 -65t-86.5 -43.5t-122.5 -16q-19 0 -46 2.5t-57 11t-59.5 24
t-54 41t-40.5 62.5t-18 88h132q1 -36 15.5 -60.5t36 -39t49 -20.5t55.5 -6q26 0 49.5 5t41 15t27.5 26t10 39q0 30 -17 48.5t-45 31t-63.5 21.5t-72.5 19t-72.5 23.5t-63.5 36t-45 56t-17 83.5q0 51 22.5 87t60 59.5t86.5 34t101 10.5q32 0 75 -8t82 -31t68 -65t32 -110
h-133zM395 715l-82 83l-81 -83h-89l111 155h118l112 -155h-89z" />
    <glyph glyph-name="scircumflex" unicode="&#x15d;" horiz-adv-x="517" 
d="M351 366q-4 44 -29.5 60.5t-60.5 16.5q-33 0 -58 -11.5t-25 -40.5t22.5 -44.5t56 -26t72.5 -21t72.5 -28t56 -47.5t22.5 -80q0 -72 -59 -114t-165 -42q-25 0 -61 5.5t-70 23t-59.5 50.5t-30.5 87h126q2 -22 11.5 -36.5t23 -23t30.5 -12t35 -3.5q47 0 68.5 14.5t21.5 40.5
q0 28 -22.5 43t-55.5 26t-72.5 21t-72.5 28t-55.5 47.5t-22.5 79.5q0 38 18.5 66t48 46.5t67 27.5t75.5 9q31 0 66.5 -5.5t66.5 -22t54 -48t29 -82.5zM341 564l-81 101l-81 -101h-89l111 177h118l111 -177h-89z" />
    <glyph glyph-name="Scedilla" unicode="&#x15e;" horiz-adv-x="625" 
d="M202 -146q26 -11 47 -15t37 -4q26 0 40.5 10t14.5 30t-21 33.5t-68 13.5v40l16 27q-33 3 -72.5 14.5t-74.5 37t-59 68t-27 107.5h132q1 -36 15.5 -60.5t36 -39t49 -20.5t55.5 -6q26 0 49.5 5t41 15t27.5 26t10 39q0 30 -17 48.5t-45 31t-63.5 21.5t-72.5 19t-72.5 23.5
t-63.5 36t-45 56t-17 83.5q0 51 22.5 87t60 59.5t86.5 34t101 10.5q32 0 75 -8t82 -31t68 -65t32 -110h-133q-3 36 -16.5 58t-33.5 34.5t-43.5 17t-45.5 4.5t-43.5 -4.5t-38 -14t-27 -24.5t-10.5 -37q0 -29 17 -47.5t45 -31.5t63.5 -22t72.5 -19t72.5 -23.5t63.5 -35t45 -54
t17 -79.5q0 -42 -15.5 -78t-47 -63.5t-79 -44t-111.5 -19.5l-18 -28q56 -3 84.5 -29.5t28.5 -64.5q0 -13 -5.5 -28t-19 -28.5t-36.5 -22.5t-59 -9q-17 0 -46 3.5t-61 14.5v58z" />
    <glyph glyph-name="scedilla" unicode="&#x15f;" horiz-adv-x="517" 
d="M164 -146q25 -10 46.5 -14t37.5 -4q25 0 40 10t15 30q0 19 -21 32.5t-68 13.5v40l16 27q-27 2 -59.5 10t-61 26.5t-49.5 49.5t-25 79h126q2 -22 11.5 -36.5t23 -23t30.5 -12t35 -3.5q47 0 68.5 14.5t21.5 40.5q0 28 -22.5 43t-55.5 26t-72.5 21t-72.5 28t-55.5 47.5
t-22.5 79.5q0 38 18.5 66t48 46.5t67 27.5t75.5 9q31 0 66.5 -5.5t66.5 -22t54 -48t29 -82.5l-124 -4q-4 44 -29.5 60.5t-60.5 16.5q-33 0 -58 -11.5t-25 -40.5t22.5 -44.5t56 -26t72.5 -21t72.5 -28t56 -47.5t22.5 -80q0 -65 -48 -105.5t-135 -48.5l-19 -29
q56 -3 84.5 -29.5t28.5 -64.5q0 -13 -5.5 -28t-19 -28.5t-36.5 -22.5t-59 -9q-17 0 -46 3t-61 14v58z" />
    <glyph glyph-name="Scaron" unicode="&#x160;" horiz-adv-x="625" 
d="M449 471q-3 36 -16.5 58t-33.5 34.5t-43.5 17t-45.5 4.5t-43.5 -4.5t-38 -14t-27 -24.5t-10.5 -37q0 -29 17 -47.5t45 -31.5t63.5 -22t72.5 -19t72.5 -23.5t63.5 -35t45 -54t17 -79.5q0 -44 -17 -81.5t-51 -65t-86.5 -43.5t-122.5 -16q-19 0 -46 2.5t-57 11t-59.5 24
t-54 41t-40.5 62.5t-18 88h132q1 -36 15.5 -60.5t36 -39t49 -20.5t55.5 -6q26 0 49.5 5t41 15t27.5 26t10 39q0 30 -17 48.5t-45 31t-63.5 21.5t-72.5 19t-72.5 23.5t-63.5 36t-45 56t-17 83.5q0 51 22.5 87t60 59.5t86.5 34t101 10.5q32 0 75 -8t82 -31t68 -65t32 -110
h-133zM254 715l-110 155h88l81 -83l82 83h89l-111 -155h-119z" />
    <glyph glyph-name="scaron" unicode="&#x161;" horiz-adv-x="517" 
d="M351 366q-4 44 -29.5 60.5t-60.5 16.5q-33 0 -58 -11.5t-25 -40.5t22.5 -44.5t56 -26t72.5 -21t72.5 -28t56 -47.5t22.5 -80q0 -72 -59 -114t-165 -42q-25 0 -61 5.5t-70 23t-59.5 50.5t-30.5 87h126q2 -22 11.5 -36.5t23 -23t30.5 -12t35 -3.5q47 0 68.5 14.5t21.5 40.5
q0 28 -22.5 43t-55.5 26t-72.5 21t-72.5 28t-55.5 47.5t-22.5 79.5q0 38 18.5 66t48 46.5t67 27.5t75.5 9q31 0 66.5 -5.5t66.5 -22t54 -48t29 -82.5zM201 564l-111 177h89l81 -101l81 101h89l-111 -177h-118z" />
    <glyph glyph-name="uni0162" unicode="&#x162;" horiz-adv-x="577" 
d="M184 -147q25 -10 46 -14t37 -4q26 0 40.5 10t14.5 30q0 19 -21 32.5t-68 13.5v40l23 39h-34v567h-205v107h543v-107h-205v-567h-31l-26 -40q55 -3 83.5 -29.5t28.5 -64.5q0 -13 -5.5 -28t-19 -28.5t-36.5 -22.5t-59 -9q-17 0 -45.5 3t-60.5 14v58z" />
    <glyph glyph-name="uni0163" unicode="&#x163;" horiz-adv-x="372" 
d="M108 -147q25 -10 46 -14t37 -4q26 0 41 10t15 30q0 19 -21.5 32.5t-68.5 13.5v40l25 41q-30 11 -48 30.5t-27 45.5t-12 58.5t-3 69.5v210h-74v99h74v132h130v-132h125v-99h-125v-210q0 -57 13.5 -82t58.5 -25h53v-100q-10 -3 -20.5 -5.5t-20.5 -3.5t-17 -1.5t-10 -0.5
q-11 0 -20 0.5t-18 1.5l-19 -30q55 -3 84 -29.5t29 -64.5q0 -13 -5.5 -28t-19 -28.5t-37 -22.5t-59.5 -9q-17 0 -45.5 3t-60.5 14v58z" />
    <glyph glyph-name="Tcaron" unicode="&#x164;" horiz-adv-x="577" 
d="M228 715l-110 155h88l81 -83l82 83h89l-111 -155h-119zM222 0v567h-205v107h543v-107h-205v-567h-133z" />
    <glyph glyph-name="tcaron" unicode="&#x165;" horiz-adv-x="372" 
d="M287 585l24 179h117l-47 -179h-94zM347 -1q-10 -3 -20.5 -5.5t-20.5 -3.5t-17 -1.5t-10 -0.5q-64 0 -101 16t-56 44.5t-24.5 69t-5.5 88.5v210h-74v99h74v132h130v-132h125v-99h-125v-210q0 -57 13.5 -82t58.5 -25h53v-100z" />
    <glyph glyph-name="Tbar" unicode="&#x166;" horiz-adv-x="577" 
d="M222 0v277h-151v78h151v212h-205v107h543v-107h-205v-212h152v-78h-152v-277h-133z" />
    <glyph glyph-name="tbar" unicode="&#x167;" horiz-adv-x="372" 
d="M347 -1q-10 -3 -20.5 -5.5t-20.5 -3.5t-17 -1.5t-10 -0.5q-64 0 -101 16t-56 44.5t-24.5 69t-5.5 88.5v47h-74v72h74v91h-74v99h74v132h130v-132h125v-99h-125v-91h125v-72h-125v-47q0 -57 13.5 -82t58.5 -25h53v-100z" />
    <glyph glyph-name="Utilde" unicode="&#x168;" horiz-adv-x="698" 
d="M528 857q0 -21 -4.5 -43.5t-16 -41t-30.5 -30.5t-48 -12q-20 0 -41 7t-41.5 15.5t-38 15.5t-30.5 7q-17 0 -27 -8.5t-10 -36.5h-70q0 21 4.5 43t16 41t30.5 31t48 12q20 0 41 -7t41 -15.5t38 -15.5t31 -7q17 0 27 8t10 37h70zM498 674h131v-419q0 -67 -20.5 -117
t-57.5 -83.5t-88.5 -50.5t-113.5 -17q-63 0 -114.5 17t-88.5 50.5t-57 83.5t-20 117v419h133v-414q0 -82 40.5 -121.5t106.5 -39.5q69 0 109 39.5t40 121.5v414z" />
    <glyph glyph-name="utilde" unicode="&#x169;" horiz-adv-x="610" 
d="M414 0v103q-28 -60 -71.5 -87.5t-100.5 -27.5q-34 0 -64.5 9.5t-54 29.5t-37.5 51.5t-14 76.5v362h130v-312q0 -53 21.5 -81.5t68.5 -28.5q52 0 84 40t32 112v270h130v-517h-124zM484 716q0 -21 -4.5 -43t-16 -41t-30.5 -31t-48 -12q-20 0 -41.5 7t-41.5 15.5t-38 15.5
t-31 7q-17 0 -27 -8t-10 -37h-70q0 21 4.5 43.5t16 41t30.5 30.5t48 12q20 0 41.5 -7t41.5 -15.5t37.5 -15.5t30.5 -7q17 0 27.5 8.5t10.5 36.5h70z" />
    <glyph glyph-name="Umacron" unicode="&#x16a;" horiz-adv-x="698" 
d="M177 756v82h344v-82h-344zM498 674h131v-419q0 -67 -20.5 -117t-57.5 -83.5t-88.5 -50.5t-113.5 -17q-63 0 -114.5 17t-88.5 50.5t-57 83.5t-20 117v419h133v-414q0 -82 40.5 -121.5t106.5 -39.5q69 0 109 39.5t40 121.5v414z" />
    <glyph glyph-name="umacron" unicode="&#x16b;" horiz-adv-x="610" 
d="M414 0v103q-28 -60 -71.5 -87.5t-100.5 -27.5q-34 0 -64.5 9.5t-54 29.5t-37.5 51.5t-14 76.5v362h130v-312q0 -53 21.5 -81.5t68.5 -28.5q52 0 84 40t32 112v270h130v-517h-124zM133 612v81h344v-81h-344z" />
    <glyph glyph-name="Ubreve" unicode="&#x16c;" horiz-adv-x="698" 
d="M531 870q-4 -39 -19.5 -68t-39.5 -48.5t-55 -29t-67 -9.5t-67.5 9.5t-55.5 29t-39.5 48.5t-19.5 68h80q6 -42 34.5 -58.5t67.5 -16.5q38 0 66.5 16.5t34.5 58.5h80zM498 674h131v-419q0 -67 -20.5 -117t-57.5 -83.5t-88.5 -50.5t-113.5 -17q-63 0 -114.5 17t-88.5 50.5
t-57 83.5t-20 117v419h133v-414q0 -82 40.5 -121.5t106.5 -39.5q69 0 109 39.5t40 121.5v414z" />
    <glyph glyph-name="ubreve" unicode="&#x16d;" horiz-adv-x="610" 
d="M414 0v103q-28 -60 -71.5 -87.5t-100.5 -27.5q-34 0 -64.5 9.5t-54 29.5t-37.5 51.5t-14 76.5v362h130v-312q0 -53 21.5 -81.5t68.5 -28.5q52 0 84 40t32 112v270h130v-517h-124zM488 741q-3 -45 -18 -78t-39.5 -55t-56.5 -33t-69 -11t-69 11t-56.5 33t-39.5 55t-18 78
h80q3 -53 32.5 -75t70.5 -22q20 0 38 5t32 16.5t22.5 30t9.5 45.5h81z" />
    <glyph glyph-name="Uring" unicode="&#x16e;" horiz-adv-x="698" 
d="M498 674h131v-419q0 -67 -20.5 -117t-57.5 -83.5t-88.5 -50.5t-113.5 -17q-63 0 -114.5 17t-88.5 50.5t-57 83.5t-20 117v419h132v-414q0 -82 41 -121.5t107 -39.5q69 0 109 39.5t40 121.5v414zM406 751q0 25 -16.5 41.5t-40.5 16.5t-40.5 -17t-16.5 -41t16.5 -40
t40.5 -16t40.5 16t16.5 40zM468 751q0 -25 -9.5 -46.5t-25.5 -37t-37.5 -24.5t-45.5 -9q-25 0 -46.5 9t-37.5 24.5t-25.5 37t-9.5 46.5t9.5 47t25.5 38t37.5 25t46.5 9q24 0 45.5 -9t37.5 -25t25.5 -38t9.5 -47z" />
    <glyph glyph-name="uring" unicode="&#x16f;" horiz-adv-x="610" 
d="M414 0v103q-28 -60 -71.5 -87.5t-100.5 -27.5q-34 0 -64.5 9.5t-54 29.5t-37.5 51.5t-14 76.5v362h130v-312q0 -53 21.5 -81.5t68.5 -28.5q52 0 84 40t32 112v270h130v-517h-124zM362 672q0 24 -16.5 41t-41.5 17q-23 0 -40 -17t-17 -41t17 -40.5t40 -16.5
q25 0 41.5 16.5t16.5 40.5zM306 554q-25 0 -46.5 9t-37.5 25t-25.5 37.5t-9.5 46.5t9.5 46.5t25.5 37.5t37.5 25.5t46.5 9.5q24 0 45.5 -9.5t37.5 -25.5t25 -37.5t9 -46.5t-9 -46.5t-25 -37.5t-37.5 -25t-45.5 -9z" />
    <glyph glyph-name="Uhungarumlaut" unicode="&#x170;" horiz-adv-x="698" 
d="M186 715l92 155h140l-135 -155h-97zM387 715l92 155h139l-134 -155h-97zM498 674h131v-419q0 -67 -20.5 -117t-57.5 -83.5t-88.5 -50.5t-113.5 -17q-63 0 -114.5 17t-88.5 50.5t-57 83.5t-20 117v419h133v-414q0 -82 40.5 -121.5t106.5 -39.5q69 0 109 39.5t40 121.5v414
z" />
    <glyph glyph-name="uhungarumlaut" unicode="&#x171;" horiz-adv-x="610" 
d="M414 0v103q-28 -60 -71.5 -87.5t-100.5 -27.5q-34 0 -64.5 9.5t-54 29.5t-37.5 51.5t-14 76.5v362h130v-312q0 -53 21.5 -81.5t68.5 -28.5q52 0 84 40t32 112v270h130v-517h-124zM343 564l105 177h139l-148 -177h-96zM142 564l105 177h140l-148 -177h-97z" />
    <glyph glyph-name="Uogonek" unicode="&#x172;" horiz-adv-x="698" 
d="M450 -199q-21 -7 -41.5 -10.5t-49.5 -3.5q-22 0 -42.5 5t-36 15.5t-25 27.5t-9.5 41q0 35 17 63.5t45 49.5q-109 10 -174 76.5t-65 189.5v419h133v-414q0 -82 40.5 -121.5t106.5 -39.5q69 0 109 39.5t40 121.5v414h131v-419q0 -109 -52.5 -173.5t-140.5 -84.5
q-15 -6 -31.5 -15.5t-30 -22.5t-22 -29.5t-8.5 -36.5q0 -23 16 -31.5t36 -8.5q15 0 28 2.5t26 7.5v-62z" />
    <glyph glyph-name="uogonek" unicode="&#x173;" horiz-adv-x="610" 
d="M538 -199q-20 -7 -40.5 -10.5t-49.5 -3.5q-23 0 -43.5 5t-36 15.5t-24.5 27.5t-9 41q0 39 21.5 70.5t57.5 53.5v103q-28 -60 -71.5 -87.5t-100.5 -27.5q-34 0 -64.5 9.5t-54 29.5t-37.5 51.5t-14 76.5v362h130v-312q0 -53 21.5 -81.5t68.5 -28.5q52 0 84 40t32 112v270
h130v-520q-17 -4 -35 -12.5t-34 -21.5t-26 -30.5t-10 -39.5q0 -23 15.5 -31.5t36.5 -8.5q15 0 28 2.5t25 7.5v-62z" />
    <glyph glyph-name="Wcircumflex" unicode="&#x174;" horiz-adv-x="1021" 
d="M636 0l-128 513l-126 -513h-167l-200 674h143l147 -528l125 528h167l123 -526l149 526h137l-201 -674h-169zM592 715l-82 83l-81 -83h-88l110 155h118l112 -155h-89z" />
    <glyph glyph-name="wcircumflex" unicode="&#x175;" horiz-adv-x="842" 
d="M524 0l-102 384l-102 -384h-146l-158 517h139l99 -383l96 383h147l96 -384l98 384h135l-157 -517h-145zM503 564l-82 101l-81 -101h-89l111 177h118l112 -177h-89z" />
    <glyph glyph-name="Ycircumflex" unicode="&#x176;" horiz-adv-x="626" 
d="M246 0v260l-243 414h141l170 -314l171 314h138l-244 -413v-261h-133zM395 715l-82 83l-81 -83h-89l111 155h118l112 -155h-89z" />
    <glyph glyph-name="ycircumflex" unicode="&#x177;" horiz-adv-x="552" 
d="M116 -212l92 233l-193 496h138l122 -365l126 365h136l-294 -729h-127zM357 564l-82 101l-81 -101h-88l110 177h119l111 -177h-89z" />
    <glyph glyph-name="Ydieresis" unicode="&#x178;" horiz-adv-x="626" 
d="M246 0v260l-243 414h141l170 -314l171 314h138l-244 -413v-261h-133zM362 728v131h121v-131h-121zM144 728v131h121v-131h-121z" />
    <glyph glyph-name="Zacute" unicode="&#x179;" horiz-adv-x="595" 
d="M231 715l92 155h140l-135 -155h-97zM46 0v106l338 463h-322v105h473v-103l-338 -464h354v-107h-505z" />
    <glyph glyph-name="zacute" unicode="&#x17a;" horiz-adv-x="514" 
d="M46 0v87l253 332h-246v98h409v-86l-253 -332h260v-99h-423zM189 564l105 177h140l-148 -177h-97z" />
    <glyph glyph-name="Zdotaccent" unicode="&#x17b;" horiz-adv-x="595" 
d="M46 0v106l338 463h-322v105h473v-103l-338 -464h354v-107h-505zM233 725v136h132v-136h-132z" />
    <glyph glyph-name="zdotaccent" unicode="&#x17c;" horiz-adv-x="514" 
d="M46 0v87l253 332h-246v98h409v-86l-253 -332h260v-99h-423zM193 582v141h130v-141h-130z" />
    <glyph glyph-name="Zcaron" unicode="&#x17d;" horiz-adv-x="595" 
d="M46 0v106l338 463h-322v105h473v-103l-338 -464h354v-107h-505zM239 715l-110 155h88l81 -83l82 83h89l-112 -155h-118z" />
    <glyph glyph-name="zcaron" unicode="&#x17e;" horiz-adv-x="514" 
d="M198 564l-110 177h88l81 -101l82 101h89l-111 -177h-119zM46 0v87l253 332h-246v98h409v-86l-253 -332h260v-99h-423z" />
    <glyph glyph-name="florin" unicode="&#x192;" horiz-adv-x="557" 
d="M-4 -107h53q35 0 53.5 17.5t27.5 65.5l70 371h-109v89h126l26 136q12 65 51 103t119 38q20 0 51 -2.5t69 -10.5l-18 -82h-70q-31 0 -53.5 -13t-30.5 -58l-21 -111h144l-17 -89h-143l-74 -406q-13 -69 -51.5 -108t-109.5 -39q-19 0 -49 2.5t-65 9.5z" />
    <glyph glyph-name="Aringacute" unicode="&#x1fa;" horiz-adv-x="705" 
d="M545 0l-60 169h-268l-58 -169h-139l246 670q-15 16 -23.5 36.5t-8.5 44.5q0 41 23.5 72t60.5 42l35 64h133l-70 -77q25 -16 40 -42.5t15 -58.5q0 -23 -8.5 -43.5t-22.5 -36.5l245 -671h-140zM351 560l-101 -285h201zM409 751q0 25 -16.5 41.5t-40.5 16.5t-40.5 -17
t-16.5 -41t16.5 -40t40.5 -16t40.5 16t16.5 40z" />
    <glyph glyph-name="aringacute" unicode="&#x1fb;" horiz-adv-x="580" 
d="M567 0q-22 -6 -43 -9t-35 -3q-63 0 -89.5 22.5t-27.5 78.5q-14 -30 -33 -49.5t-40.5 -31t-44.5 -16t-44 -4.5q-27 0 -57 7t-55.5 24.5t-42.5 47.5t-17 77q0 51 20 82t54 48.5t78.5 24t92.5 8.5l83 3v44q0 18 -4 33t-14 26.5t-27.5 18t-44.5 6.5q-15 0 -30.5 -3t-29 -11.5
t-23 -23.5t-11.5 -39l-126 10q4 46 26.5 76t54.5 48t69 25.5t70 7.5q118 0 169 -45.5t51 -125.5v-202q0 -40 7 -54.5t34 -14.5h30v-86zM341 776q27 -15 44 -42.5t17 -61.5q0 -25 -9.5 -46.5t-25.5 -37.5t-37.5 -25t-45.5 -9q-25 0 -46.5 9t-37.5 25t-25.5 37.5t-9.5 46.5
q0 37 19.5 66t51.5 43l75 126h139zM366 235l-85 -3q-23 -1 -43.5 -4.5t-35.5 -12.5t-24 -24t-9 -38t9.5 -36.5t22.5 -20.5t27.5 -9t24.5 -2q22 0 42 8.5t36 25t25.5 42t9.5 58.5v16zM340 672q0 24 -16.5 41t-40.5 17t-40.5 -17t-16.5 -41t16.5 -40.5t40.5 -16.5t40.5 16.5
t16.5 40.5z" />
    <glyph glyph-name="AEacute" unicode="&#x1fc;" horiz-adv-x="951" 
d="M566 715l92 155h139l-134 -155h-97zM483 0v169h-236l-88 -169h-139l360 674h513v-107h-277v-173h258v-103h-258v-182h290v-109h-423zM483 567h-28l-155 -292h183v292z" />
    <glyph glyph-name="aeacute" unicode="&#x1fd;" horiz-adv-x="906" 
d="M398 564l105 177h140l-148 -177h-97zM501 230q3 -70 33 -107t86 -37q47 0 72 21t33 56h130q-17 -82 -75.5 -128.5t-155.5 -46.5q-75 0 -130 27.5t-87 79.5q-19 -31 -41.5 -51.5t-48 -33t-52.5 -17.5t-55 -5q-27 0 -57 7t-55.5 24.5t-42.5 47.5t-17 77q0 51 20 82
t53.5 48.5t78 24t93.5 8.5l83 3v44q0 18 -4 33t-14 26.5t-27.5 18t-44.5 6.5q-15 0 -30.5 -3t-29 -11.5t-23 -23.5t-11.5 -39l-126 10q4 46 26.5 76t54.5 48t69 25.5t70 7.5q66 0 108 -16.5t64 -45.5q68 62 176 62q109 0 172.5 -64.5t63.5 -190.5l-3 -43h-356zM366 235
l-85 -3q-24 -1 -44.5 -5t-35.5 -13t-23.5 -23.5t-8.5 -37.5t9.5 -36.5t22.5 -20.5t27.5 -9t24.5 -2q22 0 42 8.5t36 25t25.5 42t9.5 58.5v16zM726 310q-5 57 -28.5 89t-77.5 32q-51 0 -80 -31.5t-37 -89.5h223z" />
    <glyph glyph-name="Oslashacute" unicode="&#x1fe;" horiz-adv-x="752" 
d="M89 -87l82 136q-59 45 -90.5 117.5t-31.5 170.5q0 81 23 145.5t65.5 109.5t103 69t135.5 24q88 0 158 -34l66 109h63l-83 -137q59 -45 91 -117t32 -169q0 -82 -23 -147t-65.5 -110t-103 -69t-135.5 -24q-89 0 -159 34l-65 -108h-63zM474 551q-42 25 -98 25
q-95 0 -143.5 -63.5t-48.5 -175.5q0 -119 52 -180zM278 122q41 -23 98 -23q95 0 143.5 63t48.5 175q0 116 -52 179zM299 713l99 168h140l-142 -168h-97z" />
    <glyph glyph-name="oslashacute" unicode="&#x1ff;" 
d="M64 -69l66 108q-43 35 -66 90t-23 129q0 64 17.5 114t50.5 84.5t79.5 53t104.5 18.5q70 0 121 -27l53 86h54l-68 -110q44 -35 67.5 -90t23.5 -129q0 -63 -17.5 -113.5t-50 -85t-79 -53t-104.5 -18.5q-35 0 -66 7t-57 20l-51 -84h-55zM206 564l105 177h140l-148 -177h-97z
M226 106q28 -20 67 -20q60 0 89 44.5t29 127.5q0 67 -25 108zM359 411q-28 20 -66 20q-60 0 -89.5 -45t-29.5 -128q0 -69 25 -107z" />
    <glyph glyph-name="uni0218" unicode="&#x218;" horiz-adv-x="625" 
d="M237 -222l24 176h117l-47 -176h-94zM449 471q-3 36 -16.5 58t-33.5 34.5t-43.5 17t-45.5 4.5t-43.5 -4.5t-38 -14t-27 -24.5t-10.5 -37q0 -29 17 -47.5t45 -31.5t63.5 -22t72.5 -19t72.5 -23.5t63.5 -35t45 -54t17 -79.5q0 -44 -17 -81.5t-51 -65t-86.5 -43.5t-122.5 -16
q-19 0 -46 2.5t-57 11t-59.5 24t-54 41t-40.5 62.5t-18 88h132q1 -36 15.5 -60.5t36 -39t49 -20.5t55.5 -6q26 0 49.5 5t41 15t27.5 26t10 39q0 30 -17 48.5t-45 31t-63.5 21.5t-72.5 19t-72.5 23.5t-63.5 36t-45 56t-17 83.5q0 51 22.5 87t60 59.5t86.5 34t101 10.5
q32 0 75 -8t82 -31t68 -65t32 -110h-133z" />
    <glyph glyph-name="uni0219" unicode="&#x219;" horiz-adv-x="517" 
d="M179 -222l24 176h117l-47 -176h-94zM351 366q-4 44 -29.5 60.5t-60.5 16.5q-33 0 -58 -11.5t-25 -40.5t22.5 -44.5t56 -26t72.5 -21t72.5 -28t56 -47.5t22.5 -80q0 -72 -59 -114t-165 -42q-25 0 -61 5.5t-70 23t-59.5 50.5t-30.5 87h126q2 -22 11.5 -36.5t23 -23
t30.5 -12t35 -3.5q47 0 68.5 14.5t21.5 40.5q0 28 -22.5 43t-55.5 26t-72.5 21t-72.5 28t-55.5 47.5t-22.5 79.5q0 38 18.5 66t48 46.5t67 27.5t75.5 9q31 0 66.5 -5.5t66.5 -22t54 -48t29 -82.5z" />
    <glyph glyph-name="uni021A" unicode="&#x21a;" horiz-adv-x="577" 
d="M206 -222l24 176h116l-46 -176h-94zM222 0v567h-205v107h543v-107h-205v-567h-133z" />
    <glyph glyph-name="uni021B" unicode="&#x21b;" horiz-adv-x="372" 
d="M143 -222l24 176h116l-46 -176h-94zM347 -1q-10 -3 -20.5 -5.5t-20.5 -3.5t-17 -1.5t-10 -0.5q-64 0 -101 16t-56 44.5t-24.5 69t-5.5 88.5v210h-74v99h74v132h130v-132h125v-99h-125v-210q0 -57 13.5 -82t58.5 -25h53v-100z" />
    <glyph glyph-name="circumflex" unicode="&#x2c6;" horiz-adv-x="456" 
d="M309 564l-82 101l-81 -101h-88l110 177h119l111 -177h-89z" />
    <glyph glyph-name="caron" unicode="&#x2c7;" horiz-adv-x="456" 
d="M168 564l-110 177h88l81 -101l82 101h89l-111 -177h-119z" />
    <glyph glyph-name="breve" unicode="&#x2d8;" horiz-adv-x="482" 
d="M424 741q-3 -45 -18 -78t-39.5 -55t-56.5 -33t-69 -11t-69 11t-56.5 33t-39.5 55t-18 78h80q3 -53 32.5 -75t70.5 -22q20 0 38 5t32 16.5t22.5 30t9.5 45.5h81z" />
    <glyph glyph-name="dotaccent" unicode="&#x2d9;" horiz-adv-x="246" 
d="M58 582v141h130v-141h-130z" />
    <glyph glyph-name="ring" unicode="&#x2da;" horiz-adv-x="353" 
d="M233 672q0 24 -16.5 41t-40.5 17t-40.5 -17t-16.5 -41t16.5 -40.5t40.5 -16.5t40.5 16.5t16.5 40.5zM177 554q-25 0 -46.5 9t-37.5 25t-25.5 37.5t-9.5 46.5t9.5 46.5t25.5 37.5t37.5 25.5t46.5 9.5q24 0 45.5 -9.5t37.5 -25.5t25.5 -37.5t9.5 -46.5t-9.5 -46.5
t-25.5 -37.5t-37.5 -25t-45.5 -9z" />
    <glyph glyph-name="ogonek" unicode="&#x2db;" horiz-adv-x="320" 
d="M262 -199q-21 -7 -41.5 -10.5t-49.5 -3.5q-23 0 -43.5 5t-36 15.5t-24.5 27.5t-9 41q0 34 16.5 62t45 49.5t65 35.5t77.5 20v-46q-17 -4 -35.5 -12.5t-34 -21.5t-25.5 -30.5t-10 -39.5q0 -23 15.5 -31.5t35.5 -8.5q15 0 28 2.5t26 7.5v-62z" />
    <glyph glyph-name="tilde" unicode="&#x2dc;" horiz-adv-x="474" 
d="M416 716q0 -21 -4.5 -43t-16 -41t-30.5 -31t-48 -12q-20 0 -41.5 7t-41.5 15.5t-38 15.5t-31 7q-17 0 -27 -8t-10 -37h-70q0 21 4.5 43.5t16 41t30.5 30.5t48 12q20 0 41.5 -7t41.5 -15.5t37.5 -15.5t30.5 -7q17 0 27.5 8.5t10.5 36.5h70z" />
    <glyph glyph-name="hungarumlaut" unicode="&#x2dd;" horiz-adv-x="561" 
d="M259 564l105 177h139l-148 -177h-96zM58 564l105 177h140l-148 -177h-97z" />
    <glyph glyph-name="pi" unicode="&#x3c0;" horiz-adv-x="733" 
d="M662 -1q-7 -3 -16.5 -5.5t-18.5 -3.5t-16.5 -1.5t-10.5 -0.5q-47 0 -74 14t-41 39.5t-17.5 61t-3.5 77.5v234h-196v-414h-128v414h-69v98h591v-98h-70v-234q0 -45 8 -64.5t32 -19.5h30v-97z" />
    <glyph glyph-name="Wgrave" unicode="&#x1e80;" horiz-adv-x="1021" 
d="M636 0l-128 513l-126 -513h-167l-200 674h143l147 -528l125 528h167l123 -526l149 526h137l-201 -674h-169zM482 723l-140 165h139l97 -165h-96z" />
    <glyph glyph-name="wgrave" unicode="&#x1e81;" horiz-adv-x="842" 
d="M524 0l-102 384l-102 -384h-146l-158 517h139l99 -383l96 383h147l96 -384l98 384h135l-157 -517h-145zM385 564l-148 177h139l106 -177h-97z" />
    <glyph glyph-name="Wacute" unicode="&#x1e82;" horiz-adv-x="1021" 
d="M636 0l-128 513l-126 -513h-167l-200 674h143l147 -528l125 528h167l123 -526l149 526h137l-201 -674h-169zM447 723l98 165h139l-140 -165h-97z" />
    <glyph glyph-name="wacute" unicode="&#x1e83;" horiz-adv-x="842" 
d="M524 0l-102 384l-102 -384h-146l-158 517h139l99 -383l96 383h147l96 -384l98 384h135l-157 -517h-145zM361 564l106 177h139l-148 -177h-97z" />
    <glyph glyph-name="Wdieresis" unicode="&#x1e84;" horiz-adv-x="1021" 
d="M636 0l-128 513l-126 -513h-167l-200 674h143l147 -528l125 528h167l123 -526l149 526h137l-201 -674h-169zM559 728v131h121v-131h-121zM341 728v131h121v-131h-121z" />
    <glyph glyph-name="wdieresis" unicode="&#x1e85;" horiz-adv-x="842" 
d="M524 0l-102 384l-102 -384h-146l-158 517h139l99 -383l96 383h147l96 -384l98 384h135l-157 -517h-145zM470 587v131h121v-131h-121zM252 587v131h121v-131h-121z" />
    <glyph glyph-name="Ygrave" unicode="&#x1ef2;" horiz-adv-x="626" 
d="M246 0v260l-243 414h141l170 -314l171 314h138l-244 -413v-261h-133zM278 723l-140 165h139l98 -165h-97z" />
    <glyph glyph-name="ygrave" unicode="&#x1ef3;" horiz-adv-x="552" 
d="M116 -212l92 233l-193 496h138l122 -365l126 365h136l-294 -729h-127zM230 564l-147 177h139l105 -177h-97z" />
    <glyph glyph-name="endash" unicode="&#x2013;" horiz-adv-x="735" 
d="M75 221v93h585v-93h-585z" />
    <glyph glyph-name="emdash" unicode="&#x2014;" horiz-adv-x="945" 
d="M75 221v93h795v-93h-795z" />
    <glyph glyph-name="quoteleft" unicode="&#x2018;" horiz-adv-x="213" 
d="M43 431q0 30 1 62t6.5 68t16 78.5t28.5 95.5h75v-304h-127z" />
    <glyph glyph-name="quoteright" unicode="&#x2019;" horiz-adv-x="213" 
d="M43 431v304h127q0 -30 -1 -62t-6 -68t-15.5 -79t-28.5 -95h-76z" />
    <glyph glyph-name="quotesinglbase" unicode="&#x201a;" horiz-adv-x="214" 
d="M43 -157v304h128q0 -30 -1 -61.5t-6 -68t-15.5 -79.5t-28.5 -95h-77z" />
    <glyph glyph-name="quotedblleft" unicode="&#x201c;" horiz-adv-x="426" 
d="M257 431q0 30 1 62t6 68t15.5 78.5t28.5 95.5h75v-304h-126zM43 431q0 30 1 62t6.5 68t16 78.5t28.5 95.5h75v-304h-127z" />
    <glyph glyph-name="quotedblright" unicode="&#x201d;" horiz-adv-x="426" 
d="M43 431v304h127q0 -30 -1 -62t-6 -68t-15.5 -79t-28.5 -95h-76zM257 431v304h126q0 -30 -1 -62t-6 -68t-15.5 -79t-28.5 -95h-75z" />
    <glyph glyph-name="quotedblbase" unicode="&#x201e;" horiz-adv-x="429" 
d="M43 -157v304h128q0 -30 -1 -61.5t-6 -68t-15.5 -79.5t-28.5 -95h-77zM258 -157v304h128q0 -30 -1 -61.5t-6 -68t-15.5 -79.5t-29.5 -95h-76z" />
    <glyph glyph-name="dagger" unicode="&#x2020;" horiz-adv-x="648" 
d="M266 -206v645h-199v110h199v215h116v-215h199v-110h-199v-645h-116z" />
    <glyph glyph-name="daggerdbl" unicode="&#x2021;" horiz-adv-x="656" 
d="M270 -206v361h-203v110h203v174h-199v110h199v215h116v-215h199v-110h-199v-174h203v-110h-203v-361h-116z" />
    <glyph glyph-name="bullet" unicode="&#x2022;" horiz-adv-x="392" 
d="M339 266q0 -29 -11.5 -54.5t-31 -45t-45.5 -30.5t-55 -11t-55 11t-45.5 30.5t-31 45t-11.5 54.5q0 30 11.5 56.5t31 46t45.5 31t55 11.5t55 -11.5t45.5 -31t31 -46t11.5 -56.5z" />
    <glyph glyph-name="ellipsis" unicode="&#x2026;" horiz-adv-x="843" 
d="M49 0v160h131v-160h-131zM356 0v160h131v-160h-131zM663 0v160h131v-160h-131z" />
    <glyph glyph-name="perthousand" unicode="&#x2030;" horiz-adv-x="1350" 
d="M1312 164q0 -75 -47 -119.5t-132 -44.5t-132 44.5t-47 119.5t47 119.5t132 44.5t132 -44.5t47 -119.5zM1133 74q34 0 51 23.5t17 66.5t-17 67t-51 24q-33 0 -51 -24t-18 -67t18 -66.5t51 -23.5zM396 510q0 -75 -47 -119.5t-132 -44.5t-132 44.5t-47 119.5t47 119.5
t132 44.5t132 -44.5t47 -119.5zM217 420q33 0 50.5 24t17.5 66q0 43 -17.5 67t-50.5 24q-34 0 -51.5 -24t-17.5 -67q0 -42 17.5 -66t51.5 -24zM227 0l402 698h82l-402 -698h-82zM892 164q0 -75 -47 -119.5t-132 -44.5t-132 44.5t-47 119.5t47 119.5t132 44.5t132 -44.5
t47 -119.5zM713 74q33 0 50.5 23.5t17.5 66.5t-17.5 67t-50.5 24q-34 0 -51.5 -24t-17.5 -67t17.5 -66.5t51.5 -23.5z" />
    <glyph glyph-name="guilsinglleft" unicode="&#x2039;" horiz-adv-x="389" 
d="M210 77l-161 190l162 192h123l-161 -193l160 -189h-123z" />
    <glyph glyph-name="guilsinglright" unicode="&#x203a;" horiz-adv-x="389" 
d="M56 77l160 189l-161 193h123l162 -192l-161 -190h-123z" />
    <glyph glyph-name="fraction" unicode="&#x2044;" horiz-adv-x="592" 
d="M28 0l421 750h115l-421 -750h-115z" />
    <glyph glyph-name="Euro" unicode="&#x20ac;" horiz-adv-x="736" 
d="M692 225q-20 -112 -91 -175t-183 -63q-118 0 -194 62.5t-102 177.5h-108v65h99q-1 11 -1.5 22t-0.5 23v16.5t1 16.5h-98v65h106q12 59 37.5 105.5t64 78.5t88 49t108.5 17q114 0 185 -63.5t90 -176.5h-137q-10 63 -45 97t-93 34q-64 0 -104.5 -36.5t-57.5 -104.5h249
l-8 -65h-250q-1 -8 -1 -16.5v-16.5v-23t2 -22h238l-8 -65h-218q17 -62 57 -95t101 -33q58 0 92 32t44 94h138z" />
    <glyph glyph-name="uni2113" unicode="&#x2113;" horiz-adv-x="372" 
d="M347 -1q-10 -3 -20.5 -5t-20.5 -3t-17 -1.5t-10 -0.5q-64 0 -101 16t-56 45t-24.5 69.5t-5.5 88.5v489h130v-488q0 -58 13.5 -83t57.5 -25h54v-102z" />
    <glyph glyph-name="trademark" unicode="&#x2122;" horiz-adv-x="812" 
d="M680 380v265l-84 -265h-83l-84 265v-265h-82v332h128l80 -261l81 261h132v-332h-88zM120 380v264h-99v68h294v-68h-100v-264h-95z" />
    <glyph glyph-name="Omega" unicode="&#x2126;" horiz-adv-x="813" 
d="M462 0v102q32 17 59.5 44t47.5 61.5t31.5 75.5t11.5 87t-13 87t-38.5 71.5t-63.5 48t-88 17.5q-51 0 -89.5 -17.5t-65 -48t-39.5 -71.5t-13 -87t11 -87t31 -75.5t47.5 -61.5t60.5 -44v-102h-302v105h152q-62 45 -99.5 115.5t-37.5 156.5q0 72 25 131t70.5 100.5
t108.5 64.5t140 23q75 0 137.5 -23t107.5 -64.5t70 -100.5t25 -131q0 -42 -10 -81.5t-28.5 -74.5t-44 -64.5t-56.5 -51.5h153v-105h-301z" />
    <glyph glyph-name="estimated" unicode="&#x212e;" horiz-adv-x="792" 
d="M686 144q-47 -70 -122.5 -112.5t-166.5 -42.5q-72 0 -135.5 27t-110.5 74.5t-74.5 110.5t-27.5 135t27.5 135.5t74.5 110.5t110.5 74.5t135.5 27.5t135 -27t110.5 -74.5t74.5 -110.5t27 -135v-5.5t-1 -9.5h-600v-181q44 -57 110 -90.5t144 -33.5q84 0 153 39t111 104z
M650 532q-44 57 -109.5 90.5t-143.5 33.5t-144 -34t-110 -91v-181h507v182z" />
    <glyph glyph-name="onethird" unicode="&#x2153;" horiz-adv-x="902" 
d="M189 0l388 674h74l-388 -674h-74zM161 282v306l-114 -53v86l112 53h108v-392h-106zM631 171v57h44q32 0 50.5 13.5t18.5 42.5q0 48 -55 48q-22 0 -40 -12t-18 -53h-104q0 39 17 64.5t41.5 40t52.5 20t51 5.5q72 0 115 -26.5t43 -75.5q0 -72 -71 -89q33 -5 57.5 -28.5
t24.5 -67.5q0 -52 -45 -84t-121 -32q-29 0 -58.5 6t-54 21t-40.5 40.5t-16 64.5h104q0 -38 18.5 -52t46.5 -14q29 0 45.5 15t16.5 44q0 30 -22.5 41t-55.5 11h-45z" />
    <glyph glyph-name="twothirds" unicode="&#x2154;" horiz-adv-x="995" 
d="M282 0l388 674h74l-388 -674h-74zM53 283v58q36 28 74 53.5t69.5 51.5t52 53.5t20.5 59.5q0 25 -12 40t-39 15q-10 0 -20.5 -2.5t-19 -9t-14.5 -19.5t-6 -34h-104q0 39 16.5 64.5t41.5 40.5t53.5 20.5t52.5 5.5q79 0 118 -34.5t39 -86.5q0 -32 -17.5 -61t-43.5 -54.5
t-55.5 -47.5t-54.5 -40h175v-73h-326zM724 171v57h44q32 0 50.5 13.5t18.5 42.5q0 48 -55 48q-22 0 -40 -12t-18 -53h-104q0 39 17 64.5t41.5 40t52.5 20t51 5.5q72 0 115 -26.5t43 -75.5q0 -72 -71 -89q33 -5 57.5 -28.5t24.5 -67.5q0 -52 -45 -84t-121 -32q-29 0 -58.5 6
t-54 21t-40.5 40.5t-16 64.5h104q0 -38 18.5 -52t46.5 -14q29 0 45.5 15t16.5 44q0 30 -22.5 41t-55.5 11h-45z" />
    <glyph glyph-name="oneeighth" unicode="&#x215b;" horiz-adv-x="888" 
d="M189 0l388 674h74l-388 -674h-74zM161 282v306l-114 -53v86l112 53h108v-392h-106zM764 205q43 -10 65.5 -37t22.5 -62q0 -50 -44.5 -81t-122.5 -31q-76 0 -121 31t-45 81q0 35 22.5 62t64.5 37q-43 12 -59.5 36.5t-16.5 53.5q0 45 42.5 73.5t112.5 28.5q71 0 114 -28.5
t43 -73.5q0 -29 -17 -53.5t-61 -36.5zM748 113q0 32 -17 47.5t-46 15.5t-45.5 -15.5t-16.5 -47.5q0 -28 16 -44.5t46 -16.5t46.5 16.5t16.5 44.5zM740 287q0 23 -12 39t-42 16t-42.5 -16t-12.5 -39q0 -21 12.5 -37t42.5 -16t42 16t12 37z" />
    <glyph glyph-name="threeeighths" unicode="&#x215c;" horiz-adv-x="954" 
d="M256 0l388 674h73l-387 -674h-74zM160 454v57h45q32 0 50.5 13.5t18.5 42.5q0 48 -55 48q-22 0 -40 -12t-18 -53h-104q0 39 17 64.5t41.5 40t52.5 20t51 5.5q71 0 114.5 -26.5t43.5 -75.5q0 -36 -18.5 -58.5t-52.5 -30.5q33 -5 57.5 -28.5t24.5 -67.5q0 -52 -45 -84
t-122 -32q-29 0 -58.5 6t-53.5 21t-40 40.5t-16 64.5h104q0 -38 18.5 -52t45.5 -14q30 0 46.5 15t16.5 44q0 30 -22.5 41t-56.5 11h-45zM831 205q42 -10 64.5 -37t22.5 -62q0 -50 -44.5 -81t-122.5 -31q-76 0 -121 31t-45 81q0 35 22.5 62t64.5 37q-42 12 -59 36.5t-17 53.5
q0 45 42.5 73.5t112.5 28.5q72 0 114.5 -28.5t42.5 -73.5q0 -29 -17 -53.5t-60 -36.5zM814 113q0 32 -17 47.5t-46 15.5t-45 -15.5t-16 -47.5q0 -28 16 -44.5t45 -16.5q31 0 47 16.5t16 44.5zM807 287q0 23 -12.5 39t-42.5 16t-42 -16t-12 -39q0 -21 12 -37t42 -16t42.5 16
t12.5 37z" />
    <glyph glyph-name="fiveeighths" unicode="&#x215d;" horiz-adv-x="951" 
d="M253 0l388 674h74l-388 -674h-74zM167 603l-8 -91q24 18 48.5 23.5t45.5 5.5q62 0 94 -37t32 -94q0 -29 -11.5 -53.5t-32.5 -42.5t-51.5 -28t-69.5 -10q-28 0 -57 6t-53 21t-39 40.5t-15 64.5h102q0 -37 17.5 -51.5t43.5 -14.5q32 0 47.5 20.5t15.5 48.5q0 32 -14.5 53.5
t-43.5 21.5q-17 0 -31.5 -7t-27.5 -25l-93 4l17 216h272v-71h-188zM828 205q42 -10 65 -37t23 -62q0 -50 -44.5 -81t-122.5 -31q-77 0 -121.5 31t-44.5 81q0 35 22 62t64 37q-42 12 -58.5 36.5t-16.5 53.5q0 45 42 73.5t113 28.5t113.5 -28.5t42.5 -73.5q0 -29 -16.5 -53.5
t-60.5 -36.5zM811 113q0 32 -16.5 47.5t-45.5 15.5t-45.5 -15.5t-16.5 -47.5q0 -28 16 -44.5t46 -16.5t46 16.5t16 44.5zM804 287q0 23 -12 39t-43 16q-30 0 -42 -16t-12 -39q0 -21 12 -37t42 -16q31 0 43 16t12 37z" />
    <glyph glyph-name="seveneighths" unicode="&#x215e;" horiz-adv-x="845" 
d="M147 0l388 674h74l-388 -674h-74zM67 282q28 80 71 159.5t97 158.5h-192v74h305v-59q-56 -75 -101 -161t-72 -172h-108zM722 205q42 -10 65 -37t23 -62q0 -50 -44.5 -81t-122.5 -31q-77 0 -121.5 31t-44.5 81q0 35 22 62t64 37q-42 12 -58.5 36.5t-16.5 53.5
q0 45 42 73.5t113 28.5t113.5 -28.5t42.5 -73.5q0 -29 -16.5 -53.5t-60.5 -36.5zM705 113q0 32 -16.5 47.5t-45.5 15.5t-45.5 -15.5t-16.5 -47.5q0 -28 16 -44.5t46 -16.5t46 16.5t16 44.5zM698 287q0 23 -12 39t-43 16q-30 0 -42 -16t-12 -39q0 -21 12 -37t42 -16
q31 0 43 16t12 37z" />
    <glyph glyph-name="partialdiff" unicode="&#x2202;" horiz-adv-x="609" 
d="M59 582q9 59 38 94.5t64.5 54t70.5 24.5t56 6q72 0 123.5 -28t84.5 -75t49 -108t16 -127q0 -75 -19 -152.5t-56.5 -140.5t-94 -102.5t-132.5 -39.5q-103 0 -160 55t-57 154q0 58 19 104t50.5 77.5t73 48.5t86.5 17q51 0 94.5 -24.5t67.5 -73.5q9 40 9 90q0 40 -8 80.5
t-26 72.5t-46.5 52.5t-69.5 20.5q-47 0 -80 -19t-41 -70zM405 248q-6 19 -15.5 36.5t-24.5 31t-35.5 21.5t-47.5 8q-30 0 -53 -11t-39 -30.5t-24 -45.5t-8 -55q0 -33 8.5 -55.5t22 -36.5t31.5 -20t37 -6q32 0 57.5 15.5t44.5 39t30.5 52.5t15.5 56z" />
    <glyph glyph-name="Delta" unicode="&#x2206;" horiz-adv-x="746" 
d="M25 0l272 674h153l272 -674h-697zM374 562l-173 -448h338z" />
    <glyph glyph-name="product" unicode="&#x220f;" horiz-adv-x="728" 
d="M524 0v593h-320v-593h-129v712h578v-712h-129z" />
    <glyph glyph-name="summation" unicode="&#x2211;" horiz-adv-x="628" 
d="M38 -97v112l243 291l-243 294v112h565v-112h-410l244 -295l-244 -290h410v-112h-565z" />
    <glyph glyph-name="minus" unicode="&#x2212;" 
d="M67 218v100h451v-100h-451z" />
    <glyph glyph-name="radical" unicode="&#x221a;" horiz-adv-x="724" 
d="M312 0l-173 435h-99v88h197l156 -418l184 682h109l-214 -787h-160z" />
    <glyph glyph-name="infinity" unicode="&#x221e;" horiz-adv-x="835" 
d="M418 191q-35 -45 -82 -69.5t-90 -24.5q-28 0 -59.5 7.5t-58 27t-44 53t-17.5 84.5q0 50 17.5 82.5t44 52t58 27t59.5 7.5q43 0 90 -24.5t82 -68.5q34 44 80 68.5t91 24.5q28 0 59.5 -7.5t58 -27t44 -52t17.5 -82.5q0 -51 -17.5 -84.5t-44 -53t-58 -27t-59.5 -7.5
q-45 0 -91 24.5t-80 69.5zM463 269q14 -35 45 -59.5t72 -24.5q17 0 34 4.5t30.5 14t22 25.5t8.5 40q0 23 -8.5 38.5t-22 25t-30.5 13.5t-34 4q-41 0 -72 -24t-45 -57zM372 269q-14 33 -45 57t-72 24q-17 0 -34 -4t-30.5 -13.5t-22 -25t-8.5 -38.5t8.5 -39t22 -26t30.5 -14.5
t34 -4.5q41 0 72 24.5t45 59.5z" />
    <glyph glyph-name="integral" unicode="&#x222b;" horiz-adv-x="252" 
d="M-6 -103h65q46 0 60 24t1 77l-123 504q-11 44 -7.5 81t21.5 64t51.5 42t83.5 15q24 0 49.5 -2t54.5 -6v-91h-63q-46 0 -61.5 -22.5t-1.5 -79.5l121 -501q11 -45 5 -82.5t-26.5 -64.5t-53.5 -42.5t-76 -15.5q-22 0 -48 2t-52 5v93z" />
    <glyph glyph-name="approxequal" unicode="&#x2248;" horiz-adv-x="586" 
d="M519 339q-27 -26 -56.5 -34t-62.5 -8q-27 0 -56.5 8.5t-58 18.5t-54 18.5t-45.5 8.5q-30 0 -61.5 -9t-57.5 -39v114q26 26 56 34t64 8q28 0 57 -8.5t56.5 -19t53 -19t46.5 -8.5q31 0 62 9.5t57 39.5v-114zM518 119q-27 -26 -56 -34t-63 -8q-27 0 -56 8.5t-57.5 18.5
t-54.5 18.5t-46 8.5q-29 0 -60.5 -9t-57.5 -39v114q26 26 56 34t63 8q28 0 57 -8.5t56.5 -19t53 -19t46.5 -8.5q31 0 62 9.5t57 39.5v-114z" />
    <glyph glyph-name="notequal" unicode="&#x2260;" horiz-adv-x="610" 
d="M261 177l-101 -177h-93l102 177h-91v110h152l64 111h-216v108h277l96 168h92l-96 -168h87v-108h-148l-63 -111h211v-110h-273z" />
    <glyph glyph-name="lessequal" unicode="&#x2264;" horiz-adv-x="557" 
d="M67 324v125l423 181v-117l-301 -127l301 -126v-118zM67 0v109h423v-109h-423z" />
    <glyph glyph-name="greaterequal" unicode="&#x2265;" horiz-adv-x="557" 
d="M67 142v118l300 126l-300 127v117l423 -181v-125zM67 0v109h423v-109h-423z" />
    <glyph glyph-name="lozenge" unicode="&#x25ca;" horiz-adv-x="634" 
d="M251 0l-184 337l184 337h130l186 -337l-186 -337h-130zM449 336l-132 241l-133 -240l133 -240z" />
    <glyph glyph-name="circle" unicode="&#x25cb;" horiz-adv-x="515" 
d="M467 336q0 -43 -16.5 -81t-45 -66.5t-66.5 -45t-82 -16.5t-82 16.5t-66 45t-44.5 66.5t-16.5 81q0 44 16.5 82t44.5 66.5t66 45t82 16.5t82 -16.5t66.5 -45t45 -66.5t16.5 -82z" />
    <glyph glyph-name="diamond" unicode="&#x2666;" horiz-adv-x="525" 
d="M262 117l-219 219l219 221l220 -221z" />
    <glyph glyph-name="uniE000" unicode="&#xe000;" horiz-adv-x="951" 
d="M464 752v82h344v-82h-344zM483 0v169h-236l-88 -169h-139l360 674h513v-107h-277v-173h258v-103h-258v-182h290v-109h-423zM483 567h-28l-155 -292h183v292z" />
    <glyph glyph-name="uniE001" unicode="&#xe001;" horiz-adv-x="283" 
d="M75 0v674h133v-674h-133z" />
    <glyph glyph-name="uniE002" unicode="&#xe002;" horiz-adv-x="689" 
d="M683 225q-20 -112 -91 -175t-183 -63q-118 0 -194 62.5t-102 177.5h-108v65h99q-1 11 -1.5 22t-0.5 23v16.5t1 16.5h-98v65h106q12 59 37.5 105.5t64 78.5t88 49t108.5 17q114 0 185 -63.5t90 -176.5h-137q-10 63 -45 97t-93 34q-64 0 -104.5 -36.5t-57.5 -104.5h249
l-8 -65h-250q-1 -8 -1 -16.5v-16.5v-23t2 -22h238l-8 -65h-218q17 -62 57 -95t101 -33q58 0 92 32t44 94h138z" />
    <glyph glyph-name="uniE003" unicode="&#xe003;" horiz-adv-x="609" 
d="M417 0l-4 100q-27 -63 -72.5 -87.5t-96.5 -24.5q-42 0 -78.5 15.5t-64.5 48.5t-44 84t-16 122q0 72 16 123.5t44 84t64.5 47.5t78.5 15q54 0 98 -25t71 -85v99h124v-517h-120zM287 86q55 0 88 40t33 132q0 94 -33 133.5t-88 39.5q-48 0 -80.5 -41t-32.5 -132
q0 -90 32.5 -131t80.5 -41z" />
    <glyph glyph-name="uniE004" unicode="&#xe004;" horiz-adv-x="609" 
d="M194 564l105 177h139l-147 -177h-97zM417 0l-4 100q-27 -63 -72.5 -87.5t-96.5 -24.5q-42 0 -78.5 15.5t-64.5 48.5t-44 84t-16 122q0 72 16 123.5t44 84t64.5 47.5t78.5 15q54 0 98 -25t71 -85v99h124v-517h-120zM287 86q55 0 88 40t33 132q0 94 -33 133.5t-88 39.5
q-48 0 -80.5 -41t-32.5 -132q0 -90 32.5 -131t80.5 -41z" />
    <glyph glyph-name="uniE005" unicode="&#xe005;" horiz-adv-x="609" 
d="M472 741q-3 -45 -18 -78t-39.5 -55t-56.5 -33t-69 -11t-69 11t-56.5 33t-39.5 55t-18 78h80q3 -53 32.5 -75t70.5 -22q20 0 38 5t32 16.5t22.5 30t9.5 45.5h81zM417 0l-4 100q-27 -63 -72.5 -87.5t-96.5 -24.5q-42 0 -78.5 15.5t-64.5 48.5t-44 84t-16 122q0 72 16 123.5
t44 84t64.5 47.5t78.5 15q54 0 98 -25t71 -85v99h124v-517h-120zM287 86q55 0 88 40t33 132q0 94 -33 133.5t-88 39.5q-48 0 -80.5 -41t-32.5 -132q0 -90 32.5 -131t80.5 -41z" />
    <glyph glyph-name="uniE006" unicode="&#xe006;" horiz-adv-x="609" 
d="M370 564l-81 101l-81 -101h-89l111 177h118l111 -177h-89zM417 0l-4 100q-27 -63 -72.5 -87.5t-96.5 -24.5q-42 0 -78.5 15.5t-64.5 48.5t-44 84t-16 122q0 72 16 123.5t44 84t64.5 47.5t78.5 15q54 0 98 -25t71 -85v99h124v-517h-120zM287 86q55 0 88 40t33 132
q0 94 -33 133.5t-88 39.5q-48 0 -80.5 -41t-32.5 -132q0 -90 32.5 -131t80.5 -41z" />
    <glyph glyph-name="uniE007" unicode="&#xe007;" horiz-adv-x="347" 
d="M58 715l92 155h139l-134 -155h-97z" />
    <glyph glyph-name="uniE008" unicode="&#xe008;" horiz-adv-x="609" 
d="M338 587v131h121v-131h-121zM120 587v131h121v-131h-121zM417 0l-4 100q-27 -63 -72.5 -87.5t-96.5 -24.5q-42 0 -78.5 15.5t-64.5 48.5t-44 84t-16 122q0 72 16 123.5t44 84t64.5 47.5t78.5 15q54 0 98 -25t71 -85v99h124v-517h-120zM287 86q55 0 88 40t33 132
q0 94 -33 133.5t-88 39.5q-48 0 -80.5 -41t-32.5 -132q0 -90 32.5 -131t80.5 -41z" />
    <glyph glyph-name="uniE009" unicode="&#xe009;" horiz-adv-x="906" 
d="M276 612v81h344v-81h-344zM501 230q3 -70 33 -107t86 -37q47 0 72 21t33 56h130q-17 -82 -75.5 -128.5t-155.5 -46.5q-75 0 -130 27.5t-87 79.5q-19 -31 -41.5 -51.5t-48 -33t-52.5 -17.5t-55 -5q-27 0 -57 7t-55.5 24.5t-42.5 47.5t-17 77q0 51 20 82t53.5 48.5t78 24
t93.5 8.5l83 3v44q0 18 -4 33t-14 26.5t-27.5 18t-44.5 6.5q-15 0 -30.5 -3t-29 -11.5t-23 -23.5t-11.5 -39l-126 10q4 46 26.5 76t54.5 48t69 25.5t70 7.5q66 0 108 -16.5t64 -45.5q68 62 176 62q109 0 172.5 -64.5t63.5 -190.5l-3 -43h-356zM366 235l-85 -3
q-24 -1 -44.5 -5t-35.5 -13t-23.5 -23.5t-8.5 -37.5t9.5 -36.5t22.5 -20.5t27.5 -9t24.5 -2q22 0 42 8.5t36 25t25.5 42t9.5 58.5v16zM726 310q-5 57 -28.5 89t-77.5 32q-51 0 -80 -31.5t-37 -89.5h223z" />
    <glyph glyph-name="uniE00A" unicode="&#xe00a;" horiz-adv-x="609" 
d="M276 564l-148 177h140l105 -177h-97zM417 0l-4 100q-27 -63 -72.5 -87.5t-96.5 -24.5q-42 0 -78.5 15.5t-64.5 48.5t-44 84t-16 122q0 72 16 123.5t44 84t64.5 47.5t78.5 15q54 0 98 -25t71 -85v99h124v-517h-120zM287 86q55 0 88 40t33 132q0 94 -33 133.5t-88 39.5
q-48 0 -80.5 -41t-32.5 -132q0 -90 32.5 -131t80.5 -41z" />
    <glyph glyph-name="uniE00B" unicode="&#xe00b;" horiz-adv-x="609" 
d="M118 612v81h343v-81h-343zM417 0l-4 100q-27 -63 -72.5 -87.5t-96.5 -24.5q-42 0 -78.5 15.5t-64.5 48.5t-44 84t-16 122q0 72 16 123.5t44 84t64.5 47.5t78.5 15q54 0 98 -25t71 -85v99h124v-517h-120zM287 86q55 0 88 40t33 132q0 94 -33 133.5t-88 39.5
q-48 0 -80.5 -41t-32.5 -132q0 -90 32.5 -131t80.5 -41z" />
    <glyph glyph-name="uniE00C" unicode="&#xe00c;" horiz-adv-x="609" 
d="M537 -199q-20 -7 -40.5 -10.5t-49.5 -3.5q-23 0 -43.5 5t-36 15.5t-24.5 27.5t-9 41q0 40 22.5 72t60.5 54l-4 98q-27 -63 -72.5 -87.5t-96.5 -24.5q-42 0 -78.5 15.5t-64.5 48.5t-44 84t-16 122q0 72 16 123.5t44 84t64.5 47.5t78.5 15q54 0 98 -25t71 -85v99h124v-520
q-17 -4 -35 -12.5t-34 -21.5t-26 -30.5t-10 -39.5q0 -23 15.5 -31.5t36.5 -8.5q15 0 28 2.5t25 7.5v-62zM287 86q55 0 88 40t33 132q0 94 -33 133.5t-88 39.5q-48 0 -80.5 -41t-32.5 -132q0 -90 32.5 -131t80.5 -41z" />
    <glyph glyph-name="uniE00D" unicode="&#xe00d;" horiz-adv-x="781" 
d="M50 -9v678h681v-678h-681zM364 188l-2 22h4q7 -2 16 -3.5t17 -1.5q38 0 64.5 25t26.5 73q0 42 -19 69t-56 27q-17 0 -30 -7t-21 -24h-4l-5 29h-81v-253h90v44zM364 312q2 12 6.5 20t12.5 8q7 0 11.5 -11t4.5 -29q0 -49 -20 -49q-3 0 -6.5 2.5t-8.5 5.5v53zM268 402h60v61
h-217v-61h64v-182h93v182zM588 303h76v62h-76v37h82v61h-175v-243h93v83z" />
    <glyph glyph-name="uniE00E" unicode="&#xe00e;" horiz-adv-x="586" 
d="M519 407q-27 -26 -56.5 -34t-62.5 -8q-27 0 -56.5 8.5t-58 18.5t-54 18.5t-45.5 8.5q-30 0 -61.5 -9t-57.5 -39v115q26 26 56 34t64 8q28 0 57 -8.5t56.5 -19t53 -19t46.5 -8.5q31 0 62 9.5t57 39.5v-115zM519 188q-27 -26 -56.5 -34t-62.5 -8q-27 0 -56.5 8.5t-58 18.5
t-54 18.5t-45.5 8.5q-30 0 -61.5 -9t-57.5 -39v114q26 26 56 34t64 8q28 0 57 -8.5t56.5 -19t53 -19t46.5 -8.5q31 0 62 9.5t57 39.5v-114z" />
    <glyph glyph-name="uniE00F" unicode="&#xe00f;" horiz-adv-x="609" 
d="M346 672q0 24 -16.5 41t-40.5 17t-40.5 -17t-16.5 -41t16.5 -40.5t40.5 -16.5t40.5 16.5t16.5 40.5zM290 554q-25 0 -46.5 9t-37.5 25t-25.5 37.5t-9.5 46.5t9.5 46.5t25.5 37.5t37.5 25.5t46.5 9.5q24 0 45.5 -9.5t37.5 -25.5t25.5 -37.5t9.5 -46.5t-9.5 -46.5
t-25.5 -37.5t-37.5 -25t-45.5 -9zM417 0l-4 100q-27 -63 -72.5 -87.5t-96.5 -24.5q-42 0 -78.5 15.5t-64.5 48.5t-44 84t-16 122q0 72 16 123.5t44 84t64.5 47.5t78.5 15q54 0 98 -25t71 -85v99h124v-517h-120zM287 86q55 0 88 40t33 132q0 94 -33 133.5t-88 39.5
q-48 0 -80.5 -41t-32.5 -132q0 -90 32.5 -131t80.5 -41z" />
    <glyph glyph-name="uniE010" unicode="&#xe010;" horiz-adv-x="609" 
d="M417 0l-4 100q-27 -63 -72.5 -87.5t-96.5 -24.5q-42 0 -78.5 15.5t-64.5 48.5t-44 84t-16 122q0 72 16 123.5t44 84t64.5 47.5t78.5 15q54 0 98 -25t71 -85v99h124v-517h-120zM287 86q55 0 88 40t33 132q0 94 -33 133.5t-88 39.5q-48 0 -80.5 -41t-32.5 -132
q0 -90 32.5 -131t80.5 -41zM347 776q27 -15 44 -42.5t17 -61.5q0 -25 -9.5 -46.5t-25.5 -37.5t-37.5 -25t-45.5 -9q-25 0 -46.5 9t-37.5 25t-25.5 37.5t-9.5 46.5q0 37 19.5 66t51.5 43l75 126h139zM346 672q0 24 -16.5 41t-40.5 17t-40.5 -17t-16.5 -41t16.5 -40.5
t40.5 -16.5t40.5 16.5t16.5 40.5z" />
    <glyph glyph-name="uniE011" unicode="&#xe011;" horiz-adv-x="743" 
d="M58 362l72 72l188 -188v375h107v-374l188 187l72 -72l-313 -315z" />
    <glyph glyph-name="uniE012" unicode="&#xe012;" horiz-adv-x="560" 
d="M58 115v444h104v-265l264 265l76 -76l-265 -266h265v-102h-444z" />
    <glyph glyph-name="uniE013" unicode="&#xe013;" horiz-adv-x="560" 
d="M58 115v102h265l-265 266l76 76l265 -265v265h103v-444h-444z" />
    <glyph glyph-name="uniE014" unicode="&#xe014;" horiz-adv-x="690" 
d="M58 337l314 315l73 -73l-187 -188h374v-106h-376l189 -188l-73 -73z" />
    <glyph glyph-name="uniE015" unicode="&#xe015;" horiz-adv-x="690" 
d="M318 24l-73 73l189 188h-376v106h374l-187 188l73 73l314 -315z" />
    <glyph glyph-name="uniE016" unicode="&#xe016;" horiz-adv-x="743" 
d="M425 421v-374h-107v376l-188 -189l-72 72l314 315l313 -314l-72 -73z" />
    <glyph glyph-name="uniE017" unicode="&#xe017;" horiz-adv-x="560" 
d="M162 379v-264h-104v444h444v-103h-265l265 -265l-76 -76z" />
    <glyph glyph-name="uniE018" unicode="&#xe018;" horiz-adv-x="560" 
d="M399 115v264l-265 -264l-76 76l265 265h-265v103h444v-444h-103z" />
    <glyph glyph-name="uniE019" unicode="&#xe019;" horiz-adv-x="586" 
d="M519 297q-27 -26 -56.5 -34t-62.5 -8q-27 0 -56.5 8.5t-58 18.5t-54 18.5t-45.5 8.5q-30 0 -61.5 -9t-57.5 -39v115q26 26 56 34t64 8q28 0 57 -8.5t56.5 -19t53 -19t46.5 -8.5q31 0 62 9.5t57 39.5v-115z" />
    <glyph glyph-name="uniE01A" unicode="&#xe01a;" horiz-adv-x="940" 
d="M691 -40q-59 -31 -117.5 -42.5t-110.5 -11.5q-85 0 -161.5 28t-134.5 82t-92 133t-34 181q0 103 40.5 184t106 137t148 85.5t167.5 29.5q75 0 146.5 -22t127 -65.5t89 -108t33.5 -150.5q0 -51 -16 -105.5t-48 -99.5t-79 -74t-109 -29q-15 0 -31.5 3.5t-31 13.5t-24.5 27
t-12 43q-26 -53 -67.5 -78t-96.5 -25q-33 0 -63 15t-51.5 45.5t-31.5 76.5t-3 108q7 61 26.5 105t47 72.5t62 42t70.5 13.5q54 0 91.5 -28.5t54.5 -82.5l23 93h92l-43 -304q-5 -36 5 -48.5t28 -12.5q29 0 52.5 20t39.5 52t24.5 72.5t8.5 82.5q0 73 -27 125t-71.5 85.5
t-101 49t-114.5 15.5q-65 0 -131 -21.5t-119.5 -66t-87.5 -113t-34 -162.5q0 -90 29.5 -156.5t78 -110t111 -64.5t128.5 -21q58 0 114.5 13t113.5 47zM435 180q49 0 82 38.5t43 116.5q10 79 -14.5 117.5t-72.5 38.5q-45 0 -77 -37.5t-42 -118.5q-9 -78 15 -116.5t66 -38.5z
" />
    <glyph glyph-name="uniE01B" unicode="&#xe01b;" horiz-adv-x="609" 
d="M468 716q0 -21 -4.5 -43t-16 -41t-30.5 -31t-48 -12q-20 0 -41 7t-41 15.5t-38 15.5t-31 7q-17 0 -27 -8t-10 -37h-70q0 21 4.5 43.5t16 41t30.5 30.5t48 12q20 0 41.5 -7t41.5 -15.5t37.5 -15.5t30.5 -7q17 0 27 8.5t10 36.5h70zM417 0l-4 100q-27 -63 -72.5 -87.5
t-96.5 -24.5q-42 0 -78.5 15.5t-64.5 48.5t-44 84t-16 122q0 72 16 123.5t44 84t64.5 47.5t78.5 15q54 0 98 -25t71 -85v99h124v-517h-120zM287 86q55 0 88 40t33 132q0 94 -33 133.5t-88 39.5q-48 0 -80.5 -41t-32.5 -132q0 -90 32.5 -131t80.5 -41z" />
    <glyph glyph-name="uniE01C" unicode="&#xe01c;" horiz-adv-x="368" 
d="M252 -133l-253 940h117l253 -940h-117z" />
    <glyph glyph-name="uniE01D" unicode="&#xe01d;" horiz-adv-x="276" 
d="M80 -188v1048h116v-1048h-116z" />
    <glyph glyph-name="uniE01E" unicode="&#xe01e;" horiz-adv-x="413" 
d="M402 -135q-72 0 -125 8t-87.5 29t-51 58t-16.5 94v147q0 94 -87 94v83q46 0 66.5 22.5t20.5 70.5v148q0 57 16.5 93.5t51 57.5t87.5 29t126 8v-100q-45 0 -75 -6.5t-48.5 -20.5t-26 -38t-7.5 -58v-118q0 -24 -3 -45t-11.5 -37t-23 -26.5t-38.5 -14.5v-13q23 -3 38 -14
t23.5 -27.5t11.5 -37.5t3 -45v-118q0 -33 7.5 -56t25.5 -37.5t48 -20.5t75 -6v-103z" />
    <glyph glyph-name="uniE01F" unicode="&#xe01f;" horiz-adv-x="413" 
d="M11 -32q45 0 75 6t48 20.5t25.5 37.5t7.5 56v118q0 24 3 45t11.5 37.5t23.5 27.5t38 14v13q-24 4 -38.5 14.5t-23 26.5t-11.5 37t-3 45v118q0 34 -7.5 58t-26 38t-48.5 20.5t-75 6.5v100q73 0 126 -8t87.5 -29t51 -57.5t16.5 -93.5v-148q0 -48 20.5 -70.5t66.5 -22.5v-83
q-45 0 -66 -23t-21 -71v-147q0 -57 -16.5 -94t-51 -58t-87.5 -29t-125 -8v103z" />
    <glyph glyph-name="uniE020" unicode="&#xe020;" horiz-adv-x="341" 
d="M39 -135v942h291v-101h-174v-736h175v-105h-292z" />
    <glyph glyph-name="uniE021" unicode="&#xe021;" horiz-adv-x="341" 
d="M10 -135v105h175v736h-174v101h291v-942h-292z" />
    <glyph glyph-name="uniE022" unicode="&#xe022;" horiz-adv-x="480" 
d="M422 870q-9 -78 -59.5 -116.5t-122.5 -38.5q-36 0 -67 9.5t-55.5 29t-40 48.5t-19.5 68h80q6 -42 34.5 -58.5t67.5 -16.5q38 0 67 17t34 58h81z" />
    <glyph glyph-name="uniE023" unicode="&#xe023;" horiz-adv-x="278" 
d="M81 425v435h116v-435h-116zM81 -187v437h116v-437h-116z" />
    <glyph glyph-name="uniE024" unicode="&#xe024;" horiz-adv-x="392" 
d="M339 335q0 -29 -11.5 -54.5t-31 -45t-45.5 -31t-55 -11.5t-55 11.5t-45.5 31t-31 45t-11.5 54.5q0 30 11.5 56t31 45.5t45.5 31t55 11.5t55 -11.5t45.5 -31t31 -45.5t11.5 -56z" />
    <glyph glyph-name="uniE025" unicode="&#xe025;" horiz-adv-x="456" 
d="M168 715l-110 155h88l81 -83l82 83h89l-111 -155h-119z" />
    <glyph glyph-name="uniE026" unicode="&#xe026;" horiz-adv-x="689" 
d="M310 0v130q-98 13 -152.5 81t-54.5 182q0 117 55 187t152 83v130h84v-129q79 -10 129 -58t62 -130l-130 -6q-17 100 -100 100q-60 0 -89.5 -45t-29.5 -129q0 -82 29.5 -126.5t89.5 -44.5q44 0 68.5 25t32.5 73h130q-14 -85 -62.5 -134.5t-129.5 -59.5v-129h-84z" />
    <glyph glyph-name="uniE027" unicode="&#xe027;" horiz-adv-x="456" 
d="M309 715l-82 83l-81 -83h-88l110 155h119l111 -155h-89z" />
    <glyph glyph-name="uniE028" unicode="&#xe028;" horiz-adv-x="611" 
d="M466 100l-68 68q-44 -25 -93 -25q-51 0 -93 25l-67 -68l-76 76l67 68q-23 41 -23 92t24 93l-68 68l76 76l68 -69q42 25 92 25q25 0 48.5 -6.5t43.5 -17.5l68 68l76 -76l-68 -69q25 -42 25 -92q0 -26 -6.5 -49.5t-17.5 -43.5l68 -67zM398 335q0 39 -27 66t-66 27
q-19 0 -36 -7t-29.5 -20t-19.5 -30t-7 -36t7 -35.5t19.5 -29t29.5 -19.5t36 -7t36 7t29.5 19.5t20 29t7.5 35.5z" />
    <glyph glyph-name="uniE029" unicode="&#xe029;" horiz-adv-x="455" 
d="M276 728v131h121v-131h-121zM58 728v131h121v-131h-121z" />
    <glyph glyph-name="uniE02A" unicode="&#xe02a;" horiz-adv-x="586" 
d="M67 282v109h452v-109h-452zM235 462v129h116v-129h-116zM235 81v129h116v-129h-116z" />
    <glyph glyph-name="uniE02B" unicode="&#xe02b;" horiz-adv-x="689" 
d="M321 -143v142q-32 2 -74.5 11.5t-81 34t-66 68t-30.5 114.5h131q2 -36 16 -60.5t36 -39t49 -20.5t56 -6q26 0 49 5t40.5 15t27.5 26t10 38q0 29 -17 47t-44.5 30.5t-63 21t-73 18t-73 22.5t-63 34.5t-44.5 54t-17 80.5q0 46 19 80t51 57t74 36t88 16v144h87v-146
q32 -5 67.5 -17t65.5 -36t50.5 -62t23.5 -95h-132q-2 36 -16 58.5t-34.5 34.5t-44 16.5t-44.5 4.5q-23 0 -44 -4.5t-38 -14t-27 -25t-10 -36.5q0 -28 17 -46t44.5 -30t63 -21t73 -18.5t73 -22.5t63 -34t44.5 -52t17 -76q0 -77 -52.5 -132.5t-159.5 -68.5v-146h-87z" />
    <glyph glyph-name="uniE02C" unicode="&#xe02c;" horiz-adv-x="249" 
d="M58 725v136h133v-136h-133z" />
    <glyph glyph-name="uniE02D" unicode="&#xe02d;" horiz-adv-x="606" 
d="M429 353q66 -17 101.5 -64t35.5 -109q0 -42 -18.5 -77.5t-52.5 -61t-83 -40t-109 -14.5t-109 14.5t-83 40t-52.5 61t-18.5 77.5q0 62 35 109t101 64q-32 10 -54.5 26.5t-36 36.5t-19.5 43.5t-6 48.5q0 38 17.5 70.5t49.5 56t77 37t99 13.5t99 -13.5t77 -37t49.5 -56
t17.5 -70.5q0 -50 -26.5 -92.5t-90.5 -62.5zM428 189q0 56 -35 86.5t-90 30.5q-56 0 -91 -30.5t-35 -86.5q0 -46 33 -78t93 -32q59 0 92 32.5t33 77.5zM412 499q0 44 -27.5 72t-81.5 28t-82 -28t-28 -72q0 -42 28 -71.5t82 -29.5t81.5 29.5t27.5 71.5z" />
    <glyph glyph-name="uniE02E" unicode="&#xe02e;" horiz-adv-x="608" 
d="M431 353q66 -17 101 -64t35 -109q0 -42 -18.5 -77.5t-52.5 -61t-83 -40t-109 -14.5t-109 14.5t-83 40t-52.5 61t-18.5 77.5q0 62 35 109t101 64q-32 10 -54.5 26.5t-36 36.5t-19.5 43.5t-6 48.5q0 38 17.5 70.5t49.5 56t77 37t99 13.5t99 -13.5t77 -37t49.5 -56
t17.5 -70.5q0 -50 -26 -92.5t-90 -62.5zM429 189q0 56 -34.5 86.5t-90.5 30.5t-90.5 -30.5t-34.5 -86.5q0 -46 33 -78t92 -32t92 32.5t33 77.5zM414 499q0 44 -28 72t-82 28t-82 -28t-28 -72q0 -42 28 -71.5t82 -29.5t82 29.5t28 71.5z" />
    <glyph glyph-name="uniE02F" unicode="&#xe02f;" horiz-adv-x="404" 
d="M281 117q42 -10 65 -37t23 -62q0 -50 -44.5 -81t-122.5 -31q-77 0 -121.5 31t-44.5 81q0 35 22 62t64 37q-42 12 -58.5 36.5t-16.5 53.5q0 45 42 73.5t113 28.5t113.5 -28.5t42.5 -73.5q0 -29 -17 -53.5t-60 -36.5zM264 25q0 32 -16.5 47.5t-45.5 15.5t-45.5 -15.5
t-16.5 -47.5q0 -28 16 -44.5t46 -16.5t46 16.5t16 44.5zM257 199q0 23 -12 39t-43 16q-30 0 -42 -16t-12 -39q0 -21 12 -37t42 -16q31 0 43 16t12 37z" />
    <glyph glyph-name="uniE030" unicode="&#xe030;" horiz-adv-x="404" 
d="M281 637q42 -10 65 -37t23 -62q0 -50 -44.5 -81t-122.5 -31q-77 0 -121.5 31t-44.5 81q0 35 22 62t64 37q-42 12 -58.5 36.5t-16.5 53.5q0 45 42 73.5t113 28.5t113.5 -28.5t42.5 -73.5q0 -29 -17 -53.5t-60 -36.5zM264 545q0 32 -16.5 47.5t-45.5 15.5t-45.5 -15.5
t-16.5 -47.5q0 -28 16 -44.5t46 -16.5t46 16.5t16 44.5zM257 719q0 23 -12 39t-43 16q-30 0 -42 -16t-12 -39q0 -21 12 -37t42 -16q31 0 43 16t12 37z" />
    <glyph glyph-name="uniE031" unicode="&#xe031;" horiz-adv-x="689" 
d="M471 353q66 -17 101 -64t35 -109q0 -42 -18.5 -77.5t-52.5 -61t-83 -40t-109 -14.5t-109 14.5t-83 40t-52.5 61t-18.5 77.5q0 62 35 109t101 64q-32 10 -54.5 26.5t-36 36.5t-19.5 43.5t-6 48.5q0 38 17.5 70.5t49.5 56t77 37t99 13.5t99 -13.5t77 -37t49.5 -56
t17.5 -70.5q0 -50 -26 -92.5t-90 -62.5zM470 189q0 56 -35 86.5t-91 30.5t-90.5 -30.5t-34.5 -86.5q0 -46 33 -78t92 -32q60 0 93 32.5t33 77.5zM454 499q0 44 -28 72t-82 28t-81.5 -28t-27.5 -72q0 -42 27.5 -71.5t81.5 -29.5t82 29.5t28 71.5z" />
    <glyph glyph-name="uniE032" unicode="&#xe032;" horiz-adv-x="945" 
d="M75 290v93h795v-93h-795z" />
    <glyph glyph-name="uniE033" unicode="&#xe033;" horiz-adv-x="736" 
d="M75 290v93h585v-93h-585z" />
    <glyph glyph-name="uniE034" unicode="&#xe034;" horiz-adv-x="586" 
d="M67 393v108h452v-108h-452zM67 172v109h452v-109h-452z" />
    <glyph glyph-name="uniE035" unicode="&#xe035;" horiz-adv-x="276" 
d="M71 0v277l23 194h88l23 -194v-277h-134zM72 539v156h132v-156h-132z" />
    <glyph glyph-name="uniE036" unicode="&#xe036;" horiz-adv-x="581" 
d="M192 435l-16 -175q40 30 78 40t74 10q53 0 93.5 -17t67.5 -47t41 -71t14 -89q0 -52 -17.5 -95.5t-50.5 -75t-81.5 -49t-111.5 -17.5q-44 0 -88.5 10t-81.5 35.5t-60.5 69t-23.5 109.5h131q0 -35 10 -59.5t27 -39.5t39 -22t47 -7q63 0 95 38.5t32 96.5q0 57 -28.5 96.5
t-88.5 39.5q-35 0 -62.5 -12.5t-55.5 -42.5l-117 5l28 370h415v-101h-309z" />
    <glyph glyph-name="uniE037" unicode="&#xe037;" horiz-adv-x="608" 
d="M210 435l-17 -175q40 30 78.5 40t74.5 10q53 0 93.5 -17t67.5 -47t41 -71t14 -89q0 -52 -17.5 -95.5t-50.5 -75t-82 -49t-112 -17.5q-43 0 -88 10t-81.5 35.5t-60 69t-23.5 109.5h131q0 -35 10 -59.5t27 -39.5t39 -22t47 -7q63 0 95 38.5t32 96.5q0 57 -28.5 96.5
t-88.5 39.5q-35 0 -62.5 -12.5t-55.5 -42.5l-118 5l29 370h415v-101h-309z" />
    <glyph glyph-name="uniE038" unicode="&#xe038;" horiz-adv-x="418" 
d="M167 233l-8 -91q24 18 48.5 23.5t45.5 5.5q62 0 94 -37t32 -94q0 -29 -11.5 -53.5t-32.5 -42.5t-51.5 -28t-69.5 -10q-28 0 -57 6t-53 21t-39 40.5t-15 64.5h102q0 -37 17.5 -51.5t43.5 -14.5q32 0 47.5 20.5t15.5 48.5q0 32 -14.5 53.5t-43.5 21.5q-17 0 -31.5 -7
t-27.5 -25l-93 4l17 216h272v-71h-188z" />
    <glyph glyph-name="uniE039" unicode="&#xe039;" horiz-adv-x="418" 
d="M167 753l-8 -91q24 18 48.5 23.5t45.5 5.5q62 0 94 -37t32 -94q0 -29 -11.5 -53.5t-32.5 -42.5t-51.5 -28t-69.5 -10q-28 0 -57 6t-53 21t-39 40.5t-15 64.5h102q0 -37 17.5 -51.5t43.5 -14.5q32 0 47.5 20.5t15.5 48.5q0 32 -14.5 53.5t-43.5 21.5q-17 0 -31.5 -7
t-27.5 -25l-93 4l17 216h272v-71h-188z" />
    <glyph glyph-name="uniE03A" unicode="&#xe03a;" horiz-adv-x="689" 
d="M250 573l-16 -175q40 30 78 40t74 10q53 0 93.5 -17t67.5 -47t41 -71t14 -89q0 -52 -17.5 -95.5t-50.5 -75t-81.5 -49t-111.5 -17.5q-44 0 -88.5 10t-81.5 35.5t-60.5 69t-23.5 109.5h131q0 -35 10 -59.5t27 -39.5t39 -22t47 -7q63 0 95 38.5t32 96.5q0 57 -28.5 96.5
t-88.5 39.5q-35 0 -62.5 -12.5t-55.5 -42.5l-117 5l28 370h415v-101h-309z" />
    <glyph glyph-name="uniE03B" unicode="&#xe03b;" horiz-adv-x="689" 
d="M87 -107h52q35 0 54 17.5t28 65.5l70 371h-109v89h126l26 136q12 65 51 103t119 38q20 0 51 -2.5t68 -10.5l-17 -82h-70q-31 0 -53.5 -13t-30.5 -58l-21 -111h144l-17 -89h-143l-74 -406q-13 -69 -51.5 -108t-110.5 -39q-18 0 -48 2.5t-65 9.5z" />
    <glyph glyph-name="uniE03C" unicode="&#xe03c;" horiz-adv-x="619" 
d="M365 -138v149h-330v101l269 424h192v-423h98v-102h-98v-149h-131zM365 440l-213 -327h213v327z" />
    <glyph glyph-name="uniE03D" unicode="&#xe03d;" horiz-adv-x="608" 
d="M354 -138v149h-330v101l269 424h192v-423h99v-102h-99v-149h-131zM354 440l-213 -327h213v327z" />
    <glyph glyph-name="uniE03E" unicode="&#xe03e;" horiz-adv-x="402" 
d="M221 -88v74h-200v68l157 250h149v-253h58v-65h-58v-74h-106zM221 245l-125 -194h125v194z" />
    <glyph glyph-name="uniE03F" unicode="&#xe03f;" horiz-adv-x="402" 
d="M221 432v74h-200v68l157 250h149v-253h58v-65h-58v-74h-106zM221 765l-125 -194h125v194z" />
    <glyph glyph-name="uniE040" unicode="&#xe040;" horiz-adv-x="689" 
d="M395 0v142h-330v101l269 431h192v-430h99v-102h-99v-142h-131zM395 578l-213 -334h213v334z" />
    <glyph glyph-name="uniE041" unicode="&#xe041;" horiz-adv-x="347" 
d="M192 715l-134 155h139l92 -155h-97z" />
    <glyph glyph-name="uniE042" unicode="&#xe042;" horiz-adv-x="557" 
d="M67 59v117l308 160l-308 160v117l423 -214v-125z" />
    <glyph glyph-name="uniE043" unicode="&#xe043;" horiz-adv-x="557" 
d="M67 142v118l300 126l-300 127v117l423 -181v-125zM67 0v109h423v-109h-423z" />
    <glyph glyph-name="uniE044" unicode="&#xe044;" horiz-adv-x="646" 
d="M210 146l-161 189l162 193h123l-161 -193l160 -189h-123zM467 146l-161 189l162 193h123l-161 -193l160 -189h-123z" />
    <glyph glyph-name="uniE045" unicode="&#xe045;" horiz-adv-x="633" 
d="M300 146l160 189l-161 193h123l162 -193l-161 -189h-123zM56 146l160 189l-161 193h123l162 -193l-161 -189h-123z" />
    <glyph glyph-name="uniE046" unicode="&#xe046;" horiz-adv-x="389" 
d="M210 146l-161 189l162 193h123l-161 -193l160 -189h-123z" />
    <glyph glyph-name="uniE047" unicode="&#xe047;" horiz-adv-x="389" 
d="M56 146l160 189l-161 193h123l162 -193l-161 -189h-123z" />
    <glyph glyph-name="uniE048" unicode="&#xe048;" horiz-adv-x="548" 
d="M58 715l92 155h139l-134 -155h-97zM259 715l91 155h140l-135 -155h-96z" />
    <glyph glyph-name="uniE049" unicode="&#xe049;" horiz-adv-x="533" 
d="M75 290v93h382v-93h-382z" />
    <glyph glyph-name="uniE04A" unicode="&#xe04a;" horiz-adv-x="274" 
d="M72 0v517h130v-517h-130zM69 598v112h136v-112h-136z" />
    <glyph glyph-name="uniE04B" unicode="&#xe04b;" horiz-adv-x="835" 
d="M418 260q-35 -45 -82 -69.5t-90 -24.5q-28 0 -59.5 7.5t-58 27t-44 53t-17.5 84.5q0 49 17.5 82t44 52t58 27t59.5 8q43 0 90 -25t82 -68q34 43 80 68t91 25q28 0 59.5 -8t58 -27t44 -52t17.5 -82q0 -51 -17.5 -84.5t-44 -53t-58 -27t-59.5 -7.5q-45 0 -91 24.5t-80 69.5
zM463 338q14 -35 45 -59.5t72 -24.5q17 0 34 4.5t30.5 14t22 25.5t8.5 40q0 23 -8.5 38.5t-22 25t-30.5 13.5t-34 4q-41 0 -72 -24t-45 -57zM372 338q-14 33 -45 57t-72 24q-17 0 -34 -4t-30.5 -13.5t-22 -25t-8.5 -38.5q0 -24 8.5 -40t22 -25.5t30.5 -14t34 -4.5
q41 0 72 24.5t45 59.5z" />
    <glyph glyph-name="uniE04C" unicode="&#xe04c;" horiz-adv-x="557" 
d="M67 273v125l423 215v-118l-309 -159l309 -160v-118z" />
    <glyph glyph-name="uniE04D" unicode="&#xe04d;" horiz-adv-x="557" 
d="M67 324v125l423 181v-117l-301 -127l301 -126v-118zM67 0v109h423v-109h-423z" />
    <glyph glyph-name="uniE04E" unicode="&#xe04e;" horiz-adv-x="586" 
d="M413 198v175h-346v102h452v-277h-106z" />
    <glyph glyph-name="uniE04F" unicode="&#xe04f;" horiz-adv-x="634" 
d="M251 0l-184 337l184 337h130l186 -337l-186 -337h-130zM449 336l-132 241l-133 -240l133 -240z" />
    <glyph glyph-name="uniE050" unicode="&#xe050;" horiz-adv-x="460" 
d="M58 752v82h344v-82h-344z" />
    <glyph glyph-name="uniE051" unicode="&#xe051;" 
d="M67 286v101h451v-101h-451z" />
    <glyph glyph-name="uniE052" unicode="&#xe052;" horiz-adv-x="627" 
d="M486 91l-172 171l-173 -173l-74 74l173 173l-173 174l75 74l172 -174l173 172l73 -73l-172 -172l172 -173z" />
    <glyph glyph-name="uniE053" unicode="&#xe053;" horiz-adv-x="616" 
d="M189 27q0 -83 106 -83q64 0 102 54t42 179q-33 -35 -77.5 -53.5t-93.5 -18.5q-54 0 -96 16.5t-70.5 45.5t-43.5 69t-15 88q0 47 18.5 88t52 71t81 47.5t105.5 17.5q68 0 119 -25t84.5 -68.5t50.5 -102t17 -125.5q0 -97 -21 -168t-58.5 -117.5t-89.5 -69t-114 -22.5
q-50 0 -92 11t-73 33.5t-48 55.5t-17 77h131zM438 277q-2 36 -11 68t-25.5 56t-41 38t-56.5 14q-63 0 -95.5 -36t-32.5 -88q0 -27 7 -51t21 -41.5t36.5 -27.5t52.5 -10q37 0 74.5 16.5t70.5 61.5z" />
    <glyph glyph-name="uniE054" unicode="&#xe054;" horiz-adv-x="608" 
d="M186 27q0 -41 27 -62t78 -21q64 0 102.5 54t41.5 179q-32 -35 -77 -53.5t-94 -18.5q-54 0 -95.5 16.5t-70 45.5t-43.5 69t-15 88q0 47 18.5 88t52 71t81 47.5t105.5 17.5q68 0 119 -25t84.5 -68.5t50.5 -102t17 -125.5q0 -97 -21 -168t-58.5 -117.5t-89.5 -69t-114 -22.5
q-50 0 -92 11t-73 33.5t-48 55.5t-17 77h131zM435 277q-2 36 -11 68t-26 56t-41.5 38t-56.5 14q-63 0 -95.5 -36t-32.5 -88q0 -55 28.5 -92.5t89.5 -37.5q36 0 74 16.5t71 61.5z" />
    <glyph glyph-name="uniE055" unicode="&#xe055;" horiz-adv-x="410" 
d="M150 13q0 -43 48 -43q34 0 53.5 29t21.5 95q-20 -24 -47 -36t-57 -12q-62 0 -96 36t-34 93q0 28 11.5 52.5t32.5 42.5t51.5 28.5t69.5 10.5q43 0 75.5 -14.5t54 -40t32 -60t10.5 -75.5q0 -107 -50 -160t-129 -53q-65 0 -107 26.5t-42 80.5h102zM274 152q0 40 -17 65.5
t-52 25.5q-31 0 -46.5 -18t-15.5 -47q0 -31 13.5 -50t43.5 -19q19 0 38 9t36 34z" />
    <glyph glyph-name="uniE056" unicode="&#xe056;" horiz-adv-x="410" 
d="M150 533q0 -43 48 -43q34 0 53.5 29t21.5 95q-20 -24 -47 -36t-57 -12q-62 0 -96 36t-34 93q0 28 11.5 52.5t32.5 42.5t51.5 28.5t69.5 10.5q43 0 75.5 -14.5t54 -40t32 -60t10.5 -75.5q0 -107 -50 -160t-129 -53q-65 0 -107 26.5t-42 80.5h102zM274 672q0 40 -17 65.5
t-52 25.5q-31 0 -46.5 -18t-15.5 -47q0 -31 13.5 -50t43.5 -19q19 0 38 9t36 34z" />
    <glyph glyph-name="uniE057" unicode="&#xe057;" horiz-adv-x="689" 
d="M226 165q0 -42 27.5 -63t78.5 -21q64 0 102 54t42 179q-33 -35 -77.5 -53.5t-93.5 -18.5q-54 0 -95.5 16.5t-70 45.5t-43.5 69t-15 88q0 47 18.5 88t52 71t81 47.5t105.5 17.5q68 0 119 -25t84.5 -68.5t50.5 -102t17 -125.5q0 -97 -21 -168t-58.5 -117.5t-90 -69
t-114.5 -22.5q-50 0 -92 11.5t-72.5 34t-47.5 55.5t-17 77h130zM476 415q-2 36 -11 68t-26 55.5t-41.5 37.5t-56.5 14q-63 0 -95.5 -36t-32.5 -88q0 -27 7 -51t21.5 -41.5t36.5 -27.5t53 -10q36 0 74 16.5t71 62.5z" />
    <glyph glyph-name="uniE058" unicode="&#xe058;" horiz-adv-x="610" 
d="M261 177l-101 -177h-93l102 177h-91v110h152l64 111h-216v108h277l96 168h92l-96 -168h87v-108h-148l-63 -111h211v-110h-273z" />
    <glyph glyph-name="uniE059" unicode="&#xe059;" horiz-adv-x="746" 
d="M406 0l21 174h-144l-22 -174h-97l21 174h-125v93h137l18 145h-117v93h129l21 169h98l-22 -169h145l21 169h98l-22 -169h120v-93h-132l-18 -145h112v-93h-123l-22 -174h-97zM457 412h-145l-18 -145h145z" />
    <glyph glyph-name="uniE05A" unicode="&#xe05a;" horiz-adv-x="1146" 
d="M745 173v65h352v-65h-352zM1099 453q0 -35 -13 -65t-36 -53t-56 -36t-73 -13t-73 12t-56 33.5t-36 52.5t-13 69q0 34 13 64.5t36 53.5t56 36.5t73 13.5t73 -12t56 -34.5t36 -53.5t13 -68zM921 357q35 0 55 27t20 69t-20 69t-55 27t-55.5 -27.5t-20.5 -68.5
q0 -43 20.5 -69.5t55.5 -26.5zM509 0l-301 468v-468h-133v674h139l306 -479v479h133v-674h-144z" />
    <glyph glyph-name="uniE05B" unicode="&#xe05b;" horiz-adv-x="565" 
d="M42 0v107h177v309l-177 -89v117l178 92h132v-429h176v-107h-486z" />
    <glyph glyph-name="uniE05C" unicode="&#xe05c;" horiz-adv-x="608" 
d="M61 0v107h177v309l-177 -89v117l178 92h131v-429h176v-107h-485z" />
    <glyph glyph-name="uniE05D" unicode="&#xe05d;" horiz-adv-x="330" 
d="M161 -88v306l-114 -53v86l112 53h108v-392h-106z" />
    <glyph glyph-name="uniE05E" unicode="&#xe05e;" horiz-adv-x="330" 
d="M161 432v306l-114 -53v86l112 53h108v-392h-106z" />
    <glyph glyph-name="uniE05F" unicode="&#xe05f;" horiz-adv-x="689" 
d="M366 0v553l-176 -89v118l177 92h132v-674h-133z" />
    <glyph glyph-name="uniE060" unicode="&#xe060;" horiz-adv-x="299" 
d="M181 -135q-69 100 -108 221.5t-39 251.5q0 131 39 250t111 219h105q-27 -42 -51.5 -94.5t-42.5 -112t-28.5 -126t-10.5 -136.5q0 -69 10.5 -135.5t28 -127.5t41.5 -114t51 -96h-106z" />
    <glyph glyph-name="uniE061" unicode="&#xe061;" horiz-adv-x="299" 
d="M12 -135q27 43 51 96t42 114t28 127.5t10 135.5q0 70 -10.5 136.5t-28.5 126t-42.5 112t-51.5 94.5h106q71 -100 110 -219t39 -250q0 -130 -39 -251.5t-108 -221.5h-106z" />
    <glyph glyph-name="uniE062" unicode="&#xe062;" horiz-adv-x="301" 
d="M52 236v201h197v-201h-197z" />
    <glyph glyph-name="uniE063" unicode="&#xe063;" horiz-adv-x="586" 
d="M346 285v-171h-106v171h-173v101h173v173h106v-173h173v-101h-173z" />
    <glyph glyph-name="uniE064" unicode="&#xe064;" horiz-adv-x="586" 
d="M67 0v100h173v191h-173v100h173v180h106v-180h173v-100h-173v-191h173v-100h-452z" />
    <glyph glyph-name="uniE065" unicode="&#xe065;" horiz-adv-x="510" 
d="M493 182q-4 -62 -30 -99t-61.5 -57t-73 -26.5t-64.5 -6.5q-47 0 -87 10.5t-70 32t-47 55t-17 79.5q0 40 14.5 69t35.5 51.5t46.5 41t46.5 38.5t35.5 44.5t14.5 58.5h126q0 -42 -14 -73.5t-35.5 -56t-46 -44t-46 -38t-35.5 -38t-14 -43.5t8.5 -40t21.5 -25t29.5 -13
t33.5 -4q14 0 31.5 2.5t32.5 11t26.5 25t13.5 45.5h125zM231 540v155h136v-155h-136z" />
    <glyph glyph-name="uniE066" unicode="&#xe066;" horiz-adv-x="518" 
d="M58 134v406h402v-406h-402z" />
    <glyph glyph-name="uniE067" unicode="&#xe067;" horiz-adv-x="353" 
d="M233 751q0 25 -16.5 41.5t-40.5 16.5t-40.5 -17t-16.5 -41t16.5 -40t40.5 -16t40.5 16t16.5 40zM295 751q0 -25 -9.5 -46.5t-25.5 -37t-37.5 -24.5t-45.5 -9q-25 0 -46.5 9t-37.5 24.5t-25.5 37t-9.5 46.5t9.5 47t25.5 38t37.5 25t46.5 9q24 0 45.5 -9t37.5 -25t25.5 -38
t9.5 -47z" />
    <glyph glyph-name="uniE068" unicode="&#xe068;" horiz-adv-x="526" 
d="M69 -138q48 143 120 285t164 284h-343v105h492v-88q-97 -135 -172.5 -285t-123.5 -301h-137z" />
    <glyph glyph-name="uniE069" unicode="&#xe069;" horiz-adv-x="608" 
d="M117 -138q48 143 120 285t164 284h-343v105h492v-88q-97 -135 -172.5 -285t-123.5 -301h-137z" />
    <glyph glyph-name="uniE06A" unicode="&#xe06a;" horiz-adv-x="395" 
d="M67 -88q28 80 71 159.5t97 158.5h-192v74h305v-59q-56 -75 -101 -161t-72 -172h-108z" />
    <glyph glyph-name="uniE06B" unicode="&#xe06b;" horiz-adv-x="395" 
d="M67 432q28 80 71 159.5t97 158.5h-192v74h305v-59q-56 -75 -101 -161t-72 -172h-108z" />
    <glyph glyph-name="uniE06C" unicode="&#xe06c;" horiz-adv-x="689" 
d="M158 0q48 143 119.5 285t164.5 284h-344v105h493v-88q-97 -135 -172.5 -285t-123.5 -301h-137z" />
    <glyph glyph-name="uniE06D" unicode="&#xe06d;" horiz-adv-x="616" 
d="M426 509q0 42 -26.5 62.5t-74.5 20.5q-66 0 -105 -54t-43 -180q33 35 77 53.5t94 18.5q54 0 96 -16.5t70.5 -45.5t43.5 -69t15 -87t-18 -88t-51.5 -71.5t-81 -48t-105.5 -17.5q-68 0 -119 24.5t-85 68t-51 102.5t-17 127q0 98 21.5 169t59.5 117t90.5 68t114.5 22
q48 0 89.5 -11t71.5 -33.5t47 -55.5t17 -76h-130zM177 258q1 -36 10.5 -68t26.5 -55.5t42 -37.5t58 -14q62 0 94 36t32 87q0 27 -6.5 51t-21 42t-36.5 28t-52 10q-37 0 -75 -17t-72 -62z" />
    <glyph glyph-name="uniE06E" unicode="&#xe06e;" horiz-adv-x="608" 
d="M421 509q0 42 -26.5 62.5t-74.5 20.5q-66 0 -105 -54t-43 -180q33 35 77 53.5t94 18.5q54 0 96 -16.5t70.5 -45.5t43.5 -69t15 -87t-18 -88t-51.5 -71.5t-81 -48t-105.5 -17.5q-68 0 -119 24.5t-85 68t-51 102.5t-17 127q0 98 21.5 169t59.5 117t90.5 68t114.5 22
q48 0 89.5 -11t71.5 -33.5t47 -55.5t17 -76h-130zM172 258q1 -36 10.5 -68t26.5 -55.5t42 -37.5t58 -14q62 0 94 36t32 87q0 27 -6.5 51t-21 42t-36.5 28t-52 10q-37 0 -75 -17t-72 -62z" />
    <glyph glyph-name="uniE06F" unicode="&#xe06f;" horiz-adv-x="410" 
d="M260 204q0 41 -46 41q-36 0 -55.5 -28.5t-21.5 -95.5q20 25 46.5 36.5t57.5 11.5q62 0 96 -36t34 -93q0 -28 -11.5 -52.5t-32.5 -42.5t-51.5 -28.5t-68.5 -10.5q-44 0 -76 14.5t-54 40t-32.5 60.5t-10.5 76q0 54 13 93.5t37 66t57.5 39.5t73.5 13q63 0 105 -25.5
t42 -79.5h-102zM136 63q0 -40 17 -65.5t53 -25.5q30 0 45.5 18.5t15.5 48.5q0 29 -13.5 48t-43.5 19q-19 0 -38 -9.5t-36 -33.5z" />
    <glyph glyph-name="uniE070" unicode="&#xe070;" horiz-adv-x="410" 
d="M260 724q0 41 -46 41q-36 0 -55.5 -28.5t-21.5 -95.5q20 25 46.5 36.5t57.5 11.5q62 0 96 -36t34 -93q0 -28 -11.5 -52.5t-32.5 -42.5t-51.5 -28.5t-68.5 -10.5q-44 0 -76 14.5t-54 40t-32.5 60.5t-10.5 76q0 54 13 93.5t37 66t57.5 39.5t73.5 13q63 0 105 -25.5
t42 -79.5h-102zM136 583q0 -40 17 -65.5t53 -25.5q30 0 45.5 18.5t15.5 48.5q0 29 -13.5 48t-43.5 19q-19 0 -38 -9.5t-36 -33.5z" />
    <glyph glyph-name="uniE071" unicode="&#xe071;" horiz-adv-x="689" 
d="M461 509q0 42 -26 62.5t-74 20.5q-66 0 -105 -54t-43 -180q32 35 76.5 53.5t94.5 18.5q54 0 96 -16.5t70.5 -45.5t43.5 -69t15 -87t-18.5 -88t-52 -71.5t-81 -48t-105.5 -17.5q-68 0 -119 24.5t-84.5 68t-50.5 102.5t-17 127q0 98 21.5 169t59.5 117t90.5 68t114.5 22
q48 0 89 -11t71.5 -33.5t47.5 -55.5t17 -76h-131zM213 258q1 -36 10.5 -68t26.5 -55.5t42 -37.5t58 -14q62 0 94 36t32 87q0 55 -28 93t-89 38q-37 0 -74.5 -17t-71.5 -62z" />
    <glyph glyph-name="uniE072" unicode="&#xe072;" horiz-adv-x="368" 
d="M-1 -134l253 941h117l-253 -941h-117z" />
    <glyph glyph-name="uniE073" unicode="&#xe073;" horiz-adv-x="549" 
d="M274 222l-142 -105l54 167l-143 104h177l54 169l55 -169h177l-143 -104l54 -167z" />
    <glyph glyph-name="uniE074" unicode="&#xe074;" horiz-adv-x="689" 
d="M101 0v105q58 47 79.5 87.5t21.5 79.5q0 6 -1 10h-100v88h76q-11 28 -19 58.5t-8 67.5q0 39 13 74.5t40.5 61.5t71 41.5t104.5 15.5q26 0 61.5 -6t68 -26t55 -57.5t22.5 -100.5h-127q0 25 -7 41.5t-18.5 26t-26.5 13t-31 3.5q-51 0 -71.5 -25.5t-20.5 -65.5
q0 -31 9 -61.5t20 -60.5h223v-88h-201q0 -3 0.5 -5.5t0.5 -4.5q0 -35 -19 -76t-73 -93h344v-103h-487z" />
    <glyph glyph-name="uniE075" unicode="&#xe075;" horiz-adv-x="587" 
d="M196 161v92h59q66 0 104 25.5t38 83.5q0 45 -29 68t-80 23q-21 0 -41.5 -5t-37 -19t-27 -39t-10.5 -65h-132q1 67 26.5 110.5t63 68.5t80 34.5t78.5 9.5q53 0 97 -11.5t76 -34t50 -54.5t18 -72q0 -66 -32 -104.5t-95 -52.5q30 -4 56.5 -16t46.5 -32.5t32 -50.5t12 -69
q0 -44 -18 -81t-52 -63.5t-81.5 -41.5t-106.5 -15q-44 0 -89 10t-82.5 35.5t-61.5 69t-25 109.5h133q0 -35 10 -59.5t27 -39.5t39.5 -21.5t48.5 -6.5q59 0 91 28t32 81q0 30 -12.5 50.5t-33.5 32.5t-50 17t-62 5h-60z" />
    <glyph glyph-name="uniE076" unicode="&#xe076;" horiz-adv-x="608" 
d="M209 161v92h59q66 0 104 25.5t38 83.5q0 45 -29 68t-80 23q-21 0 -41.5 -5t-37 -19t-27 -39t-10.5 -65h-132q1 67 26.5 110.5t63 68.5t80 34.5t78.5 9.5q53 0 97 -11.5t76 -34t50 -54.5t18 -72q0 -66 -32 -104.5t-95 -52.5q30 -4 56.5 -16t46.5 -32.5t32 -50.5t12 -69
q0 -44 -18 -81t-52 -63.5t-81.5 -41.5t-106.5 -15q-44 0 -89 10t-82.5 35.5t-61.5 69t-25 109.5h133q0 -35 10 -59.5t27 -39.5t39.5 -21.5t48.5 -6.5q59 0 91 28t32 81q0 30 -12.5 50.5t-33.5 32.5t-50 17t-62 5h-60z" />
    <glyph glyph-name="uniE077" unicode="&#xe077;" horiz-adv-x="431" 
d="M160 83v57h45q32 0 50.5 13.5t18.5 42.5q0 48 -55 48q-22 0 -40 -12t-18 -53h-104q0 39 17 64.5t41.5 40t52.5 20t51 5.5q71 0 114.5 -26.5t43.5 -75.5q0 -36 -18.5 -58.5t-52.5 -30.5q33 -5 57.5 -28.5t24.5 -67.5q0 -52 -45 -84t-122 -32q-29 0 -58.5 6t-53.5 21
t-40 40.5t-16 64.5h104q0 -38 18.5 -52t45.5 -14q30 0 46.5 15t16.5 44q0 30 -22.5 41t-56.5 11h-45z" />
    <glyph glyph-name="uniE078" unicode="&#xe078;" horiz-adv-x="431" 
d="M160 603v57h45q32 0 50.5 13.5t18.5 42.5q0 48 -55 48q-22 0 -40 -12t-18 -53h-104q0 39 17 64.5t41.5 40t52.5 20t51 5.5q71 0 114.5 -26.5t43.5 -75.5q0 -36 -18.5 -58.5t-52.5 -30.5q33 -5 57.5 -28.5t24.5 -67.5q0 -52 -45 -84t-122 -32q-29 0 -58.5 6t-53.5 21
t-40 40.5t-16 64.5h104q0 -38 18.5 -52t45.5 -14q30 0 46.5 15t16.5 44q0 30 -22.5 41t-56.5 11h-45z" />
    <glyph glyph-name="uniE079" unicode="&#xe079;" horiz-adv-x="689" 
d="M250 298v92h59q66 0 104 25.5t38 84.5q0 44 -29 67t-80 23q-21 0 -42 -5t-37.5 -19t-26.5 -39t-10 -65h-132q1 67 26.5 110.5t62.5 68.5t80 34.5t78 9.5q53 0 97.5 -11.5t76.5 -34t49.5 -54.5t17.5 -72q0 -66 -31.5 -104.5t-94.5 -52.5q30 -4 56.5 -16t46.5 -32.5
t31.5 -50.5t11.5 -69q0 -44 -18 -81t-51.5 -63.5t-81.5 -41.5t-107 -15q-43 0 -88.5 10t-82.5 35.5t-61 69t-25 109.5h133q0 -35 10 -59.5t27 -39.5t39.5 -21.5t48.5 -6.5q59 0 91 28t32 81q0 30 -12.5 50.5t-33.5 32.5t-50 17t-62 5h-60z" />
    <glyph glyph-name="uniE07A" unicode="&#xe07a;" horiz-adv-x="474" 
d="M416 857q0 -21 -4.5 -43.5t-16 -41t-30.5 -30.5t-48 -12q-20 0 -41.5 7t-41.5 15.5t-38 15.5t-31 7q-17 0 -27 -8.5t-10 -36.5h-70q0 21 4.5 43t16 41t30.5 31t48 12q20 0 41.5 -7t41.5 -15.5t37.5 -15.5t30.5 -7q17 0 27.5 8t10.5 37h70z" />
    <glyph glyph-name="uniE07B" unicode="&#xe07b;" horiz-adv-x="616" 
d="M40 0v90q72 36 138 65.5t116.5 59t81 62.5t30.5 76t-26 71.5t-86 28.5q-21 0 -42 -5t-38 -18.5t-28 -39t-11 -65.5h-133q1 67 27 110.5t63.5 68.5t81.5 34.5t81 9.5q60 0 105.5 -15t76.5 -41.5t46.5 -62t15.5 -76.5q0 -45 -22 -80.5t-59 -65t-86 -55t-103 -50.5h315v-102
h-544z" />
    <glyph glyph-name="uniE07C" unicode="&#xe07c;" horiz-adv-x="608" 
d="M32 0v90q72 36 138 65.5t116.5 59t81 62.5t30.5 76t-26.5 71.5t-86.5 28.5q-20 0 -41 -5t-38 -18.5t-28 -39t-11 -65.5h-133q1 67 27 110.5t63.5 68.5t81.5 34.5t81 9.5q60 0 105.5 -15t76.5 -41.5t46.5 -62t15.5 -76.5q0 -45 -22 -80.5t-59 -65t-86 -55t-103 -50.5h315
v-102h-544z" />
    <glyph glyph-name="uniE07D" unicode="&#xe07d;" horiz-adv-x="417" 
d="M53 -88v58q36 28 74 53.5t69.5 51.5t52 53.5t20.5 59.5q0 25 -12 40t-39 15q-10 0 -20.5 -2.5t-19 -9t-14.5 -19.5t-6 -34h-104q0 39 16.5 64.5t41.5 40.5t53.5 20.5t52.5 5.5q79 0 118 -34.5t39 -86.5q0 -32 -17.5 -61t-43.5 -54.5t-55.5 -47.5t-54.5 -40h175v-73h-326z
" />
    <glyph glyph-name="uniE07E" unicode="&#xe07e;" horiz-adv-x="417" 
d="M53 432v58q36 28 74 53.5t69.5 51.5t52 53.5t20.5 59.5q0 25 -12 40t-39 15q-10 0 -20.5 -2.5t-19 -9t-14.5 -19.5t-6 -34h-104q0 39 16.5 64.5t41.5 40.5t53.5 20.5t52.5 5.5q79 0 118 -34.5t39 -86.5q0 -32 -17.5 -61t-43.5 -54.5t-55.5 -47.5t-54.5 -40h175v-73h-326z
" />
    <glyph glyph-name="uniE07F" unicode="&#xe07f;" horiz-adv-x="689" 
d="M89 0v90q39 34 81 65.5t83 62t77 61t64 62.5t44 66.5t16 72.5q0 51 -26.5 80.5t-85.5 29.5q-21 0 -41.5 -5t-37.5 -19.5t-28 -41.5t-12 -72h-132q1 72 26.5 117t63 71t81.5 35.5t81 9.5q61 0 107 -15.5t76.5 -42.5t45.5 -64.5t15 -82.5q0 -60 -31.5 -113.5t-77.5 -100
t-98 -86t-94 -73.5h315v-107h-512z" />
    <glyph glyph-name="uniE080" unicode="&#xe080;" horiz-adv-x="689" 
d="M410 102v-102h-133v102h-184v76h184v81h-184v76h140l-199 339h141l170 -314l171 314h138l-201 -339h142v-76h-185v-81h185v-76h-185z" />
    <glyph glyph-name="uniE081" unicode="&#xe081;" horiz-adv-x="608" 
d="M304 -13q-60 0 -109 19.5t-83 56t-52.5 88.5t-18.5 117q0 64 18.5 116t52.5 88.5t83 56t109 19.5t109 -19.5t83.5 -56t53 -88.5t18.5 -116q0 -65 -18.5 -117t-53 -88.5t-83.5 -56t-109 -19.5zM304 98q63 0 96 46t33 124q0 79 -33 125t-96 46q-62 0 -95 -46t-33 -125
q0 -78 33 -124t95 -46z" />
    <glyph glyph-name="uniE082" unicode="&#xe082;" horiz-adv-x="608" 
d="M266 230v76h76v-76h-76zM304 -13q-60 0 -109 19.5t-83 56t-52.5 88.5t-18.5 117q0 64 18.5 116t52.5 88.5t83 56t109 19.5t109 -19.5t83.5 -56t53 -88.5t18.5 -116q0 -65 -18.5 -117t-53 -88.5t-83.5 -56t-109 -19.5zM304 98q63 0 96 46t33 124q0 79 -33 125t-96 46
q-62 0 -95 -46t-33 -125q0 -78 33 -124t95 -46z" />
    <glyph glyph-name="uniE083" unicode="&#xe083;" horiz-adv-x="608" 
d="M266 230v76h76v-76h-76zM304 -13q-60 0 -109 19.5t-83 56t-52.5 88.5t-18.5 117q0 64 18.5 116t52.5 88.5t83 56t109 19.5t109 -19.5t83.5 -56t53 -88.5t18.5 -116q0 -65 -18.5 -117t-53 -88.5t-83.5 -56t-109 -19.5zM304 98q63 0 96 46t33 124q0 79 -33 125t-96 46
q-62 0 -95 -46t-33 -125q0 -78 33 -124t95 -46z" />
    <glyph glyph-name="uniE084" unicode="&#xe084;" horiz-adv-x="608" 
d="M304 -13q-60 0 -109 19.5t-83 56t-52.5 88.5t-18.5 117q0 64 18.5 116t52.5 88.5t83 56t109 19.5t109 -19.5t83.5 -56t53 -88.5t18.5 -116q0 -65 -18.5 -117t-53 -88.5t-83.5 -56t-109 -19.5zM304 98q63 0 96 46t33 124q0 79 -33 125t-96 46q-62 0 -95 -46t-33 -125
q0 -78 33 -124t95 -46z" />
    <glyph glyph-name="uniE085" unicode="&#xe085;" horiz-adv-x="436" 
d="M218 -93q-85 0 -134.5 52.5t-49.5 149.5t49.5 149t134.5 52t134.5 -52t49.5 -149t-49.5 -149.5t-134.5 -52.5zM218 -23q39 0 60 33t21 99t-21 99t-60 33q-81 0 -81 -132t81 -132z" />
    <glyph glyph-name="uniE086" unicode="&#xe086;" horiz-adv-x="689" 
d="M300 293v88h88v-88h-88zM345 -13q-68 0 -122.5 24t-93 69t-59 110t-20.5 147q0 81 20.5 145.5t59 109.5t93 69t122.5 24q67 0 122 -24t93 -69t59 -109.5t21 -145.5q0 -82 -21 -147t-59 -110t-93 -69t-122 -24zM345 98q78 0 119 62.5t41 176.5q0 113 -41 176t-119 63
t-119 -63t-41 -176q0 -114 41 -176.5t119 -62.5z" />
    <glyph glyph-name="uniE087" unicode="&#xe087;" horiz-adv-x="689" 
d="M300 293v88h88v-88h-88zM345 -13q-68 0 -122.5 24t-93 69t-59 110t-20.5 147q0 81 20.5 145.5t59 109.5t93 69t122.5 24q67 0 122 -24t93 -69t59 -109.5t21 -145.5q0 -82 -21 -147t-59 -110t-93 -69t-122 -24zM345 98q78 0 119 62.5t41 176.5q0 113 -41 176t-119 63
t-119 -63t-41 -176q0 -114 41 -176.5t119 -62.5z" />
    <glyph glyph-name="uniE088" unicode="&#xe088;" horiz-adv-x="436" 
d="M218 426q-85 0 -134.5 52.5t-49.5 149.5t49.5 149t134.5 52t134.5 -52t49.5 -149t-49.5 -149.5t-134.5 -52.5zM218 496q39 0 60 33t21 99t-21 99t-60 33q-81 0 -81 -132t81 -132z" />
    <glyph glyph-name="uniE089" unicode="&#xe089;" horiz-adv-x="689" 
d="M345 -13q-68 0 -122.5 24t-93 69t-59 110t-20.5 147q0 81 20.5 145.5t59 109.5t93 69t122.5 24q67 0 122 -24t93 -69t59 -109.5t21 -145.5q0 -82 -21 -147t-59 -110t-93 -69t-122 -24zM345 98q78 0 119 62.5t41 176.5q0 113 -41 176t-119 63t-119 -63t-41 -176
q0 -114 41 -176.5t119 -62.5z" />
    </font>
</defs>
</svg>
