<?xml version="1.0" standalone="no"?>
<!DOCTYPE svg PUBLIC "-//W3C//DTD SVG 1.1//EN" "http://www.w3.org/Graphics/SVG/1.1/DTD/svg11.dtd" >
<svg>
<metadata>
Created by FontForge 20120731 at Mon Jul  8 10:52:20 2019
 By www
Copyright (c) 2015 by Marconi Lima/Typefolio Digital Foundry. All rights reserved.
</metadata>
<defs>
<font id="StevieSansW00-Book" horiz-adv-x="574" >
  <font-face 
    font-family="StevieSansW00-Book"
    font-weight="400"
    font-stretch="normal"
    units-per-em="1000"
    panose-1="2 0 5 3 0 0 0 2 0 4"
    ascent="800"
    descent="-200"
    x-height="510"
    cap-height="667"
    bbox="-41 -250 1189 908"
    underline-thickness="50"
    underline-position="-125"
    unicode-range="U+0020-FB02"
  />
<missing-glyph horiz-adv-x="690" 
d="M570 147l-185 185l185 186l-39 41l-186 -187l-186 187l-39 -41l185 -186l-185 -185l40 -41l185 186l185 -186zM45 -53v773h600v-773h-600z" />
    <glyph glyph-name="uniFB01" unicode="fi" horiz-adv-x="587" 
d="M417 0v447h-234v-447h-81v447h-79v63h79v54q0 33 4 63.5t19.5 53.5t46 37t83.5 14q11 0 27.5 -1t31.5 -4v-57h-51q-51 0 -65.5 -26t-14.5 -75v-59h315v-510h-81zM414 612v89h87v-89h-87z" />
    <glyph glyph-name="uniFB02" unicode="fl" horiz-adv-x="587" 
d="M102 0v447h-79v63h79v54q0 33 4 63.5t19.5 53.5t46 37t83.5 14q11 0 27.5 -1t31.5 -4v-57h-51q-51 0 -65.5 -26t-14.5 -75v-59h129v-63h-129v-447h-81zM417 0v720h81v-720h-81z" />
    <glyph glyph-name=".notdef" horiz-adv-x="690" 
d="M570 147l-185 185l185 186l-39 41l-186 -187l-186 187l-39 -41l185 -186l-185 -185l40 -41l185 186l185 -186zM45 -53v773h600v-773h-600z" />
    <glyph glyph-name=".null" horiz-adv-x="0" 
 />
    <glyph glyph-name="nonmarkingreturn" horiz-adv-x="333" 
 />
    <glyph glyph-name="space" unicode=" " horiz-adv-x="234" 
 />
    <glyph glyph-name="exclam" unicode="!" horiz-adv-x="254" 
d="M100 203l-15 189v296h83v-296l-14 -189h-54zM84 0v133h84v-133h-84z" />
    <glyph glyph-name="quotedbl" unicode="&#x22;" horiz-adv-x="309" 
d="M48 473l-9 108v155h75v-155l-9 -108h-57zM204 473l-8 108v155h74v-155l-9 -108h-57z" />
    <glyph glyph-name="numbersign" unicode="#" horiz-adv-x="758" 
d="M426 0l23 196h-167l-24 -196h-64l24 196h-147v61h155l19 159h-136v61h145l24 190h64l-25 -190h169l24 190h63l-24 -190h138v-61h-145l-21 -159h128v-61h-135l-24 -196h-64zM477 416h-167l-20 -159h168z" />
    <glyph glyph-name="dollar" unicode="$" horiz-adv-x="593" 
d="M278 -142v143q-29 1 -68.5 9.5t-75.5 31t-62.5 63t-29.5 105.5h84q1 -41 16.5 -68t40 -43t55 -23t63.5 -7q34 0 64 6t52 20t34.5 35.5t12.5 53.5q0 35 -17 56.5t-45.5 36t-64.5 24t-73.5 19t-73 22t-64 33t-45.5 51.5t-17 78q0 43 18 75.5t48 54t68.5 33t79.5 14.5v144
h60v-146q30 -3 65 -12.5t65.5 -31t51.5 -57.5t24 -91h-83q-2 42 -18.5 67t-40.5 39t-52 18.5t-53 4.5q-28 0 -54.5 -6t-47.5 -18.5t-33.5 -33t-12.5 -49.5q0 -34 17 -55.5t45.5 -36t64 -24t73 -19t73.5 -22t64.5 -33t45.5 -51t17 -76.5q0 -76 -54 -127.5t-157 -60.5v-146
h-60z" />
    <glyph glyph-name="percent" unicode="%" horiz-adv-x="854" 
d="M200 350q-73 0 -114 43.5t-41 115.5q0 71 41 114.5t114 43.5q75 0 115 -43.5t40 -114.5q0 -72 -40 -115.5t-115 -43.5zM200 401q43 0 64.5 28.5t21.5 79.5t-21.5 79t-64.5 28q-42 0 -63.5 -28t-21.5 -79t21.5 -79.5t63.5 -28.5zM210 0l391 694h59l-392 -694h-58zM654 0
q-74 0 -114.5 43t-40.5 115t40.5 115t114.5 43t114.5 -43t40.5 -115t-40.5 -115t-114.5 -43zM654 52q43 0 64.5 27.5t21.5 78.5t-21.5 80t-64.5 29q-42 0 -64 -29t-22 -80t22 -78.5t64 -27.5z" />
    <glyph glyph-name="ampersand" unicode="&#x26;" horiz-adv-x="630" 
d="M493 0l-36 42q-33 -28 -73.5 -41t-85.5 -13q-53 0 -97.5 14.5t-76.5 40.5t-50.5 63.5t-18.5 82.5q0 56 31 106t92 78q-26 34 -43.5 69t-17.5 76q0 39 15.5 70t42 53t61.5 34t73 12t72 -10.5t59.5 -31t40.5 -51t15 -70.5h-81q0 50 -29 73.5t-76 23.5q-48 0 -77.5 -27
t-29.5 -81q0 -42 24.5 -78t63.5 -83l179 -215q20 34 29.5 79t9.5 92h69q0 -24 -3.5 -52.5t-11 -58t-20.5 -58t-32 -51.5l73 -88h-91zM214 329q-42 -23 -58.5 -55t-16.5 -77q0 -34 12.5 -61t35 -45.5t53.5 -28t67 -9.5q70 0 110 37z" />
    <glyph glyph-name="quotesingle" unicode="'" horiz-adv-x="153" 
d="M48 473l-9 108v155h75v-155l-9 -108h-57z" />
    <glyph glyph-name="parenleft" unicode="(" horiz-adv-x="261" 
d="M180 -214q-67 99 -104.5 220.5t-37.5 250.5q0 133 38.5 252.5t108.5 219.5h66q-27 -43 -50.5 -95.5t-41.5 -112.5t-28.5 -126.5t-10.5 -137.5q0 -69 10 -135t27 -126.5t40 -113.5t49 -96h-66z" />
    <glyph glyph-name="parenright" unicode=")" horiz-adv-x="261" 
d="M14 -214q26 43 49 96t40 113.5t27 126.5t10 135q0 71 -10 137.5t-28 126.5t-41.5 112.5t-50.5 95.5h66q70 -100 108 -219.5t38 -252.5q0 -129 -37.5 -250.5t-104.5 -220.5h-66z" />
    <glyph glyph-name="asterisk" unicode="*" horiz-adv-x="452" 
d="M255 461v-141h-58v141l-121 -65l-26 51l117 64l-117 63l26 51l121 -66v142h58v-141l120 65l27 -51l-117 -63l117 -64l-27 -50z" />
    <glyph glyph-name="plus" unicode="+" horiz-adv-x="599" 
d="M334 230v-188h-69v188h-189v67h189v190h69v-190h189v-67h-189z" />
    <glyph glyph-name="comma" unicode="," horiz-adv-x="177" 
d="M47 -143v272h83q0 -31 -0.5 -59.5t-4.5 -60t-11.5 -68.5t-21.5 -84h-45z" />
    <glyph glyph-name="hyphen" unicode="-" horiz-adv-x="554" 
d="M86 233v61h382v-61h-382z" />
    <glyph glyph-name="period" unicode="." horiz-adv-x="179" 
d="M47 0v135h85v-135h-85z" />
    <glyph glyph-name="slash" unicode="/" horiz-adv-x="343" 
d="M7 -206l253 942h76l-253 -942h-76z" />
    <glyph glyph-name="zero" unicode="0" horiz-adv-x="664" 
d="M333 -12q-63 0 -114 23.5t-87 68t-55 108.5t-19 145q0 80 19 144t55 108.5t87 68t114 23.5t113.5 -23.5t86 -68t55 -108.5t19.5 -144q0 -81 -19.5 -145t-55 -108.5t-86 -68t-113.5 -23.5zM333 60q93 0 141 71.5t48 201.5q0 129 -48 201t-141 72t-141 -72t-48 -201
q0 -130 48 -201.5t141 -71.5z" />
    <glyph glyph-name="one" unicode="1" horiz-adv-x="517" 
d="M256 0v586l-176 -89v78l177 92h82v-667h-83z" />
    <glyph glyph-name="two" unicode="2" horiz-adv-x="588" 
d="M54 0v54q60 54 126.5 103.5t121.5 99t91 102.5t36 114q0 65 -33.5 102t-108.5 37q-26 0 -52 -5.5t-47 -21.5t-35 -45.5t-14 -78.5h-83q1 66 24.5 108t58 66t75 33t74.5 9q56 0 98 -15.5t69.5 -42.5t41.5 -64.5t14 -81.5t-16 -83.5t-43 -75.5t-61 -69t-70.5 -63.5
t-71.5 -58t-63 -52.5h335v-71h-467z" />
    <glyph glyph-name="three" unicode="3" horiz-adv-x="590" 
d="M202 315v63h59q80 0 125.5 29.5t45.5 96.5q0 53 -36 80.5t-102 27.5q-26 0 -51.5 -5.5t-46.5 -20.5t-34 -42.5t-14 -72.5h-82q1 62 24.5 102t58 63t73.5 32t72 9q48 0 88.5 -11.5t69.5 -33t45 -52.5t16 -70q0 -65 -33.5 -104t-97.5 -53q30 -3 57 -15t48 -33t33.5 -51
t12.5 -70q0 -43 -17 -79t-47.5 -62t-74.5 -40.5t-98 -14.5q-40 0 -82 9t-76 32.5t-56 63t-23 101.5h84q0 -40 12 -67t33 -43t48.5 -23t59.5 -7q72 0 112.5 33t40.5 99q0 36 -14 61t-38.5 40t-59 21.5t-75.5 6.5h-60z" />
    <glyph glyph-name="four" unicode="4" horiz-adv-x="614" 
d="M384 0v151h-336v66l302 450h116v-448h105v-68h-105v-151h-82zM384 598l-260 -379h260v379z" />
    <glyph glyph-name="five" unicode="5" horiz-adv-x="590" 
d="M182 599l-19 -218q41 31 80.5 41.5t77.5 10.5q52 0 91.5 -16.5t66.5 -46t40.5 -70t13.5 -88.5t-16.5 -89t-48 -71t-77 -47t-103.5 -17q-39 0 -79.5 9.5t-73.5 32.5t-54.5 63t-22.5 101h82q0 -40 12 -67t32.5 -43.5t47.5 -23.5t57 -7q77 0 119 42t42 115q0 70 -36 115
t-109 45q-41 0 -75 -13t-72 -49l-71 3l29 356h373v-68h-307z" />
    <glyph glyph-name="six" unicode="6" horiz-adv-x="603" 
d="M448 521q0 46 -32.5 69.5t-88.5 23.5q-86 0 -133.5 -65.5t-49.5 -217.5q33 45 82.5 70t109.5 25q51 0 90.5 -17t66.5 -46.5t41 -69.5t14 -87q0 -45 -17 -85t-47.5 -69.5t-74 -46.5t-97.5 -17q-63 0 -109.5 24t-78 67t-47 102t-15.5 129q0 96 20 165.5t55 114t84 66
t108 21.5q42 0 78.5 -10t63.5 -30t42.5 -49t15.5 -67h-81zM145 259q0 -40 10.5 -77t31 -65.5t51.5 -46t72 -17.5q37 0 66 11.5t49 31.5t30.5 47.5t10.5 60.5q0 69 -35 114t-106 45q-48 0 -93.5 -21.5t-86.5 -82.5z" />
    <glyph glyph-name="seven" unicode="7" horiz-adv-x="503" 
d="M87 0q50 150 124 298.5t171 299.5h-372v69h463v-62q-100 -146 -174.5 -298.5t-124.5 -306.5h-87z" />
    <glyph glyph-name="eight" unicode="8" horiz-adv-x="592" 
d="M395 352q30 -7 56.5 -22t45.5 -38t30 -53t11 -66q0 -39 -17 -73t-48.5 -58.5t-76 -39t-99.5 -14.5q-56 0 -100.5 14.5t-76 39t-48.5 58.5t-17 73q0 36 11 66t30 53t45 38t56 22q-65 16 -93.5 58t-28.5 95q0 37 16 68.5t45.5 54.5t70 36t90.5 13q49 0 89.5 -13t70 -36
t45.5 -54.5t16 -68.5q0 -53 -29 -95t-94 -58zM453 179q0 68 -43.5 103.5t-112.5 35.5q-70 0 -114 -35.5t-44 -103.5q0 -27 11 -50t31.5 -40.5t49.5 -27.5t66 -10q36 0 65 10t49.5 27.5t31 41t10.5 49.5zM436 501q0 51 -35.5 83t-103.5 32q-69 0 -105 -32t-36 -83
q0 -49 36.5 -84t104.5 -35t103.5 35t35.5 84z" />
    <glyph glyph-name="nine" unicode="9" horiz-adv-x="603" 
d="M154 145q0 -47 33.5 -70.5t91.5 -23.5q42 0 75 15.5t56 49.5t35.5 88t13.5 130q-34 -45 -83.5 -70t-109.5 -25q-51 0 -90.5 16.5t-66 46t-40.5 69t-14 86.5q0 46 17 86t47.5 70t74.5 47t98 17q62 0 109 -24t78.5 -67t47 -102t15.5 -129q0 -95 -20 -164.5t-55 -114.5
t-84 -66.5t-107 -21.5q-44 0 -81 10t-64 30t-42.5 49t-15.5 68h81zM458 406q-1 40 -11.5 77t-31 65.5t-51 46t-71.5 17.5q-75 0 -115 -43t-40 -110q0 -34 8.5 -63t25.5 -50t43.5 -32.5t61.5 -11.5q48 0 94 21.5t87 82.5z" />
    <glyph glyph-name="colon" unicode=":" horiz-adv-x="179" 
d="M47 386v135h85v-135h-85zM47 0v135h85v-135h-85z" />
    <glyph glyph-name="semicolon" unicode=";" horiz-adv-x="179" 
d="M48 -145v274h84q0 -31 -1 -60t-5 -60.5t-12 -68.5t-22 -85h-44zM47 386v135h85v-135h-85z" />
    <glyph glyph-name="less" unicode="&#x3c;" horiz-adv-x="572" 
d="M77 232v75l418 232v-77l-341 -192l341 -194v-76z" />
    <glyph glyph-name="equal" unicode="=" horiz-adv-x="599" 
d="M76 331v69h447v-69h-447zM76 129v71h447v-71h-447z" />
    <glyph glyph-name="greater" unicode="&#x3e;" horiz-adv-x="572" 
d="M77 0v76l340 194l-340 192v77l418 -232v-75z" />
    <glyph glyph-name="question" unicode="?" horiz-adv-x="474" 
d="M152 200q0 45 14.5 78t36.5 58.5t47 46.5t47 41.5t36.5 43t14.5 51.5q0 30 -10.5 50t-28 31.5t-39.5 16.5t-45 5q-18 0 -39.5 -2.5t-41 -12.5t-34.5 -30t-18 -55h-76q4 55 27.5 88.5t56 51.5t66.5 23.5t59 5.5q41 0 77.5 -9t64.5 -29t44 -52t16 -77q0 -41 -14.5 -70
t-37 -51.5t-48 -41.5t-48 -41.5t-37 -51t-14.5 -68.5h-76zM147 0v133h86v-133h-86z" />
    <glyph glyph-name="at" unicode="@" horiz-adv-x="911" 
d="M664 -101q-57 -30 -113 -41t-106 -11q-81 0 -152.5 27t-125.5 79t-85.5 128t-31.5 174q0 97 36 175.5t96 134t139 85.5t165 30q68 0 135 -21t120.5 -63t86.5 -106t33 -150q0 -48 -13.5 -99.5t-40.5 -94.5t-67 -71t-93 -28q-14 0 -30 4t-30 13.5t-23 26.5t-9 44
q-28 -55 -71.5 -81.5t-98.5 -26.5q-35 0 -65.5 14.5t-52 44.5t-31.5 74.5t-4 104.5q7 61 27 105t48.5 72.5t63.5 42t71 13.5q51 0 89.5 -27.5t57.5 -83.5l20 97h57l-45 -317q-3 -20 0 -33t9.5 -20.5t16 -10.5t20.5 -3q34 0 60 21.5t43 56t25.5 76.5t8.5 84q0 77 -28 132
t-73.5 90t-102.5 51.5t-114 16.5q-71 0 -138.5 -24t-120 -71.5t-84.5 -117t-32 -160.5q0 -88 28 -154.5t75 -111.5t108.5 -67.5t128.5 -22.5q57 0 111.5 11t112.5 45zM407 83q63 0 104.5 46t52.5 133q11 91 -19.5 136t-90.5 45q-27 0 -51.5 -10t-44 -32t-33.5 -56t-19 -82
q-5 -46 0.5 -79.5t19.5 -56t34.5 -33.5t46.5 -11z" />
    <glyph glyph-name="A" unicode="A" horiz-adv-x="676" 
d="M559 0l-74 191h-298l-72 -191h-88l261 667h100l261 -667h-90zM336 586l-124 -326h248z" />
    <glyph glyph-name="B" unicode="B" horiz-adv-x="604" 
d="M86 0v667h202q119 0 184 -39t65 -126q0 -62 -35 -102.5t-101 -51.5q71 -9 113 -52t42 -109q0 -38 -14 -71.5t-41.5 -59.5t-69.5 -41t-98 -15h-247zM315 64q74 0 113.5 32.5t39.5 94.5q0 60 -49.5 92t-138.5 32h-111v-251h146zM280 375q39 0 70.5 6t54.5 20t35.5 37
t12.5 56q0 34 -13.5 56t-37.5 34t-56.5 16.5t-70.5 4.5h-106v-230h111z" />
    <glyph glyph-name="C" unicode="C" horiz-adv-x="682" 
d="M628 196q-23 -100 -92 -154t-176 -54q-71 0 -127 23.5t-95 68t-60 108.5t-21 145q0 80 21.5 143.5t61.5 108t96 68.5t125 24q107 0 175 -52.5t91 -147.5h-86q-17 63 -62.5 96t-117.5 33q-107 0 -162.5 -72t-55.5 -201q0 -128 55.5 -200.5t161.5 -72.5q152 0 183 136h85z
" />
    <glyph glyph-name="D" unicode="D" horiz-adv-x="699" 
d="M86 0v667h231q78 0 139 -25t104 -69t65.5 -104t22.5 -131q0 -69 -22.5 -130t-65.5 -107.5t-104 -73.5t-139 -27h-231zM314 72q61 0 107 21t77.5 57t47.5 84.5t16 103.5q0 56 -16 103.5t-47.5 82t-78 54t-107.5 19.5h-144v-525h145z" />
    <glyph glyph-name="E" unicode="E" horiz-adv-x="532" 
d="M86 0v667h392v-70h-309v-222h291v-67h-291v-237h314v-71h-397z" />
    <glyph glyph-name="F" unicode="F" horiz-adv-x="509" 
d="M86 0v667h376v-70h-293v-228h274v-70h-274v-299h-83z" />
    <glyph glyph-name="G" unicode="G" horiz-adv-x="698" 
d="M578 0l-12 118q-16 -36 -40.5 -61t-52 -40.5t-56.5 -22t-55 -6.5q-71 0 -127.5 23.5t-96 68t-60.5 108t-21 144.5q0 80 21.5 144t61.5 108.5t97 68.5t127 24q106 0 172.5 -52.5t86.5 -146.5h-86q-14 62 -58 95t-115 33q-109 0 -165 -72t-56 -202q0 -131 56 -203.5
t167 -72.5q83 0 131.5 56t48.5 154v12h-174v63h261v-341h-55z" />
    <glyph glyph-name="H" unicode="H" horiz-adv-x="694" 
d="M525 0v306h-356v-306h-83v667h83v-288h356v288h83v-667h-83z" />
    <glyph glyph-name="I" unicode="I" horiz-adv-x="255" 
d="M86 0v667h83v-667h-83z" />
    <glyph glyph-name="J" unicode="J" horiz-adv-x="337" 
d="M4 58h83q48 0 64.5 28.5t16.5 91.5v489h83v-486q0 -30 -2.5 -64t-16.5 -62.5t-43 -47.5t-81 -19q-3 0 -33 1t-71 9v60z" />
    <glyph glyph-name="K" unicode="K" horiz-adv-x="595" 
d="M486 0l-248 313l-69 -74v-239h-83v667h83v-321l300 321h100l-275 -295l295 -372h-103z" />
    <glyph glyph-name="L" unicode="L" horiz-adv-x="494" 
d="M86 0v667h83v-596h309v-71h-392z" />
    <glyph glyph-name="M" unicode="M" horiz-adv-x="871" 
d="M702 0v570l-234 -570h-69l-231 570v-570h-82v667h121l229 -573l229 573h120v-667h-83z" />
    <glyph glyph-name="N" unicode="N" horiz-adv-x="708" 
d="M524 0l-355 541v-541h-83v667h92l361 -553v553h83v-667h-98z" />
    <glyph glyph-name="O" unicode="O" horiz-adv-x="736" 
d="M367 -12q-72 0 -129 23.5t-97.5 68t-62 108.5t-21.5 145q0 80 21.5 144t62 108.5t97.5 68t129 23.5t130 -23.5t98.5 -68t62 -108.5t21.5 -144q0 -81 -21.5 -145t-62 -108.5t-98.5 -68t-130 -23.5zM367 60q112 0 169 72t57 201q0 128 -57 200.5t-169 72.5
q-111 0 -167.5 -72.5t-56.5 -200.5q0 -129 56.5 -201t167.5 -72z" />
    <glyph glyph-name="P" unicode="P" horiz-adv-x="598" 
d="M86 0v667h225q108 0 172 -51t64 -151q0 -48 -17 -86.5t-47.5 -65.5t-74 -41.5t-96.5 -14.5h-143v-257h-83zM307 325q69 0 111.5 34.5t42.5 105.5t-42.5 101.5t-119.5 30.5h-130v-272h138z" />
    <glyph glyph-name="Q" unicode="Q" horiz-adv-x="736" 
d="M680 -50q-38 9 -73.5 16.5t-73 12t-78 7t-87.5 2.5q-72 0 -129.5 23.5t-98 68t-62 108.5t-21.5 145q0 80 21.5 144t62 108.5t98 68t129.5 23.5t129.5 -23.5t98 -68t62 -108.5t21.5 -144q0 -102 -38.5 -176.5t-109.5 -116.5q40 -2 81.5 -6.5t83.5 -10.5zM368 60
q111 0 168 72t57 201q0 128 -56.5 200.5t-168.5 72.5t-168.5 -72.5t-56.5 -200.5q0 -129 56.5 -201t168.5 -72z" />
    <glyph glyph-name="R" unicode="R" horiz-adv-x="594" 
d="M467 0l-141 277h-157v-277h-83v667h224q109 0 172.5 -48t63.5 -142q0 -69 -38 -117.5t-102 -67.5l150 -292h-89zM312 345q67 0 107.5 33t40.5 99q0 120 -151 120h-140v-252h143z" />
    <glyph glyph-name="S" unicode="S" horiz-adv-x="593" 
d="M461 483q-3 41 -19 66.5t-40 39t-52 18t-53 4.5q-28 0 -54.5 -6t-47.5 -18.5t-33.5 -33t-12.5 -49.5q0 -47 29.5 -71.5t74 -39.5t96.5 -27t96.5 -32.5t74 -56.5t29.5 -99q0 -41 -16.5 -76t-48.5 -60.5t-79.5 -39.5t-109.5 -14q-17 0 -41.5 2.5t-52 10t-55 21.5t-50 37
t-37.5 56.5t-17 80.5h84q1 -40 16.5 -67t40 -43t55.5 -23t63 -7q34 0 64 6t52 20t34.5 35.5t12.5 53.5q0 36 -17 58t-45.5 37t-64.5 24.5t-73.5 19t-73 22.5t-64 34t-45.5 53t-17 80q0 47 20.5 80.5t54.5 55.5t77 32t87 10q30 0 70 -6.5t77 -27t64 -59t30 -101.5h-83z" />
    <glyph glyph-name="T" unicode="T" horiz-adv-x="559" 
d="M238 0v598h-220v69h523v-69h-220v-598h-83z" />
    <glyph glyph-name="U" unicode="U" horiz-adv-x="674" 
d="M515 667h81v-429q0 -62 -19 -108.5t-53 -78t-82 -47.5t-105 -16q-58 0 -106 16t-82 47.5t-52.5 78t-18.5 108.5v429h83v-427q0 -91 49 -135t127 -44q84 0 131 44t47 135v427z" />
    <glyph glyph-name="V" unicode="V" horiz-adv-x="655" 
d="M288 0l-262 667h90l215 -573l211 573h87l-260 -667h-81z" />
    <glyph glyph-name="W" unicode="W" horiz-adv-x="971" 
d="M637 0l-152 557l-153 -557h-96l-215 667h90l177 -566l151 565h98l150 -564l178 565h85l-216 -667h-97z" />
    <glyph glyph-name="X" unicode="X" horiz-adv-x="613" 
d="M501 0l-198 297l-189 -297h-100l228 340l-212 327h98l183 -289l179 289h95l-214 -327l228 -340h-98z" />
    <glyph glyph-name="Y" unicode="Y" horiz-adv-x="583" 
d="M250 0v271l-246 396h90l199 -333l199 333h87l-246 -396v-271h-83z" />
    <glyph glyph-name="Z" unicode="Z" horiz-adv-x="587" 
d="M53 0v72l374 527h-359v68h452v-71l-375 -526h391v-70h-483z" />
    <glyph glyph-name="bracketleft" unicode="[" horiz-adv-x="284" 
d="M43 -207v943h230v-64h-153v-812h154v-67h-231z" />
    <glyph glyph-name="backslash" unicode="\" horiz-adv-x="343" 
d="M260 -206l-253 942h76l253 -942h-76z" />
    <glyph glyph-name="bracketright" unicode="]" horiz-adv-x="284" 
d="M10 -207v67h153v812h-152v64h229v-943h-230z" />
    <glyph glyph-name="asciicircum" unicode="^" horiz-adv-x="661" 
d="M515 229l-184 348l-185 -347h-72l221 419h72l220 -420h-72z" />
    <glyph glyph-name="underscore" unicode="_" horiz-adv-x="628" 
d="M0 -110v63h628v-63h-628z" />
    <glyph glyph-name="grave" unicode="`" horiz-adv-x="326" 
d="M198 564l-133 165h96l101 -165h-64z" />
    <glyph glyph-name="a" unicode="a" horiz-adv-x="557" 
d="M539 -1q-18 -6 -35.5 -8.5t-29.5 -2.5q-48 0 -68.5 22.5t-20.5 81.5q-16 -30 -36.5 -50t-43 -32t-46.5 -17t-46 -5q-26 0 -55.5 6.5t-54 23t-40.5 44.5t-16 71q0 49 18 79.5t48.5 48t70.5 24t84 8.5l113 5v57q0 23 -5 42t-18 33t-36 22t-59 8q-20 0 -40 -4t-37.5 -14
t-29.5 -27.5t-15 -44.5l-76 7q3 41 23.5 69t49.5 44.5t62.5 23.5t62.5 7q53 0 90.5 -11.5t61.5 -31.5t35.5 -49t11.5 -63v-244q0 -40 6.5 -54.5t33.5 -14.5h37v-54zM381 243l-115 -4q-29 -1 -54 -6t-44 -16.5t-29.5 -31t-10.5 -48.5t12 -46t29 -25.5t36 -11t33 -2.5
q27 0 52.5 10.5t46 30.5t32.5 50.5t12 70.5v29z" />
    <glyph glyph-name="b" unicode="b" horiz-adv-x="596" 
d="M89 0v721h81v-232l-6 -79q31 60 75 85.5t101 25.5q42 0 79.5 -15.5t65.5 -48t44.5 -82.5t16.5 -120q0 -71 -16.5 -122t-45 -83t-65.5 -47t-79 -15q-57 0 -101.5 26t-74.5 87v-101h-75zM321 52q30 0 56 11.5t45 36.5t30 63t11 92q0 53 -11 91t-30 63t-45 36.5t-56 11.5
q-70 0 -111 -46.5t-41 -155.5q0 -55 11 -93.5t30.5 -63t47.5 -35.5t63 -11z" />
    <glyph glyph-name="c" unicode="c" horiz-adv-x="544" 
d="M498 151q-17 -78 -70 -120.5t-138 -42.5q-114 0 -177 69.5t-63 195.5q0 63 17 112.5t48 84t75.5 53t99.5 18.5q85 0 138 -41t69 -118l-79 -6q-11 49 -42.5 75t-85.5 26q-78 0 -117.5 -53t-39.5 -150t39.5 -149t117.5 -52q55 0 86.5 25t42.5 73h79z" />
    <glyph glyph-name="d" unicode="d" horiz-adv-x="595" 
d="M431 0v102q-32 -62 -76 -88t-99 -26q-42 0 -79 15t-65.5 47t-45 83t-16.5 122q0 70 16.5 120t44.5 82.5t65.5 48t79.5 15.5q55 0 99.5 -25t73.5 -84l-4 77v232h81v-721h-75zM274 52q35 0 63 11t48 35.5t30.5 63t10.5 93.5q0 109 -40.5 155.5t-111.5 46.5q-30 0 -56 -11.5
t-44.5 -36.5t-29.5 -63t-11 -91q0 -54 11 -92t29.5 -63t44.5 -36.5t56 -11.5z" />
    <glyph glyph-name="e" unicode="e" 
d="M510 141q-18 -72 -70.5 -112.5t-140.5 -40.5q-114 0 -177 69.5t-63 195.5q0 63 17 112.5t48.5 84t76 53t98.5 18.5q108 0 162 -65.5t54 -182.5l-2 -38h-370q2 -88 41.5 -135t112.5 -47q58 0 90.5 23t43.5 65h79zM432 295q-2 76 -33 119t-102 43q-69 0 -107 -42t-46 -120
h288z" />
    <glyph glyph-name="f" unicode="f" horiz-adv-x="314" 
d="M102 0v447h-79v63h79v54q0 33 4 63.5t19.5 53.5t46 37t83.5 14q11 0 27.5 -1t31.5 -4v-57h-51q-51 0 -65.5 -26t-14.5 -75v-59h129v-63h-129v-447h-81z" />
    <glyph glyph-name="g" unicode="g" horiz-adv-x="594" 
d="M427 23l5 97q-30 -63 -75 -88.5t-101 -25.5q-42 0 -79.5 15t-65.5 45.5t-44.5 77.5t-16.5 111q0 71 16.5 121.5t44.5 82.5t65.5 47t79.5 15q56 0 100.5 -26t74.5 -86v101h75v-510q0 -33 -8 -70.5t-32 -69.5t-68 -53t-116 -21q-27 0 -62 7.5t-67 26.5t-55.5 51.5
t-26.5 82.5l77 6q1 -29 12.5 -50t30.5 -35t43 -20.5t51 -6.5q45 0 73 12.5t43 33.5t20.5 48t5.5 55v26zM274 71q71 0 111.5 43.5t40.5 141.5q0 109 -41 155t-111 46q-30 0 -56 -11.5t-44.5 -36t-29.5 -62.5t-11 -91q0 -94 40.5 -139.5t100.5 -45.5z" />
    <glyph glyph-name="h" unicode="h" horiz-adv-x="603" 
d="M436 0v337q0 52 -30.5 84t-87.5 32q-67 0 -107.5 -43.5t-40.5 -118.5v-291h-81v721h81v-232l-6 -84q28 60 73.5 88t104.5 28q34 0 65.5 -9.5t56 -29.5t39 -50.5t14.5 -73.5v-358h-81z" />
    <glyph glyph-name="i" unicode="i" horiz-adv-x="259" 
d="M89 0v510h81v-510h-81zM86 612v89h87v-89h-87z" />
    <glyph glyph-name="j" unicode="j" horiz-adv-x="259" 
d="M-30 -144h53q41 0 53.5 28t12.5 90v536h81v-537q0 -42 -4 -76t-18 -59t-42.5 -38.5t-76.5 -13.5q-8 0 -25 1t-34 4v65zM86 612v89h87v-89h-87z" />
    <glyph glyph-name="k" unicode="k" horiz-adv-x="534" 
d="M425 0l-183 273l-72 -64v-209h-81v721h81v-419l236 208h101l-206 -182l214 -328h-90z" />
    <glyph glyph-name="l" unicode="l" horiz-adv-x="259" 
d="M89 0v721h81v-721h-81z" />
    <glyph glyph-name="m" unicode="m" horiz-adv-x="900" 
d="M733 0v337q0 52 -27.5 84t-81.5 32q-59 0 -95 -44.5t-36 -117.5v-291h-81v337q0 52 -28 84t-82 32q-59 0 -95.5 -44.5t-36.5 -117.5v-291h-81v510h75v-104q26 62 68.5 88.5t93.5 26.5q27 0 52.5 -6.5t47.5 -20.5t37.5 -35.5t23.5 -51.5q25 60 66.5 87t95.5 27
q32 0 61.5 -9.5t52.5 -29.5t37 -50.5t14 -73.5v-358h-81z" />
    <glyph glyph-name="n" unicode="n" horiz-adv-x="603" 
d="M436 0v337q0 52 -30.5 84t-87.5 32q-67 0 -107.5 -44.5t-40.5 -117.5v-291h-81v510h75v-104q29 63 75 89t103 26q34 0 65.5 -9.5t56 -29.5t39 -50.5t14.5 -73.5v-358h-81z" />
    <glyph glyph-name="o" unicode="o" 
d="M287 -12q-55 0 -99 18t-74.5 52.5t-47 84t-16.5 111.5q0 63 16.5 112.5t47 84t74.5 52.5t99 18t98.5 -18t74.5 -52.5t47.5 -84t16.5 -112.5q0 -62 -16.5 -111.5t-47.5 -84t-74.5 -52.5t-98.5 -18zM287 53q77 0 115.5 52t38.5 149t-38.5 150t-115.5 53t-115.5 -53
t-38.5 -150t38.5 -149t115.5 -52z" />
    <glyph glyph-name="p" unicode="p" horiz-adv-x="596" 
d="M89 -212v722h75v-102q30 60 74.5 86.5t101.5 26.5q42 0 79 -15t65.5 -47t45 -82.5t16.5 -122.5q0 -70 -16.5 -120t-44.5 -82.5t-65.5 -48t-79.5 -15.5q-56 0 -100 24.5t-75 83.5l5 -77v-231h-81zM321 53q30 0 56 11.5t45 36t30 62.5t11 91t-11 91.5t-30 63t-45 36.5
t-56 12q-35 0 -63 -11t-47.5 -35t-30.5 -62.5t-11 -94.5q0 -108 41 -154.5t111 -46.5z" />
    <glyph glyph-name="q" unicode="q" horiz-adv-x="595" 
d="M425 -212v231l5 81q-29 -60 -74 -86t-100 -26q-42 0 -79 15.5t-65.5 47.5t-45 82.5t-16.5 120.5q0 71 16.5 121.5t44.5 83t65.5 47.5t79.5 15q56 0 100.5 -26t74.5 -86v101h75v-722h-81zM274 53q70 0 111 46.5t41 154.5q0 109 -41 156t-111 47q-30 0 -56 -12t-44.5 -36.5
t-29.5 -63t-11 -91.5t11 -91t29.5 -62.5t44.5 -36t56 -11.5z" />
    <glyph glyph-name="r" unicode="r" horiz-adv-x="356" 
d="M89 0v510h75v-111q23 67 60 94.5t74 27.5q8 0 20.5 -1t25.5 -6v-69h-50q-54 0 -89 -42.5t-35 -121.5v-281h-81z" />
    <glyph glyph-name="s" unicode="s" horiz-adv-x="493" 
d="M365 371q-3 29 -14 47.5t-27 28.5t-35.5 13.5t-39.5 3.5q-21 0 -41 -3.5t-35 -12t-24 -23t-9 -35.5q0 -35 22.5 -53.5t57 -30t74 -21t74 -26t57 -45.5t22.5 -79q0 -67 -53.5 -107t-149.5 -40q-22 0 -54.5 4.5t-63 20.5t-54.5 46t-28 80h77q3 -26 14.5 -43t29 -27.5
t38.5 -15t43 -4.5q55 0 88.5 18t33.5 63q0 35 -22.5 54t-57 30.5t-74 21t-74 26t-57 44.5t-22.5 77q0 36 16.5 62t43 43t59.5 25t67 8q26 0 58 -5t60.5 -20t49.5 -43.5t26 -76.5z" />
    <glyph glyph-name="t" unicode="t" horiz-adv-x="336" 
d="M310 -2q-14 -5 -33 -7.5t-24 -2.5q-53 0 -83 13.5t-46 38t-20 58.5t-4 75v271h-79v62h79v137h81v-137h129v-62h-129v-269q0 -31 3 -53t11.5 -36.5t24 -21t41.5 -6.5h49v-60z" />
    <glyph glyph-name="u" unicode="u" horiz-adv-x="604" 
d="M440 0v103q-29 -60 -74 -87.5t-103 -27.5q-35 0 -66.5 9.5t-55.5 29.5t-38 51.5t-14 75.5v356h81v-335q0 -55 29 -86.5t89 -31.5q33 0 59.5 11.5t46 33t30 51.5t10.5 66v291h81v-510h-75z" />
    <glyph glyph-name="v" unicode="v" horiz-adv-x="524" 
d="M220 0l-199 510h86l156 -428l157 428h83l-200 -510h-83z" />
    <glyph glyph-name="w" unicode="w" horiz-adv-x="797" 
d="M522 0l-122 415l-124 -415h-86l-168 510h87l128 -419l121 419h88l119 -419l127 419h83l-167 -510h-86z" />
    <glyph glyph-name="x" unicode="x" horiz-adv-x="491" 
d="M384 0l-140 218l-140 -218h-83l171 262l-160 248h85l132 -206l130 206h82l-162 -248l173 -262h-88z" />
    <glyph glyph-name="y" unicode="y" horiz-adv-x="513" 
d="M125 -212l90 226l-194 496h85l149 -409l154 409h83l-289 -722h-78z" />
    <glyph glyph-name="z" unicode="z" horiz-adv-x="502" 
d="M56 0v59l286 388h-278v63h376v-58l-286 -389h293v-63h-391z" />
    <glyph glyph-name="braceleft" unicode="{" horiz-adv-x="381" 
d="M370 -207q-64 0 -111 8t-78 29.5t-46 58.5t-15 96v156q0 96 -81 96v55q42 0 61.5 23t19.5 71v157q0 58 15 95.5t46 59.5t78.5 30t111.5 8v-64q-47 0 -79.5 -7t-52.5 -23.5t-29 -43.5t-9 -66v-138q0 -24 -2.5 -45.5t-10 -38t-20.5 -27.5t-34 -15v-8q41 -7 54 -42t13 -84
v-137q0 -39 8.5 -66t28.5 -43t52.5 -23t79.5 -7v-65z" />
    <glyph glyph-name="bar" unicode="|" horiz-adv-x="256" 
d="M91 -250v1023h75v-1023h-75z" />
    <glyph glyph-name="braceright" unicode="}" horiz-adv-x="381" 
d="M11 -142q48 0 80 7t51.5 23t28 43t8.5 66v137q0 49 13.5 84t54.5 42v8q-21 4 -34 15t-20.5 27.5t-10.5 38t-3 45.5v138q0 39 -8.5 66t-28.5 43.5t-52 23.5t-80 7v64q64 0 111.5 -8t78.5 -30t46 -59.5t15 -95.5v-157q0 -94 81 -94v-55q-81 0 -81 -96v-156q0 -59 -15 -96
t-46 -58.5t-78 -29.5t-111 -8v65z" />
    <glyph glyph-name="asciitilde" unicode="~" horiz-adv-x="593" 
d="M520 244q-26 -26 -55 -34t-62 -8q-27 0 -56.5 8.5t-58 18.5t-54 18.5t-45.5 8.5q-29 0 -59.5 -9t-56.5 -39v76q26 26 55.5 34t61.5 8q28 0 57 -8.5t56.5 -19t53 -19t46.5 -8.5q31 0 61.5 9.5t55.5 39.5v-76z" />
    <glyph glyph-name="exclamdown" unicode="&#xa1;" horiz-adv-x="254" 
d="M85 -184v296l15 189h54l14 -189v-296h-83zM84 371v133h84v-133h-84z" />
    <glyph glyph-name="cent" unicode="&#xa2;" horiz-adv-x="544" 
d="M258 0v131q-99 9 -153.5 77t-54.5 186q0 117 55.5 186.5t152.5 78.5v130h59v-129q149 -14 180 -156l-79 -6q-11 49 -42.5 74.5t-85.5 25.5q-78 0 -117.5 -53t-39.5 -150t39.5 -149t117.5 -52q55 0 86.5 25t42.5 74h79q-32 -148 -181 -163v-130h-59z" />
    <glyph glyph-name="sterling" unicode="&#xa3;" horiz-adv-x="570" 
d="M70 0v72q58 49 79.5 92.5t21.5 84.5q0 22 -6 46h-95v60h77q-11 30 -19.5 63t-8.5 71q0 39 11.5 74.5t37 61.5t65 41.5t95.5 15.5q23 0 55 -5t61 -22t49 -49t20 -85h-76q0 27 -9.5 45t-25 28.5t-35.5 14.5t-41 4q-34 0 -57.5 -9t-38 -25.5t-21 -38.5t-6.5 -49
q0 -39 8.5 -72.5t18.5 -63.5h241v-60h-222q6 -24 6 -47q0 -36 -20 -80t-77 -100h358v-68h-446z" />
    <glyph glyph-name="currency" unicode="&#xa4;" horiz-adv-x="591" 
d="M459 49l-69 69q-20 -14 -44 -21.5t-50 -7.5q-27 0 -51.5 7.5t-44.5 20.5l-68 -68l-51 51l68 69q-28 42 -28 95t28 95l-69 70l50 51l71 -71q20 14 43.5 22t50.5 8q26 0 50.5 -8t44.5 -22l69 70l52 -51l-71 -71q14 -20 22 -44t8 -49q0 -27 -7.5 -51.5t-21.5 -44.5l70 -68z
M402 263q0 45 -30.5 75.5t-75.5 30.5q-23 0 -42.5 -8.5t-34 -22.5t-23 -33.5t-8.5 -41.5t8.5 -41.5t23 -34t34 -23t41.5 -8.5t42 8.5t34 23t22.5 34t8.5 41.5z" />
    <glyph glyph-name="yen" unicode="&#xa5;" horiz-adv-x="584" 
d="M333 114v-114h-83v114h-195v55h195v100h-195v55h162l-213 343h90l199 -333l199 333h87l-213 -343h163v-55h-196v-100h196v-55h-196z" />
    <glyph glyph-name="brokenbar" unicode="&#xa6;" horiz-adv-x="257" 
d="M91 348v425h75v-425h-75zM91 -250v427h75v-427h-75z" />
    <glyph glyph-name="section" unicode="&#xa7;" horiz-adv-x="617" 
d="M126 12q1 -41 16.5 -68t40 -43t55.5 -23t63 -7q34 0 64 6t52 20t34.5 35.5t12.5 53.5q0 36 -17 58t-45.5 37t-64.5 24.5t-73.5 19t-73 22.5t-64 34t-45.5 53t-17 80t22 81.5t57 54.5q-24 21 -39 51t-15 75q0 47 20.5 81t54.5 55.5t76.5 31.5t87.5 10q29 0 69 -6.5t77 -27
t63.5 -58.5t29.5 -102h-81q-3 41 -19.5 66t-40 39t-51.5 18.5t-53 4.5q-28 0 -54.5 -6t-47.5 -18.5t-33.5 -33t-12.5 -48.5q0 -35 17 -57.5t45 -37t64 -24t73 -19.5t73 -23t64 -33.5t45 -52t17 -79.5q0 -45 -18.5 -81.5t-55.5 -61.5q23 -20 37 -48.5t14 -70.5t-16.5 -77
t-48.5 -60.5t-79.5 -39.5t-109.5 -14q-17 0 -41.5 2.5t-52 10t-55 21.5t-50 37t-37.5 57t-17 81h84zM430 154q26 12 42 35.5t16 58.5q0 31 -12.5 51.5t-33.5 34.5t-48.5 23.5t-57.5 17t-61.5 15.5t-59.5 20q-29 -11 -47.5 -33t-18.5 -58q0 -46 28 -70.5t70 -39t91 -25.5
t92 -30z" />
    <glyph glyph-name="dieresis" unicode="&#xa8;" horiz-adv-x="409" 
d="M259 595v103h86v-103h-86zM65 595v103h86v-103h-86z" />
    <glyph glyph-name="copyright" unicode="&#xa9;" horiz-adv-x="770" 
d="M385 17q-68 0 -128 26.5t-105 71.5t-71 105t-26 128t26 128t71 105t105 71t128 26q67 0 127 -26.5t105 -71.5t71.5 -105t26.5 -127t-26.5 -127t-71.5 -105.5t-105 -72t-127 -26.5zM385 48q61 0 115.5 24t95 65t64.5 95.5t24 115.5q0 59 -24.5 113t-65.5 95.5t-95 66
t-114 24.5q-61 0 -115.5 -24t-95.5 -64.5t-65 -95.5t-24 -116t24.5 -115t65.5 -95t95.5 -65t114.5 -24zM555 289q-10 -72 -53.5 -112t-118.5 -40q-87 0 -136.5 55.5t-49.5 155.5q0 49 13.5 88t38.5 66t59 41.5t76 14.5q75 0 118.5 -39t51.5 -108h-54q-5 46 -34.5 71.5
t-81.5 25.5q-65 0 -99 -42.5t-34 -117.5q0 -74 34 -117t98 -43q54 0 83.5 26t33.5 75h55z" />
    <glyph glyph-name="ordfeminine" unicode="&#xaa;" horiz-adv-x="373" 
d="M355 394q-26 -6 -43 -6q-29 0 -43 13.5t-15 45.5q-20 -35 -48 -47t-57 -12q-16 0 -34 3.5t-33 13.5t-25 26t-10 42q0 28 11 46.5t29.5 29.5t43.5 15.5t52 5.5l63 3v36q0 23 -12.5 38.5t-51.5 15.5q-23 0 -43.5 -10.5t-23.5 -41.5l-58 3q3 25 15.5 42.5t30.5 28.5
t38.5 15.5t38.5 4.5q67 0 97.5 -25t30.5 -68v-139q0 -23 4 -31.5t20 -8.5h23v-39zM246 539l-64 -3q-32 -2 -53 -14t-21 -45q0 -16 6.5 -25.5t16 -14t20 -6t19.5 -1.5q29 0 52.5 22t23.5 64v23z" />
    <glyph glyph-name="guillemotleft" unicode="&#xab;" horiz-adv-x="600" 
d="M210 77l-161 186l162 189h82l-160 -190l159 -185h-82zM460 77l-161 186l162 189h81l-159 -190l158 -185h-81z" />
    <glyph glyph-name="logicalnot" unicode="&#xac;" horiz-adv-x="599" 
d="M454 142v175h-378v69h447v-244h-69z" />
    <glyph glyph-name="registered" unicode="&#xae;" horiz-adv-x="619" 
d="M564 451q0 -53 -20 -99t-54.5 -80.5t-81 -54.5t-99.5 -20t-99 20t-80.5 54.5t-54.5 80.5t-20 99t20 99.5t54.5 81t80.5 54.5t99 20t99.5 -20t81 -54.5t54.5 -81t20 -99.5zM535 451q0 47 -17.5 88t-48.5 72t-72 48.5t-88 17.5t-88 -17.5t-71.5 -48.5t-48 -72t-17.5 -88
t17.5 -88t48 -71.5t71.5 -48t88 -17.5t88 17.5t72 48t48.5 71.5t17.5 88zM396 298l-80 126h-79v-126h-46v307h114q52 0 83.5 -22t31.5 -69q0 -30 -16.5 -51.5t-44.5 -29.5l83 -135h-46zM305 458q29 0 48.5 13.5t19.5 41.5q0 29 -19 43t-49 14h-68v-112h68z" />
    <glyph glyph-name="macron" unicode="&#xaf;" horiz-adv-x="458" 
d="M65 618v58h328v-58h-328z" />
    <glyph glyph-name="degree" unicode="&#xb0;" horiz-adv-x="345" 
d="M292 517q0 -25 -9.5 -47t-26 -38t-38 -25t-46.5 -9t-46.5 9t-37.5 25t-25 38t-9 47t9 46.5t25 38t37.5 26t46.5 9.5t46.5 -9.5t38 -26t26 -38t9.5 -46.5zM241 517q0 29 -20 48.5t-49 19.5q-28 0 -47.5 -19.5t-19.5 -48.5q0 -28 19.5 -47.5t47.5 -19.5q29 0 49 19.5
t20 47.5z" />
    <glyph glyph-name="plusminus" unicode="&#xb1;" horiz-adv-x="599" 
d="M265 111v193h-189v67h189v193h69v-193h189v-67h-189v-193h-69zM76 0v67h447v-67h-447z" />
    <glyph glyph-name="acute" unicode="&#xb4;" horiz-adv-x="326" 
d="M65 564l99 165h98l-134 -165h-63z" />
    <glyph glyph-name="mu" unicode="&#xb5;" horiz-adv-x="604" 
d="M440 0v103q-26 -57 -70.5 -84t-98.5 -27q-31 0 -56 7t-45 24v-245h-81v732h81v-339q0 -54 29 -84t89 -30q33 0 59.5 11.5t46 33t30 51.5t10.5 66v291h81v-510h-75z" />
    <glyph glyph-name="paragraph" unicode="&#xb6;" horiz-adv-x="601" 
d="M276 -172v436q-48 0 -88 15.5t-69.5 44t-45.5 69t-16 90.5q0 51 16 92.5t45.5 70t69.5 44t88 15.5h74v-811h91v811h74v-877h-239z" />
    <glyph glyph-name="periodcentered" unicode="&#xb7;" horiz-adv-x="278" 
d="M59 183v162h160v-162h-160z" />
    <glyph glyph-name="cedilla" unicode="&#xb8;" horiz-adv-x="333" 
d="M65 -157q23 -11 44.5 -15t38.5 -4q23 0 41 10.5t18 36.5q0 23 -22 39t-69 16v35l38 64h54l-43 -65q49 -4 76 -29.5t27 -63.5q0 -12 -5 -27.5t-17.5 -29t-33.5 -22.5t-54 -9q-13 0 -39.5 3.5t-53.5 14.5v46z" />
    <glyph glyph-name="ordmasculine" unicode="&#xba;" horiz-adv-x="406" 
d="M203 386q-71 0 -112 40.5t-41 118.5t41 119t112 41t112 -41t41 -119t-41 -118.5t-112 -40.5zM203 430q90 0 90 115t-90 115q-44 0 -67 -29t-23 -86t23 -86t67 -29z" />
    <glyph glyph-name="guillemotright" unicode="&#xbb;" horiz-adv-x="575" 
d="M283 77l160 185l-161 190h82l162 -189l-161 -186h-82zM58 77l159 185l-160 190h83l162 -189l-161 -186h-83z" />
    <glyph glyph-name="onequarter" unicode="&#xbc;" horiz-adv-x="789" 
d="M191 0l383 667h54l-384 -667h-53zM184 282v326l-112 -52v58l112 53h66v-385h-66zM642 0v81h-199v48l177 256h89v-257h60v-47h-60v-81h-67zM642 336l-143 -208h143v208z" />
    <glyph glyph-name="onehalf" unicode="&#xbd;" horiz-adv-x="867" 
d="M191 0l383 667h55l-384 -667h-54zM535 0v38q36 30 74 57.5t69.5 55t52 57t20.5 64.5q0 31 -16 50.5t-54 19.5q-14 0 -28 -2.5t-25.5 -11t-19 -23t-7.5 -38.5h-65q0 37 15 61t36.5 37.5t47 19t46.5 5.5q69 0 102.5 -34t33.5 -84q0 -35 -18.5 -66.5t-46 -59t-58.5 -51
t-56 -44.5h183v-51h-286zM184 282v326l-112 -52v58l112 53h66v-385h-66z" />
    <glyph glyph-name="threequarters" unicode="&#xbe;" horiz-adv-x="841" 
d="M239 0l384 667h53l-382 -667h-55zM148 461v43h42q42 0 66.5 16t24.5 51q0 26 -19.5 40.5t-54.5 14.5q-14 0 -27.5 -3t-24.5 -11t-17.5 -22.5t-6.5 -38.5h-65q0 37 14.5 60.5t36 37t46 19t44.5 5.5q61 0 99 -26t38 -71q0 -75 -73 -90q34 -4 59 -27.5t25 -69.5
q0 -50 -39.5 -81t-106.5 -31q-25 0 -51 5.5t-47.5 19.5t-35 38t-13.5 60h65q0 -22 6.5 -36.5t17.5 -23t26 -12t32 -3.5q38 0 60 17t22 51q0 38 -28 53t-73 15h-42zM694 0v81h-199v48l176 256h89v-257h61v-47h-61v-81h-66zM694 336l-144 -208h144v208z" />
    <glyph glyph-name="questiondown" unicode="&#xbf;" horiz-adv-x="474" 
d="M457 -18q-4 -56 -27.5 -89t-55.5 -51t-66.5 -23.5t-58.5 -5.5q-41 0 -77.5 9t-64.5 29t-44 52t-16 77q0 41 14.5 70t36.5 51.5t48 41.5t48 41.5t36.5 50.5t14.5 69h76q0 -45 -14.5 -78t-36.5 -58.5t-47 -46.5t-47 -41.5t-36.5 -43t-14.5 -51.5q0 -30 10.5 -50t28 -31.5
t40 -16.5t45.5 -5q17 0 39 2.5t41.5 12.5t34 30t17.5 55h76zM240 371v133h86v-133h-86z" />
    <glyph glyph-name="Agrave" unicode="&#xc0;" horiz-adv-x="676" 
d="M319 707l-119 143h97l86 -143h-64zM559 0l-74 191h-298l-72 -191h-88l261 667h100l261 -667h-90zM336 586l-124 -326h248z" />
    <glyph glyph-name="Aacute" unicode="&#xc1;" horiz-adv-x="676" 
d="M294 707l86 143h97l-120 -143h-63zM559 0l-74 191h-298l-72 -191h-88l261 667h100l261 -667h-90zM336 586l-124 -326h248z" />
    <glyph glyph-name="Acircumflex" unicode="&#xc2;" horiz-adv-x="676" 
d="M423 707l-86 87l-84 -87h-62l109 143h75l110 -143h-62zM559 0l-74 191h-298l-72 -191h-88l261 667h100l261 -667h-90zM336 586l-124 -326h248z" />
    <glyph glyph-name="Atilde" unicode="&#xc3;" horiz-adv-x="676" 
d="M506 831q0 -17 -4 -35.5t-14.5 -33.5t-27.5 -24.5t-43 -9.5q-21 0 -42 7t-41 15.5t-38 15.5t-33 7q-19 0 -30.5 -8.5t-11.5 -36.5h-51q0 17 4 35t14.5 33t27.5 25t43 10q21 0 42 -7t41 -15.5t38 -15.5t33 -7q19 0 30 8.5t11 36.5h52zM559 0l-74 191h-298l-72 -191h-88
l261 667h100l261 -667h-90zM336 586l-124 -326h248z" />
    <glyph glyph-name="Adieresis" unicode="&#xc4;" horiz-adv-x="676" 
d="M392 727v104h86v-104h-86zM198 727v104h86v-104h-86zM559 0l-74 191h-298l-72 -191h-88l261 667h100l261 -667h-90zM336 586l-124 -326h248z" />
    <glyph glyph-name="Aring" unicode="&#xc5;" horiz-adv-x="676" 
d="M559 0l-74 191h-298l-72 -191h-88l255 653q-23 14 -36.5 37t-13.5 52q0 23 8.5 42.5t23 34t33.5 23t41 8.5t41.5 -8.5t33.5 -23t22.5 -34t8.5 -42.5q0 -29 -14 -52t-37 -37l256 -653h-90zM336 586l-124 -326h248zM397 742q0 26 -17 44t-43 18q-25 0 -42.5 -18t-17.5 -44
q0 -25 17.5 -42t42.5 -17q26 0 43 17t17 42z" />
    <glyph glyph-name="AE" unicode="&#xc6;" horiz-adv-x="926" 
d="M479 0v191h-259l-105 -191h-88l370 667h474v-70h-309v-223h291v-67h-291v-236h315v-71h-398zM479 597h-35l-188 -337h223v337z" />
    <glyph glyph-name="Ccedilla" unicode="&#xc7;" horiz-adv-x="682" 
d="M240 -156q23 -12 44.5 -16.5t38.5 -4.5q23 0 41.5 11t18.5 37q0 23 -22.5 38.5t-69.5 15.5v37l18 30q-120 16 -186 104.5t-66 236.5q0 80 21.5 143.5t61.5 108t96 68.5t125 24q107 0 175 -52.5t91 -147.5h-86q-17 63 -62.5 96t-117.5 33q-107 0 -162.5 -72t-55.5 -201
q0 -128 55.5 -200.5t161.5 -72.5q152 0 183 136h85q-23 -100 -92 -154t-178 -54l-18 -27q49 -5 76 -30.5t27 -63.5q0 -12 -5 -27.5t-17.5 -29t-34 -22.5t-54.5 -9q-13 0 -39 3.5t-53 14.5v47z" />
    <glyph glyph-name="Egrave" unicode="&#xc8;" horiz-adv-x="532" 
d="M86 0v667h392v-70h-309v-222h291v-67h-291v-237h314v-71h-397zM279 707l-120 143h97l86 -143h-63z" />
    <glyph glyph-name="Eacute" unicode="&#xc9;" horiz-adv-x="532" 
d="M86 0v667h392v-70h-309v-222h291v-67h-291v-237h314v-71h-397zM222 707l86 143h97l-120 -143h-63z" />
    <glyph glyph-name="Ecircumflex" unicode="&#xca;" horiz-adv-x="532" 
d="M86 0v667h392v-70h-309v-222h291v-67h-291v-237h314v-71h-397zM367 707l-86 87l-84 -87h-61l108 143h75l110 -143h-62z" />
    <glyph glyph-name="Edieresis" unicode="&#xcb;" horiz-adv-x="532" 
d="M86 0v667h392v-70h-309v-222h291v-67h-291v-237h314v-71h-397zM336 727v104h87v-104h-87zM142 727v104h87v-104h-87z" />
    <glyph glyph-name="Igrave" unicode="&#xcc;" horiz-adv-x="255" 
d="M86 0v667h83v-667h-83zM114 707l-119 143h97l85 -143h-63z" />
    <glyph glyph-name="Iacute" unicode="&#xcd;" horiz-adv-x="255" 
d="M86 0v667h83v-667h-83zM77 707l86 143h97l-120 -143h-63z" />
    <glyph glyph-name="Icircumflex" unicode="&#xce;" horiz-adv-x="255" 
d="M86 0v667h83v-667h-83zM212 707l-86 87l-84 -87h-62l109 143h75l110 -143h-62z" />
    <glyph glyph-name="Idieresis" unicode="&#xcf;" horiz-adv-x="255" 
d="M86 0v667h83v-667h-83zM181 727v104h86v-104h-86zM-13 727v104h86v-104h-86z" />
    <glyph glyph-name="Eth" unicode="&#xd0;" horiz-adv-x="704" 
d="M91 0v302h-114v65h114v300h231q78 0 139 -25t104 -69t65.5 -104t22.5 -131q0 -69 -22.5 -130t-65.5 -107.5t-104 -73.5t-139 -27h-231zM319 72q61 0 107 21t77.5 57t47.5 84.5t16 103.5q0 56 -16 103.5t-47.5 82t-78 54t-107.5 19.5h-144v-230h178v-65h-178v-230h145z
" />
    <glyph glyph-name="Ntilde" unicode="&#xd1;" horiz-adv-x="708" 
d="M522 831q0 -17 -4 -35.5t-14.5 -33.5t-27.5 -24.5t-43 -9.5q-21 0 -42 7t-41 15.5t-38 15.5t-33 7q-19 0 -30.5 -8.5t-11.5 -36.5h-51q0 17 4 35t14.5 33t27.5 25t43 10q21 0 42 -7t41 -15.5t38 -15.5t33 -7q19 0 30.5 8.5t11.5 36.5h51zM524 0l-355 541v-541h-83v667h92
l361 -553v553h83v-667h-98z" />
    <glyph glyph-name="Ograve" unicode="&#xd2;" horiz-adv-x="736" 
d="M366 707l-120 143h97l86 -143h-63zM367 -12q-72 0 -129 23.5t-97.5 68t-62 108.5t-21.5 145q0 80 21.5 144t62 108.5t97.5 68t129 23.5t130 -23.5t98.5 -68t62 -108.5t21.5 -144q0 -81 -21.5 -145t-62 -108.5t-98.5 -68t-130 -23.5zM367 60q112 0 169 72t57 201
q0 128 -57 200.5t-169 72.5q-111 0 -167.5 -72.5t-56.5 -200.5q0 -129 56.5 -201t167.5 -72z" />
    <glyph glyph-name="Oacute" unicode="&#xd3;" horiz-adv-x="736" 
d="M308 707l86 143h97l-119 -143h-64zM367 -12q-72 0 -129 23.5t-97.5 68t-62 108.5t-21.5 145q0 80 21.5 144t62 108.5t97.5 68t129 23.5t130 -23.5t98.5 -68t62 -108.5t21.5 -144q0 -81 -21.5 -145t-62 -108.5t-98.5 -68t-130 -23.5zM367 60q112 0 169 72t57 201
q0 128 -57 200.5t-169 72.5q-111 0 -167.5 -72.5t-56.5 -200.5q0 -129 56.5 -201t167.5 -72z" />
    <glyph glyph-name="Ocircumflex" unicode="&#xd4;" horiz-adv-x="736" 
d="M454 707l-86 87l-84 -87h-63l110 143h75l109 -143h-61zM367 -12q-72 0 -129 23.5t-97.5 68t-62 108.5t-21.5 145q0 80 21.5 144t62 108.5t97.5 68t129 23.5t130 -23.5t98.5 -68t62 -108.5t21.5 -144q0 -81 -21.5 -145t-62 -108.5t-98.5 -68t-130 -23.5zM367 60
q112 0 169 72t57 201q0 128 -57 200.5t-169 72.5q-111 0 -167.5 -72.5t-56.5 -200.5q0 -129 56.5 -201t167.5 -72z" />
    <glyph glyph-name="Otilde" unicode="&#xd5;" horiz-adv-x="736" 
d="M536 831q0 -17 -4 -35.5t-14 -33.5t-27 -24.5t-43 -9.5q-21 0 -42 7t-41 15.5t-38 15.5t-33 7q-20 0 -31 -8.5t-11 -36.5h-51q0 17 4 35t14.5 33t27.5 25t43 10q20 0 41 -7t41 -15.5t38.5 -15.5t33.5 -7q19 0 30 8.5t11 36.5h51zM367 -12q-72 0 -129 23.5t-97.5 68
t-62 108.5t-21.5 145q0 80 21.5 144t62 108.5t97.5 68t129 23.5t130 -23.5t98.5 -68t62 -108.5t21.5 -144q0 -81 -21.5 -145t-62 -108.5t-98.5 -68t-130 -23.5zM367 60q112 0 169 72t57 201q0 128 -57 200.5t-169 72.5q-111 0 -167.5 -72.5t-56.5 -200.5q0 -129 56.5 -201
t167.5 -72z" />
    <glyph glyph-name="Odieresis" unicode="&#xd6;" horiz-adv-x="736" 
d="M422 727v104h86v-104h-86zM228 727v104h85v-104h-85zM367 -12q-72 0 -129 23.5t-97.5 68t-62 108.5t-21.5 145q0 80 21.5 144t62 108.5t97.5 68t129 23.5t130 -23.5t98.5 -68t62 -108.5t21.5 -144q0 -81 -21.5 -145t-62 -108.5t-98.5 -68t-130 -23.5zM367 60
q112 0 169 72t57 201q0 128 -57 200.5t-169 72.5q-111 0 -167.5 -72.5t-56.5 -200.5q0 -129 56.5 -201t167.5 -72z" />
    <glyph glyph-name="multiply" unicode="&#xd7;" horiz-adv-x="621" 
d="M311 216l-185 -186l-49 49l186 185l-186 186l49 48l185 -187l185 186l48 -48l-185 -185l184 -184l-48 -49z" />
    <glyph glyph-name="Oslash" unicode="&#xd8;" horiz-adv-x="736" 
d="M91 -86l82 135q-56 45 -86 116t-30 168q0 80 21.5 144t62 108.5t97.5 68t129 23.5q47 0 87 -10t74 -29l69 114h49l-83 -137q56 -45 86 -116t30 -166q0 -81 -21.5 -145t-62 -108.5t-98.5 -68t-130 -23.5q-92 0 -160 38l-67 -112h-49zM489 574q-50 32 -122 32
q-111 0 -167.5 -72.5t-56.5 -200.5q0 -146 70 -216zM246 90q49 -30 121 -30q112 0 169 72t57 201q0 71 -18 125.5t-53 89.5z" />
    <glyph glyph-name="Ugrave" unicode="&#xd9;" horiz-adv-x="674" 
d="M323 707l-120 143h97l86 -143h-63zM515 667h81v-429q0 -62 -19 -108.5t-53 -78t-82 -47.5t-105 -16q-58 0 -106 16t-82 47.5t-52.5 78t-18.5 108.5v429h83v-427q0 -91 49 -135t127 -44q84 0 131 44t47 135v427z" />
    <glyph glyph-name="Uacute" unicode="&#xda;" horiz-adv-x="674" 
d="M290 707l86 143h97l-120 -143h-63zM515 667h81v-429q0 -62 -19 -108.5t-53 -78t-82 -47.5t-105 -16q-58 0 -106 16t-82 47.5t-52.5 78t-18.5 108.5v429h83v-427q0 -91 49 -135t127 -44q84 0 131 44t47 135v427z" />
    <glyph glyph-name="Ucircumflex" unicode="&#xdb;" horiz-adv-x="674" 
d="M423 707l-86 87l-84 -87h-61l108 143h75l109 -143h-61zM515 667h81v-429q0 -62 -19 -108.5t-53 -78t-82 -47.5t-105 -16q-58 0 -106 16t-82 47.5t-52.5 78t-18.5 108.5v429h83v-427q0 -91 49 -135t127 -44q84 0 131 44t47 135v427z" />
    <glyph glyph-name="Udieresis" unicode="&#xdc;" horiz-adv-x="674" 
d="M391 727v104h87v-104h-87zM197 727v104h87v-104h-87zM515 667h81v-429q0 -62 -19 -108.5t-53 -78t-82 -47.5t-105 -16q-58 0 -106 16t-82 47.5t-52.5 78t-18.5 108.5v429h83v-427q0 -91 49 -135t127 -44q84 0 131 44t47 135v427z" />
    <glyph glyph-name="Yacute" unicode="&#xdd;" horiz-adv-x="583" 
d="M245 707l85 143h97l-119 -143h-63zM250 0v271l-246 396h90l199 -333l199 333h87l-246 -396v-271h-83z" />
    <glyph glyph-name="Thorn" unicode="&#xde;" horiz-adv-x="597" 
d="M169 127v-127h-83v667h83v-120h147q114 0 175.5 -51.5t61.5 -157.5q0 -104 -61.5 -157.5t-174.5 -53.5h-148zM310 196q157 0 157 142q0 139 -158 139h-140v-281h141z" />
    <glyph glyph-name="germandbls" unicode="&#xdf;" horiz-adv-x="623" 
d="M256 57q16 -3 31.5 -4.5t27.5 -1.5q40 0 73 10t57 29t37.5 46.5t13.5 63.5q0 27 -10 55.5t-35.5 51t-68.5 37t-110 14.5v54q23 0 51.5 5.5t54 22t43 46.5t17.5 78q0 32 -11.5 56t-30.5 39.5t-44 23.5t-52 8q-72 0 -101 -42.5t-29 -111.5v-537h-81v536q0 49 13 89
t39.5 68.5t67 44t94.5 15.5q46 0 85 -12.5t67.5 -36t44 -56.5t15.5 -73q0 -37 -9 -66t-24.5 -51.5t-36 -38t-44.5 -25.5q93 -23 134 -76t41 -121q0 -44 -16 -82.5t-47.5 -66.5t-78 -44t-106.5 -16q-12 0 -30.5 1t-41.5 4v64z" />
    <glyph glyph-name="agrave" unicode="&#xe0;" horiz-adv-x="557" 
d="M275 564l-134 165h97l99 -165h-62zM539 -1q-18 -6 -35.5 -8.5t-29.5 -2.5q-48 0 -68.5 22.5t-20.5 81.5q-16 -30 -36.5 -50t-43 -32t-46.5 -17t-46 -5q-26 0 -55.5 6.5t-54 23t-40.5 44.5t-16 71q0 49 18 79.5t48.5 48t70.5 24t84 8.5l113 5v57q0 23 -5 42t-18 33t-36 22
t-59 8q-20 0 -40 -4t-37.5 -14t-29.5 -27.5t-15 -44.5l-76 7q3 41 23.5 69t49.5 44.5t62.5 23.5t62.5 7q53 0 90.5 -11.5t61.5 -31.5t35.5 -49t11.5 -63v-244q0 -40 6.5 -54.5t33.5 -14.5h37v-54zM381 243l-115 -4q-29 -1 -54 -6t-44 -16.5t-29.5 -31t-10.5 -48.5t12 -46
t29 -25.5t36 -11t33 -2.5q27 0 52.5 10.5t46 30.5t32.5 50.5t12 70.5v29z" />
    <glyph glyph-name="aacute" unicode="&#xe1;" horiz-adv-x="557" 
d="M195 564l99 165h97l-133 -165h-63zM539 -1q-18 -6 -35.5 -8.5t-29.5 -2.5q-48 0 -68.5 22.5t-20.5 81.5q-16 -30 -36.5 -50t-43 -32t-46.5 -17t-46 -5q-26 0 -55.5 6.5t-54 23t-40.5 44.5t-16 71q0 49 18 79.5t48.5 48t70.5 24t84 8.5l113 5v57q0 23 -5 42t-18 33t-36 22
t-59 8q-20 0 -40 -4t-37.5 -14t-29.5 -27.5t-15 -44.5l-76 7q3 41 23.5 69t49.5 44.5t62.5 23.5t62.5 7q53 0 90.5 -11.5t61.5 -31.5t35.5 -49t11.5 -63v-244q0 -40 6.5 -54.5t33.5 -14.5h37v-54zM381 243l-115 -4q-29 -1 -54 -6t-44 -16.5t-29.5 -31t-10.5 -48.5t12 -46
t29 -25.5t36 -11t33 -2.5q27 0 52.5 10.5t46 30.5t32.5 50.5t12 70.5v29z" />
    <glyph glyph-name="acircumflex" unicode="&#xe2;" horiz-adv-x="557" 
d="M354 564l-85 107l-85 -107h-61l110 165h73l111 -165h-63zM539 -1q-18 -6 -35.5 -8.5t-29.5 -2.5q-48 0 -68.5 22.5t-20.5 81.5q-16 -30 -36.5 -50t-43 -32t-46.5 -17t-46 -5q-26 0 -55.5 6.5t-54 23t-40.5 44.5t-16 71q0 49 18 79.5t48.5 48t70.5 24t84 8.5l113 5v57
q0 23 -5 42t-18 33t-36 22t-59 8q-20 0 -40 -4t-37.5 -14t-29.5 -27.5t-15 -44.5l-76 7q3 41 23.5 69t49.5 44.5t62.5 23.5t62.5 7q53 0 90.5 -11.5t61.5 -31.5t35.5 -49t11.5 -63v-244q0 -40 6.5 -54.5t33.5 -14.5h37v-54zM381 243l-115 -4q-29 -1 -54 -6t-44 -16.5
t-29.5 -31t-10.5 -48.5t12 -46t29 -25.5t36 -11t33 -2.5q27 0 52.5 10.5t46 30.5t32.5 50.5t12 70.5v29z" />
    <glyph glyph-name="atilde" unicode="&#xe3;" horiz-adv-x="557" 
d="M437 699q0 -17 -4 -35.5t-14 -33.5t-27.5 -24.5t-43.5 -9.5q-20 0 -41 7t-41 15.5t-38.5 15.5t-33.5 7q-18 0 -29 -8.5t-11 -36.5h-51q0 17 4 35t14 33t27 25t43 10q20 0 41 -7t41.5 -15.5t38.5 -15.5t33 -7q19 0 30 8.5t11 36.5h51zM539 -1q-18 -6 -35.5 -8.5
t-29.5 -2.5q-48 0 -68.5 22.5t-20.5 81.5q-16 -30 -36.5 -50t-43 -32t-46.5 -17t-46 -5q-26 0 -55.5 6.5t-54 23t-40.5 44.5t-16 71q0 49 18 79.5t48.5 48t70.5 24t84 8.5l113 5v57q0 23 -5 42t-18 33t-36 22t-59 8q-20 0 -40 -4t-37.5 -14t-29.5 -27.5t-15 -44.5l-76 7
q3 41 23.5 69t49.5 44.5t62.5 23.5t62.5 7q53 0 90.5 -11.5t61.5 -31.5t35.5 -49t11.5 -63v-244q0 -40 6.5 -54.5t33.5 -14.5h37v-54zM381 243l-115 -4q-29 -1 -54 -6t-44 -16.5t-29.5 -31t-10.5 -48.5t12 -46t29 -25.5t36 -11t33 -2.5q27 0 52.5 10.5t46 30.5t32.5 50.5
t12 70.5v29z" />
    <glyph glyph-name="adieresis" unicode="&#xe4;" horiz-adv-x="557" 
d="M325 595v103h85v-103h-85zM130 595v103h86v-103h-86zM539 -1q-18 -6 -35.5 -8.5t-29.5 -2.5q-48 0 -68.5 22.5t-20.5 81.5q-16 -30 -36.5 -50t-43 -32t-46.5 -17t-46 -5q-26 0 -55.5 6.5t-54 23t-40.5 44.5t-16 71q0 49 18 79.5t48.5 48t70.5 24t84 8.5l113 5v57
q0 23 -5 42t-18 33t-36 22t-59 8q-20 0 -40 -4t-37.5 -14t-29.5 -27.5t-15 -44.5l-76 7q3 41 23.5 69t49.5 44.5t62.5 23.5t62.5 7q53 0 90.5 -11.5t61.5 -31.5t35.5 -49t11.5 -63v-244q0 -40 6.5 -54.5t33.5 -14.5h37v-54zM381 243l-115 -4q-29 -1 -54 -6t-44 -16.5
t-29.5 -31t-10.5 -48.5t12 -46t29 -25.5t36 -11t33 -2.5q27 0 52.5 10.5t46 30.5t32.5 50.5t12 70.5v29z" />
    <glyph glyph-name="aring" unicode="&#xe5;" horiz-adv-x="557" 
d="M330 665q0 26 -17.5 43.5t-43.5 17.5q-25 0 -43 -17.5t-18 -43.5t18 -42.5t43 -16.5q26 0 43.5 16.5t17.5 42.5zM271 560q-23 0 -42.5 8t-34 22.5t-23 33.5t-8.5 41t8.5 42t23 34t34 22.5t42.5 8.5q22 0 41 -8.5t33 -22.5t22.5 -34t8.5 -42t-8.5 -41t-22.5 -33.5
t-33 -22.5t-41 -8zM539 -1q-18 -6 -35.5 -8.5t-29.5 -2.5q-48 0 -68.5 22.5t-20.5 81.5q-16 -30 -36.5 -50t-43 -32t-46.5 -17t-46 -5q-26 0 -55.5 6.5t-54 23t-40.5 44.5t-16 71q0 49 18 79.5t48.5 48t70.5 24t84 8.5l113 5v57q0 23 -5 42t-18 33t-36 22t-59 8
q-20 0 -40 -4t-37.5 -14t-29.5 -27.5t-15 -44.5l-76 7q3 41 23.5 69t49.5 44.5t62.5 23.5t62.5 7q53 0 90.5 -11.5t61.5 -31.5t35.5 -49t11.5 -63v-244q0 -40 6.5 -54.5t33.5 -14.5h37v-54zM381 243l-115 -4q-29 -1 -54 -6t-44 -16.5t-29.5 -31t-10.5 -48.5t12 -46t29 -25.5
t36 -11t33 -2.5q27 0 52.5 10.5t46 30.5t32.5 50.5t12 70.5v29z" />
    <glyph glyph-name="ae" unicode="&#xe6;" horiz-adv-x="898" 
d="M832 141q-17 -72 -70 -112.5t-139 -40.5q-78 0 -132 33.5t-81 97.5q-30 -69 -82 -100t-115 -31q-27 0 -56 6.5t-53.5 23t-40.5 44.5t-16 71q0 49 18 79t48.5 47.5t70.5 24t84 8.5l113 5v58q0 23 -5 42t-18 33t-36 22t-59 8q-20 0 -40 -4t-37.5 -14t-29.5 -27.5t-15 -44.5
l-76 7q3 41 23.5 69t49.5 44.5t62.5 23.5t62.5 7q75 0 118 -24t58 -65q31 43 77.5 66t106.5 23q107 0 161.5 -65.5t54.5 -182.5l-2 -38h-372q4 -88 43.5 -135t112.5 -47q58 0 90 23t43 65h78zM381 242l-115 -4q-29 -1 -54 -6t-44 -16.5t-29.5 -30.5t-10.5 -48t12 -46
t29 -25.5t36 -11t33 -2.5q27 0 52.5 10.5t46 30.5t32.5 50.5t12 70.5v28zM755 295q-3 76 -33 119t-101 43q-69 0 -108 -42t-47 -120h289z" />
    <glyph glyph-name="ccedilla" unicode="&#xe7;" horiz-adv-x="544" 
d="M174 -156q23 -11 45 -15.5t39 -4.5q23 0 41 11t18 36q0 24 -22 39.5t-69 15.5v37l17 29q-92 14 -142.5 81.5t-50.5 179.5q0 63 17 112.5t48 84t75.5 53t99.5 18.5q85 0 138 -41t69 -118l-79 -6q-11 49 -42.5 75t-85.5 26q-78 0 -117.5 -53t-39.5 -150t39.5 -149
t117.5 -52q55 0 86.5 25t42.5 73h79q-17 -77 -69 -119.5t-136 -43.5l-18 -27q49 -4 75.5 -30t26.5 -64q0 -12 -5 -27.5t-17 -29t-33 -22.5t-54 -9q-14 0 -40 3.5t-54 15.5v46z" />
    <glyph glyph-name="egrave" unicode="&#xe8;" 
d="M299 564l-132 165h97l99 -165h-64zM510 141q-18 -72 -70.5 -112.5t-140.5 -40.5q-114 0 -177 69.5t-63 195.5q0 63 17 112.5t48.5 84t76 53t98.5 18.5q108 0 162 -65.5t54 -182.5l-2 -38h-370q2 -88 41.5 -135t112.5 -47q58 0 90.5 23t43.5 65h79zM432 295q-2 76 -33 119
t-102 43q-69 0 -107 -42t-46 -120h288z" />
    <glyph glyph-name="eacute" unicode="&#xe9;" 
d="M226 564l100 165h97l-134 -165h-63zM510 141q-18 -72 -70.5 -112.5t-140.5 -40.5q-114 0 -177 69.5t-63 195.5q0 63 17 112.5t48.5 84t76 53t98.5 18.5q108 0 162 -65.5t54 -182.5l-2 -38h-370q2 -88 41.5 -135t112.5 -47q58 0 90.5 23t43.5 65h79zM432 295
q-2 76 -33 119t-102 43q-69 0 -107 -42t-46 -120h288z" />
    <glyph glyph-name="ecircumflex" unicode="&#xea;" 
d="M379 564l-87 107l-83 -107h-62l109 165h75l109 -165h-61zM510 141q-18 -72 -70.5 -112.5t-140.5 -40.5q-114 0 -177 69.5t-63 195.5q0 63 17 112.5t48.5 84t76 53t98.5 18.5q108 0 162 -65.5t54 -182.5l-2 -38h-370q2 -88 41.5 -135t112.5 -47q58 0 90.5 23t43.5 65h79z
M432 295q-2 76 -33 119t-102 43q-69 0 -107 -42t-46 -120h288z" />
    <glyph glyph-name="edieresis" unicode="&#xeb;" 
d="M348 595v103h86v-103h-86zM154 595v103h86v-103h-86zM510 141q-18 -72 -70.5 -112.5t-140.5 -40.5q-114 0 -177 69.5t-63 195.5q0 63 17 112.5t48.5 84t76 53t98.5 18.5q108 0 162 -65.5t54 -182.5l-2 -38h-370q2 -88 41.5 -135t112.5 -47q58 0 90.5 23t43.5 65h79z
M432 295q-2 76 -33 119t-102 43q-69 0 -107 -42t-46 -120h288z" />
    <glyph glyph-name="igrave" unicode="&#xec;" horiz-adv-x="259" 
d="M116 564l-134 165h97l100 -165h-63zM89 0v510h81v-510h-81z" />
    <glyph glyph-name="iacute" unicode="&#xed;" horiz-adv-x="259" 
d="M81 564l99 165h97l-132 -165h-64zM89 0v510h81v-510h-81z" />
    <glyph glyph-name="icircumflex" unicode="&#xee;" horiz-adv-x="259" 
d="M89 0v510h81v-510h-81zM214 564l-85 107l-85 -107h-61l108 165h75l111 -165h-63z" />
    <glyph glyph-name="idieresis" unicode="&#xef;" horiz-adv-x="259" 
d="M184 595v103h86v-103h-86zM-11 595v103h87v-103h-87zM89 0v510h81v-510h-81z" />
    <glyph glyph-name="eth" unicode="&#xf0;" 
d="M336 663q43 -42 77.5 -91t59 -103t38 -111t13.5 -114q0 -60 -16.5 -107.5t-47.5 -80.5t-74.5 -50.5t-98.5 -17.5q-111 0 -174 67.5t-63 188.5q0 60 16.5 108t47 81t74.5 50.5t99 17.5q32 0 57 -8.5t46 -23.5q-20 42 -46.5 80.5t-57.5 72.5l-87 -73l-28 33l85 71
q-41 39 -87 70t-95 54h106q68 -34 124 -84l74 63l28 -33zM287 54q77 0 115.5 49.5t38.5 140.5q0 88 -37 140t-117 52q-77 0 -115.5 -50.5t-38.5 -141.5t38.5 -140.5t115.5 -49.5z" />
    <glyph glyph-name="ntilde" unicode="&#xf1;" horiz-adv-x="603" 
d="M436 0v337q0 52 -30.5 84t-87.5 32q-67 0 -107.5 -44.5t-40.5 -117.5v-291h-81v510h75v-104q29 63 75 89t103 26q34 0 65.5 -9.5t56 -29.5t39 -50.5t14.5 -73.5v-358h-81zM470 699q0 -17 -4 -35.5t-14 -33.5t-27 -24.5t-43 -9.5q-20 0 -41 7t-41 15.5t-38.5 15.5t-33.5 7
q-18 0 -29.5 -8.5t-11.5 -36.5h-51q0 17 4 35t14.5 33t27.5 25t43 10q20 0 41 -7t41 -15.5t38.5 -15.5t33.5 -7q19 0 29.5 8.5t10.5 36.5h51z" />
    <glyph glyph-name="ograve" unicode="&#xf2;" 
d="M287 -12q-55 0 -99 18t-74.5 52.5t-47 84t-16.5 111.5q0 63 16.5 112.5t47 84t74.5 52.5t99 18t98.5 -18t74.5 -52.5t47.5 -84t16.5 -112.5q0 -62 -16.5 -111.5t-47.5 -84t-74.5 -52.5t-98.5 -18zM287 53q77 0 115.5 52t38.5 149t-38.5 150t-115.5 53t-115.5 -53
t-38.5 -150t38.5 -149t115.5 -52zM289 564l-134 165h97l99 -165h-62z" />
    <glyph glyph-name="oacute" unicode="&#xf3;" 
d="M287 -12q-55 0 -99 18t-74.5 52.5t-47 84t-16.5 111.5q0 63 16.5 112.5t47 84t74.5 52.5t99 18t98.5 -18t74.5 -52.5t47.5 -84t16.5 -112.5q0 -62 -16.5 -111.5t-47.5 -84t-74.5 -52.5t-98.5 -18zM287 53q77 0 115.5 52t38.5 149t-38.5 150t-115.5 53t-115.5 -53
t-38.5 -150t38.5 -149t115.5 -52zM223 564l99 165h97l-133 -165h-63z" />
    <glyph glyph-name="ocircumflex" unicode="&#xf4;" 
d="M287 -12q-55 0 -99 18t-74.5 52.5t-47 84t-16.5 111.5q0 63 16.5 112.5t47 84t74.5 52.5t99 18t98.5 -18t74.5 -52.5t47.5 -84t16.5 -112.5q0 -62 -16.5 -111.5t-47.5 -84t-74.5 -52.5t-98.5 -18zM287 53q77 0 115.5 52t38.5 149t-38.5 150t-115.5 53t-115.5 -53
t-38.5 -150t38.5 -149t115.5 -52zM372 564l-86 107l-84 -107h-62l110 165h73l111 -165h-62z" />
    <glyph glyph-name="otilde" unicode="&#xf5;" 
d="M287 -12q-55 0 -99 18t-74.5 52.5t-47 84t-16.5 111.5q0 63 16.5 112.5t47 84t74.5 52.5t99 18t98.5 -18t74.5 -52.5t47.5 -84t16.5 -112.5q0 -62 -16.5 -111.5t-47.5 -84t-74.5 -52.5t-98.5 -18zM287 53q77 0 115.5 52t38.5 149t-38.5 150t-115.5 53t-115.5 -53
t-38.5 -150t38.5 -149t115.5 -52zM454 699q0 -17 -4 -35.5t-14 -33.5t-27.5 -24.5t-43.5 -9.5q-20 0 -40.5 7t-40.5 15.5t-38.5 15.5t-33.5 7q-19 0 -30 -8.5t-11 -36.5h-51q0 17 4 35t14.5 33t27.5 25t43 10q20 0 41 -7t41 -15.5t38.5 -15.5t33.5 -7q18 0 29 8.5t11 36.5
h51z" />
    <glyph glyph-name="odieresis" unicode="&#xf6;" 
d="M287 -12q-55 0 -99 18t-74.5 52.5t-47 84t-16.5 111.5q0 63 16.5 112.5t47 84t74.5 52.5t99 18t98.5 -18t74.5 -52.5t47.5 -84t16.5 -112.5q0 -62 -16.5 -111.5t-47.5 -84t-74.5 -52.5t-98.5 -18zM287 53q77 0 115.5 52t38.5 149t-38.5 150t-115.5 53t-115.5 -53
t-38.5 -150t38.5 -149t115.5 -52zM342 595v103h85v-103h-85zM148 595v103h85v-103h-85z" />
    <glyph glyph-name="divide" unicode="&#xf7;" horiz-adv-x="599" 
d="M76 232v72h447v-72h-447zM261 394v100h77v-100h-77zM261 42v100h77v-100h-77z" />
    <glyph glyph-name="oslash" unicode="&#xf8;" 
d="M68 -67l64 107q-39 34 -60.5 88t-21.5 126q0 63 16.5 112.5t47 84t74.5 52.5t99 18q70 0 123 -31l53 88h43l-66 -109q41 -34 62.5 -88.5t21.5 -126.5q0 -62 -16.5 -111.5t-47.5 -84t-74.5 -52.5t-98.5 -18q-70 0 -124 31l-51 -86h-44zM200 78q34 -25 87 -25
q77 0 115.5 52t38.5 149t-42 148zM373 432q-34 25 -86 25q-77 0 -115.5 -53t-38.5 -150q0 -48 10 -84.5t31 -61.5z" />
    <glyph glyph-name="ugrave" unicode="&#xf9;" horiz-adv-x="604" 
d="M440 0v103q-29 -60 -74 -87.5t-103 -27.5q-35 0 -66.5 9.5t-55.5 29.5t-38 51.5t-14 75.5v356h81v-335q0 -55 29 -86.5t89 -31.5q33 0 59.5 11.5t46 33t30 51.5t10.5 66v291h81v-510h-75zM299 564l-132 165h97l99 -165h-64z" />
    <glyph glyph-name="uacute" unicode="&#xfa;" horiz-adv-x="604" 
d="M440 0v103q-29 -60 -74 -87.5t-103 -27.5q-35 0 -66.5 9.5t-55.5 29.5t-38 51.5t-14 75.5v356h81v-335q0 -55 29 -86.5t89 -31.5q33 0 59.5 11.5t46 33t30 51.5t10.5 66v291h81v-510h-75zM242 564l99 165h98l-134 -165h-63z" />
    <glyph glyph-name="ucircumflex" unicode="&#xfb;" horiz-adv-x="604" 
d="M440 0v103q-29 -60 -74 -87.5t-103 -27.5q-35 0 -66.5 9.5t-55.5 29.5t-38 51.5t-14 75.5v356h81v-335q0 -55 29 -86.5t89 -31.5q33 0 59.5 11.5t46 33t30 51.5t10.5 66v291h81v-510h-75zM387 564l-86 107l-85 -107h-61l110 165h74l110 -165h-62z" />
    <glyph glyph-name="udieresis" unicode="&#xfc;" horiz-adv-x="604" 
d="M440 0v103q-29 -60 -74 -87.5t-103 -27.5q-35 0 -66.5 9.5t-55.5 29.5t-38 51.5t-14 75.5v356h81v-335q0 -55 29 -86.5t89 -31.5q33 0 59.5 11.5t46 33t30 51.5t10.5 66v291h81v-510h-75zM356 595v103h86v-103h-86zM162 595v103h86v-103h-86z" />
    <glyph glyph-name="yacute" unicode="&#xfd;" horiz-adv-x="514" 
d="M125 -212l90 226l-194 496h85l149 -409l154 409h83l-289 -722h-78zM219 564l99 165h97l-132 -165h-64z" />
    <glyph glyph-name="thorn" unicode="&#xfe;" horiz-adv-x="596" 
d="M89 -212v980h75v-279l-4 -89q30 66 75.5 93.5t104.5 27.5q42 0 79 -15t65.5 -47t45 -82.5t16.5 -122.5q0 -70 -16.5 -120t-44.5 -82.5t-65.5 -48t-79.5 -15.5q-56 0 -100 24.5t-75 83.5l5 -77v-231h-81zM321 53q30 0 56 11.5t45 36t30 62.5t11 91t-11 91.5t-30 63
t-45 36.5t-56 12q-35 0 -63 -11t-47.5 -35t-30.5 -62.5t-11 -94.5q0 -108 41 -154.5t111 -46.5z" />
    <glyph glyph-name="ydieresis" unicode="&#xff;" horiz-adv-x="514" 
d="M125 -212l90 226l-194 496h85l149 -409l154 409h83l-289 -722h-78zM311 595v103h86v-103h-86zM117 595v103h86v-103h-86z" />
    <glyph glyph-name="Amacron" unicode="&#x100;" horiz-adv-x="676" 
d="M173 750v58h329v-58h-329zM559 0l-74 191h-298l-72 -191h-88l261 667h100l261 -667h-90zM336 586l-124 -326h248z" />
    <glyph glyph-name="amacron" unicode="&#x101;" horiz-adv-x="557" 
d="M106 618v58h328v-58h-328zM539 -1q-18 -6 -35.5 -8.5t-29.5 -2.5q-48 0 -68.5 22.5t-20.5 81.5q-16 -30 -36.5 -50t-43 -32t-46.5 -17t-46 -5q-26 0 -55.5 6.5t-54 23t-40.5 44.5t-16 71q0 49 18 79.5t48.5 48t70.5 24t84 8.5l113 5v57q0 23 -5 42t-18 33t-36 22t-59 8
q-20 0 -40 -4t-37.5 -14t-29.5 -27.5t-15 -44.5l-76 7q3 41 23.5 69t49.5 44.5t62.5 23.5t62.5 7q53 0 90.5 -11.5t61.5 -31.5t35.5 -49t11.5 -63v-244q0 -40 6.5 -54.5t33.5 -14.5h37v-54zM381 243l-115 -4q-29 -1 -54 -6t-44 -16.5t-29.5 -31t-10.5 -48.5t12 -46t29 -25.5
t36 -11t33 -2.5q27 0 52.5 10.5t46 30.5t32.5 50.5t12 70.5v29z" />
    <glyph glyph-name="Abreve" unicode="&#x102;" horiz-adv-x="676" 
d="M501 850q-8 -72 -53 -107.5t-110 -35.5q-64 0 -109 35.5t-54 107.5h59q8 -45 35.5 -64t68.5 -19q40 0 69 18.5t35 64.5h59zM559 0l-74 191h-298l-72 -191h-88l261 667h100l261 -667h-90zM336 586l-124 -326h248z" />
    <glyph glyph-name="abreve" unicode="&#x103;" horiz-adv-x="557" 
d="M434 729q-3 -42 -16 -73t-35 -51.5t-50.5 -30.5t-61.5 -10t-62 10t-51 30.5t-35 51.5t-16 73h59q5 -57 33.5 -81t71.5 -24q42 0 71 23.5t34 81.5h58zM539 -1q-18 -6 -35.5 -8.5t-29.5 -2.5q-48 0 -68.5 22.5t-20.5 81.5q-16 -30 -36.5 -50t-43 -32t-46.5 -17t-46 -5
q-26 0 -55.5 6.5t-54 23t-40.5 44.5t-16 71q0 49 18 79.5t48.5 48t70.5 24t84 8.5l113 5v57q0 23 -5 42t-18 33t-36 22t-59 8q-20 0 -40 -4t-37.5 -14t-29.5 -27.5t-15 -44.5l-76 7q3 41 23.5 69t49.5 44.5t62.5 23.5t62.5 7q53 0 90.5 -11.5t61.5 -31.5t35.5 -49t11.5 -63
v-244q0 -40 6.5 -54.5t33.5 -14.5h37v-54zM381 243l-115 -4q-29 -1 -54 -6t-44 -16.5t-29.5 -31t-10.5 -48.5t12 -46t29 -25.5t36 -11t33 -2.5q27 0 52.5 10.5t46 30.5t32.5 50.5t12 70.5v29z" />
    <glyph glyph-name="Aogonek" unicode="&#x104;" horiz-adv-x="676" 
d="M650 -198q-16 -7 -34 -11t-41 -4q-19 0 -37 5t-31.5 15.5t-22 26.5t-8.5 39q0 41 23.5 73t59.5 53l-74 192h-298l-72 -191h-88l261 667h100l262 -672q-17 -4 -35.5 -13t-34.5 -23t-26.5 -33t-10.5 -43q0 -26 17 -36t40 -10q13 0 26 3t24 8v-46zM336 586l-124 -326h248z
" />
    <glyph glyph-name="aogonek" unicode="&#x105;" horiz-adv-x="557" 
d="M539 -199q-17 -7 -35.5 -10.5t-41.5 -3.5q-39 0 -68 19.5t-29 65.5q0 38 20 68.5t52 51.5q-28 8 -40 31t-12 69q-16 -30 -36.5 -50t-43 -32t-46.5 -17t-46 -5q-26 0 -55.5 6.5t-54 23t-40.5 44.5t-16 71q0 49 18 79.5t48.5 48t70.5 24t84 8.5l113 5v57q0 23 -5 42t-18 33
t-36 22t-59 8q-20 0 -40 -4t-37.5 -14t-29.5 -27.5t-15 -44.5l-76 7q3 41 23.5 69t49.5 44.5t62.5 23.5t62.5 7q53 0 90.5 -11.5t61.5 -31.5t35.5 -49t11.5 -63v-244q0 -40 6.5 -54.5t33.5 -14.5h37v-58q-17 -4 -36.5 -13t-35.5 -23.5t-26.5 -33.5t-10.5 -43q0 -27 17.5 -36
t39.5 -9q13 0 26.5 2.5t25.5 7.5v-46zM381 243l-115 -4q-29 -1 -54 -6t-44 -16.5t-29.5 -31t-10.5 -48.5t12 -46t29 -25.5t36 -11t33 -2.5q27 0 52.5 10.5t46 30.5t32.5 50.5t12 70.5v29z" />
    <glyph glyph-name="Cacute" unicode="&#x106;" horiz-adv-x="682" 
d="M628 196q-23 -100 -92 -154t-176 -54q-71 0 -127 23.5t-95 68t-60 108.5t-21 145q0 80 21.5 143.5t61.5 108t96 68.5t125 24q107 0 175 -52.5t91 -147.5h-86q-17 63 -62.5 96t-117.5 33q-107 0 -162.5 -72t-55.5 -201q0 -128 55.5 -200.5t161.5 -72.5q152 0 183 136h85z
M308 707l85 143h97l-119 -143h-63z" />
    <glyph glyph-name="cacute" unicode="&#x107;" horiz-adv-x="544" 
d="M498 151q-17 -78 -70 -120.5t-138 -42.5q-114 0 -177 69.5t-63 195.5q0 63 17 112.5t48 84t75.5 53t99.5 18.5q85 0 138 -41t69 -118l-79 -6q-11 49 -42.5 75t-85.5 26q-78 0 -117.5 -53t-39.5 -150t39.5 -149t117.5 -52q55 0 86.5 25t42.5 73h79zM231 564l99 165h98
l-133 -165h-64z" />
    <glyph glyph-name="Ccircumflex" unicode="&#x108;" horiz-adv-x="682" 
d="M628 196q-23 -100 -92 -154t-176 -54q-71 0 -127 23.5t-95 68t-60 108.5t-21 145q0 80 21.5 143.5t61.5 108t96 68.5t125 24q107 0 175 -52.5t91 -147.5h-86q-17 63 -62.5 96t-117.5 33q-107 0 -162.5 -72t-55.5 -201q0 -128 55.5 -200.5t161.5 -72.5q152 0 183 136h85z
M451 707l-86 87l-84 -87h-62l110 143h73l111 -143h-62z" />
    <glyph glyph-name="ccircumflex" unicode="&#x109;" horiz-adv-x="544" 
d="M498 151q-17 -78 -70 -120.5t-138 -42.5q-114 0 -177 69.5t-63 195.5q0 63 17 112.5t48 84t75.5 53t99.5 18.5q85 0 138 -41t69 -118l-79 -6q-11 49 -42.5 75t-85.5 26q-78 0 -117.5 -53t-39.5 -150t39.5 -149t117.5 -52q55 0 86.5 25t42.5 73h79zM369 564l-86 107
l-84 -107h-61l108 165h75l109 -165h-61z" />
    <glyph glyph-name="Cdotaccent" unicode="&#x10a;" horiz-adv-x="682" 
d="M628 196q-23 -100 -92 -154t-176 -54q-71 0 -127 23.5t-95 68t-60 108.5t-21 145q0 80 21.5 143.5t61.5 108t96 68.5t125 24q107 0 175 -52.5t91 -147.5h-86q-17 63 -62.5 96t-117.5 33q-107 0 -162.5 -72t-55.5 -201q0 -128 55.5 -200.5t161.5 -72.5q152 0 183 136h85z
M320 725v110h92v-110h-92z" />
    <glyph glyph-name="cdotaccent" unicode="&#x10b;" horiz-adv-x="544" 
d="M498 151q-17 -78 -70 -120.5t-138 -42.5q-114 0 -177 69.5t-63 195.5q0 63 17 112.5t48 84t75.5 53t99.5 18.5q85 0 138 -41t69 -118l-79 -6q-11 49 -42.5 75t-85.5 26q-78 0 -117.5 -53t-39.5 -150t39.5 -149t117.5 -52q55 0 86.5 25t42.5 73h79zM238 591v110h93v-110
h-93z" />
    <glyph glyph-name="Ccaron" unicode="&#x10c;" horiz-adv-x="682" 
d="M628 196q-23 -100 -92 -154t-176 -54q-71 0 -127 23.5t-95 68t-60 108.5t-21 145q0 80 21.5 143.5t61.5 108t96 68.5t125 24q107 0 175 -52.5t91 -147.5h-86q-17 63 -62.5 96t-117.5 33q-107 0 -162.5 -72t-55.5 -201q0 -128 55.5 -200.5t161.5 -72.5q152 0 183 136h85z
M329 707l-110 143h62l84 -88l86 88h62l-111 -143h-73z" />
    <glyph glyph-name="ccaron" unicode="&#x10d;" horiz-adv-x="544" 
d="M498 151q-17 -78 -70 -120.5t-138 -42.5q-114 0 -177 69.5t-63 195.5q0 63 17 112.5t48 84t75.5 53t99.5 18.5q85 0 138 -41t69 -118l-79 -6q-11 49 -42.5 75t-85.5 26q-78 0 -117.5 -53t-39.5 -150t39.5 -149t117.5 -52q55 0 86.5 25t42.5 73h79zM246 564l-108 165h61
l84 -106l86 106h61l-109 -165h-75z" />
    <glyph glyph-name="Dcaron" unicode="&#x10e;" horiz-adv-x="699" 
d="M291 707l-109 143h61l85 -88l86 88h62l-111 -143h-74zM86 0v667h231q78 0 139 -25t104 -69t65.5 -104t22.5 -131q0 -69 -22.5 -130t-65.5 -107.5t-104 -73.5t-139 -27h-231zM314 72q61 0 107 21t77.5 57t47.5 84.5t16 103.5q0 56 -16 103.5t-47.5 82t-78 54t-107.5 19.5
h-144v-525h145z" />
    <glyph glyph-name="dcaron" unicode="&#x10f;" horiz-adv-x="679" 
d="M577 551l24 170h77l-41 -170h-60zM431 0v102q-32 -62 -76 -88t-99 -26q-42 0 -79 15t-65.5 47t-45 83t-16.5 122q0 70 16.5 120t44.5 82.5t65.5 48t79.5 15.5q55 0 99.5 -25t73.5 -84l-4 77v232h81v-721h-75zM274 52q35 0 63 11t48 35.5t30.5 63t10.5 93.5
q0 109 -40.5 155.5t-111.5 46.5q-30 0 -56 -11.5t-44.5 -36.5t-29.5 -63t-11 -91q0 -54 11 -92t29.5 -63t44.5 -36.5t56 -11.5z" />
    <glyph glyph-name="Dcroat" unicode="&#x110;" horiz-adv-x="704" 
d="M91 0v302h-114v65h114v300h231q78 0 139 -25t104 -69t65.5 -104t22.5 -131q0 -69 -22.5 -130t-65.5 -107.5t-104 -73.5t-139 -27h-231zM319 72q61 0 107 21t77.5 57t47.5 84.5t16 103.5q0 56 -16 103.5t-47.5 82t-78 54t-107.5 19.5h-144v-230h178v-65h-178v-230h145z
" />
    <glyph glyph-name="dcroat" unicode="&#x111;" horiz-adv-x="595" 
d="M431 0v102q-32 -62 -76 -88t-99 -26q-42 0 -79 15t-65.5 47t-45 83t-16.5 122q0 70 16.5 120t44.5 82.5t65.5 48t79.5 15.5q55 0 99.5 -25t73.5 -84l-4 77v123h-188v51h188v58h81v-58h86v-51h-86v-612h-75zM274 52q35 0 63 11t48 35.5t30.5 63t10.5 93.5
q0 109 -40.5 155.5t-111.5 46.5q-30 0 -56 -11.5t-44.5 -36.5t-29.5 -63t-11 -91q0 -54 11 -92t29.5 -63t44.5 -36.5t56 -11.5z" />
    <glyph glyph-name="Emacron" unicode="&#x112;" horiz-adv-x="532" 
d="M86 0v667h392v-70h-309v-222h291v-67h-291v-237h314v-71h-397zM121 773v58h328v-58h-328z" />
    <glyph glyph-name="emacron" unicode="&#x113;" 
d="M129 618v58h328v-58h-328zM510 141q-18 -72 -70.5 -112.5t-140.5 -40.5q-114 0 -177 69.5t-63 195.5q0 63 17 112.5t48.5 84t76 53t98.5 18.5q108 0 162 -65.5t54 -182.5l-2 -38h-370q2 -88 41.5 -135t112.5 -47q58 0 90.5 23t43.5 65h79zM432 295q-2 76 -33 119t-102 43
q-69 0 -107 -42t-46 -120h288z" />
    <glyph glyph-name="Ebreve" unicode="&#x114;" horiz-adv-x="532" 
d="M86 0v667h392v-70h-309v-222h291v-67h-291v-237h314v-71h-397zM448 850q-8 -72 -53 -107.5t-109 -35.5q-32 0 -60 9t-50 26.5t-36 44.5t-18 63h59q8 -45 35.5 -64t69.5 -19q40 0 68 18.5t35 64.5h59z" />
    <glyph glyph-name="ebreve" unicode="&#x115;" 
d="M457 729q-3 -42 -16 -73t-35 -51.5t-50.5 -30.5t-61.5 -10q-67 0 -112.5 40.5t-51.5 124.5h59q5 -57 33.5 -81t71.5 -24q42 0 71.5 23.5t33.5 81.5h58zM510 141q-18 -72 -70.5 -112.5t-140.5 -40.5q-114 0 -177 69.5t-63 195.5q0 63 17 112.5t48.5 84t76 53t98.5 18.5
q108 0 162 -65.5t54 -182.5l-2 -38h-370q2 -88 41.5 -135t112.5 -47q58 0 90.5 23t43.5 65h79zM432 295q-2 76 -33 119t-102 43q-69 0 -107 -42t-46 -120h288z" />
    <glyph glyph-name="Edotaccent" unicode="&#x116;" horiz-adv-x="532" 
d="M86 0v667h392v-70h-309v-222h291v-67h-291v-237h314v-71h-397zM238 725v108h93v-108h-93z" />
    <glyph glyph-name="edotaccent" unicode="&#x117;" 
d="M248 591v110h92v-110h-92zM510 141q-18 -72 -70.5 -112.5t-140.5 -40.5q-114 0 -177 69.5t-63 195.5q0 63 17 112.5t48.5 84t76 53t98.5 18.5q108 0 162 -65.5t54 -182.5l-2 -38h-370q2 -88 41.5 -135t112.5 -47q58 0 90.5 23t43.5 65h79zM432 295q-2 76 -33 119t-102 43
q-69 0 -107 -42t-46 -120h288z" />
    <glyph glyph-name="Eogonek" unicode="&#x118;" horiz-adv-x="532" 
d="M483 -198q-17 -7 -35 -11t-41 -4q-39 0 -68.5 19.5t-29.5 65.5q0 42 23.5 74.5t61.5 53.5h-308v667h392v-70h-309v-222h291v-67h-291v-237h314v-76q-17 -4 -36 -13t-35 -23.5t-26.5 -33.5t-10.5 -43q0 -26 17 -35.5t40 -9.5q13 0 26 3t25 8v-46z" />
    <glyph glyph-name="eogonek" unicode="&#x119;" 
d="M490 -198q-16 -7 -34 -11t-41 -4q-21 0 -40.5 5.5t-34 16.5t-23.5 29t-9 42q0 34 12.5 62t32.5 51q-28 -5 -54 -5q-114 0 -177 69.5t-63 195.5q0 63 17 112.5t48.5 84t76 53t98.5 18.5q108 0 162 -65.5t54 -182.5l-2 -38h-370q2 -88 41.5 -135t112.5 -47q58 0 90.5 23
t43.5 65h79q-18 -71 -68 -110q-25 -26 -46.5 -61.5t-21.5 -79.5q0 -16 6 -26.5t15.5 -16.5t21.5 -8t23 -2q26 0 50 11v-46zM432 295q-2 76 -33 119t-102 43q-69 0 -107 -42t-46 -120h288z" />
    <glyph glyph-name="Ecaron" unicode="&#x11a;" horiz-adv-x="532" 
d="M86 0v667h392v-70h-309v-222h291v-67h-291v-237h314v-71h-397zM247 707l-109 143h61l85 -88l85 88h63l-111 -143h-74z" />
    <glyph glyph-name="ecaron" unicode="&#x11b;" 
d="M256 564l-109 165h62l83 -106l87 106h61l-109 -165h-75zM510 141q-18 -72 -70.5 -112.5t-140.5 -40.5q-114 0 -177 69.5t-63 195.5q0 63 17 112.5t48.5 84t76 53t98.5 18.5q108 0 162 -65.5t54 -182.5l-2 -38h-370q2 -88 41.5 -135t112.5 -47q58 0 90.5 23t43.5 65h79z
M432 295q-2 76 -33 119t-102 43q-69 0 -107 -42t-46 -120h288z" />
    <glyph glyph-name="Gcircumflex" unicode="&#x11c;" horiz-adv-x="698" 
d="M445 707l-86 87l-84 -87h-62l110 143h73l111 -143h-62zM578 0l-12 118q-16 -36 -40.5 -61t-52 -40.5t-56.5 -22t-55 -6.5q-71 0 -127.5 23.5t-96 68t-60.5 108t-21 144.5q0 80 21.5 144t61.5 108.5t97 68.5t127 24q106 0 172.5 -52.5t86.5 -146.5h-86q-14 62 -58 95
t-115 33q-109 0 -165 -72t-56 -202q0 -131 56 -203.5t167 -72.5q83 0 131.5 56t48.5 154v12h-174v63h261v-341h-55z" />
    <glyph glyph-name="gcircumflex" unicode="&#x11d;" horiz-adv-x="594" 
d="M427 23l5 97q-30 -63 -75 -88.5t-101 -25.5q-42 0 -79.5 15t-65.5 45.5t-44.5 77.5t-16.5 111q0 71 16.5 121.5t44.5 82.5t65.5 47t79.5 15q56 0 100.5 -26t74.5 -86v101h75v-510q0 -33 -8 -70.5t-32 -69.5t-68 -53t-116 -21q-27 0 -62 7.5t-67 26.5t-55.5 51.5
t-26.5 82.5l77 6q1 -29 12.5 -50t30.5 -35t43 -20.5t51 -6.5q45 0 73 12.5t43 33.5t20.5 48t5.5 55v26zM274 71q71 0 111.5 43.5t40.5 141.5q0 109 -41 155t-111 46q-30 0 -56 -11.5t-44.5 -36t-29.5 -62.5t-11 -91q0 -94 40.5 -139.5t100.5 -45.5zM370 564l-86 107
l-85 -107h-61l109 165h74l111 -165h-62z" />
    <glyph glyph-name="Gbreve" unicode="&#x11e;" horiz-adv-x="698" 
d="M523 850q-8 -72 -53 -107.5t-109 -35.5q-65 0 -110 35.5t-54 107.5h60q7 -45 35 -64t69 -19q40 0 68 18.5t36 64.5h58zM578 0l-12 118q-16 -36 -40.5 -61t-52 -40.5t-56.5 -22t-55 -6.5q-71 0 -127.5 23.5t-96 68t-60.5 108t-21 144.5q0 80 21.5 144t61.5 108.5t97 68.5
t127 24q106 0 172.5 -52.5t86.5 -146.5h-86q-14 62 -58 95t-115 33q-109 0 -165 -72t-56 -202q0 -131 56 -203.5t167 -72.5q83 0 131.5 56t48.5 154v12h-174v63h261v-341h-55z" />
    <glyph glyph-name="gbreve" unicode="&#x11f;" horiz-adv-x="594" 
d="M427 23l5 97q-30 -63 -75 -88.5t-101 -25.5q-42 0 -79.5 15t-65.5 45.5t-44.5 77.5t-16.5 111q0 71 16.5 121.5t44.5 82.5t65.5 47t79.5 15q56 0 100.5 -26t74.5 -86v101h75v-510q0 -33 -8 -70.5t-32 -69.5t-68 -53t-116 -21q-27 0 -62 7.5t-67 26.5t-55.5 51.5
t-26.5 82.5l77 6q1 -29 12.5 -50t30.5 -35t43 -20.5t51 -6.5q45 0 73 12.5t43 33.5t20.5 48t5.5 55v26zM274 71q71 0 111.5 43.5t40.5 141.5q0 109 -41 155t-111 46q-30 0 -56 -11.5t-44.5 -36t-29.5 -62.5t-11 -91q0 -94 40.5 -139.5t100.5 -45.5zM446 729q-3 -42 -16 -73
t-35 -51.5t-50.5 -30.5t-61.5 -10q-67 0 -113 41t-52 124h59q5 -57 33.5 -81t72.5 -24q42 0 71 23.5t33 81.5h59z" />
    <glyph glyph-name="Gdotaccent" unicode="&#x120;" horiz-adv-x="698" 
d="M319 725v110h92v-110h-92zM578 0l-12 118q-16 -36 -40.5 -61t-52 -40.5t-56.5 -22t-55 -6.5q-71 0 -127.5 23.5t-96 68t-60.5 108t-21 144.5q0 80 21.5 144t61.5 108.5t97 68.5t127 24q106 0 172.5 -52.5t86.5 -146.5h-86q-14 62 -58 95t-115 33q-109 0 -165 -72
t-56 -202q0 -131 56 -203.5t167 -72.5q83 0 131.5 56t48.5 154v12h-174v63h261v-341h-55z" />
    <glyph glyph-name="gdotaccent" unicode="&#x121;" horiz-adv-x="594" 
d="M427 23l5 97q-30 -63 -75 -88.5t-101 -25.5q-42 0 -79.5 15t-65.5 45.5t-44.5 77.5t-16.5 111q0 71 16.5 121.5t44.5 82.5t65.5 47t79.5 15q56 0 100.5 -26t74.5 -86v101h75v-510q0 -33 -8 -70.5t-32 -69.5t-68 -53t-116 -21q-27 0 -62 7.5t-67 26.5t-55.5 51.5
t-26.5 82.5l77 6q1 -29 12.5 -50t30.5 -35t43 -20.5t51 -6.5q45 0 73 12.5t43 33.5t20.5 48t5.5 55v26zM274 71q71 0 111.5 43.5t40.5 141.5q0 109 -41 155t-111 46q-30 0 -56 -11.5t-44.5 -36t-29.5 -62.5t-11 -91q0 -94 40.5 -139.5t100.5 -45.5zM239 591v110h92v-110h-92
z" />
    <glyph glyph-name="uni0122" unicode="&#x122;" horiz-adv-x="698" 
d="M300 -221l25 168h77l-42 -168h-60zM578 0l-12 118q-16 -36 -40.5 -61t-52 -40.5t-56.5 -22t-55 -6.5q-71 0 -127.5 23.5t-96 68t-60.5 108t-21 144.5q0 80 21.5 144t61.5 108.5t97 68.5t127 24q106 0 172.5 -52.5t86.5 -146.5h-86q-14 62 -58 95t-115 33q-109 0 -165 -72
t-56 -202q0 -131 56 -203.5t167 -72.5q83 0 131.5 56t48.5 154v12h-174v63h261v-341h-55z" />
    <glyph glyph-name="uni0123" unicode="&#x123;" horiz-adv-x="594" 
d="M241 566l41 168h60l-24 -168h-77zM427 23l5 97q-30 -63 -75 -88.5t-101 -25.5q-42 0 -79.5 15t-65.5 45.5t-44.5 77.5t-16.5 111q0 71 16.5 121.5t44.5 82.5t65.5 47t79.5 15q56 0 100.5 -26t74.5 -86v101h75v-510q0 -33 -8 -70.5t-32 -69.5t-68 -53t-116 -21
q-27 0 -62 7.5t-67 26.5t-55.5 51.5t-26.5 82.5l77 6q1 -29 12.5 -50t30.5 -35t43 -20.5t51 -6.5q45 0 73 12.5t43 33.5t20.5 48t5.5 55v26zM274 71q71 0 111.5 43.5t40.5 141.5q0 109 -41 155t-111 46q-30 0 -56 -11.5t-44.5 -36t-29.5 -62.5t-11 -91q0 -94 40.5 -139.5
t100.5 -45.5z" />
    <glyph glyph-name="Hcircumflex" unicode="&#x124;" horiz-adv-x="694" 
d="M525 0v306h-356v-306h-83v667h83v-288h356v288h83v-667h-83zM431 707l-85 87l-85 -87h-61l110 143h73l111 -143h-63z" />
    <glyph glyph-name="hcircumflex" unicode="&#x125;" horiz-adv-x="603" 
d="M214 754l-85 87l-85 -87h-61l108 144h75l111 -144h-63zM436 0v337q0 52 -30.5 84t-87.5 32q-67 0 -107.5 -43.5t-40.5 -118.5v-291h-81v721h81v-232l-6 -84q28 60 73.5 88t104.5 28q34 0 65.5 -9.5t56 -29.5t39 -50.5t14.5 -73.5v-358h-81z" />
    <glyph glyph-name="Hbar" unicode="&#x126;" horiz-adv-x="694" 
d="M525 0v306h-356v-306h-83v492h-45v53h45v122h83v-122h356v122h83v-122h46v-53h-46v-492h-83zM525 492h-356v-113h356v113z" />
    <glyph glyph-name="hbar" unicode="&#x127;" horiz-adv-x="603" 
d="M436 0v337q0 52 -30.5 84t-87.5 32q-67 0 -107.5 -43.5t-40.5 -118.5v-291h-81v611h-86v52h86v58h81v-58h188v-52h-188v-122l-6 -84q28 60 73.5 88t104.5 28q34 0 65.5 -9.5t56 -29.5t39 -50.5t14.5 -73.5v-358h-81z" />
    <glyph glyph-name="Itilde" unicode="&#x128;" horiz-adv-x="255" 
d="M86 0v667h83v-667h-83zM295 831q0 -17 -4 -35.5t-14.5 -33.5t-27.5 -24.5t-43 -9.5q-21 0 -42 7t-41 15.5t-38 15.5t-33 7q-19 0 -30.5 -8.5t-11.5 -36.5h-51q0 17 4 35t14.5 33t27.5 25t43 10q21 0 42 -7t41 -15.5t38 -15.5t33 -7q19 0 30 8.5t11 36.5h52z" />
    <glyph glyph-name="itilde" unicode="&#x129;" horiz-adv-x="259" 
d="M297 699q0 -17 -4 -35.5t-14.5 -33.5t-27.5 -24.5t-43 -9.5q-20 0 -41 7t-41 15.5t-38.5 15.5t-33.5 7q-19 0 -30 -8.5t-11 -36.5h-51q0 17 4 35t14 33t27 25t43 10q21 0 42 -7t41 -15.5t38 -15.5t33 -7q19 0 30.5 8.5t11.5 36.5h51zM89 0v510h81v-510h-81z" />
    <glyph glyph-name="Imacron" unicode="&#x12a;" horiz-adv-x="255" 
d="M86 0v667h83v-667h-83zM-38 773v58h329v-58h-329z" />
    <glyph glyph-name="imacron" unicode="&#x12b;" horiz-adv-x="259" 
d="M-34 618v58h327v-58h-327zM89 0v510h81v-510h-81z" />
    <glyph glyph-name="Ibreve" unicode="&#x12c;" horiz-adv-x="255" 
d="M86 0v667h83v-667h-83zM290 850q-8 -72 -53 -107.5t-110 -35.5q-64 0 -109 35.5t-54 107.5h59q8 -45 35.5 -64t68.5 -19q40 0 69 18.5t35 64.5h59z" />
    <glyph glyph-name="ibreve" unicode="&#x12d;" horiz-adv-x="259" 
d="M294 729q-3 -42 -16.5 -73t-35 -51.5t-50.5 -30.5t-62 -10t-62 10t-50.5 30.5t-35 51.5t-16.5 73h59q5 -57 33.5 -81t71.5 -24t71.5 23.5t33.5 81.5h59zM89 0v510h81v-510h-81z" />
    <glyph glyph-name="Iogonek" unicode="&#x12e;" horiz-adv-x="255" 
d="M195 -199q-17 -7 -33 -10.5t-36 -3.5q-43 0 -74 23.5t-31 73.5q0 37 18 65.5t47 47.5v670h83v-673q-12 -4 -26 -11.5t-26.5 -20t-21 -30t-8.5 -40.5q0 -31 18 -43t43 -12q27 0 47 10v-46z" />
    <glyph glyph-name="iogonek" unicode="&#x12f;" horiz-adv-x="259" 
d="M197 -199q-17 -7 -33.5 -10.5t-36.5 -3.5q-42 0 -73.5 23.5t-31.5 74.5q0 37 19 65.5t48 47.5v512h81v-515q-12 -4 -26 -11.5t-26 -20.5t-20.5 -30.5t-8.5 -40.5q0 -30 17.5 -42.5t42.5 -12.5q23 0 48 10v-46zM86 612v89h87v-89h-87z" />
    <glyph glyph-name="Idotaccent" unicode="&#x130;" horiz-adv-x="255" 
d="M86 0v667h83v-667h-83zM81 748v108h93v-108h-93z" />
    <glyph glyph-name="dotlessi" unicode="&#x131;" horiz-adv-x="259" 
d="M89 0v510h81v-510h-81z" />
    <glyph glyph-name="IJ" unicode="&#x132;" horiz-adv-x="591" 
d="M86 0v667h83v-667h-83zM259 58h82q49 0 65.5 28.5t16.5 91.5v489h82v-486q0 -30 -2.5 -64t-16 -62.5t-42.5 -47.5t-81 -19q-3 0 -33.5 1t-70.5 9v60z" />
    <glyph glyph-name="ij" unicode="&#x133;" horiz-adv-x="520" 
d="M89 0v510h81v-510h-81zM86 612v89h87v-89h-87zM231 -144h53q41 0 53.5 28t12.5 90v536h81v-537q0 -42 -4 -76t-18 -59t-42.5 -38.5t-76.5 -13.5q-9 0 -25.5 1t-33.5 4v65zM347 612v89h87v-89h-87z" />
    <glyph glyph-name="Jcircumflex" unicode="&#x134;" horiz-adv-x="337" 
d="M4 58h83q48 0 64.5 28.5t16.5 91.5v489h83v-486q0 -30 -2.5 -64t-16.5 -62.5t-43 -47.5t-81 -19q-3 0 -33 1t-71 9v60zM294 707l-86 87l-84 -87h-62l110 143h74l110 -143h-62z" />
    <glyph glyph-name="jcircumflex" unicode="&#x135;" horiz-adv-x="259" 
d="M-30 -143h53q41 0 53.5 27.5t12.5 89.5v536h81v-537q0 -42 -4 -76t-18 -59t-42.5 -38.5t-76.5 -13.5q-8 0 -25 1t-34 4v66zM214 564l-85 107l-85 -107h-61l108 165h75l111 -165h-63z" />
    <glyph glyph-name="uni0136" unicode="&#x136;" horiz-adv-x="595" 
d="M267 -221l25 168h77l-42 -168h-60zM486 0l-248 313l-69 -74v-239h-83v667h83v-321l300 321h100l-275 -295l295 -372h-103z" />
    <glyph glyph-name="uni0137" unicode="&#x137;" horiz-adv-x="534" 
d="M236 -221l25 168h77l-42 -168h-60zM425 0l-183 273l-72 -64v-209h-81v721h81v-419l236 208h101l-206 -182l214 -328h-90z" />
    <glyph glyph-name="kgreenlandic" unicode="&#x138;" horiz-adv-x="534" 
d="M425 0l-182 261l-73 -67v-194h-81v510h81v-223l237 223h100l-208 -194l216 -316h-90z" />
    <glyph glyph-name="Lacute" unicode="&#x139;" horiz-adv-x="494" 
d="M86 0v667h83v-596h309v-71h-392zM77 707l86 143h97l-120 -143h-63z" />
    <glyph glyph-name="lacute" unicode="&#x13a;" horiz-adv-x="259" 
d="M89 0v721h81v-721h-81zM80 754l85 144h96l-117 -144h-64z" />
    <glyph glyph-name="uni013B" unicode="&#x13b;" horiz-adv-x="494" 
d="M223 -221l24 168h77l-41 -168h-60zM86 0v667h83v-596h309v-71h-392z" />
    <glyph glyph-name="uni013C" unicode="&#x13c;" horiz-adv-x="259" 
d="M68 -221l23 168h77l-40 -168h-60zM89 0v721h81v-721h-81z" />
    <glyph glyph-name="Lcaron" unicode="&#x13d;" horiz-adv-x="494" 
d="M269 497l23 170h77l-41 -170h-59zM86 0v667h83v-596h309v-71h-392z" />
    <glyph glyph-name="lcaron" unicode="&#x13e;" horiz-adv-x="343" 
d="M242 551l24 170h77l-42 -170h-59zM89 0v721h81v-721h-81z" />
    <glyph glyph-name="Ldot" unicode="&#x13f;" horiz-adv-x="494" 
d="M284 315v107h92v-107h-92zM86 0v667h83v-596h309v-71h-392z" />
    <glyph glyph-name="ldot" unicode="&#x140;" horiz-adv-x="374" 
d="M89 0v721h81v-721h-81zM269 302v110h92v-110h-92z" />
    <glyph glyph-name="Lslash" unicode="&#x141;" horiz-adv-x="510" 
d="M101 0v281l-97 -30v62l97 31v323h83v-297l158 51v-62l-158 -51v-237h310v-71h-393z" />
    <glyph glyph-name="lslash" unicode="&#x142;" horiz-adv-x="296" 
d="M106 0v308l-109 -35v64l109 34v350h81v-322l112 36v-62l-112 -38v-335h-81z" />
    <glyph glyph-name="Nacute" unicode="&#x143;" horiz-adv-x="708" 
d="M307 707l85 143h97l-119 -143h-63zM524 0l-355 541v-541h-83v667h92l361 -553v553h83v-667h-98z" />
    <glyph glyph-name="nacute" unicode="&#x144;" horiz-adv-x="603" 
d="M436 0v337q0 52 -30.5 84t-87.5 32q-67 0 -107.5 -44.5t-40.5 -117.5v-291h-81v510h75v-104q29 63 75 89t103 26q34 0 65.5 -9.5t56 -29.5t39 -50.5t14.5 -73.5v-358h-81zM246 564l100 165h97l-134 -165h-63z" />
    <glyph glyph-name="uni0145" unicode="&#x145;" horiz-adv-x="708" 
d="M295 -221l24 168h77l-42 -168h-59zM524 0l-355 541v-541h-83v667h92l361 -553v553h83v-667h-98z" />
    <glyph glyph-name="uni0146" unicode="&#x146;" horiz-adv-x="603" 
d="M243 -221l25 168h77l-42 -168h-60zM436 0v337q0 52 -30.5 84t-87.5 32q-67 0 -107.5 -44.5t-40.5 -117.5v-291h-81v510h75v-104q29 63 75 89t103 26q34 0 65.5 -9.5t56 -29.5t39 -50.5t14.5 -73.5v-358h-81z" />
    <glyph glyph-name="Ncaron" unicode="&#x147;" horiz-adv-x="708" 
d="M316 707l-109 143h62l85 -88l85 88h62l-110 -143h-75zM524 0l-355 541v-541h-83v667h92l361 -553v553h83v-667h-98z" />
    <glyph glyph-name="ncaron" unicode="&#x148;" horiz-adv-x="603" 
d="M436 0v337q0 52 -30.5 84t-87.5 32q-67 0 -107.5 -44.5t-40.5 -117.5v-291h-81v510h75v-104q29 63 75 89t103 26q34 0 65.5 -9.5t56 -29.5t39 -50.5t14.5 -73.5v-358h-81zM266 564l-110 165h61l85 -106l86 106h62l-110 -165h-74z" />
    <glyph glyph-name="napostrophe" unicode="&#x149;" horiz-adv-x="603" 
d="M65 564l24 168h77l-41 -168h-60zM436 0v337q0 52 -30.5 84t-87.5 32q-67 0 -107.5 -44.5t-40.5 -117.5v-291h-81v510h75v-104q29 63 75 89t103 26q34 0 65.5 -9.5t56 -29.5t39 -50.5t14.5 -73.5v-358h-81z" />
    <glyph glyph-name="Eng" unicode="&#x14a;" horiz-adv-x="708" 
d="M376 -149h85q44 0 61 25t17 79v47l-370 541v-543h-83v667h92l361 -530v530h83v-693q0 -31 -2.5 -65t-16.5 -62.5t-43 -47.5t-81 -19q-3 0 -33 1t-70 9v61z" />
    <glyph glyph-name="eng" unicode="&#x14b;" horiz-adv-x="603" 
d="M317 -143h52q22 0 35 7t20 22.5t9.5 39.5t2.5 58v353q0 52 -30.5 84t-87.5 32q-67 0 -107.5 -44.5t-40.5 -117.5v-291h-81v510h75v-104q29 63 75 89t103 26q34 0 65.5 -9.5t56 -29.5t39 -50.5t14.5 -73.5v-365q0 -45 -3 -82.5t-17 -65.5t-42.5 -43.5t-78.5 -15.5
q-9 0 -25.5 1t-33.5 4v66z" />
    <glyph glyph-name="Omacron" unicode="&#x14c;" horiz-adv-x="736" 
d="M205 750v58h327v-58h-327zM367 -12q-72 0 -129 23.5t-97.5 68t-62 108.5t-21.5 145q0 80 21.5 144t62 108.5t97.5 68t129 23.5t130 -23.5t98.5 -68t62 -108.5t21.5 -144q0 -81 -21.5 -145t-62 -108.5t-98.5 -68t-130 -23.5zM367 60q112 0 169 72t57 201q0 128 -57 200.5
t-169 72.5q-111 0 -167.5 -72.5t-56.5 -200.5q0 -129 56.5 -201t167.5 -72z" />
    <glyph glyph-name="omacron" unicode="&#x14d;" 
d="M287 -12q-55 0 -99 18t-74.5 52.5t-47 84t-16.5 111.5q0 63 16.5 112.5t47 84t74.5 52.5t99 18t98.5 -18t74.5 -52.5t47.5 -84t16.5 -112.5q0 -62 -16.5 -111.5t-47.5 -84t-74.5 -52.5t-98.5 -18zM287 53q77 0 115.5 52t38.5 149t-38.5 150t-115.5 53t-115.5 -53
t-38.5 -150t38.5 -149t115.5 -52zM123 618v58h328v-58h-328z" />
    <glyph glyph-name="Obreve" unicode="&#x14e;" horiz-adv-x="736" 
d="M531 850q-8 -72 -53 -107.5t-109 -35.5q-65 0 -109.5 35.5t-53.5 107.5h59q8 -45 35.5 -64t68.5 -19q40 0 68.5 18.5t35.5 64.5h58zM367 -12q-72 0 -129 23.5t-97.5 68t-62 108.5t-21.5 145q0 80 21.5 144t62 108.5t97.5 68t129 23.5t130 -23.5t98.5 -68t62 -108.5
t21.5 -144q0 -81 -21.5 -145t-62 -108.5t-98.5 -68t-130 -23.5zM367 60q112 0 169 72t57 201q0 128 -57 200.5t-169 72.5q-111 0 -167.5 -72.5t-56.5 -200.5q0 -129 56.5 -201t167.5 -72z" />
    <glyph glyph-name="obreve" unicode="&#x14f;" 
d="M287 -12q-55 0 -99 18t-74.5 52.5t-47 84t-16.5 111.5q0 63 16.5 112.5t47 84t74.5 52.5t99 18t98.5 -18t74.5 -52.5t47.5 -84t16.5 -112.5q0 -62 -16.5 -111.5t-47.5 -84t-74.5 -52.5t-98.5 -18zM287 53q77 0 115.5 52t38.5 149t-38.5 150t-115.5 53t-115.5 -53
t-38.5 -150t38.5 -149t115.5 -52zM451 729q-3 -42 -16 -73t-35 -51.5t-50.5 -30.5t-61.5 -10t-62 10t-51 30.5t-35 51.5t-16 73h59q5 -57 33.5 -81t71.5 -24q42 0 71.5 23.5t33.5 81.5h58z" />
    <glyph glyph-name="Ohungarumlaut" unicode="&#x150;" horiz-adv-x="736" 
d="M241 707l85 143h97l-120 -143h-62zM405 707l86 143h96l-119 -143h-63zM367 -12q-72 0 -129 23.5t-97.5 68t-62 108.5t-21.5 145q0 80 21.5 144t62 108.5t97.5 68t129 23.5t130 -23.5t98.5 -68t62 -108.5t21.5 -144q0 -81 -21.5 -145t-62 -108.5t-98.5 -68t-130 -23.5z
M367 60q112 0 169 72t57 201q0 128 -57 200.5t-169 72.5q-111 0 -167.5 -72.5t-56.5 -200.5q0 -129 56.5 -201t167.5 -72z" />
    <glyph glyph-name="ohungarumlaut" unicode="&#x151;" 
d="M287 -12q-55 0 -99 18t-74.5 52.5t-47 84t-16.5 111.5q0 63 16.5 112.5t47 84t74.5 52.5t99 18t98.5 -18t74.5 -52.5t47.5 -84t16.5 -112.5q0 -62 -16.5 -111.5t-47.5 -84t-74.5 -52.5t-98.5 -18zM287 53q77 0 115.5 52t38.5 149t-38.5 150t-115.5 53t-115.5 -53
t-38.5 -150t38.5 -149t115.5 -52zM325 564l99 165h97l-133 -165h-63zM161 564l99 165h97l-134 -165h-62z" />
    <glyph glyph-name="OE" unicode="&#x152;" horiz-adv-x="1038" 
d="M592 0v97q-38 -53 -94.5 -81t-130.5 -28q-72 0 -129 23.5t-97.5 68t-62 108.5t-21.5 145q0 79 21.5 143t62 108.5t97.5 68.5t129 24q74 0 130.5 -28t94.5 -81v99h392v-70h-309v-223h291v-67h-291v-236h314v-71h-397zM592 367q0 56 -16 100.5t-45.5 75t-71 47t-92.5 16.5
q-111 0 -167.5 -72.5t-56.5 -200.5q0 -129 56.5 -201t167.5 -72q51 0 93 16.5t71 47.5t45 75.5t16 101.5v66z" />
    <glyph glyph-name="oe" unicode="&#x153;" horiz-adv-x="957" 
d="M893 141q-18 -72 -70.5 -112.5t-140.5 -40.5q-72 0 -121.5 29t-78.5 84q-27 -54 -76.5 -83.5t-118.5 -29.5q-55 0 -99 18t-74.5 52.5t-47 84t-16.5 111.5q0 63 16.5 112.5t47 84t74.5 52.5t99 18q69 0 119.5 -29.5t76.5 -86.5q29 57 79.5 86.5t119.5 29.5
q108 0 162 -65.5t54 -182.5l-2 -38h-371q3 -88 42.5 -135t112.5 -47q58 0 90.5 23t43.5 65h79zM287 53q77 0 115.5 52t38.5 149t-38.5 150t-115.5 53t-115.5 -53t-38.5 -150t38.5 -149t115.5 -52zM815 295q-2 76 -33 119t-102 43q-69 0 -107 -42t-46 -120h288z" />
    <glyph glyph-name="Racute" unicode="&#x154;" horiz-adv-x="594" 
d="M211 707l85 143h97l-118 -143h-64zM467 0l-141 277h-157v-277h-83v667h224q109 0 172.5 -48t63.5 -142q0 -69 -38 -117.5t-102 -67.5l150 -292h-89zM312 345q67 0 107.5 33t40.5 99q0 120 -151 120h-140v-252h143z" />
    <glyph glyph-name="racute" unicode="&#x155;" horiz-adv-x="356" 
d="M89 0v510h75v-111q23 67 60 94.5t74 27.5q8 0 20.5 -1t25.5 -6v-69h-50q-54 0 -89 -42.5t-35 -121.5v-281h-81zM135 564l99 165h97l-133 -165h-63z" />
    <glyph glyph-name="uni0156" unicode="&#x156;" horiz-adv-x="594" 
d="M258 -221l25 168h77l-42 -168h-60zM467 0l-141 277h-157v-277h-83v667h224q109 0 172.5 -48t63.5 -142q0 -69 -38 -117.5t-102 -67.5l150 -292h-89zM312 345q67 0 107.5 33t40.5 99q0 120 -151 120h-140v-252h143z" />
    <glyph glyph-name="uni0157" unicode="&#x157;" horiz-adv-x="356" 
d="M68 -221l23 168h77l-40 -168h-60zM89 0v510h75v-111q23 67 60 94.5t74 27.5q8 0 20.5 -1t25.5 -6v-69h-50q-54 0 -89 -42.5t-35 -121.5v-281h-81z" />
    <glyph glyph-name="Rcaron" unicode="&#x158;" horiz-adv-x="594" 
d="M254 707l-108 143h61l85 -88l85 88h62l-110 -143h-75zM467 0l-141 277h-157v-277h-83v667h224q109 0 172.5 -48t63.5 -142q0 -69 -38 -117.5t-102 -67.5l150 -292h-89zM312 345q67 0 107.5 33t40.5 99q0 120 -151 120h-140v-252h143z" />
    <glyph glyph-name="rcaron" unicode="&#x159;" horiz-adv-x="356" 
d="M89 0v510h75v-111q23 67 60 94.5t74 27.5q8 0 20.5 -1t25.5 -6v-69h-50q-54 0 -89 -42.5t-35 -121.5v-281h-81zM178 564l-108 165h61l85 -106l85 106h63l-111 -165h-75z" />
    <glyph glyph-name="Sacute" unicode="&#x15a;" horiz-adv-x="593" 
d="M461 483q-3 41 -19 66.5t-40 39t-52 18t-53 4.5q-28 0 -54.5 -6t-47.5 -18.5t-33.5 -33t-12.5 -49.5q0 -47 29.5 -71.5t74 -39.5t96.5 -27t96.5 -32.5t74 -56.5t29.5 -99q0 -41 -16.5 -76t-48.5 -60.5t-79.5 -39.5t-109.5 -14q-17 0 -41.5 2.5t-52 10t-55 21.5t-50 37
t-37.5 56.5t-17 80.5h84q1 -40 16.5 -67t40 -43t55.5 -23t63 -7q34 0 64 6t52 20t34.5 35.5t12.5 53.5q0 36 -17 58t-45.5 37t-64.5 24.5t-73.5 19t-73 22.5t-64 34t-45.5 53t-17 80q0 47 20.5 80.5t54.5 55.5t77 32t87 10q30 0 70 -6.5t77 -27t64 -59t30 -101.5h-83z
M243 707l85 143h97l-119 -143h-63z" />
    <glyph glyph-name="sacute" unicode="&#x15b;" horiz-adv-x="493" 
d="M365 371q-3 29 -14 47.5t-27 28.5t-35.5 13.5t-39.5 3.5q-21 0 -41 -3.5t-35 -12t-24 -23t-9 -35.5q0 -35 22.5 -53.5t57 -30t74 -21t74 -26t57 -45.5t22.5 -79q0 -67 -53.5 -107t-149.5 -40q-22 0 -54.5 4.5t-63 20.5t-54.5 46t-28 80h77q3 -26 14.5 -43t29 -27.5
t38.5 -15t43 -4.5q55 0 88.5 18t33.5 63q0 35 -22.5 54t-57 30.5t-74 21t-74 26t-57 44.5t-22.5 77q0 36 16.5 62t43 43t59.5 25t67 8q26 0 58 -5t60.5 -20t49.5 -43.5t26 -76.5zM189 564l100 165h97l-133 -165h-64z" />
    <glyph glyph-name="Scircumflex" unicode="&#x15c;" horiz-adv-x="593" 
d="M461 483q-3 41 -19 66.5t-40 39t-52 18t-53 4.5q-28 0 -54.5 -6t-47.5 -18.5t-33.5 -33t-12.5 -49.5q0 -47 29.5 -71.5t74 -39.5t96.5 -27t96.5 -32.5t74 -56.5t29.5 -99q0 -41 -16.5 -76t-48.5 -60.5t-79.5 -39.5t-109.5 -14q-17 0 -41.5 2.5t-52 10t-55 21.5t-50 37
t-37.5 56.5t-17 80.5h84q1 -40 16.5 -67t40 -43t55.5 -23t63 -7q34 0 64 6t52 20t34.5 35.5t12.5 53.5q0 36 -17 58t-45.5 37t-64.5 24.5t-73.5 19t-73 22.5t-64 34t-45.5 53t-17 80q0 47 20.5 80.5t54.5 55.5t77 32t87 10q30 0 70 -6.5t77 -27t64 -59t30 -101.5h-83z
M386 707l-86 87l-85 -87h-61l109 143h74l111 -143h-62z" />
    <glyph glyph-name="scircumflex" unicode="&#x15d;" horiz-adv-x="493" 
d="M365 371q-3 29 -14 47.5t-27 28.5t-35.5 13.5t-39.5 3.5q-21 0 -41 -3.5t-35 -12t-24 -23t-9 -35.5q0 -35 22.5 -53.5t57 -30t74 -21t74 -26t57 -45.5t22.5 -79q0 -67 -53.5 -107t-149.5 -40q-22 0 -54.5 4.5t-63 20.5t-54.5 46t-28 80h77q3 -26 14.5 -43t29 -27.5
t38.5 -15t43 -4.5q55 0 88.5 18t33.5 63q0 35 -22.5 54t-57 30.5t-74 21t-74 26t-57 44.5t-22.5 77q0 36 16.5 62t43 43t59.5 25t67 8q26 0 58 -5t60.5 -20t49.5 -43.5t26 -76.5zM334 564l-85 107l-85 -107h-61l110 165h73l111 -165h-63z" />
    <glyph glyph-name="Scedilla" unicode="&#x15e;" horiz-adv-x="593" 
d="M201 -156q23 -11 44.5 -15.5t38.5 -4.5q24 0 41.5 11t17.5 36q0 24 -22 39.5t-69 15.5v37l16 26q-29 2 -67 11.5t-72.5 32t-59 61.5t-27.5 102h84q1 -40 16.5 -67t40 -43t55.5 -23t63 -7q34 0 64 6t52 20t34.5 35.5t12.5 53.5q0 36 -17 58t-45.5 37t-64.5 24.5t-73.5 19
t-73 22.5t-64 34t-45.5 53t-17 80q0 47 20.5 80.5t54.5 55.5t77 32t87 10q30 0 70 -6.5t77 -27t64 -59t30 -101.5h-83q-3 41 -19 66.5t-40 39t-52 18t-53 4.5q-28 0 -54.5 -6t-47.5 -18.5t-33.5 -33t-12.5 -49.5q0 -47 29.5 -71.5t74 -39.5t96.5 -27t96.5 -32.5t74 -56.5
t29.5 -99q0 -39 -14.5 -72.5t-43.5 -58.5t-72 -40t-100 -18l-18 -28q49 -4 76 -30t27 -64q0 -12 -4.5 -27.5t-17 -29t-34 -22.5t-54.5 -9q-13 0 -39.5 3.5t-53.5 15.5v46z" />
    <glyph glyph-name="scedilla" unicode="&#x15f;" horiz-adv-x="493" 
d="M152 -157q23 -11 44.5 -15t38.5 -4q23 0 41 11t18 36q0 24 -22 39.5t-69 15.5v36l16 27q-24 2 -53 9t-55 23.5t-44.5 45t-22.5 72.5h77q3 -26 14.5 -43t29 -27.5t38.5 -15t43 -4.5q55 0 88.5 18t33.5 63q0 35 -22.5 54t-57 30.5t-74 21t-74 26t-57 44.5t-22.5 77
q0 36 16.5 62t43 43t59.5 25t67 8q26 0 58 -5t60.5 -20t49.5 -43.5t26 -76.5l-76 -5q-3 29 -14 47.5t-27 28.5t-35.5 13.5t-39.5 3.5q-21 0 -41 -3.5t-35 -12t-24 -23t-9 -35.5q0 -35 22.5 -53.5t57 -30t74 -21t74 -26t57 -45.5t22.5 -79q0 -63 -46 -101.5t-130 -44.5
l-18 -28q48 -4 75 -30t27 -64q0 -12 -5 -27.5t-17 -29t-33.5 -22.5t-54.5 -9q-13 0 -39.5 3.5t-53.5 15.5v45z" />
    <glyph glyph-name="Scaron" unicode="&#x160;" horiz-adv-x="593" 
d="M461 483q-3 41 -19 66.5t-40 39t-52 18t-53 4.5q-28 0 -54.5 -6t-47.5 -18.5t-33.5 -33t-12.5 -49.5q0 -47 29.5 -71.5t74 -39.5t96.5 -27t96.5 -32.5t74 -56.5t29.5 -99q0 -41 -16.5 -76t-48.5 -60.5t-79.5 -39.5t-109.5 -14q-17 0 -41.5 2.5t-52 10t-55 21.5t-50 37
t-37.5 56.5t-17 80.5h84q1 -40 16.5 -67t40 -43t55.5 -23t63 -7q34 0 64 6t52 20t34.5 35.5t12.5 53.5q0 36 -17 58t-45.5 37t-64.5 24.5t-73.5 19t-73 22.5t-64 34t-45.5 53t-17 80q0 47 20.5 80.5t54.5 55.5t77 32t87 10q30 0 70 -6.5t77 -27t64 -59t30 -101.5h-83z
M263 707l-109 143h61l85 -88l86 88h62l-111 -143h-74z" />
    <glyph glyph-name="scaron" unicode="&#x161;" horiz-adv-x="493" 
d="M365 371q-3 29 -14 47.5t-27 28.5t-35.5 13.5t-39.5 3.5q-21 0 -41 -3.5t-35 -12t-24 -23t-9 -35.5q0 -35 22.5 -53.5t57 -30t74 -21t74 -26t57 -45.5t22.5 -79q0 -67 -53.5 -107t-149.5 -40q-22 0 -54.5 4.5t-63 20.5t-54.5 46t-28 80h77q3 -26 14.5 -43t29 -27.5
t38.5 -15t43 -4.5q55 0 88.5 18t33.5 63q0 35 -22.5 54t-57 30.5t-74 21t-74 26t-57 44.5t-22.5 77q0 36 16.5 62t43 43t59.5 25t67 8q26 0 58 -5t60.5 -20t49.5 -43.5t26 -76.5zM213 564l-110 165h61l85 -106l85 106h63l-111 -165h-73z" />
    <glyph glyph-name="uni0162" unicode="&#x162;" horiz-adv-x="559" 
d="M180 -157q23 -11 44 -15t38 -4q24 0 41.5 11t17.5 36q0 24 -22 39.5t-69 15.5v36l23 38h-15v598h-220v69h523v-69h-220v-598h-16l-25 -39q48 -4 75 -30t27 -64q0 -12 -5 -27.5t-17 -29t-33.5 -22.5t-54.5 -9q-13 0 -39.5 3.5t-52.5 15.5v45z" />
    <glyph glyph-name="uni0163" unicode="&#x163;" horiz-adv-x="336" 
d="M97 -157q23 -11 44.5 -15t37.5 -4q24 0 42.5 11t18.5 36q0 24 -22.5 39.5t-69.5 15.5v36l24 38q-24 10 -38.5 26.5t-22 38.5t-9.5 49.5t-2 58.5v271h-79v62h79v137h81v-137h129v-62h-129v-269q0 -31 3 -53t11.5 -36.5t24 -21t41.5 -6.5h49v-60q-14 -5 -33 -7.5t-24 -2.5
q-10 0 -19.5 0.5t-17.5 1.5l-19 -29q49 -4 76 -30t27 -64q0 -12 -5 -27.5t-17.5 -29t-34 -22.5t-54.5 -9q-13 0 -39 3.5t-53 15.5v45z" />
    <glyph glyph-name="Tcaron" unicode="&#x164;" horiz-adv-x="559" 
d="M238 0v598h-220v69h523v-69h-220v-598h-83zM241 707l-109 143h62l84 -88l86 88h61l-109 -143h-75z" />
    <glyph glyph-name="tcaron" unicode="&#x165;" horiz-adv-x="336" 
d="M243 570l24 169h78l-42 -169h-60zM310 -2q-14 -5 -33 -7.5t-24 -2.5q-53 0 -83 13.5t-46 38t-20 58.5t-4 75v271h-79v62h79v137h81v-137h129v-62h-129v-269q0 -31 3 -53t11.5 -36.5t24 -21t41.5 -6.5h49v-60z" />
    <glyph glyph-name="Tbar" unicode="&#x166;" horiz-adv-x="559" 
d="M238 0v294h-166v54h166v250h-220v69h523v-69h-220v-250h165v-54h-165v-294h-83z" />
    <glyph glyph-name="tbar" unicode="&#x167;" horiz-adv-x="336" 
d="M310 -2q-14 -5 -33 -7.5t-24 -2.5q-53 0 -83 13.5t-46 38t-20 58.5t-4 75v97h-79v51h79v123h-79v62h79v137h81v-137h129v-62h-129v-123h129v-51h-129v-95q0 -31 3 -53t11.5 -36.5t24 -21t41.5 -6.5h49v-60z" />
    <glyph glyph-name="Utilde" unicode="&#x168;" horiz-adv-x="674" 
d="M506 831q0 -17 -4 -35.5t-14.5 -33.5t-27.5 -24.5t-43 -9.5q-21 0 -42 7t-41 15.5t-38 15.5t-33 7q-19 0 -30.5 -8.5t-11.5 -36.5h-51q0 17 4 35t14.5 33t27.5 25t43 10q21 0 42 -7t41 -15.5t38 -15.5t33 -7q19 0 30 8.5t11 36.5h52zM515 667h81v-429q0 -62 -19 -108.5
t-53 -78t-82 -47.5t-105 -16q-58 0 -106 16t-82 47.5t-52.5 78t-18.5 108.5v429h83v-427q0 -91 49 -135t127 -44q84 0 131 44t47 135v427z" />
    <glyph glyph-name="utilde" unicode="&#x169;" horiz-adv-x="604" 
d="M440 0v103q-29 -60 -74 -87.5t-103 -27.5q-35 0 -66.5 9.5t-55.5 29.5t-38 51.5t-14 75.5v356h81v-335q0 -55 29 -86.5t89 -31.5q33 0 59.5 11.5t46 33t30 51.5t10.5 66v291h81v-510h-75zM469 699q0 -17 -4 -35.5t-14 -33.5t-27 -24.5t-43 -9.5q-20 0 -41 7t-41.5 15.5
t-39 15.5t-33.5 7q-18 0 -29 -8.5t-11 -36.5h-51q0 17 4 35t14.5 33t27.5 25t43 10q20 0 41 -7t41 -15.5t38 -15.5t33 -7q19 0 30 8.5t11 36.5h51z" />
    <glyph glyph-name="Umacron" unicode="&#x16a;" horiz-adv-x="674" 
d="M173 752v58h328v-58h-328zM515 667h81v-429q0 -62 -19 -108.5t-53 -78t-82 -47.5t-105 -16q-58 0 -106 16t-82 47.5t-52.5 78t-18.5 108.5v429h83v-427q0 -91 49 -135t127 -44q84 0 131 44t47 135v427z" />
    <glyph glyph-name="umacron" unicode="&#x16b;" horiz-adv-x="604" 
d="M440 0v103q-29 -60 -74 -87.5t-103 -27.5q-35 0 -66.5 9.5t-55.5 29.5t-38 51.5t-14 75.5v356h81v-335q0 -55 29 -86.5t89 -31.5q33 0 59.5 11.5t46 33t30 51.5t10.5 66v291h81v-510h-75zM138 618v58h328v-58h-328z" />
    <glyph glyph-name="Ubreve" unicode="&#x16c;" horiz-adv-x="674" 
d="M501 850q-8 -72 -53 -107.5t-110 -35.5q-64 0 -109 35.5t-54 107.5h59q8 -45 35.5 -64t68.5 -19t69.5 18.5t34.5 64.5h59zM515 667h81v-429q0 -62 -19 -108.5t-53 -78t-82 -47.5t-105 -16q-58 0 -106 16t-82 47.5t-52.5 78t-18.5 108.5v429h83v-427q0 -91 49 -135
t127 -44q84 0 131 44t47 135v427z" />
    <glyph glyph-name="ubreve" unicode="&#x16d;" horiz-adv-x="604" 
d="M440 0v103q-29 -60 -74 -87.5t-103 -27.5q-35 0 -66.5 9.5t-55.5 29.5t-38 51.5t-14 75.5v356h81v-335q0 -55 29 -86.5t89 -31.5q33 0 59.5 11.5t46 33t30 51.5t10.5 66v291h81v-510h-75zM466 729q-3 -42 -16 -73t-35 -51.5t-50.5 -30.5t-61.5 -10q-67 0 -112.5 40.5
t-51.5 124.5h59q5 -57 33.5 -81t71.5 -24q42 0 71.5 23.5t33.5 81.5h58z" />
    <glyph glyph-name="Uring" unicode="&#x16e;" horiz-adv-x="674" 
d="M397 743q0 26 -17 44t-43 18t-43.5 -18.5t-17.5 -43.5t17.5 -42.5t43.5 -17.5t43 17.5t17 42.5zM443 743q0 -22 -8.5 -41t-22.5 -33.5t-33 -22.5t-41 -8t-41.5 8t-34 22.5t-23 33.5t-8.5 41t8.5 42t23 34t34 22.5t41.5 8.5t41 -8.5t33 -22.5t22.5 -34t8.5 -42zM515 667
h81v-429q0 -62 -19 -108.5t-53 -78t-82 -47.5t-105 -16q-58 0 -106 16t-82 47.5t-52.5 78t-18.5 108.5v429h83v-427q0 -91 49 -135t127 -44q84 0 131 44t47 135v427z" />
    <glyph glyph-name="uring" unicode="&#x16f;" horiz-adv-x="604" 
d="M440 0v103q-29 -60 -74 -87.5t-103 -27.5q-35 0 -66.5 9.5t-55.5 29.5t-38 51.5t-14 75.5v356h81v-335q0 -55 29 -86.5t89 -31.5q33 0 59.5 11.5t46 33t30 51.5t10.5 66v291h81v-510h-75zM362 665q0 26 -17.5 43.5t-43.5 17.5q-24 0 -42.5 -17.5t-18.5 -43.5t18.5 -42.5
t42.5 -16.5q26 0 43.5 16.5t17.5 42.5zM303 560q-22 0 -41.5 8t-34 22.5t-23 33.5t-8.5 41t8.5 42t23 34t34 22.5t41.5 8.5t41 -8.5t33.5 -22.5t22.5 -34t8 -42q0 -45 -30 -75t-75 -30z" />
    <glyph glyph-name="Uhungarumlaut" unicode="&#x170;" horiz-adv-x="674" 
d="M212 707l86 143h98l-120 -143h-64zM377 707l85 143h97l-119 -143h-63zM515 667h81v-429q0 -62 -19 -108.5t-53 -78t-82 -47.5t-105 -16q-58 0 -106 16t-82 47.5t-52.5 78t-18.5 108.5v429h83v-427q0 -91 49 -135t127 -44q84 0 131 44t47 135v427z" />
    <glyph glyph-name="uhungarumlaut" unicode="&#x171;" horiz-adv-x="604" 
d="M440 0v103q-29 -60 -74 -87.5t-103 -27.5q-35 0 -66.5 9.5t-55.5 29.5t-38 51.5t-14 75.5v356h81v-335q0 -55 29 -86.5t89 -31.5q33 0 59.5 11.5t46 33t30 51.5t10.5 66v291h81v-510h-75zM336 564l99 165h97l-134 -165h-62zM171 564l99 165h97l-132 -165h-64z" />
    <glyph glyph-name="Uogonek" unicode="&#x172;" horiz-adv-x="674" 
d="M435 -198q-17 -7 -34.5 -11t-40.5 -4q-19 0 -37 4.5t-32 15t-22.5 26.5t-8.5 39q0 37 18 66t47 50q-56 1 -101.5 18t-77.5 48.5t-50 77.5t-18 106v429h83v-427q0 -91 49 -135t127 -44q84 0 131 44t47 135v427h81v-429q0 -98 -45.5 -158t-123.5 -80q-14 -6 -31.5 -16.5
t-32.5 -25.5t-25.5 -34t-10.5 -42q0 -26 18.5 -35.5t38.5 -9.5q13 0 26.5 3t24.5 8v-46z" />
    <glyph glyph-name="uogonek" unicode="&#x173;" horiz-adv-x="604" 
d="M515 -198q-17 -7 -35 -11t-41 -4q-40 0 -69 19.5t-29 65.5t28 80.5t71 54.5v96q-29 -60 -74 -87.5t-103 -27.5q-35 0 -66.5 9.5t-55.5 29.5t-38 51.5t-14 75.5v356h81v-335q0 -55 29 -86.5t89 -31.5q33 0 59.5 11.5t46 33t30 51.5t10.5 66v291h81v-515q-17 -4 -36.5 -13
t-35.5 -23.5t-26.5 -33.5t-10.5 -43q0 -26 17.5 -35.5t39.5 -9.5q13 0 27 3t25 8v-46z" />
    <glyph glyph-name="Wcircumflex" unicode="&#x174;" horiz-adv-x="971" 
d="M637 0l-152 557l-153 -557h-96l-215 667h90l177 -566l151 565h98l150 -564l178 565h85l-216 -667h-97zM570 707l-85 87l-85 -87h-61l108 143h75l110 -143h-62z" />
    <glyph glyph-name="wcircumflex" unicode="&#x175;" horiz-adv-x="794" 
d="M521 0l-122 415l-124 -415h-86l-168 510h87l128 -419l121 419h88l119 -419l127 419h83l-167 -510h-86zM482 564l-85 107l-85 -107h-61l109 165h74l111 -165h-63z" />
    <glyph glyph-name="Ycircumflex" unicode="&#x176;" horiz-adv-x="583" 
d="M378 707l-87 87l-84 -87h-62l110 143h73l111 -143h-61zM250 0v271l-246 396h90l199 -333l199 333h87l-246 -396v-271h-83z" />
    <glyph glyph-name="ycircumflex" unicode="&#x177;" horiz-adv-x="514" 
d="M125 -212l90 226l-194 496h85l149 -409l154 409h83l-289 -722h-78zM342 564l-87 107l-83 -107h-62l109 165h75l109 -165h-61z" />
    <glyph glyph-name="Ydieresis" unicode="&#x178;" horiz-adv-x="583" 
d="M347 727v104h85v-104h-85zM153 727v104h85v-104h-85zM250 0v271l-246 396h90l199 -333l199 333h87l-246 -396v-271h-83z" />
    <glyph glyph-name="Zacute" unicode="&#x179;" horiz-adv-x="587" 
d="M237 707l85 143h97l-119 -143h-63zM53 0v72l374 527h-359v68h452v-71l-375 -526h391v-70h-483z" />
    <glyph glyph-name="zacute" unicode="&#x17a;" horiz-adv-x="502" 
d="M56 0v59l286 388h-278v63h376v-58l-286 -389h293v-63h-391zM201 564l100 165h97l-134 -165h-63z" />
    <glyph glyph-name="Zdotaccent" unicode="&#x17b;" horiz-adv-x="587" 
d="M53 0v72l374 527h-359v68h452v-71l-375 -526h391v-70h-483zM247 725v108h93v-108h-93z" />
    <glyph glyph-name="zdotaccent" unicode="&#x17c;" horiz-adv-x="502" 
d="M56 0v59l286 388h-278v63h376v-58l-286 -389h293v-63h-391zM207 591v110h91v-110h-91z" />
    <glyph glyph-name="Zcaron" unicode="&#x17d;" horiz-adv-x="587" 
d="M53 0v72l374 527h-359v68h452v-71l-375 -526h391v-70h-483zM256 707l-109 143h61l85 -88l86 88h62l-111 -143h-74z" />
    <glyph glyph-name="zcaron" unicode="&#x17e;" horiz-adv-x="502" 
d="M215 564l-110 165h62l84 -106l87 106h61l-110 -165h-74zM56 0v59l286 388h-278v63h376v-58l-286 -389h293v-63h-391z" />
    <glyph glyph-name="florin" unicode="&#x192;" horiz-adv-x="518" 
d="M210 380h-113v58h124l29 156q11 56 43.5 89.5t100.5 33.5q18 0 42.5 -2t55.5 -8l-12 -53h-65q-36 0 -59 -13.5t-32 -60.5l-26 -142h148l-12 -58h-147l-83 -460q-11 -62 -44 -96t-97 -34q-16 0 -39.5 1.5t-50.5 7.5l12 56h53q19 0 33.5 3.5t25 12.5t18 25t12.5 42z" />
    <glyph glyph-name="Aringacute" unicode="&#x1fa;" horiz-adv-x="676" 
d="M559 0l-74 191h-298l-72 -191h-88l255 653q-23 14 -36.5 37t-13.5 52q0 41 25 70t62 36l33 60h94l-60 -70q26 -13 42 -38.5t16 -57.5q0 -29 -14 -52t-37 -37l256 -653h-90zM336 586l-124 -326h248zM397 742q0 26 -17 44t-43 18q-25 0 -42.5 -18t-17.5 -44q0 -25 17.5 -42
t42.5 -17q26 0 43 17t17 42z" />
    <glyph glyph-name="aringacute" unicode="&#x1fb;" horiz-adv-x="557" 
d="M539 -1q-18 -6 -35.5 -8.5t-29.5 -2.5q-48 0 -68.5 22.5t-20.5 81.5q-16 -30 -36.5 -50t-43 -32t-46.5 -17t-46 -5q-26 0 -55.5 6.5t-54 23t-40.5 44.5t-16 71q0 49 18 79.5t48.5 48t70.5 24t84 8.5l113 5v57q0 23 -5 42t-18 33t-36 22t-59 8q-20 0 -40 -4t-37.5 -14
t-29.5 -27.5t-15 -44.5l-76 7q3 41 23.5 69t49.5 44.5t62.5 23.5t62.5 7q53 0 90.5 -11.5t61.5 -31.5t35.5 -49t11.5 -63v-244q0 -40 6.5 -54.5t33.5 -14.5h37v-54zM305 764q29 -11 48 -37.5t19 -61.5q0 -22 -8.5 -41t-22.5 -33.5t-33 -22.5t-41 -8t-41.5 8t-34 22.5
t-23 33.5t-8.5 41q0 37 21 64.5t54 37.5l75 123h95zM381 243l-115 -4q-29 -1 -54 -6t-44 -16.5t-29.5 -31t-10.5 -48.5t12 -46t29 -25.5t36 -11t33 -2.5q27 0 52.5 10.5t46 30.5t32.5 50.5t12 70.5v29zM325 665q0 26 -16.5 43.5t-42.5 17.5t-43.5 -17.5t-17.5 -43.5
t17.5 -42.5t43.5 -16.5t42.5 16.5t16.5 42.5z" />
    <glyph glyph-name="AEacute" unicode="&#x1fc;" horiz-adv-x="926" 
d="M582 707l85 143h97l-118 -143h-64zM479 0v191h-259l-105 -191h-88l370 667h474v-70h-309v-223h291v-67h-291v-236h315v-71h-398zM479 597h-35l-188 -337h223v337z" />
    <glyph glyph-name="aeacute" unicode="&#x1fd;" horiz-adv-x="898" 
d="M407 564l100 165h98l-134 -165h-64zM832 141q-17 -72 -70 -112.5t-139 -40.5q-78 0 -132 33.5t-81 97.5q-30 -69 -82 -100t-115 -31q-27 0 -56 6.5t-53.5 23t-40.5 44.5t-16 71q0 49 18 79t48.5 47.5t70.5 24t84 8.5l113 5v58q0 23 -5 42t-18 33t-36 22t-59 8
q-20 0 -40 -4t-37.5 -14t-29.5 -27.5t-15 -44.5l-76 7q3 41 23.5 69t49.5 44.5t62.5 23.5t62.5 7q75 0 118 -24t58 -65q31 43 77.5 66t106.5 23q107 0 161.5 -65.5t54.5 -182.5l-2 -38h-372q4 -88 43.5 -135t112.5 -47q58 0 90 23t43 65h78zM381 242l-115 -4q-29 -1 -54 -6
t-44 -16.5t-29.5 -30.5t-10.5 -48t12 -46t29 -25.5t36 -11t33 -2.5q27 0 52.5 10.5t46 30.5t32.5 50.5t12 70.5v28zM755 295q-3 76 -33 119t-101 43q-69 0 -108 -42t-47 -120h289z" />
    <glyph glyph-name="Oslashacute" unicode="&#x1fe;" horiz-adv-x="736" 
d="M91 -86l82 135q-56 45 -86 116t-30 168q0 80 21.5 144t62 108.5t97.5 68t129 23.5q47 0 87 -10t74 -29l69 114h49l-83 -137q56 -45 86 -116t30 -166q0 -81 -21.5 -145t-62 -108.5t-98.5 -68t-130 -23.5q-92 0 -160 38l-67 -112h-49zM489 574q-50 32 -122 32
q-111 0 -167.5 -72.5t-56.5 -200.5q0 -146 70 -216zM246 90q49 -30 121 -30q112 0 169 72t57 201q0 71 -18 125.5t-53 89.5zM308 706l89 149h97l-122 -149h-64z" />
    <glyph glyph-name="oslashacute" unicode="&#x1ff;" 
d="M68 -67l64 107q-39 34 -60.5 88t-21.5 126q0 63 16.5 112.5t47 84t74.5 52.5t99 18q70 0 123 -31l53 88h43l-66 -109q41 -34 62.5 -88.5t21.5 -126.5q0 -62 -16.5 -111.5t-47.5 -84t-74.5 -52.5t-98.5 -18q-70 0 -124 31l-51 -86h-44zM223 564l99 165h97l-133 -165h-63z
M200 78q34 -25 87 -25q77 0 115.5 52t38.5 149t-42 148zM373 432q-34 25 -86 25q-77 0 -115.5 -53t-38.5 -150q0 -48 10 -84.5t31 -61.5z" />
    <glyph glyph-name="uni0218" unicode="&#x218;" horiz-adv-x="593" 
d="M241 -221l24 168h77l-41 -168h-60zM461 483q-3 41 -19 66.5t-40 39t-52 18t-53 4.5q-28 0 -54.5 -6t-47.5 -18.5t-33.5 -33t-12.5 -49.5q0 -47 29.5 -71.5t74 -39.5t96.5 -27t96.5 -32.5t74 -56.5t29.5 -99q0 -41 -16.5 -76t-48.5 -60.5t-79.5 -39.5t-109.5 -14
q-17 0 -41.5 2.5t-52 10t-55 21.5t-50 37t-37.5 56.5t-17 80.5h84q1 -40 16.5 -67t40 -43t55.5 -23t63 -7q34 0 64 6t52 20t34.5 35.5t12.5 53.5q0 36 -17 58t-45.5 37t-64.5 24.5t-73.5 19t-73 22.5t-64 34t-45.5 53t-17 80q0 47 20.5 80.5t54.5 55.5t77 32t87 10
q30 0 70 -6.5t77 -27t64 -59t30 -101.5h-83z" />
    <glyph glyph-name="uni0219" unicode="&#x219;" horiz-adv-x="493" 
d="M183 -221l25 168h77l-42 -168h-60zM365 371q-3 29 -14 47.5t-27 28.5t-35.5 13.5t-39.5 3.5q-21 0 -41 -3.5t-35 -12t-24 -23t-9 -35.5q0 -35 22.5 -53.5t57 -30t74 -21t74 -26t57 -45.5t22.5 -79q0 -67 -53.5 -107t-149.5 -40q-22 0 -54.5 4.5t-63 20.5t-54.5 46t-28 80
h77q3 -26 14.5 -43t29 -27.5t38.5 -15t43 -4.5q55 0 88.5 18t33.5 63q0 35 -22.5 54t-57 30.5t-74 21t-74 26t-57 44.5t-22.5 77q0 36 16.5 62t43 43t59.5 25t67 8q26 0 58 -5t60.5 -20t49.5 -43.5t26 -76.5z" />
    <glyph glyph-name="uni021A" unicode="&#x21a;" horiz-adv-x="559" 
d="M216 -221l25 168h77l-42 -168h-60zM238 0v598h-220v69h523v-69h-220v-598h-83z" />
    <glyph glyph-name="uni021B" unicode="&#x21b;" horiz-adv-x="336" 
d="M144 -221l25 168h77l-42 -168h-60zM310 -2q-14 -5 -33 -7.5t-24 -2.5q-53 0 -83 13.5t-46 38t-20 58.5t-4 75v271h-79v62h79v137h81v-137h129v-62h-129v-269q0 -31 3 -53t11.5 -36.5t24 -21t41.5 -6.5h49v-60z" />
    <glyph glyph-name="circumflex" unicode="&#x2c6;" horiz-adv-x="423" 
d="M297 564l-87 107l-84 -107h-61l109 165h75l109 -165h-61z" />
    <glyph glyph-name="caron" unicode="&#x2c7;" horiz-adv-x="423" 
d="M174 564l-109 165h61l84 -106l87 106h61l-109 -165h-75z" />
    <glyph glyph-name="breve" unicode="&#x2d8;" horiz-adv-x="457" 
d="M393 729q-3 -42 -16.5 -73t-35 -51.5t-50.5 -30.5t-62 -10t-62 10t-50.5 30.5t-35 51.5t-16.5 73h58q5 -57 33.5 -81t72.5 -24q43 0 71.5 23.5t33.5 81.5h59z" />
    <glyph glyph-name="dotaccent" unicode="&#x2d9;" horiz-adv-x="221" 
d="M65 591v110h92v-110h-92z" />
    <glyph glyph-name="ring" unicode="&#x2da;" horiz-adv-x="342" 
d="M231 665q0 26 -17.5 43.5t-43.5 17.5q-25 0 -42.5 -17.5t-17.5 -43.5t17.5 -42.5t42.5 -16.5q26 0 43.5 16.5t17.5 42.5zM278 665q0 -22 -8.5 -41t-23 -33.5t-33.5 -22.5t-41 -8q-23 0 -42.5 8t-33.5 22.5t-22.5 33.5t-8.5 41t8.5 42t22.5 34t33.5 22.5t42.5 8.5
q22 0 41 -8.5t33.5 -22.5t23 -34t8.5 -42z" />
    <glyph glyph-name="ogonek" unicode="&#x2db;" horiz-adv-x="304" 
d="M240 -198q-17 -7 -35.5 -11t-41.5 -4q-39 0 -68.5 19.5t-29.5 65.5q0 32 14.5 58.5t39 47t56 34t65.5 19.5v-36q-17 -4 -36.5 -13t-35.5 -23.5t-26.5 -33.5t-10.5 -43q0 -26 17.5 -35.5t39.5 -9.5q13 0 26 3t26 8v-46z" />
    <glyph glyph-name="tilde" unicode="&#x2dc;" horiz-adv-x="465" 
d="M400 699q0 -17 -4 -35.5t-14.5 -33.5t-27.5 -24.5t-43 -9.5q-21 0 -42 7t-41 15.5t-38 15.5t-33 7q-19 0 -30 -8.5t-11 -36.5h-51q0 17 4 35t14 33t27 25t43 10q21 0 42 -7t41 -15.5t38 -15.5t33 -7q19 0 30.5 8.5t11.5 36.5h51z" />
    <glyph glyph-name="hungarumlaut" unicode="&#x2dd;" horiz-adv-x="490" 
d="M229 564l99 165h97l-133 -165h-63zM65 564l99 165h98l-134 -165h-63z" />
    <glyph glyph-name="pi" unicode="&#x3c0;" horiz-adv-x="724" 
d="M643 -2q-12 -5 -28 -7.5t-23 -2.5q-39 0 -61.5 13t-33.5 36t-14 55t-3 71v275h-237v-438h-81v438h-82v65h563v-65h-82v-275q0 -57 9.5 -82.5t39.5 -25.5h33v-57z" />
    <glyph glyph-name="Wgrave" unicode="&#x1e80;" horiz-adv-x="971" 
d="M637 0l-152 557l-153 -557h-96l-215 667h90l177 -566l151 565h98l150 -564l178 565h85l-216 -667h-97zM465 722l-130 160h96l96 -160h-62z" />
    <glyph glyph-name="wgrave" unicode="&#x1e81;" horiz-adv-x="794" 
d="M521 0l-122 415l-124 -415h-86l-168 510h87l128 -419l121 419h88l119 -419l127 419h83l-167 -510h-86zM376 564l-133 165h96l101 -165h-64z" />
    <glyph glyph-name="Wacute" unicode="&#x1e82;" horiz-adv-x="971" 
d="M637 0l-152 557l-153 -557h-96l-215 667h90l177 -566l151 565h98l150 -564l178 565h85l-216 -667h-97zM445 722l96 160h97l-130 -160h-63z" />
    <glyph glyph-name="wacute" unicode="&#x1e83;" horiz-adv-x="794" 
d="M521 0l-122 415l-124 -415h-86l-168 510h87l128 -419l121 419h88l119 -419l127 419h83l-167 -510h-86zM356 564l99 165h97l-133 -165h-63z" />
    <glyph glyph-name="Wdieresis" unicode="&#x1e84;" horiz-adv-x="971" 
d="M637 0l-152 557l-153 -557h-96l-215 667h90l177 -566l151 565h98l150 -564l178 565h85l-216 -667h-97zM539 727v104h86v-104h-86zM345 727v104h87v-104h-87z" />
    <glyph glyph-name="wdieresis" unicode="&#x1e85;" horiz-adv-x="794" 
d="M521 0l-122 415l-124 -415h-86l-168 510h87l128 -419l121 419h88l119 -419l127 419h83l-167 -510h-86zM452 595v103h86v-103h-86zM258 595v103h86v-103h-86z" />
    <glyph glyph-name="Ygrave" unicode="&#x1ef2;" horiz-adv-x="583" 
d="M277 722l-130 160h97l96 -160h-63zM250 0v271l-246 396h90l199 -333l199 333h87l-246 -396v-271h-83z" />
    <glyph glyph-name="ygrave" unicode="&#x1ef3;" horiz-adv-x="514" 
d="M125 -212l90 226l-194 496h85l149 -409l154 409h83l-289 -722h-78zM231 564l-134 165h97l100 -165h-63z" />
    <glyph glyph-name="endash" unicode="&#x2013;" horiz-adv-x="720" 
d="M86 233v61h548v-61h-548z" />
    <glyph glyph-name="emdash" unicode="&#x2014;" horiz-adv-x="947" 
d="M86 233v61h775v-61h-775z" />
    <glyph glyph-name="quoteleft" unicode="&#x2018;" horiz-adv-x="177" 
d="M47 464q0 31 1 59.5t4.5 60t11.5 68t22 84.5h44v-272h-83z" />
    <glyph glyph-name="quoteright" unicode="&#x2019;" horiz-adv-x="177" 
d="M47 464v272h83q0 -31 -1 -59.5t-4.5 -60t-11.5 -68t-22 -84.5h-44z" />
    <glyph glyph-name="quotesinglbase" unicode="&#x201a;" horiz-adv-x="177" 
d="M47 -145v274h83q0 -31 -0.5 -60t-4.5 -60.5t-11.5 -68.5t-21.5 -85h-45z" />
    <glyph glyph-name="quotedblleft" unicode="&#x201c;" horiz-adv-x="350" 
d="M221 464q0 31 0.5 59.5t4.5 60t11.5 68t21.5 84.5h44v-272h-82zM47 464q0 31 1 59.5t4.5 60t11.5 68t22 84.5h44v-272h-83z" />
    <glyph glyph-name="quotedblright" unicode="&#x201d;" horiz-adv-x="350" 
d="M47 464v272h83q0 -31 -1 -59.5t-4.5 -60t-11.5 -68t-22 -84.5h-44zM221 464v272h82q0 -31 -1 -59.5t-4.5 -60t-11.5 -68t-22 -84.5h-43z" />
    <glyph glyph-name="quotedblbase" unicode="&#x201e;" horiz-adv-x="352" 
d="M47 -145v274h83q0 -31 -0.5 -60t-4.5 -60.5t-11.5 -68.5t-21.5 -85h-45zM221 -145v274h84q0 -31 -1 -60t-5 -60.5t-12 -68.5t-22 -85h-44z" />
    <glyph glyph-name="dagger" unicode="&#x2020;" horiz-adv-x="639" 
d="M282 -206v685h-199v70h199v208h75v-208h199v-70h-199v-685h-75z" />
    <glyph glyph-name="daggerdbl" unicode="&#x2021;" horiz-adv-x="655" 
d="M290 -206v401h-207v70h207v214h-199v70h199v208h75v-208h199v-70h-199v-214h207v-70h-207v-401h-75z" />
    <glyph glyph-name="bullet" unicode="&#x2022;" horiz-adv-x="367" 
d="M306 263q0 -25 -9.5 -47t-26 -38.5t-39 -26t-47.5 -9.5t-47 9.5t-39 26t-27 38.5t-10 47t10 47.5t27 39.5t39 26.5t47 9.5t47.5 -9.5t39 -26.5t26 -39.5t9.5 -47.5z" />
    <glyph glyph-name="ellipsis" unicode="&#x2026;" horiz-adv-x="706" 
d="M50 0v135h84v-135h-84zM310 0v135h85v-135h-85zM571 0v135h85v-135h-85z" />
    <glyph glyph-name="perthousand" unicode="&#x2030;" horiz-adv-x="1235" 
d="M1034 0q-73 0 -114 43t-41 115t41 115t114 43q74 0 114.5 -43t40.5 -115t-40.5 -115t-114.5 -43zM1034 52q43 0 64.5 27.5t21.5 78.5t-21.5 80t-64.5 29q-42 0 -64 -29t-22 -80t22 -78.5t64 -27.5zM200 350q-73 0 -114 43.5t-41 115.5q0 71 41 114.5t114 43.5
q75 0 115 -43.5t40 -114.5q0 -72 -40 -115.5t-115 -43.5zM200 401q43 0 64.5 28.5t21.5 79.5t-21.5 79t-64.5 28q-42 0 -63.5 -28t-21.5 -79t21.5 -79.5t63.5 -28.5zM210 0l391 694h59l-392 -694h-58zM654 0q-74 0 -114.5 43t-40.5 115t40.5 115t114.5 43t114.5 -43
t40.5 -115t-40.5 -115t-114.5 -43zM654 52q43 0 64.5 27.5t21.5 78.5t-21.5 80t-64.5 29q-42 0 -64 -29t-22 -80t22 -78.5t64 -27.5z" />
    <glyph glyph-name="guilsinglleft" unicode="&#x2039;" horiz-adv-x="351" 
d="M210 77l-161 186l162 189h82l-160 -190l159 -185h-82z" />
    <glyph glyph-name="guilsinglright" unicode="&#x203a;" horiz-adv-x="351" 
d="M58 77l159 185l-160 190h83l162 -189l-161 -186h-83z" />
    <glyph glyph-name="fraction" unicode="&#x2044;" horiz-adv-x="566" 
d="M35 0l421 750h75l-421 -750h-75z" />
    <glyph glyph-name="Euro" unicode="&#x20ac;" horiz-adv-x="724" 
d="M670 222q-18 -112 -85 -173t-176 -61q-115 0 -188 64t-95 182h-108v51h102q-2 11 -2 23v25q0 11 0.5 22.5t1.5 22.5h-102v50h108q11 58 36 104.5t61 78.5t83 49t103 17q112 0 178 -61t82 -170h-86q-9 77 -53 118.5t-121 41.5q-81 0 -131.5 -46.5t-67.5 -131.5h309l-6 -50
h-310q-1 -11 -1 -22.5v-22.5v-25t2 -23h299l-6 -51h-286q18 -84 68 -129t130 -45q78 0 121.5 41t51.5 121h88z" />
    <glyph glyph-name="uni2113" unicode="&#x2113;" horiz-adv-x="336" 
d="M310 -2q-14 -5 -33 -7.5t-24 -2.5q-53 0 -83 13.5t-46 38.5t-20 59t-4 76v514h81v-513q0 -31 3 -53t11.5 -36.5t24 -21t41.5 -6.5h49v-61z" />
    <glyph glyph-name="trademark" unicode="&#x2122;" horiz-adv-x="746" 
d="M639 380v273l-107 -273h-47l-107 273v-273h-51v325h77l105 -276l106 276h79v-325h-55zM128 380v281h-105v44h270v-44h-106v-281h-59z" />
    <glyph glyph-name="Omega" unicode="&#x2126;" horiz-adv-x="788" 
d="M459 0v66q35 18 66 48t54 68t36.5 84t13.5 97q0 55 -16 102.5t-46 82t-72.5 54t-96.5 19.5q-55 0 -99.5 -19.5t-75.5 -54t-47.5 -82t-16.5 -102.5q0 -51 13.5 -97t36.5 -84t54 -68t67 -48v-66h-276v70h169q-33 23 -61 54.5t-47.5 70t-30.5 81.5t-11 89q0 73 24 133
t66.5 102.5t102.5 65.5t132 23q71 0 129.5 -23t100.5 -65.5t65 -102.5t23 -133q0 -45 -11.5 -88.5t-31.5 -81.5t-48 -70t-61 -55h171v-70h-276z" />
    <glyph glyph-name="estimated" unicode="&#x212e;" horiz-adv-x="809" 
d="M694 144q-47 -70 -122.5 -112.5t-166.5 -42.5q-72 0 -135.5 27t-110.5 74.5t-74.5 110.5t-27.5 135t27.5 135.5t74.5 110.5t110.5 74.5t135.5 27.5t135 -27t110.5 -74.5t74.5 -110.5t27 -135v-5.5t-1 -9.5h-600v-181q44 -57 110 -90.5t144 -33.5q84 0 153 39t111 104z
M658 532q-44 57 -109.5 90.5t-143.5 33.5t-144 -34t-110 -91v-181h507v182z" />
    <glyph glyph-name="onethird" unicode="&#x2153;" horiz-adv-x="874" 
d="M190 0l383 667h54l-384 -667h-53zM184 282v326l-112 -52v58l112 53h66v-385h-66zM611 178v43h44q41 0 65 16t24 51q0 26 -19 40.5t-53 14.5q-14 0 -27.5 -3t-24.5 -11t-18 -22.5t-7 -38.5h-66q0 37 14.5 60.5t36.5 37t46.5 19t45.5 5.5q61 0 98.5 -26t37.5 -71
q0 -75 -73 -90q33 -4 59 -27.5t26 -69.5q0 -50 -40.5 -81t-107.5 -31q-24 0 -50 5.5t-47.5 19.5t-35.5 38t-14 60h66q0 -22 6.5 -36.5t17.5 -23t25.5 -12t31.5 -3.5q39 0 60.5 17t21.5 51q0 38 -27.5 53t-71.5 15h-44z" />
    <glyph glyph-name="twothirds" unicode="&#x2154;" horiz-adv-x="941" 
d="M257 0l383 667h54l-383 -667h-54zM62 283v38q36 30 74 57.5t69.5 55t52 57t20.5 64.5q0 31 -16 50.5t-54 19.5q-14 0 -28 -2.5t-25.5 -11t-19 -23t-7.5 -38.5h-65q0 37 15 61t36.5 37.5t47 19t46.5 5.5q69 0 103 -34t34 -84q0 -35 -18.5 -66.5t-46 -59t-59 -51
t-56.5 -44.5h184v-51h-287zM679 178v43h43q42 0 66 16t24 51q0 26 -19.5 40.5t-54.5 14.5q-14 0 -27.5 -3t-24 -11t-17.5 -22.5t-7 -38.5h-65q0 37 14.5 60.5t36 37t46 19t44.5 5.5q62 0 99.5 -26t37.5 -71q0 -75 -73 -90q34 -4 59 -27.5t25 -69.5q0 -50 -40 -81t-106 -31
q-25 0 -51 5.5t-47.5 19.5t-35 38t-13.5 60h65q0 -22 6.5 -36.5t17.5 -23t26 -12t32 -3.5q38 0 60 17t22 51q0 38 -28 53t-71 15h-44z" />
    <glyph glyph-name="oneeighth" unicode="&#x215b;" horiz-adv-x="855" 
d="M190 0l383 667h54l-384 -667h-53zM184 282v326l-112 -52v58l112 53h66v-385h-66zM723 203q39 -8 63.5 -34t24.5 -67q0 -46 -39.5 -77t-108.5 -31q-68 0 -108 31t-40 77q0 41 25.5 67t63.5 34q-42 8 -60 33t-18 55q0 42 37.5 70.5t99.5 28.5q63 0 100.5 -28.5t37.5 -70.5
q0 -30 -18 -55t-60 -33zM746 104q0 38 -22.5 57t-60.5 19t-60 -19t-22 -57q0 -30 21 -49.5t61 -19.5t61.5 19.5t21.5 49.5zM737 288q0 27 -17.5 44.5t-55.5 17.5t-56 -17.5t-18 -44.5t18 -45t56 -18t55.5 18t17.5 45z" />
    <glyph glyph-name="threeeighths" unicode="&#x215c;" horiz-adv-x="904" 
d="M239 0l384 667h53l-382 -667h-55zM148 461v43h42q42 0 66.5 16t24.5 51q0 26 -19.5 40.5t-54.5 14.5q-14 0 -27.5 -3t-24.5 -11t-17.5 -22.5t-6.5 -38.5h-65q0 37 14.5 60.5t36 37t46 19t44.5 5.5q61 0 99 -26t38 -71q0 -75 -73 -90q34 -4 59 -27.5t25 -69.5
q0 -50 -39.5 -81t-106.5 -31q-25 0 -51 5.5t-47.5 19.5t-35 38t-13.5 60h65q0 -22 6.5 -36.5t17.5 -23t26 -12t32 -3.5q38 0 60 17t22 51q0 38 -28 53t-73 15h-42zM772 203q39 -8 63.5 -34t24.5 -67q0 -46 -39.5 -77t-107.5 -31q-69 0 -108.5 31t-39.5 77q0 41 25 67t63 34
q-41 8 -59 33t-18 55q0 42 37 70.5t100 28.5q62 0 99.5 -28.5t37.5 -70.5q0 -30 -18 -55t-60 -33zM795 104q0 38 -22 57t-60 19t-60 -19t-22 -57q0 -30 21.5 -49.5t60.5 -19.5q40 0 61 19.5t21 49.5zM787 288q0 27 -18 44.5t-56 17.5t-56 -17.5t-18 -44.5t18 -45t56 -18
t56 18t18 45z" />
    <glyph glyph-name="fiveeighths" unicode="&#x215d;" horiz-adv-x="902" 
d="M237 0l384 667h53l-383 -667h-54zM142 617l-10 -111q23 17 46.5 22.5t44.5 5.5q62 0 93.5 -36t31.5 -94q0 -27 -10 -50t-29.5 -40.5t-47 -27.5t-62.5 -10q-24 0 -49.5 5.5t-46.5 19.5t-34 38t-13 60h63q0 -43 23.5 -59t55.5 -16q42 0 63.5 22t21.5 58q0 39 -19 64t-57 25
q-21 0 -40.5 -7.5t-40.5 -29.5l-53 3l16 208h233v-50h-180zM770 203q38 -8 63 -34t25 -67q0 -46 -39.5 -77t-107.5 -31q-69 0 -108.5 31t-39.5 77q0 41 25 67t63 34q-42 8 -59.5 33t-17.5 55q0 42 37 70.5t100 28.5q62 0 99 -28.5t37 -70.5q0 -30 -17.5 -55t-59.5 -33z
M793 104q0 38 -22 57t-60 19t-60.5 -19t-22.5 -57q0 -30 21.5 -49.5t61.5 -19.5t61 19.5t21 49.5zM784 288q0 27 -17.5 44.5t-55.5 17.5t-56 -17.5t-18 -44.5t18 -45t56 -18t55.5 18t17.5 45z" />
    <glyph glyph-name="seveneighths" unicode="&#x215e;" horiz-adv-x="812" 
d="M146 0l384 667h54l-383 -667h-55zM87 282q28 85 71 167t97 167h-205v51h278v-43q-56 -80 -101 -167.5t-72 -174.5h-68zM679 203q39 -8 64 -34t25 -67q0 -46 -40 -77t-108 -31q-69 0 -108 31t-39 77q0 41 24.5 67t62.5 34q-41 8 -58.5 33t-17.5 55q0 42 36.5 70.5
t99.5 28.5q62 0 99.5 -28.5t37.5 -70.5q0 -30 -18 -55t-60 -33zM702 104q0 38 -22 57t-60 19t-60.5 -19t-22.5 -57q0 -30 21.5 -49.5t61.5 -19.5t61 19.5t21 49.5zM694 288q0 27 -18 44.5t-56 17.5t-56 -17.5t-18 -44.5t18 -45t56 -18t56 18t18 45z" />
    <glyph glyph-name="partialdiff" unicode="&#x2202;" horiz-adv-x="597" 
d="M73 599q8 50 33 80.5t56 47t63 22t54 5.5q65 0 112.5 -28t78 -74.5t45.5 -107t15 -125.5q0 -77 -18.5 -153.5t-54.5 -138.5t-88.5 -100.5t-121.5 -38.5q-91 0 -143 51t-52 146q0 57 19 102t50 76t71.5 47.5t83.5 16.5q63 0 105.5 -30t62.5 -72q10 43 10 102q0 46 -9 92.5
t-29 84.5t-53.5 62t-82.5 24q-23 0 -45.5 -4t-41 -15t-31.5 -30t-18 -48zM425 254q-8 23 -20 42.5t-29.5 34t-41.5 23t-55 8.5q-37 0 -65.5 -14t-47.5 -37.5t-29 -55t-10 -67.5q0 -38 9.5 -64t25.5 -42t38 -23t46 -7q38 0 68.5 19.5t53.5 49.5t37.5 65.5t19.5 67.5z" />
    <glyph glyph-name="Delta" unicode="&#x2206;" horiz-adv-x="728" 
d="M37 0l282 667h90l283 -667h-655zM365 588l-215 -513h422z" />
    <glyph glyph-name="product" unicode="&#x220f;" horiz-adv-x="720" 
d="M552 0v629h-384v-629h-82v705h548v-705h-82z" />
    <glyph glyph-name="summation" unicode="&#x2211;" horiz-adv-x="595" 
d="M31 -67v73l241 312l-241 314v73h549v-73h-451l242 -315l-243 -311h452v-73h-549z" />
    <glyph glyph-name="minus" unicode="&#x2212;" horiz-adv-x="598" 
d="M76 231v66h446v-66h-446z" />
    <glyph glyph-name="radical" unicode="&#x221a;" horiz-adv-x="691" 
d="M332 0l-191 453h-94v53h160l174 -425l195 699h69l-218 -780h-95z" />
    <glyph glyph-name="infinity" unicode="&#x221e;" horiz-adv-x="807" 
d="M404 208q-16 -23 -36.5 -41t-42.5 -30.5t-44.5 -19t-43.5 -6.5q-26 0 -55 7t-53.5 24.5t-41 47.5t-16.5 75t16.5 74t41 46t53.5 24t55 7q21 0 43.5 -6.5t44.5 -19t42.5 -30.5t36.5 -40q32 45 77.5 70.5t89.5 25.5q25 0 54 -7t54 -24t41 -46t16 -74t-16 -75t-41 -47.5
t-54 -24.5t-54 -7q-44 0 -89.5 25.5t-77.5 71.5zM435 265q16 -38 51.5 -66t80.5 -28q20 0 39 5t34 16t24.5 29t9.5 44t-9.5 43.5t-24.5 28.5t-34.5 15.5t-38.5 4.5q-45 0 -80.5 -27t-51.5 -65zM373 265q-17 38 -52 65t-80 27q-20 0 -39.5 -4.5t-34.5 -15.5t-24.5 -28.5
t-9.5 -43.5t9.5 -44t24.5 -29t34.5 -16t39.5 -5q45 0 80 28t52 66z" />
    <glyph glyph-name="integral" unicode="&#x222b;" horiz-adv-x="208" 
d="M-21 -138h68q54 0 71 28.5t3 86.5l-131 539q-22 90 15 135.5t124 45.5q16 0 37 -1.5t46 -3.5v-59h-64q-55 0 -74.5 -25.5t-3.5 -90.5l129 -534q21 -88 -18.5 -137t-122.5 -49q-11 0 -35 1.5t-44 3.5v60z" />
    <glyph glyph-name="approxequal" unicode="&#x2248;" horiz-adv-x="599" 
d="M523 346q-27 -26 -55.5 -34t-60.5 -8q-27 0 -56.5 8.5t-58 18.5t-54 18.5t-45.5 8.5q-30 0 -61 -9t-56 -39v74q25 26 54.5 34t63.5 8q28 0 57 -8.5t56.5 -19t53 -19t46.5 -8.5q30 0 60 9.5t56 39.5v-74zM523 144q-26 -26 -55 -34t-62 -8q-27 0 -56.5 8.5t-58 18.5
t-54 18.5t-45.5 8.5q-29 0 -59.5 -9t-56.5 -39v76q26 26 55.5 34t61.5 8q28 0 57 -8.5t56.5 -19t53 -19t46.5 -8.5q30 0 61 9.5t56 39.5v-76z" />
    <glyph glyph-name="notequal" unicode="&#x2260;" horiz-adv-x="610" 
d="M262 203l-117 -203h-65l118 203h-117v71h157l75 131h-232v68h272l112 194h63l-112 -194h114v-68h-153l-74 -131h227v-71h-268z" />
    <glyph glyph-name="lessequal" unicode="&#x2264;" horiz-adv-x="570" 
d="M76 326v74l418 205v-78l-337 -163l337 -165v-77zM76 0v71h418v-71h-418z" />
    <glyph glyph-name="greaterequal" unicode="&#x2265;" horiz-adv-x="570" 
d="M76 122v77l337 165l-337 163v78l418 -205v-74zM76 0v71h418v-71h-418z" />
    <glyph glyph-name="lozenge" unicode="&#x25ca;" horiz-adv-x="618" 
d="M270 0l-189 333l189 334h77l190 -334l-190 -333h-77zM461 332l-152 266l-152 -265l152 -264z" />
    <glyph glyph-name="circle" unicode="&#x25cb;" horiz-adv-x="515" 
d="M460 332q0 -42 -16 -79t-43.5 -64t-64.5 -43t-79 -16t-79 16t-64 43t-43 64t-16 79t16 79t43 64.5t64 43.5t79 16t79 -16t64.5 -43.5t43.5 -64.5t16 -79z" />
    <glyph glyph-name="diamond" unicode="&#x2666;" horiz-adv-x="524" 
d="M261 120l-211 212l211 213l214 -213z" />
    <glyph glyph-name="uniE000" unicode="&#xe000;" horiz-adv-x="926" 
d="M470 750v58h328v-58h-328zM479 0v191h-259l-105 -191h-88l370 667h474v-70h-309v-223h291v-67h-291v-236h315v-71h-398zM479 597h-35l-188 -337h223v337z" />
    <glyph glyph-name="uniE001" unicode="&#xe001;" horiz-adv-x="255" 
d="M86 0v667h83v-667h-83z" />
    <glyph glyph-name="uniE002" unicode="&#xe002;" horiz-adv-x="664" 
d="M658 222q-18 -112 -85 -173t-176 -61q-115 0 -188 64t-95 182h-108v51h102q-2 11 -2 23v25q0 11 0.5 22.5t1.5 22.5h-102v50h108q11 58 36 104.5t61 78.5t83 49t103 17q112 0 178 -61t82 -170h-86q-9 77 -53 118.5t-121 41.5q-81 0 -131.5 -46.5t-67.5 -131.5h309l-6 -50
h-310q-1 -11 -1 -22.5v-22.5v-25t2 -23h299l-6 -51h-286q18 -84 68 -129t130 -45q78 0 121.5 41t51.5 121h88z" />
    <glyph glyph-name="uniE003" unicode="&#xe003;" horiz-adv-x="595" 
d="M435 0l-4 103q-29 -63 -75.5 -89t-99.5 -26q-42 0 -79 15.5t-65.5 47.5t-45 82.5t-16.5 120.5q0 71 16.5 121.5t44.5 83t65.5 47.5t79.5 15q56 0 100.5 -26t74.5 -86v101h75v-510h-71zM274 53q70 0 111 46.5t41 154.5q0 109 -41 156t-111 47q-30 0 -56 -12t-44.5 -36.5
t-29.5 -63t-11 -91.5t11 -91t29.5 -62.5t44.5 -36t56 -11.5z" />
    <glyph glyph-name="uniE004" unicode="&#xe004;" horiz-adv-x="557" 
d="M195 564l99 165h97l-133 -165h-63zM435 0l-4 103q-29 -63 -75.5 -89t-99.5 -26q-42 0 -79 15.5t-65.5 47.5t-45 82.5t-16.5 120.5q0 71 16.5 121.5t44.5 83t65.5 47.5t79.5 15q56 0 100.5 -26t74.5 -86v101h75v-510h-71zM274 53q70 0 111 46.5t41 154.5q0 109 -41 156
t-111 47q-30 0 -56 -12t-44.5 -36.5t-29.5 -63t-11 -91.5t11 -91t29.5 -62.5t44.5 -36t56 -11.5z" />
    <glyph glyph-name="uniE005" unicode="&#xe005;" horiz-adv-x="557" 
d="M441 729q-3 -42 -16 -73t-35 -51.5t-50.5 -30.5t-61.5 -10t-62 10t-51 30.5t-35 51.5t-16 73h59q5 -57 33.5 -81t71.5 -24q42 0 71 23.5t34 81.5h58zM435 0l-4 103q-29 -63 -75.5 -89t-99.5 -26q-42 0 -79 15.5t-65.5 47.5t-45 82.5t-16.5 120.5q0 71 16.5 121.5t44.5 83
t65.5 47.5t79.5 15q56 0 100.5 -26t74.5 -86v101h75v-510h-71zM274 53q70 0 111 46.5t41 154.5q0 109 -41 156t-111 47q-30 0 -56 -12t-44.5 -36.5t-29.5 -63t-11 -91.5t11 -91t29.5 -62.5t44.5 -36t56 -11.5z" />
    <glyph glyph-name="uniE006" unicode="&#xe006;" horiz-adv-x="557" 
d="M354 564l-85 107l-85 -107h-61l110 165h73l111 -165h-63zM435 0l-4 103q-29 -63 -75.5 -89t-99.5 -26q-42 0 -79 15.5t-65.5 47.5t-45 82.5t-16.5 120.5q0 71 16.5 121.5t44.5 83t65.5 47.5t79.5 15q56 0 100.5 -26t74.5 -86v101h75v-510h-71zM274 53q70 0 111 46.5
t41 154.5q0 109 -41 156t-111 47q-30 0 -56 -12t-44.5 -36.5t-29.5 -63t-11 -91.5t11 -91t29.5 -62.5t44.5 -36t56 -11.5z" />
    <glyph glyph-name="uniE007" unicode="&#xe007;" horiz-adv-x="312" 
d="M65 707l86 143h97l-120 -143h-63z" />
    <glyph glyph-name="uniE008" unicode="&#xe008;" horiz-adv-x="557" 
d="M333 595v103h85v-103h-85zM138 595v103h86v-103h-86zM435 0l-4 103q-29 -63 -75.5 -89t-99.5 -26q-42 0 -79 15.5t-65.5 47.5t-45 82.5t-16.5 120.5q0 71 16.5 121.5t44.5 83t65.5 47.5t79.5 15q56 0 100.5 -26t74.5 -86v101h75v-510h-71zM274 53q70 0 111 46.5t41 154.5
q0 109 -41 156t-111 47q-30 0 -56 -12t-44.5 -36.5t-29.5 -63t-11 -91.5t11 -91t29.5 -62.5t44.5 -36t56 -11.5z" />
    <glyph glyph-name="uniE009" unicode="&#xe009;" horiz-adv-x="898" 
d="M278 618v58h328v-58h-328zM832 141q-17 -72 -70 -112.5t-139 -40.5q-78 0 -132 33.5t-81 97.5q-30 -69 -82 -100t-115 -31q-27 0 -56 6.5t-53.5 23t-40.5 44.5t-16 71q0 49 18 79t48.5 47.5t70.5 24t84 8.5l113 5v58q0 23 -5 42t-18 33t-36 22t-59 8q-20 0 -40 -4
t-37.5 -14t-29.5 -27.5t-15 -44.5l-76 7q3 41 23.5 69t49.5 44.5t62.5 23.5t62.5 7q75 0 118 -24t58 -65q31 43 77.5 66t106.5 23q107 0 161.5 -65.5t54.5 -182.5l-2 -38h-372q4 -88 43.5 -135t112.5 -47q58 0 90 23t43 65h78zM381 242l-115 -4q-29 -1 -54 -6t-44 -16.5
t-29.5 -30.5t-10.5 -48t12 -46t29 -25.5t36 -11t33 -2.5q27 0 52.5 10.5t46 30.5t32.5 50.5t12 70.5v28zM755 295q-3 76 -33 119t-101 43q-69 0 -108 -42t-47 -120h289z" />
    <glyph glyph-name="uniE00A" unicode="&#xe00a;" horiz-adv-x="557" 
d="M275 564l-134 165h97l99 -165h-62zM435 0l-4 103q-29 -63 -75.5 -89t-99.5 -26q-42 0 -79 15.5t-65.5 47.5t-45 82.5t-16.5 120.5q0 71 16.5 121.5t44.5 83t65.5 47.5t79.5 15q56 0 100.5 -26t74.5 -86v101h75v-510h-71zM274 53q70 0 111 46.5t41 154.5q0 109 -41 156
t-111 47q-30 0 -56 -12t-44.5 -36.5t-29.5 -63t-11 -91.5t11 -91t29.5 -62.5t44.5 -36t56 -11.5z" />
    <glyph glyph-name="uniE00B" unicode="&#xe00b;" horiz-adv-x="557" 
d="M114 618v58h328v-58h-328zM435 0l-4 103q-29 -63 -75.5 -89t-99.5 -26q-42 0 -79 15.5t-65.5 47.5t-45 82.5t-16.5 120.5q0 71 16.5 121.5t44.5 83t65.5 47.5t79.5 15q56 0 100.5 -26t74.5 -86v101h75v-510h-71zM274 53q70 0 111 46.5t41 154.5q0 109 -41 156t-111 47
q-30 0 -56 -12t-44.5 -36.5t-29.5 -63t-11 -91.5t11 -91t29.5 -62.5t44.5 -36t56 -11.5z" />
    <glyph glyph-name="uniE00C" unicode="&#xe00c;" horiz-adv-x="557" 
d="M506 -199q-17 -7 -35.5 -10.5t-41.5 -3.5q-39 0 -68 19.5t-29 65.5q0 47 29 82t73 55l-3 94q-29 -63 -75.5 -89t-99.5 -26q-42 0 -79 15.5t-65.5 47.5t-45 82.5t-16.5 120.5q0 71 16.5 121.5t44.5 83t65.5 47.5t79.5 15q56 0 100.5 -26t74.5 -86v101h75v-515
q-17 -4 -36.5 -13t-35.5 -23.5t-26.5 -33.5t-10.5 -43q0 -27 17.5 -36t39.5 -9q13 0 26.5 2.5t25.5 7.5v-46zM274 53q70 0 111 46.5t41 154.5q0 109 -41 156t-111 47q-30 0 -56 -12t-44.5 -36.5t-29.5 -63t-11 -91.5t11 -91t29.5 -62.5t44.5 -36t56 -11.5z" />
    <glyph glyph-name="uniE00D" unicode="&#xe00d;" horiz-adv-x="781" 
d="M50 -9v678h681v-678h-681zM364 188l-2 22h4q7 -2 16 -3.5t17 -1.5q38 0 64.5 25t26.5 73q0 42 -19 69t-56 27q-17 0 -30 -7t-21 -24h-4l-5 29h-81v-253h90v44zM364 312q2 12 6.5 20t12.5 8q7 0 11.5 -11t4.5 -29q0 -49 -20 -49q-3 0 -6.5 2.5t-8.5 5.5v53zM268 402h60v61
h-217v-61h64v-182h93v182zM588 303h76v62h-76v37h82v61h-175v-243h93v83z" />
    <glyph glyph-name="uniE00E" unicode="&#xe00e;" horiz-adv-x="599" 
d="M523 414q-27 -26 -55.5 -34t-60.5 -8q-27 0 -56.5 8.5t-58 18.5t-54 18.5t-45.5 8.5q-30 0 -61 -9t-56 -39v75q25 26 54.5 34t63.5 8q28 0 57 -8.5t56.5 -19t53 -19t46.5 -8.5q30 0 60 9.5t56 39.5v-75zM523 213q-26 -26 -55 -34t-62 -8q-27 0 -56.5 8.5t-58 18.5
t-54 18.5t-45.5 8.5q-29 0 -59.5 -9t-56.5 -39v75q26 26 55.5 34t61.5 8q28 0 57 -8.5t56.5 -19t53 -19t46.5 -8.5q31 0 61.5 9.5t55.5 39.5v-75z" />
    <glyph glyph-name="uniE00F" unicode="&#xe00f;" horiz-adv-x="557" 
d="M339 665q0 26 -17.5 43.5t-43.5 17.5q-25 0 -43 -17.5t-18 -43.5t18 -42.5t43 -16.5q26 0 43.5 16.5t17.5 42.5zM280 560q-23 0 -42.5 8t-34 22.5t-23 33.5t-8.5 41t8.5 42t23 34t34 22.5t42.5 8.5q22 0 41 -8.5t33 -22.5t22.5 -34t8.5 -42t-8.5 -41t-22.5 -33.5
t-33 -22.5t-41 -8zM435 0l-4 103q-29 -63 -75.5 -89t-99.5 -26q-42 0 -79 15.5t-65.5 47.5t-45 82.5t-16.5 120.5q0 71 16.5 121.5t44.5 83t65.5 47.5t79.5 15q56 0 100.5 -26t74.5 -86v101h75v-510h-71zM274 53q70 0 111 46.5t41 154.5q0 109 -41 156t-111 47
q-30 0 -56 -12t-44.5 -36.5t-29.5 -63t-11 -91.5t11 -91t29.5 -62.5t44.5 -36t56 -11.5z" />
    <glyph glyph-name="uniE010" unicode="&#xe010;" horiz-adv-x="557" 
d="M435 0l-4 103q-29 -63 -75.5 -89t-99.5 -26q-42 0 -79 15.5t-65.5 47.5t-45 82.5t-16.5 120.5q0 71 16.5 121.5t44.5 83t65.5 47.5t79.5 15q56 0 100.5 -26t74.5 -86v101h75v-510h-71zM274 53q70 0 111 46.5t41 154.5q0 109 -41 156t-111 47q-30 0 -56 -12t-44.5 -36.5
t-29.5 -63t-11 -91.5t11 -91t29.5 -62.5t44.5 -36t56 -11.5zM317 764q29 -11 48 -37.5t19 -61.5q0 -22 -8.5 -41t-22.5 -33.5t-33 -22.5t-41 -8t-41.5 8t-34 22.5t-23 33.5t-8.5 41q0 37 21 64.5t54 37.5l75 123h95zM337 665q0 26 -16.5 43.5t-42.5 17.5t-43.5 -17.5
t-17.5 -43.5t17.5 -42.5t43.5 -16.5t42.5 16.5t16.5 42.5z" />
    <glyph glyph-name="uniE011" unicode="&#xe011;" horiz-adv-x="707" 
d="M65 356l48 49l206 -205v409h70v-407l204 204l50 -50l-289 -289z" />
    <glyph glyph-name="uniE012" unicode="&#xe012;" horiz-adv-x="539" 
d="M65 128v409h71v-288l288 288l50 -50l-289 -290h289v-69h-409z" />
    <glyph glyph-name="uniE013" unicode="&#xe013;" horiz-adv-x="539" 
d="M65 128v69h289l-289 290l50 50l288 -288v288h71v-409h-409z" />
    <glyph glyph-name="uniE014" unicode="&#xe014;" horiz-adv-x="673" 
d="M354 46l-289 288l289 290l50 -49l-204 -205h407v-71h-410l207 -204z" />
    <glyph glyph-name="uniE015" unicode="&#xe015;" horiz-adv-x="673" 
d="M319 46l-50 49l206 204h-410v71h407l-204 205l51 49l288 -290z" />
    <glyph glyph-name="uniE016" unicode="&#xe016;" horiz-adv-x="707" 
d="M593 270l-204 203v-406h-70v410l-206 -207l-48 49l289 290l289 -290z" />
    <glyph glyph-name="uniE017" unicode="&#xe017;" horiz-adv-x="539" 
d="M136 416v-288h-71v409h409v-69h-289l289 -289l-50 -51z" />
    <glyph glyph-name="uniE018" unicode="&#xe018;" horiz-adv-x="539" 
d="M403 128v288l-288 -288l-50 51l289 289h-289v69h409v-409h-71z" />
    <glyph glyph-name="uniE019" unicode="&#xe019;" horiz-adv-x="593" 
d="M520 312q-26 -26 -55 -34t-62 -8q-27 0 -56.5 8.5t-58 18.5t-54 18.5t-45.5 8.5q-29 0 -59.5 -9t-56.5 -39v76q26 26 55.5 34t61.5 8q28 0 57 -8.5t56.5 -19t53 -19t46.5 -8.5q31 0 61.5 9.5t55.5 39.5v-76z" />
    <glyph glyph-name="uniE01A" unicode="&#xe01a;" horiz-adv-x="911" 
d="M664 -33q-57 -30 -113 -41t-106 -11q-81 0 -152.5 27t-125.5 79t-85.5 128t-31.5 174q0 97 36 176t96 134.5t139 85.5t165 30q68 0 135 -21t120.5 -63.5t86.5 -106.5t33 -150q0 -47 -13.5 -98.5t-40.5 -94.5t-67 -71t-93 -28q-14 0 -30 3.5t-30 13.5t-23 26.5t-9 43.5
q-28 -55 -71.5 -81.5t-98.5 -26.5q-35 0 -65.5 15t-52 44.5t-31.5 74t-4 104.5q7 61 27 105.5t48.5 72.5t63.5 41.5t71 13.5q51 0 89.5 -27.5t57.5 -82.5l20 96h57l-45 -317q-5 -40 9.5 -53t36.5 -13q34 0 60 21.5t43 55.5t25.5 76t8.5 84q0 77 -28 132t-73.5 90.5
t-102.5 52t-114 16.5q-71 0 -138.5 -24.5t-120 -71.5t-84.5 -117t-32 -161q0 -88 28 -154.5t75 -111.5t108.5 -67.5t128.5 -22.5q57 0 111.5 11t112.5 45zM407 152q63 0 104.5 45.5t52.5 132.5q11 91 -19.5 136t-90.5 45q-27 0 -51.5 -10t-44 -32t-33.5 -56t-19 -82
q-5 -45 0.5 -79t19.5 -56t34.5 -33t46.5 -11z" />
    <glyph glyph-name="uniE01B" unicode="&#xe01b;" horiz-adv-x="557" 
d="M445 699q0 -17 -4 -35.5t-14 -33.5t-27.5 -24.5t-43.5 -9.5q-20 0 -41 7t-41 15.5t-38.5 15.5t-33.5 7q-18 0 -29 -8.5t-11 -36.5h-51q0 17 4 35t14 33t27 25t43 10q20 0 41 -7t41.5 -15.5t38.5 -15.5t33 -7q19 0 30 8.5t11 36.5h51zM435 0l-4 103q-29 -63 -75.5 -89
t-99.5 -26q-42 0 -79 15.5t-65.5 47.5t-45 82.5t-16.5 120.5q0 71 16.5 121.5t44.5 83t65.5 47.5t79.5 15q56 0 100.5 -26t74.5 -86v101h75v-510h-71zM274 53q70 0 111 46.5t41 154.5q0 109 -41 156t-111 47q-30 0 -56 -12t-44.5 -36.5t-29.5 -63t-11 -91.5t11 -91
t29.5 -62.5t44.5 -36t56 -11.5z" />
    <glyph glyph-name="uniE01C" unicode="&#xe01c;" horiz-adv-x="343" 
d="M260 -137l-253 941h76l253 -941h-76z" />
    <glyph glyph-name="uniE01D" unicode="&#xe01d;" horiz-adv-x="256" 
d="M91 -179v1023h75v-1023h-75z" />
    <glyph glyph-name="uniE01E" unicode="&#xe01e;" horiz-adv-x="381" 
d="M370 -139q-64 0 -111 8t-78 29.5t-46 58.5t-15 96v157q0 95 -81 95v55q42 0 61.5 23t19.5 71v158q0 58 15 95.5t46 59t78.5 29.5t111.5 8v-64q-47 0 -79.5 -7t-52.5 -23.5t-29 -43.5t-9 -66v-138q0 -24 -2.5 -45.5t-10 -38t-20.5 -27.5t-34 -15v-7q41 -8 54 -43t13 -84
v-137q0 -39 8.5 -65.5t28.5 -43t52.5 -23.5t79.5 -7v-65z" />
    <glyph glyph-name="uniE01F" unicode="&#xe01f;" horiz-adv-x="381" 
d="M11 -74q48 0 80 7t51.5 23.5t28 43t8.5 65.5v137q0 49 13.5 84t54.5 43v7q-21 4 -34 15t-20.5 27.5t-10.5 38t-3 45.5v138q0 39 -8.5 66t-28.5 43.5t-52 23.5t-80 7v64q64 0 111.5 -8t78.5 -29.5t46 -59t15 -95.5v-158q0 -94 81 -94v-55q-81 0 -81 -95v-157
q0 -59 -15 -96t-46 -58.5t-78 -29.5t-111 -8v65z" />
    <glyph glyph-name="uniE020" unicode="&#xe020;" horiz-adv-x="284" 
d="M43 -139v943h230v-64h-153v-812h154v-67h-231z" />
    <glyph glyph-name="uniE021" unicode="&#xe021;" horiz-adv-x="284" 
d="M10 -139v67h153v812h-152v64h229v-943h-230z" />
    <glyph glyph-name="uniE022" unicode="&#xe022;" horiz-adv-x="455" 
d="M391 850q-8 -72 -53 -107.5t-110 -35.5q-32 0 -60 9t-49.5 26.5t-35.5 44.5t-18 63h58q8 -45 35.5 -64t69.5 -19q41 0 69 18.5t35 64.5h59z" />
    <glyph glyph-name="uniE023" unicode="&#xe023;" horiz-adv-x="257" 
d="M91 418v426h75v-426h-75zM91 -179v427h75v-427h-75z" />
    <glyph glyph-name="uniE024" unicode="&#xe024;" horiz-adv-x="367" 
d="M306 331q0 -25 -9.5 -47t-26 -38.5t-39 -26t-47.5 -9.5t-47 9.5t-39 26t-27 38.5t-10 47t10 47.5t27 39.5t39 26.5t47 9.5t47.5 -9.5t39 -26.5t26 -39.5t9.5 -47.5z" />
    <glyph glyph-name="uniE025" unicode="&#xe025;" horiz-adv-x="423" 
d="M174 707l-109 143h61l84 -88l87 88h61l-109 -143h-75z" />
    <glyph glyph-name="uniE026" unicode="&#xe026;" horiz-adv-x="664" 
d="M317 0v131q-100 9 -154.5 77t-54.5 186q0 117 56 186.5t153 78.5v130h57v-129q74 -7 120.5 -46.5t60.5 -109.5l-79 -6q-23 100 -129 100q-78 0 -117 -53t-39 -150t39 -149t117 -52q56 0 87.5 25t43.5 74h78q-32 -148 -182 -163v-130h-57z" />
    <glyph glyph-name="uniE027" unicode="&#xe027;" horiz-adv-x="423" 
d="M297 707l-87 87l-84 -87h-61l109 143h75l109 -143h-61z" />
    <glyph glyph-name="uniE028" unicode="&#xe028;" horiz-adv-x="591" 
d="M459 117l-69 69q-20 -14 -44 -21.5t-50 -7.5q-27 0 -51.5 7.5t-44.5 20.5l-68 -68l-51 51l68 69q-28 42 -28 95t28 95l-69 70l50 51l71 -71q20 14 43.5 22t50.5 8q26 0 50.5 -8t44.5 -22l69 70l52 -51l-71 -71q14 -20 22 -44t8 -49q0 -27 -7.5 -51.5t-21.5 -44.5l70 -68z
M402 331q0 45 -30.5 75.5t-75.5 30.5q-23 0 -42.5 -8.5t-34 -22.5t-23 -33.5t-8.5 -41.5t8.5 -41.5t23 -34t34 -23t41.5 -8.5t42 8.5t34 23t22.5 34t8.5 41.5z" />
    <glyph glyph-name="uniE029" unicode="&#xe029;" horiz-adv-x="409" 
d="M259 727v104h86v-104h-86zM65 727v104h86v-104h-86z" />
    <glyph glyph-name="uniE02A" unicode="&#xe02a;" horiz-adv-x="599" 
d="M76 296v72h447v-72h-447zM261 458v100h77v-100h-77zM261 106v100h77v-100h-77z" />
    <glyph glyph-name="uniE02B" unicode="&#xe02b;" horiz-adv-x="664" 
d="M314 -142v143q-29 1 -68.5 9.5t-75.5 31t-62 63t-29 105.5h83q2 -41 17.5 -68t39.5 -43t55 -23t63 -7q34 0 64 6t52 20t35 35.5t13 53.5q0 35 -17 56.5t-45.5 36t-64.5 24t-73.5 19t-73 22t-64 33t-45.5 51.5t-17 78q0 43 18 75.5t47.5 54t68 33t79.5 14.5v144h61v-146
q30 -3 65 -12.5t65 -31t50.5 -57.5t23.5 -91h-81q-3 42 -19 67t-40 39t-52 18.5t-53 4.5q-28 0 -54.5 -6t-47.5 -18.5t-33.5 -33t-12.5 -49.5q0 -34 17 -55.5t45 -36t64 -24t73 -19t73 -22t64 -33t45 -51t17 -76.5q0 -76 -53 -127.5t-156 -60.5v-146h-61z" />
    <glyph glyph-name="uniE02C" unicode="&#xe02c;" horiz-adv-x="223" 
d="M65 725v108h93v-108h-93z" />
    <glyph glyph-name="uniE02D" unicode="&#xe02d;" horiz-adv-x="580" 
d="M388 352q63 -14 103 -60t40 -119q0 -39 -17 -73t-48 -58.5t-76 -39t-100 -14.5q-56 0 -100.5 14.5t-75.5 39t-48 58.5t-17 73q0 73 40.5 119t100.5 60q-65 16 -93 58t-28 95q0 37 16 68.5t45.5 54.5t70 36t89.5 13t89.5 -13t70 -36t45.5 -54.5t16 -68.5q0 -53 -29 -95
t-94 -58zM446 179q0 68 -43.5 103.5t-112.5 35.5q-70 0 -113.5 -35.5t-43.5 -103.5q0 -27 10.5 -50t31 -40.5t49.5 -27.5t66 -10t66 10t49 27.5t30.5 41t10.5 49.5zM429 501q0 51 -35 83t-104 32t-105 -32t-36 -83q0 -49 36.5 -84t104.5 -35t103.5 35t35.5 84z" />
    <glyph glyph-name="uniE02E" unicode="&#xe02e;" horiz-adv-x="595" 
d="M396 352q30 -7 56.5 -22t45.5 -38t30 -53t11 -66q0 -39 -17 -73t-48.5 -58.5t-76.5 -39t-100 -14.5t-100 14.5t-76.5 39t-48.5 58.5t-17 73q0 36 11 66t30.5 53t45.5 38t56 22q-65 16 -94 58t-29 95q0 37 16.5 68.5t45.5 54.5t70 36t90 13t90 -13t70.5 -36t45.5 -54.5
t16 -68.5q0 -53 -29 -95t-94 -58zM454 179q0 68 -43.5 103.5t-113.5 35.5q-69 0 -112.5 -35.5t-43.5 -103.5q0 -27 10.5 -50t31 -40.5t49.5 -27.5t65 -10t65.5 10t49.5 27.5t31 41t11 49.5zM437 501q0 51 -36 83t-104 32t-104 -32t-36 -83q0 -24 9.5 -46t27.5 -38t44 -25.5
t59 -9.5q68 0 104 35t36 84z" />
    <glyph glyph-name="uniE02F" unicode="&#xe02f;" horiz-adv-x="383" 
d="M251 115q38 -8 63 -34t25 -67q0 -46 -39.5 -77t-108.5 -31q-68 0 -107.5 31t-39.5 77q0 41 24.5 67t62.5 34q-41 8 -58.5 33t-17.5 55q0 42 37 70.5t99 28.5q63 0 100 -28.5t37 -70.5q0 -30 -17.5 -55t-59.5 -33zM273 16q0 38 -22 57t-60 19t-59.5 -19t-21.5 -57
q0 -30 21 -49.5t60 -19.5q40 0 61 19.5t21 49.5zM266 200q0 27 -18.5 44.5t-56.5 17.5t-55.5 -17.5t-17.5 -44.5t17.5 -45t55.5 -18t56.5 18t18.5 45z" />
    <glyph glyph-name="uniE030" unicode="&#xe030;" horiz-adv-x="383" 
d="M251 635q38 -8 63 -34t25 -67q0 -46 -39.5 -77t-108.5 -31q-68 0 -107.5 31t-39.5 77q0 41 24.5 67t62.5 34q-41 8 -58.5 33t-17.5 55q0 42 37 70.5t99 28.5q63 0 100 -28.5t37 -70.5q0 -30 -17.5 -55t-59.5 -33zM273 536q0 38 -22 57t-60 19t-59.5 -19t-21.5 -57
q0 -30 21 -49.5t60 -19.5q40 0 61 19.5t21 49.5zM266 720q0 27 -18.5 44.5t-56.5 17.5t-55.5 -17.5t-17.5 -44.5t17.5 -45t55.5 -18t56.5 18t18.5 45z" />
    <glyph glyph-name="uniE031" unicode="&#xe031;" horiz-adv-x="664" 
d="M430 352q31 -7 57 -22t45 -38t30 -53t11 -66q0 -39 -17 -73t-48 -58.5t-76 -39t-100 -14.5q-56 0 -100.5 14.5t-76 39t-48.5 58.5t-17 73q0 36 11 66t30 53t45 38t56 22q-65 16 -93.5 58t-28.5 95q0 37 16 68.5t45.5 54.5t70 36t90.5 13q49 0 89.5 -13t70 -36t45.5 -54.5
t16 -68.5q0 -53 -29 -95t-94 -58zM488 179q0 68 -43.5 103.5t-112.5 35.5q-70 0 -113.5 -35.5t-43.5 -103.5q0 -27 10.5 -50t31 -40.5t49.5 -27.5t66 -10t66 10t49 27.5t30.5 41t10.5 49.5zM471 501q0 51 -35 83t-104 32t-105 -32t-36 -83q0 -49 36.5 -84t104.5 -35
t103.5 35t35.5 84z" />
    <glyph glyph-name="uniE032" unicode="&#xe032;" horiz-adv-x="947" 
d="M86 302v61h775v-61h-775z" />
    <glyph glyph-name="uniE033" unicode="&#xe033;" horiz-adv-x="720" 
d="M86 302v61h548v-61h-548z" />
    <glyph glyph-name="uniE034" unicode="&#xe034;" horiz-adv-x="599" 
d="M76 399v69h447v-69h-447zM76 197v71h447v-71h-447z" />
    <glyph glyph-name="uniE035" unicode="&#xe035;" horiz-adv-x="254" 
d="M85 0v295l15 190h54l14 -190v-295h-83zM84 555v133h84v-133h-84z" />
    <glyph glyph-name="uniE036" unicode="&#xe036;" horiz-adv-x="553" 
d="M155 461l-19 -218q42 31 81 41.5t77 10.5q52 0 91.5 -16.5t66.5 -46t40.5 -70t13.5 -88.5t-16.5 -89t-47.5 -71t-76.5 -47t-103.5 -17q-39 0 -79.5 9.5t-74 32.5t-55 63t-22.5 101h82q0 -40 12 -67t32.5 -43.5t47.5 -23.5t57 -7q78 0 119.5 42t41.5 115q0 70 -36 115
t-109 45q-40 0 -74.5 -13t-73.5 -49l-69 3l28 356h374v-68h-308z" />
    <glyph glyph-name="uniE037" unicode="&#xe037;" horiz-adv-x="595" 
d="M184 461l-19 -218q41 31 80.5 41.5t77.5 10.5q52 0 91.5 -16.5t66.5 -46t40.5 -70t13.5 -88.5t-16.5 -89t-47.5 -71t-76.5 -47t-103.5 -17q-39 0 -80 9.5t-74 32.5t-54.5 63t-22.5 101h82q0 -40 12 -67t32.5 -43.5t47.5 -23.5t57 -7q77 0 119 42t42 115q0 70 -36 115
t-109 45q-41 0 -75 -13t-72 -49l-71 3l29 356h373v-68h-307z" />
    <glyph glyph-name="uniE038" unicode="&#xe038;" horiz-adv-x="396" 
d="M142 247l-10 -111q23 17 46.5 22.5t44.5 5.5q62 0 93.5 -36t31.5 -94q0 -27 -10 -50t-29.5 -40.5t-47 -27.5t-62.5 -10q-24 0 -49.5 5.5t-46.5 19.5t-34 38t-13 60h63q0 -43 23.5 -59t55.5 -16q42 0 63.5 22t21.5 58q0 39 -19 64t-57 25q-21 0 -40.5 -7.5t-40.5 -29.5
l-53 3l16 208h233v-50h-180z" />
    <glyph glyph-name="uniE039" unicode="&#xe039;" horiz-adv-x="396" 
d="M142 767l-10 -111q23 17 46.5 22.5t44.5 5.5q62 0 93.5 -36t31.5 -94q0 -27 -10 -50t-29.5 -40.5t-47 -27.5t-62.5 -10q-24 0 -49.5 5.5t-46.5 19.5t-34 38t-13 60h63q0 -43 23.5 -59t55.5 -16q42 0 63.5 22t21.5 58q0 39 -19 64t-57 25q-21 0 -40.5 -7.5t-40.5 -29.5
l-53 3l16 208h233v-50h-180z" />
    <glyph glyph-name="uniE03A" unicode="&#xe03a;" horiz-adv-x="664" 
d="M218 599l-19 -218q42 31 81.5 41.5t76.5 10.5q52 0 91.5 -16.5t66.5 -46t40.5 -70t13.5 -88.5t-16.5 -89t-47.5 -71t-76.5 -47t-103.5 -17q-39 0 -79.5 9.5t-74 32.5t-55 63t-22.5 101h82q0 -40 12.5 -67t32.5 -43.5t47 -23.5t57 -7q78 0 119.5 42t41.5 115q0 70 -36 115
t-108 45q-41 0 -75.5 -13t-72.5 -49l-70 3l28 356h374v-68h-308z" />
    <glyph glyph-name="uniE03B" unicode="&#xe03b;" horiz-adv-x="664" 
d="M310 380h-114v58h125l29 156q11 56 44 89.5t101 33.5q17 0 42 -2t54 -8l-10 -53h-66q-36 0 -59.5 -13.5t-31.5 -60.5l-26 -142h147l-11 -58h-147l-84 -460q-11 -62 -43.5 -96t-97.5 -34q-15 0 -38.5 1.5t-50.5 7.5l13 56h52q19 0 33.5 3.5t25 12.5t18.5 25t13 42z" />
    <glyph glyph-name="uniE03C" unicode="&#xe03c;" horiz-adv-x="583" 
d="M372 -138v155h-336v65l303 447h116v-446h103v-66h-103v-155h-83zM372 460l-259 -377h259v377z" />
    <glyph glyph-name="uniE03D" unicode="&#xe03d;" horiz-adv-x="595" 
d="M372 -138v155h-336v65l303 447h116v-446h104v-66h-104v-155h-83zM372 460l-259 -377h259v377z" />
    <glyph glyph-name="uniE03E" unicode="&#xe03e;" horiz-adv-x="367" 
d="M220 -88v81h-199v48l177 256h88v-257h61v-47h-61v-81h-66zM220 248l-144 -208h144v208z" />
    <glyph glyph-name="uniE03F" unicode="&#xe03f;" horiz-adv-x="367" 
d="M220 432v81h-199v48l177 256h88v-257h61v-47h-61v-81h-66zM220 768l-144 -208h144v208z" />
    <glyph glyph-name="uniE040" unicode="&#xe040;" horiz-adv-x="664" 
d="M407 0v151h-336v66l302 450h116v-448h105v-68h-105v-151h-82zM407 598l-260 -379h260v379z" />
    <glyph glyph-name="uniE041" unicode="&#xe041;" horiz-adv-x="312" 
d="M184 707l-119 143h96l87 -143h-64z" />
    <glyph glyph-name="uniE042" unicode="&#xe042;" horiz-adv-x="572" 
d="M77 63v76l340 193l-340 193v76l418 -232v-74z" />
    <glyph glyph-name="uniE043" unicode="&#xe043;" horiz-adv-x="570" 
d="M76 122v77l337 165l-337 163v78l418 -205v-74zM76 0v71h418v-71h-418z" />
    <glyph glyph-name="uniE044" unicode="&#xe044;" horiz-adv-x="600" 
d="M210 145l-161 186l162 189h82l-160 -189l159 -186h-82zM460 145l-161 186l162 189h81l-159 -189l158 -186h-81z" />
    <glyph glyph-name="uniE045" unicode="&#xe045;" horiz-adv-x="575" 
d="M283 145l160 186l-161 189h82l162 -189l-161 -186h-82zM58 145l159 186l-160 189h83l162 -189l-161 -186h-83z" />
    <glyph glyph-name="uniE046" unicode="&#xe046;" horiz-adv-x="351" 
d="M210 145l-161 186l162 189h82l-160 -189l159 -186h-82z" />
    <glyph glyph-name="uniE047" unicode="&#xe047;" horiz-adv-x="351" 
d="M58 145l159 186l-160 189h83l162 -189l-161 -186h-83z" />
    <glyph glyph-name="uniE048" unicode="&#xe048;" horiz-adv-x="477" 
d="M65 707l86 143h97l-120 -143h-63zM229 707l85 143h98l-120 -143h-63z" />
    <glyph glyph-name="uniE049" unicode="&#xe049;" horiz-adv-x="554" 
d="M86 302v61h382v-61h-382z" />
    <glyph glyph-name="uniE04A" unicode="&#xe04a;" horiz-adv-x="259" 
d="M89 0v510h81v-510h-81zM86 612v89h87v-89h-87z" />
    <glyph glyph-name="uniE04B" unicode="&#xe04b;" horiz-adv-x="807" 
d="M404 277q-16 -23 -36.5 -41t-42.5 -30.5t-44.5 -19t-43.5 -6.5q-26 0 -55 7t-53.5 24.5t-41 47t-16.5 75.5q0 44 16.5 73t41 46.5t53.5 24.5t55 7q21 0 43.5 -6.5t44.5 -19t42.5 -30.5t36.5 -40q32 45 77.5 70.5t89.5 25.5q25 0 54 -7t54 -24.5t41 -46.5t16 -73
q0 -46 -16 -75.5t-41 -47t-54 -24.5t-54 -7q-44 0 -89.5 25t-77.5 72zM435 334q8 -19 21 -36.5t30.5 -30.5t37.5 -20.5t43 -7.5q20 0 39 5t34 16t24.5 29.5t9.5 44.5q0 25 -9.5 42.5t-24.5 28.5t-34.5 15.5t-38.5 4.5q-45 0 -80.5 -27t-51.5 -64zM373 334q-17 37 -52 64
t-80 27q-20 0 -39.5 -4.5t-34.5 -15.5t-24.5 -28.5t-9.5 -42.5q0 -26 9.5 -44.5t24.5 -29.5t34.5 -16t39.5 -5q45 0 80 28.5t52 66.5z" />
    <glyph glyph-name="uniE04C" unicode="&#xe04c;" horiz-adv-x="572" 
d="M77 295v74l418 232v-76l-341 -193l341 -193v-77z" />
    <glyph glyph-name="uniE04D" unicode="&#xe04d;" horiz-adv-x="570" 
d="M76 326v74l418 205v-78l-337 -163l337 -165v-77zM76 0v71h418v-71h-418z" />
    <glyph glyph-name="uniE04E" unicode="&#xe04e;" horiz-adv-x="599" 
d="M454 210v175h-378v69h447v-244h-69z" />
    <glyph glyph-name="uniE04F" unicode="&#xe04f;" horiz-adv-x="618" 
d="M270 0l-189 333l189 334h77l190 -334l-190 -333h-77zM461 332l-152 266l-152 -265l152 -264z" />
    <glyph glyph-name="uniE050" unicode="&#xe050;" horiz-adv-x="458" 
d="M65 750v58h328v-58h-328z" />
    <glyph glyph-name="uniE051" unicode="&#xe051;" horiz-adv-x="598" 
d="M76 299v66h446v-66h-446z" />
    <glyph glyph-name="uniE052" unicode="&#xe052;" horiz-adv-x="621" 
d="M495 100l-184 184l-185 -186l-49 49l186 185l-186 186l49 49l185 -187l185 185l48 -48l-185 -184l184 -185z" />
    <glyph glyph-name="uniE053" unicode="&#xe053;" horiz-adv-x="595" 
d="M151 9q0 -47 34 -70.5t93 -23.5q41 0 74 15.5t55.5 49.5t35 87.5t13.5 129.5q-33 -45 -82.5 -69.5t-109.5 -24.5q-51 0 -90.5 16.5t-66.5 45.5t-41 69t-14 87q0 46 17 86t48 70t74.5 47t97.5 17q63 0 109.5 -24.5t78 -67.5t47 -102t15.5 -128q0 -96 -20 -165.5
t-55 -114.5t-83.5 -66.5t-106.5 -21.5q-43 0 -80.5 10t-65 30t-43 49.5t-15.5 68.5h81zM455 269q0 40 -10.5 77t-30.5 65.5t-50.5 46t-71.5 17.5q-75 0 -116 -42.5t-41 -109.5q0 -34 9 -63t26.5 -50t44 -32.5t61.5 -11.5q48 0 93 21.5t86 81.5z" />
    <glyph glyph-name="uniE054" unicode="&#xe054;" horiz-adv-x="595" 
d="M153 9q0 -47 33.5 -70.5t92.5 -23.5q41 0 74 15.5t56 49.5t35.5 87.5t12.5 129.5q-32 -45 -82 -69.5t-110 -24.5q-51 0 -90 16.5t-66 45.5t-41 69t-14 87q0 46 17 86t48 70t74.5 47t96.5 17q63 0 110 -24.5t78 -67.5t46.5 -102t15.5 -128q0 -96 -19.5 -165.5
t-54.5 -114.5t-83.5 -66.5t-106.5 -21.5q-44 0 -81 10t-64.5 30t-43 49.5t-15.5 68.5h81zM457 269q0 40 -10.5 77t-31 65.5t-51 46t-71.5 17.5q-75 0 -116 -42.5t-41 -109.5q0 -34 9 -63t26.5 -50t44 -32.5t61.5 -11.5q48 0 93.5 21.5t86.5 81.5z" />
    <glyph glyph-name="uniE055" unicode="&#xe055;" horiz-adv-x="390" 
d="M125 3q0 -26 16.5 -38t45.5 -12q47 0 72 34t26 114q-39 -56 -110 -56q-60 0 -92 36t-32 93q0 26 10 49.5t29 41t46 27.5t60 10q39 0 67.5 -14t47.5 -38.5t28.5 -59t9.5 -75.5q0 -54 -12 -93.5t-33.5 -65t-51 -38t-65.5 -12.5q-54 0 -90 24.5t-36 72.5h64zM286 148
q0 42 -22 74t-67 32q-40 0 -61 -22t-21 -57q0 -38 17.5 -62t55.5 -24q26 0 50.5 12.5t47.5 46.5z" />
    <glyph glyph-name="uniE056" unicode="&#xe056;" horiz-adv-x="390" 
d="M125 523q0 -26 16.5 -38t45.5 -12q47 0 72 34t26 114q-39 -56 -110 -56q-60 0 -92 36t-32 93q0 26 10 49.5t29 41t46 27.5t60 10q39 0 67.5 -14t47.5 -38.5t28.5 -59t9.5 -75.5q0 -54 -12 -93.5t-33.5 -65t-51 -38t-65.5 -12.5q-54 0 -90 24.5t-36 72.5h64zM286 668
q0 42 -22 74t-67 32q-40 0 -61 -22t-21 -57q0 -38 17.5 -62t55.5 -24q26 0 50.5 12.5t47.5 46.5z" />
    <glyph glyph-name="uniE057" unicode="&#xe057;" horiz-adv-x="664" 
d="M188 145q0 -47 33.5 -70.5t91.5 -23.5q42 0 75 15.5t56 49.5t35.5 88t13.5 130q-34 -45 -83.5 -70t-109.5 -25q-51 0 -90.5 16.5t-66 46t-40.5 69t-14 86.5q0 46 17 86t47.5 70t74.5 47t98 17q62 0 109 -24t78.5 -67t47 -102t15.5 -129q0 -95 -20 -164.5t-55 -114.5
t-84 -66.5t-107 -21.5q-44 0 -81 10t-64 30t-42.5 49t-15.5 68h81zM492 406q-1 40 -11.5 77t-31 65.5t-51 46t-71.5 17.5q-75 0 -115 -43t-40 -110q0 -34 8.5 -63t25.5 -50t43.5 -32.5t61.5 -11.5q48 0 94 21.5t87 82.5z" />
    <glyph glyph-name="uniE058" unicode="&#xe058;" horiz-adv-x="610" 
d="M262 203l-117 -203h-65l118 203h-117v71h157l75 131h-232v68h272l112 194h63l-112 -194h114v-68h-153l-74 -131h227v-71h-268z" />
    <glyph glyph-name="uniE059" unicode="&#xe059;" horiz-adv-x="758" 
d="M426 0l23 196h-167l-24 -196h-64l24 196h-147v61h155l19 159h-136v61h145l24 190h64l-25 -190h169l24 190h63l-24 -190h138v-61h-145l-21 -159h128v-61h-135l-24 -196h-64zM477 416h-167l-20 -159h168z" />
    <glyph glyph-name="uniE05A" unicode="&#xe05a;" horiz-adv-x="1095" 
d="M724 193v44h316v-44h-316zM882 286q-36 0 -65 12t-49.5 33.5t-32 50.5t-11.5 64q0 33 11.5 63t32 52t49.5 35t65 13t65.5 -12.5t50 -34.5t32 -52t11.5 -64q0 -33 -11.5 -62t-32 -51t-50 -34.5t-65.5 -12.5zM882 336q44 0 68.5 31t24.5 79t-24.5 80t-68.5 32t-68.5 -32
t-24.5 -80t25 -79t68 -31zM524 0l-355 541v-541h-83v667h92l361 -553v553h83v-667h-98z" />
    <glyph glyph-name="uniE05B" unicode="&#xe05b;" horiz-adv-x="519" 
d="M46 0v70h177v379l-177 -89v77l178 92h82v-459h175v-70h-435z" />
    <glyph glyph-name="uniE05C" unicode="&#xe05c;" horiz-adv-x="595" 
d="M80 0v70h176v379l-176 -89v77l177 92h82v-459h175v-70h-434z" />
    <glyph glyph-name="uniE05D" unicode="&#xe05d;" horiz-adv-x="331" 
d="M184 -88v326l-112 -52v58l112 53h66v-385h-66z" />
    <glyph glyph-name="uniE05E" unicode="&#xe05e;" horiz-adv-x="331" 
d="M184 432v326l-112 -52v58l112 53h66v-385h-66z" />
    <glyph glyph-name="uniE05F" unicode="&#xe05f;" horiz-adv-x="664" 
d="M378 0v586l-176 -89v78l177 92h82v-667h-83z" />
    <glyph glyph-name="uniE060" unicode="&#xe060;" horiz-adv-x="261" 
d="M180 -139q-67 99 -104.5 220.5t-37.5 250.5q0 133 38.5 252.5t108.5 219.5h66q-27 -43 -50.5 -95.5t-41.5 -112.5t-28.5 -126.5t-10.5 -137.5q0 -69 10 -135t27 -126.5t40 -113.5t49 -96h-66z" />
    <glyph glyph-name="uniE061" unicode="&#xe061;" horiz-adv-x="261" 
d="M14 -139q26 43 49 96t40 113.5t27 126.5t10 135q0 71 -10 137.5t-28 126.5t-41.5 112.5t-50.5 95.5h66q70 -100 108 -219.5t38 -252.5q0 -129 -37.5 -250.5t-104.5 -220.5h-66z" />
    <glyph glyph-name="uniE062" unicode="&#xe062;" horiz-adv-x="279" 
d="M59 251v162h160v-162h-160z" />
    <glyph glyph-name="uniE063" unicode="&#xe063;" horiz-adv-x="599" 
d="M334 298v-188h-69v188h-189v67h189v190h69v-190h189v-67h-189z" />
    <glyph glyph-name="uniE064" unicode="&#xe064;" horiz-adv-x="599" 
d="M265 111v193h-189v67h189v193h69v-193h189v-67h-189v-193h-69zM76 0v67h447v-67h-447z" />
    <glyph glyph-name="uniE065" unicode="&#xe065;" horiz-adv-x="474" 
d="M457 165q-4 -55 -27.5 -88t-55.5 -51t-66.5 -23.5t-58.5 -5.5q-41 0 -77.5 9t-64.5 29t-44 51.5t-16 76.5q0 41 14.5 70t36.5 51.5t48 42t48 41.5t36.5 50.5t14.5 69.5h76q0 -45 -14.5 -78t-36.5 -58.5t-47 -46.5t-47 -41.5t-36.5 -43.5t-14.5 -52q0 -30 10.5 -49.5
t28 -31.5t40 -17t45.5 -5q17 0 39 2.5t41.5 12.5t34 30t17.5 55h76zM240 555v133h86v-133h-86z" />
    <glyph glyph-name="uniE066" unicode="&#xe066;" horiz-adv-x="519" 
d="M65 136v393h388v-393h-388z" />
    <glyph glyph-name="uniE067" unicode="&#xe067;" horiz-adv-x="342" 
d="M231 743q0 26 -17.5 44t-43.5 18q-25 0 -42.5 -18.5t-17.5 -43.5t17.5 -42.5t42.5 -17.5q26 0 43.5 17.5t17.5 42.5zM278 743q0 -22 -8.5 -41t-23 -33.5t-33.5 -22.5t-41 -8q-23 0 -42.5 8t-33.5 22.5t-22.5 33.5t-8.5 41t8.5 42t22.5 34t33.5 22.5t42.5 8.5
q22 0 41 -8.5t33.5 -22.5t23 -34t8.5 -42z" />
    <glyph glyph-name="uniE068" unicode="&#xe068;" horiz-adv-x="489" 
d="M81 -138q49 150 123.5 298.5t170.5 299.5h-371v69h463v-62q-100 -146 -175 -298.5t-124 -306.5h-87z" />
    <glyph glyph-name="uniE069" unicode="&#xe069;" horiz-adv-x="595" 
d="M142 -138q50 150 124 298.5t171 299.5h-371v69h463v-62q-100 -146 -175 -298.5t-124 -306.5h-88z" />
    <glyph glyph-name="uniE06A" unicode="&#xe06a;" horiz-adv-x="383" 
d="M87 -88q28 85 71 167t97 167h-205v51h278v-43q-56 -80 -101 -167.5t-72 -174.5h-68z" />
    <glyph glyph-name="uniE06B" unicode="&#xe06b;" horiz-adv-x="383" 
d="M87 432q28 85 71 167t97 167h-205v51h278v-43q-56 -80 -101 -167.5t-72 -174.5h-68z" />
    <glyph glyph-name="uniE06C" unicode="&#xe06c;" horiz-adv-x="664" 
d="M178 0q49 150 123 298.5t171 299.5h-372v69h463v-62q-99 -146 -174 -298.5t-124 -306.5h-87z" />
    <glyph glyph-name="uniE06D" unicode="&#xe06d;" horiz-adv-x="595" 
d="M443 521q0 46 -33 69.5t-89 23.5q-43 0 -76.5 -15.5t-56.5 -49.5t-35.5 -88t-13.5 -130q33 45 82.5 70t109.5 25q51 0 90.5 -17t66.5 -46.5t41 -69.5t14 -87q0 -45 -17 -85t-47.5 -69.5t-74.5 -46.5t-98 -17q-63 0 -109.5 24t-78 67t-47 102t-15.5 129q0 96 20 165.5
t55 114t84 66t108 21.5q42 0 78.5 -10t63.5 -30t42.5 -49t15.5 -67h-80zM139 259q0 -40 10.5 -77t31 -65.5t51.5 -46t73 -17.5q37 0 65.5 11.5t48.5 31.5t30.5 47.5t10.5 60.5q0 69 -34.5 114t-105.5 45q-49 0 -94 -21.5t-87 -82.5z" />
    <glyph glyph-name="uniE06E" unicode="&#xe06e;" horiz-adv-x="595" 
d="M441 521q0 46 -33 69.5t-89 23.5q-42 0 -75.5 -15.5t-57 -49.5t-36.5 -88t-14 -130q34 45 83.5 70t109.5 25q51 0 90.5 -17t66 -46.5t40.5 -69.5t14 -87q0 -45 -17 -85t-47.5 -69.5t-74 -46.5t-96.5 -17q-63 0 -110 24t-78.5 67t-47 102t-15.5 129q0 96 20 165.5
t55.5 114t84.5 66t108 21.5q42 0 78.5 -10t63 -30t42 -49t15.5 -67h-80zM137 259q1 -40 11.5 -77t31 -65.5t51 -46t71.5 -17.5q37 0 66 11.5t49 31.5t30 47.5t10 60.5q0 69 -34 114t-105 45q-48 0 -93.5 -21.5t-87.5 -82.5z" />
    <glyph glyph-name="uniE06F" unicode="&#xe06f;" horiz-adv-x="390" 
d="M264 208q0 23 -16.5 35t-44.5 12q-47 0 -72 -34t-27 -115q40 57 111 57q60 0 92 -36.5t32 -93.5q0 -26 -10 -49t-29 -40.5t-46 -27.5t-60 -10q-39 0 -67.5 14t-47.5 38.5t-28.5 59t-9.5 75.5q0 108 45 158.5t117 50.5q53 0 89.5 -24t36.5 -70h-65zM104 59q0 -42 22 -73.5
t67 -31.5q39 0 60 22t21 57q0 38 -17.5 61.5t-55.5 23.5q-26 0 -50.5 -12.5t-46.5 -46.5z" />
    <glyph glyph-name="uniE070" unicode="&#xe070;" horiz-adv-x="390" 
d="M264 728q0 23 -16.5 35t-44.5 12q-47 0 -72 -34t-27 -115q40 57 111 57q60 0 92 -36.5t32 -93.5q0 -26 -10 -49t-29 -40.5t-46 -27.5t-60 -10q-39 0 -67.5 14t-47.5 38.5t-28.5 59t-9.5 75.5q0 108 45 158.5t117 50.5q53 0 89.5 -24t36.5 -70h-65zM104 579
q0 -42 22 -73.5t67 -31.5q39 0 60 22t21 57q0 38 -17.5 61.5t-55.5 23.5q-26 0 -50.5 -12.5t-46.5 -46.5z" />
    <glyph glyph-name="uniE071" unicode="&#xe071;" horiz-adv-x="664" 
d="M475 521q0 46 -32.5 69.5t-88.5 23.5q-43 0 -76.5 -15.5t-56.5 -49.5t-35.5 -88t-13.5 -130q32 45 82 70t110 25q51 0 90.5 -17t66.5 -46.5t41 -69.5t14 -87q0 -45 -17 -85t-48 -69.5t-74.5 -46.5t-97.5 -17q-63 0 -109.5 24t-78 67t-47 102t-15.5 129q0 96 20 165.5
t55 114t84 66t108 21.5q42 0 78.5 -10t63.5 -30t42.5 -49t15.5 -67h-81zM172 259q0 -40 10.5 -77t31 -65.5t51.5 -46t73 -17.5q37 0 65.5 11.5t48.5 31.5t30.5 47.5t10.5 60.5q0 69 -34.5 114t-106.5 45q-48 0 -93 -21.5t-87 -82.5z" />
    <glyph glyph-name="uniE072" unicode="&#xe072;" horiz-adv-x="343" 
d="M7 -138l253 941h76l-253 -941h-76z" />
    <glyph glyph-name="uniE073" unicode="&#xe073;" horiz-adv-x="548" 
d="M273 221l-137 -101l52 162l-138 100h171l52 163l54 -163h171l-139 -100l53 -162z" />
    <glyph glyph-name="uniE074" unicode="&#xe074;" horiz-adv-x="664" 
d="M108 0v72q58 49 79.5 92.5t21.5 84.5q0 22 -6 46h-95v60h77q-11 30 -19.5 63t-8.5 71q0 39 11.5 74.5t37 61.5t65 41.5t95.5 15.5q23 0 55 -5t61.5 -22t50 -49t20.5 -85h-78q0 27 -9.5 45t-25 28.5t-35.5 14.5t-41 4q-34 0 -57 -9t-37.5 -25.5t-21 -38.5t-6.5 -49
q0 -39 8.5 -72.5t18.5 -63.5h241v-60h-222q6 -24 6 -47q0 -36 -20.5 -80.5t-75.5 -99.5h357v-68h-447z" />
    <glyph glyph-name="uniE075" unicode="&#xe075;" horiz-adv-x="557" 
d="M181 179v62h59q80 0 125.5 30t45.5 97q0 53 -36 80.5t-102 27.5q-26 0 -51.5 -5.5t-46 -21t-34 -43t-13.5 -72.5h-82q1 62 24 102t57.5 63.5t73.5 32.5t72 9q48 0 88.5 -11.5t70 -33t45.5 -52.5t16 -70q0 -66 -33.5 -105t-98.5 -52q30 -4 57.5 -16t48.5 -33t33.5 -51
t12.5 -70q0 -43 -17 -79t-48 -62t-75 -40.5t-98 -14.5q-40 0 -81.5 9.5t-75.5 32.5t-56 63t-23 102h82q0 -41 12.5 -68t33.5 -43t48.5 -23t59.5 -7q72 0 112.5 33.5t40.5 98.5q0 37 -14 62t-38.5 40t-59 21.5t-75.5 6.5h-60z" />
    <glyph glyph-name="uniE076" unicode="&#xe076;" horiz-adv-x="595" 
d="M202 179v62h60q80 0 125.5 30t45.5 97q0 53 -36 80.5t-102 27.5q-26 0 -51.5 -5.5t-46.5 -21t-34 -43t-14 -72.5h-82q1 62 24.5 102t58 63.5t73.5 32.5t72 9q48 0 88.5 -11.5t69.5 -33t45 -52.5t16 -70q0 -66 -33.5 -105t-98.5 -52q30 -4 57.5 -16t48.5 -33t33.5 -51
t12.5 -70q0 -43 -17 -79t-47.5 -62t-74.5 -40.5t-98 -14.5q-40 0 -82 9.5t-76 32.5t-56 63t-23 102h83q0 -41 12 -68t33 -43t49 -23t60 -7q72 0 112.5 33.5t40.5 98.5q0 37 -14 62t-39 40t-59.5 21.5t-74.5 6.5h-61z" />
    <glyph glyph-name="uniE077" unicode="&#xe077;" horiz-adv-x="409" 
d="M148 90v43h42q42 0 66.5 16t24.5 51q0 26 -19.5 40.5t-54.5 14.5q-14 0 -27.5 -3t-24.5 -11t-17.5 -22.5t-6.5 -38.5h-65q0 37 14.5 60.5t36 37t46 19t44.5 5.5q61 0 99 -26t38 -71q0 -75 -73 -90q34 -4 59 -27.5t25 -69.5q0 -50 -39.5 -81t-106.5 -31q-25 0 -51 5.5
t-47.5 19.5t-35 38t-13.5 60h65q0 -22 6.5 -36.5t17.5 -23t26 -12t32 -3.5q38 0 60 17t22 51q0 38 -28 53t-73 15h-42z" />
    <glyph glyph-name="uniE078" unicode="&#xe078;" horiz-adv-x="409" 
d="M148 610v43h42q42 0 66.5 16t24.5 51q0 26 -19.5 40.5t-54.5 14.5q-14 0 -27.5 -3t-24.5 -11t-17.5 -22.5t-6.5 -38.5h-65q0 37 14.5 60.5t36 37t46 19t44.5 5.5q61 0 99 -26t38 -71q0 -75 -73 -90q34 -4 59 -27.5t25 -69.5q0 -50 -39.5 -81t-106.5 -31q-25 0 -51 5.5
t-47.5 19.5t-35 38t-13.5 60h65q0 -22 6.5 -36.5t17.5 -23t26 -12t32 -3.5q38 0 60 17t22 51q0 38 -28 53t-73 15h-42z" />
    <glyph glyph-name="uniE079" unicode="&#xe079;" horiz-adv-x="664" 
d="M237 315v63h60q79 0 125 29.5t46 96.5q0 53 -36 80.5t-102 27.5q-26 0 -52 -5.5t-46.5 -20.5t-33.5 -42.5t-13 -72.5h-83q1 62 24.5 102t57.5 63t73.5 32t71.5 9q48 0 88.5 -11.5t70 -33t45.5 -52.5t16 -70q0 -65 -33.5 -104t-98.5 -53q30 -3 57.5 -15t48.5 -33t33.5 -51
t12.5 -70q0 -43 -17 -79t-48 -62t-75 -40.5t-98 -14.5q-40 0 -81.5 9t-75.5 32.5t-56 63t-23 101.5h83q0 -40 12.5 -67t33 -43t48 -23t59.5 -7q72 0 113 33t41 99q0 36 -14 61t-39 40t-59.5 21.5t-74.5 6.5h-61z" />
    <glyph glyph-name="uniE07A" unicode="&#xe07a;" horiz-adv-x="465" 
d="M400 831q0 -17 -4 -35.5t-14.5 -33.5t-27.5 -24.5t-43 -9.5q-21 0 -42 7t-41 15.5t-38 15.5t-33 7q-19 0 -30 -8.5t-11 -36.5h-51q0 17 4 35t14 33t27 25t43 10q21 0 42 -7t41 -15.5t38 -15.5t33 -7q19 0 30.5 8.5t11.5 36.5h51z" />
    <glyph glyph-name="uniE07B" unicode="&#xe07b;" horiz-adv-x="588" 
d="M44 0v59q80 39 148.5 71t119 64.5t79.5 69t29 85.5q0 55 -33 91t-109 36q-26 0 -52 -5.5t-47.5 -21t-35.5 -43t-14 -72.5h-83q1 63 24.5 103t58.5 63t75 32t74 9q56 0 98 -15t69.5 -41t41.5 -61t14 -75q0 -52 -26 -92.5t-68.5 -73.5t-97 -60.5t-110.5 -53.5h353v-69h-508
z" />
    <glyph glyph-name="uniE07C" unicode="&#xe07c;" horiz-adv-x="595" 
d="M44 0v59q79 39 148 71t119.5 64.5t79.5 69t29 85.5q0 55 -33.5 91t-109.5 36q-26 0 -52 -5.5t-47 -21t-35 -43t-14 -72.5h-83q1 63 24.5 103t58 63t75 32t74.5 9q55 0 97 -15t70 -41t42 -61t14 -75q0 -52 -26.5 -92.5t-69 -73.5t-97 -60.5t-110.5 -53.5h353v-69h-507z
" />
    <glyph glyph-name="uniE07D" unicode="&#xe07d;" horiz-adv-x="395" 
d="M62 -88v38q36 30 74 57.5t69.5 55t52 57t20.5 64.5q0 31 -16 50.5t-54 19.5q-14 0 -28 -2.5t-25.5 -11t-19 -23t-7.5 -38.5h-65q0 37 15 61t36.5 37.5t47 19t46.5 5.5q69 0 103 -34t34 -84q0 -35 -18.5 -66.5t-46 -59t-59 -51t-56.5 -44.5h184v-51h-287z" />
    <glyph glyph-name="uniE07E" unicode="&#xe07e;" horiz-adv-x="395" 
d="M62 432v38q36 30 74 57.5t69.5 55t52 57t20.5 64.5q0 31 -16 50.5t-54 19.5q-14 0 -28 -2.5t-25.5 -11t-19 -23t-7.5 -38.5h-65q0 37 15 61t36.5 37.5t47 19t46.5 5.5q69 0 103 -34t34 -84q0 -35 -18.5 -66.5t-46 -59t-59 -51t-56.5 -44.5h184v-51h-287z" />
    <glyph glyph-name="uniE07F" unicode="&#xe07f;" horiz-adv-x="664" 
d="M98 0v54q60 54 126.5 103.5t122 99t91.5 102.5t36 114q0 65 -33.5 102t-107.5 37q-26 0 -52.5 -5.5t-48 -21.5t-35 -45.5t-14.5 -78.5h-83q1 66 24.5 108t58.5 66t75.5 33t74.5 9q56 0 97.5 -15.5t69.5 -42.5t41.5 -64.5t13.5 -81.5t-16 -83.5t-43 -75.5t-61 -69
t-70.5 -63.5t-71.5 -58t-63 -52.5h335v-71h-467z" />
    <glyph glyph-name="uniE080" unicode="&#xe080;" horiz-adv-x="664" 
d="M374 114v-114h-83v114h-195v55h195v100h-195v55h162l-213 343h90l199 -333l199 333h87l-213 -343h163v-55h-196v-100h196v-55h-196z" />
    <glyph glyph-name="uniE081" unicode="&#xe081;" horiz-adv-x="595" 
d="M297 -12q-57 0 -102.5 19.5t-78 55.5t-49.5 87t-17 114t17 114t49.5 87t78 56t102.5 20t103 -20t78.5 -56t50 -87t17.5 -114t-17.5 -114t-50 -87t-78.5 -55.5t-103 -19.5zM297 60q40 0 70.5 14.5t51.5 41.5t31.5 64.5t10.5 83.5t-10.5 84t-31.5 65t-51.5 42t-70.5 15
q-79 0 -120.5 -56.5t-41.5 -149.5q0 -46 10.5 -83.5t31 -64.5t51 -41.5t69.5 -14.5z" />
    <glyph glyph-name="uniE082" unicode="&#xe082;" horiz-adv-x="595" 
d="M259 227v75h76v-75h-76zM297 -12q-57 0 -102.5 19.5t-78 55.5t-49.5 87t-17 114t17 114t49.5 87t78 56t102.5 20t103 -20t78.5 -56t50 -87t17.5 -114t-17.5 -114t-50 -87t-78.5 -55.5t-103 -19.5zM297 60q40 0 70.5 14.5t51.5 41.5t31.5 64.5t10.5 83.5t-10.5 84
t-31.5 65t-51.5 42t-70.5 15q-79 0 -120.5 -56.5t-41.5 -149.5q0 -46 10.5 -83.5t31 -64.5t51 -41.5t69.5 -14.5z" />
    <glyph glyph-name="uniE083" unicode="&#xe083;" horiz-adv-x="595" 
d="M259 227v75h76v-75h-76zM297 -12q-57 0 -102.5 19.5t-78 55.5t-49.5 87t-17 114t17 114t49.5 87t78 56t102.5 20t103 -20t78.5 -56t50 -87t17.5 -114t-17.5 -114t-50 -87t-78.5 -55.5t-103 -19.5zM297 60q40 0 70.5 14.5t51.5 41.5t31.5 64.5t10.5 83.5t-10.5 84
t-31.5 65t-51.5 42t-70.5 15q-79 0 -120.5 -56.5t-41.5 -149.5q0 -46 10.5 -83.5t31 -64.5t51 -41.5t69.5 -14.5z" />
    <glyph glyph-name="uniE084" unicode="&#xe084;" horiz-adv-x="595" 
d="M297 -12q-57 0 -102.5 19.5t-78 55.5t-49.5 87t-17 114t17 114t49.5 87t78 56t102.5 20t103 -20t78.5 -56t50 -87t17.5 -114t-17.5 -114t-50 -87t-78.5 -55.5t-103 -19.5zM297 60q40 0 70.5 14.5t51.5 41.5t31.5 64.5t10.5 83.5t-10.5 84t-31.5 65t-51.5 42t-70.5 15
q-79 0 -120.5 -56.5t-41.5 -149.5q0 -46 10.5 -83.5t31 -64.5t51 -41.5t69.5 -14.5z" />
    <glyph glyph-name="uniE085" unicode="&#xe085;" horiz-adv-x="413" 
d="M206 -93q-77 0 -121 52t-44 146t44 146t121 52q78 0 122 -52t44 -146t-44 -146t-122 -52zM206 -43q49 0 75 38t26 110t-26 110.5t-75 38.5t-74.5 -38.5t-25.5 -110.5t25.5 -110t74.5 -38z" />
    <glyph glyph-name="uniE086" unicode="&#xe086;" horiz-adv-x="664" 
d="M291 292v82h82v-82h-82zM333 -12q-63 0 -114 23.5t-87 68t-55 108.5t-19 145q0 80 19 144t55 108.5t87 68t114 23.5t113.5 -23.5t86 -68t55 -108.5t19.5 -144q0 -81 -19.5 -145t-55 -108.5t-86 -68t-113.5 -23.5zM333 60q93 0 141 71.5t48 201.5q0 129 -48 201t-141 72
t-141 -72t-48 -201q0 -130 48 -201.5t141 -71.5z" />
    <glyph glyph-name="uniE087" unicode="&#xe087;" horiz-adv-x="664" 
d="M291 292v82h82v-82h-82zM333 -12q-63 0 -114 23.5t-87 68t-55 108.5t-19 145q0 80 19 144t55 108.5t87 68t114 23.5t113.5 -23.5t86 -68t55 -108.5t19.5 -144q0 -81 -19.5 -145t-55 -108.5t-86 -68t-113.5 -23.5zM333 60q93 0 141 71.5t48 201.5q0 129 -48 201t-141 72
t-141 -72t-48 -201q0 -130 48 -201.5t141 -71.5z" />
    <glyph glyph-name="uniE088" unicode="&#xe088;" horiz-adv-x="413" 
d="M206 426q-77 0 -121 52t-44 146t44 146t121 52q78 0 122 -52t44 -146t-44 -146t-122 -52zM206 476q49 0 75 38t26 110t-26 110.5t-75 38.5t-74.5 -38.5t-25.5 -110.5t25.5 -110t74.5 -38z" />
    <glyph glyph-name="uniE089" unicode="&#xe089;" horiz-adv-x="664" 
d="M333 -12q-63 0 -114 23.5t-87 68t-55 108.5t-19 145q0 80 19 144t55 108.5t87 68t114 23.5t113.5 -23.5t86 -68t55 -108.5t19.5 -144q0 -81 -19.5 -145t-55 -108.5t-86 -68t-113.5 -23.5zM333 60q93 0 141 71.5t48 201.5q0 129 -48 201t-141 72t-141 -72t-48 -201
q0 -130 48 -201.5t141 -71.5z" />
    </font>
</defs>
</svg>
